<?xml version="1.0" encoding="UTF-8" standalone="no"?>
<svg
   xmlns:dc="http://purl.org/dc/elements/1.1/"
   xmlns:cc="http://creativecommons.org/ns#"
   xmlns:rdf="http://www.w3.org/1999/02/22-rdf-syntax-ns#"
   xmlns:svg="http://www.w3.org/2000/svg"
   xmlns="http://www.w3.org/2000/svg"
   xmlns:sodipodi="http://sodipodi.sourceforge.net/DTD/sodipodi-0.dtd"
   xmlns:inkscape="http://www.inkscape.org/namespaces/inkscape"
   sodipodi:docname="drawing.svg"
   inkscape:version="1.0 (4035a4fb49, 2020-05-01)"
   id="svg8"
   version="1.1"
   viewBox="0 0 317.01654 70.682205"
   height="70.682205mm"
   width="317.01654mm">
  <defs
     id="defs2" />
  <sodipodi:namedview
     inkscape:window-maximized="1"
     inkscape:window-y="416"
     inkscape:window-x="1072"
     inkscape:window-height="1017"
     inkscape:window-width="1920"
     fit-margin-bottom="0"
     fit-margin-right="0"
     fit-margin-left="0"
     fit-margin-top="0"
     showgrid="false"
     inkscape:document-rotation="0"
     inkscape:current-layer="layer1"
     inkscape:document-units="mm"
     inkscape:cy="92.905881"
     inkscape:cx="156.40604"
     inkscape:zoom="0.49497475"
     inkscape:pageshadow="2"
     inkscape:pageopacity="0.0"
     borderopacity="1.0"
     bordercolor="#666666"
     pagecolor="#ffffff"
     id="base" />
  <metadata
     id="metadata5">
    <rdf:RDF>
      <cc:Work
         rdf:about="">
        <dc:format>image/svg+xml</dc:format>
        <dc:type
           rdf:resource="http://purl.org/dc/dcmitype/StillImage" />
        <dc:title></dc:title>
      </cc:Work>
    </rdf:RDF>
  </metadata>
  <g
     transform="translate(64.180222,-63.892668)"
     id="layer1"
     inkscape:groupmode="layer"
     inkscape:label="Layer 1">
    <path
       id="path853"
       d="m 48.270633,134.14487 c -0.546196,-0.65812 -0.01961,-2.54426 1.118079,-4.00485 0.360433,-0.46273 0.655335,-0.98647 0.655335,-1.16387 0,-0.43987 5.646035,-8.04332 8.072546,-10.87119 2.729653,-3.18116 3.634345,-4.2096 4.451064,-5.05988 0.388056,-0.40401 0.943681,-1.07938 1.234722,-1.50084 0.291042,-0.42147 1.203855,-1.65094 2.028473,-2.73217 2.213775,-2.90268 1.998567,-3.35918 -1.191842,-2.52819 -5.653585,1.47257 -8.950519,-0.36196 -8.950519,-4.98038 0,-1.23193 0.167298,-1.636336 0.866429,-2.094426 1.201554,-0.78729 1.603015,-0.39182 1.603015,1.579076 0,3.28229 1.904524,4.3137 6.234638,3.37643 1.518659,-0.32873 3.31682,-0.71579 3.995917,-0.86013 2.487341,-0.52871 3.783306,-1.38294 6.26091,-4.126836 1.388441,-1.53768 3.156373,-3.13309 3.928734,-3.54535 l 1.404288,-0.74957 0.367062,1.05295 c 0.230145,0.66019 0.243621,1.20805 0.03614,1.46877 -1.739702,2.18602 -2.773024,3.192766 -4.354417,4.242436 -1.918039,1.27312 -4.425329,3.69694 -6.130078,5.92599 -1.297644,1.69674 -4.126876,5.00231 -6.080093,7.10376 -0.862866,0.92835 -2.212241,2.53491 -2.998611,3.57013 -0.78637,1.03522 -2.655013,3.39354 -4.15254,5.24072 -1.497528,1.84717 -3.07261,3.97146 -3.500184,4.72064 -0.427573,0.74918 -1.020822,1.64875 -1.318327,1.99904 -0.297508,0.35029 -0.958236,1.45275 -1.468289,2.44991 -1.038648,2.03056 -1.432059,2.30765 -2.112447,1.48783 z m 69.683137,-17.10809 c -8.15478,-1.33428 -10.15375,-2.25987 -14.39453,-6.6651 -2.93142,-3.04511 -4.479084,-6.32291 -4.479084,-9.48626 0,-0.40177 -0.161339,-0.8302 -0.358532,-0.952066 -0.197192,-0.12188 -0.272877,-0.36018 -0.168186,-0.52958 0.10469,-0.16939 0.359858,-1.22495 0.567037,-2.34568 1.814695,-9.81663 15.912295,-20.20295 31.307655,-23.06573 2.25841,-0.41995 4.45668,-0.92904 4.88509,-1.1313 0.80998,-0.38244 4.76733,1.19374 6.18448,2.46322 1.38391,1.23973 -0.28191,5.32305 -2.68821,6.58945 -1.76956,0.9313 -1.85219,0.60786 -0.40573,-1.58847 3.06896,-4.65997 -0.004,-6.39429 -8.27916,-4.67531 -14.94892,3.10465 -27.02166,11.4942 -28.85754,20.05362 -0.68519,3.19454 -0.68722,3.69085 -0.0282,6.903656 1.22217,5.95862 3.74907,8.68767 10.71773,11.57515 6.96401,2.88555 22.32586,1.91721 30.42708,-1.91798 4.26537,-2.01925 4.78843,-2.00184 2.53365,0.0844 -2.48316,2.29752 -5.4931,3.22413 -14.61628,4.4996 -5.9393,0.83035 -8.21193,0.86503 -12.34723,0.18842 z m 97.45373,-2.19502 c -0.65218,-0.49844 -1.41157,-5.15192 -1.38071,-8.46068 0.0233,-2.49302 -0.69141,-3.20679 -2.86314,-2.85952 -1.29565,0.20718 -1.3667,0.17182 -1.25416,-0.62418 0.10372,-0.73366 0.33436,-0.8577 1.76685,-0.95019 2.45378,-0.15842 2.3936,0.10547 2.641,-11.576466 0.23971,-11.31746 0.36424,-12.24442 1.62102,-12.06592 0.76792,0.10907 0.78965,0.21941 0.6829,3.46405 -0.68664,20.863386 -0.76253,20.515316 4.45686,20.437806 7.07644,-0.1051 5.80834,1.65583 -1.52436,2.11677 l -3.175,0.19958 0.12037,3.52778 c 0.0662,1.94028 0.2419,4.097 0.39042,4.79271 0.3901,1.82689 -0.36834,2.84948 -1.48205,1.99826 z m 13.46665,-0.70555 c -1.06207,-1.68326 -0.58543,-9.18659 0.83079,-13.07795 0.73756,-2.026676 1.65164,-0.17772 1.27685,2.58281 -0.17124,1.26118 -0.28688,4.21179 -0.25697,6.55692 0.0685,5.37085 -0.36487,6.29302 -1.85067,3.93822 z m 15.51623,0.78922 c -3.81078,-0.64461 -7.7269,-4.77056 -7.7269,-8.1409 0,-0.19682 -0.35097,-0.96769 -0.77995,-1.71305 -0.85711,-1.48927 -0.52843,-2.48875 0.81841,-2.48875 0.42651,0 0.85185,-0.46495 1.21024,-1.32291 2.24183,-5.366766 9.61848,-7.096336 11.6949,-2.742056 1.31166,2.750556 -1.75518,5.648906 -8.00471,7.564946 -6.09854,1.86974 -0.28561,7.42813 7.90766,7.56138 3.35925,0.0546 4.27376,0.55293 2.28628,1.24577 -1.2555,0.43767 -4.92464,0.45529 -7.40593,0.0356 z m -0.67134,-11.65395 c 3.67478,-1.87042 4.77368,-3.323396 3.48682,-4.610246 -1.79567,-1.79569 -5.56493,-0.17091 -7.05132,3.039556 -1.50022,3.2403 -0.54377,3.66176 3.5645,1.57069 z m -93.76523,10.22942 c -0.53043,-0.99378 -0.6659,-1.61163 -0.44467,-2.02847 0.17494,-0.32968 0.49099,-2.18692 0.70238,-4.1272 0.21135,-1.94027 0.60519,-4.79777 0.8752,-6.35 0.26999,-1.552216 0.98119,-5.759086 1.58041,-9.348606 2.17982,-13.05736 2.55203,-14.72497 3.55519,-15.92892 l 0.68993,-0.82802 0.0116,1.88598 c 0.006,1.03729 -0.2074,2.70417 -0.47523,3.70417 -0.26786,1 -0.83664,4.19943 -1.264,7.10985 -0.42732,2.91042 -1.08243,6.79979 -1.45574,8.64305 -0.37334,1.84327 -0.83802,4.938886 -1.03265,6.879166 -0.19466,1.94028 -0.44591,4.02554 -0.55837,4.63391 -0.36446,1.97132 0.4221,1.58722 3.38239,-1.65177 6.23835,-6.825586 7.13278,-6.862026 8.13291,-0.33127 0.73321,4.7877 1.25938,5.83312 3.19867,6.35532 1.65798,0.44645 1.75789,0.88274 0.27023,1.18027 -3.12226,0.62445 -4.7171,-0.56244 -5.08635,-3.78528 -0.78126,-6.81866 -2.49195,-6.24857 -9.10925,3.03563 -1.99507,2.7991 -1.98812,2.79688 -2.97276,0.95219 z m 22.51393,0.30854 c -0.76115,-1.02952 -0.79474,-1.24654 -0.41339,-2.67231 0.22825,-0.85348 0.51612,-2.97604 0.6397,-4.7168 0.26243,-3.69743 1.45714,-5.0736 2.3362,-2.69107 0.36004,0.97589 1.1273,0.72277 1.74677,-0.57626 0.84258,-1.76692 2.61455,-3.639696 3.62684,-3.833216 0.79806,-0.15256 3.44862,2.277326 2.94453,2.699376 -0.39846,0.3336 -2.42841,0.48872 -2.60731,0.19924 -0.11599,-0.18767 -0.32688,-0.34122 -0.46863,-0.34122 -0.3078,0 -2.68742,4.38801 -3.06098,5.64444 -0.47209,1.58792 -3.3153,7.40834 -3.6189,7.40834 -0.16302,0 -0.66918,-0.50424 -1.12483,-1.12052 z m 14.8917,0.41975 c -0.49523,-0.793 -0.60046,-5.15418 -0.13134,-5.44411 0.16845,-0.10411 0.41624,-1.01813 0.55062,-2.03116 0.26363,-1.9874 1.14797,-3.81841 1.84418,-3.81841 0.76538,0 0.81999,0.56213 0.29517,3.03937 -0.283,1.33578 -0.51732,3.48992 -0.52067,4.78697 -0.01,3.64802 -0.93825,5.22823 -2.03796,3.46734 z m 10.06842,-0.0232 c -2.34876,-1.24024 -2.64333,-2.78557 -0.86043,-4.51363 1.00415,-0.97324 1.2421,-1.06663 1.60465,-0.62978 0.24691,0.29751 0.28822,0.59787 0.0984,0.71521 -2.48362,1.53495 1.45828,3.55772 4.18515,2.1476 3.92521,-2.02981 2.38806,-4.72367 -3.32973,-5.8354 -5.11669,-0.99485 -5.68988,-4.14631 -1.09153,-6.00161 0.58208,-0.234846 1.56161,-0.644246 2.17671,-0.909776 4.08097,-1.76169 6.00883,0.80271 2.32763,3.096196 -1.3063,0.81389 -1.85851,0.63716 -1.85851,-0.59481 0,-1.09822 -0.5177,-1.08816 -1.99517,0.0388 -2.00653,1.53045 -1.08228,2.32847 3.69856,3.1934 3.28485,0.59429 5.40551,3.06705 4.4075,5.13928 -1.19324,2.47751 -3.6545,4.26147 -5.84017,4.23305 -0.53022,-0.007 -1.05551,0.13552 -1.16734,0.31648 -0.29742,0.48123 -0.88191,0.38323 -2.35567,-0.39498 z m -241.575477,-1.73708 c -0.291042,-0.16659 -1.057402,-0.49911 -1.70302,-0.73893 -3.683699,-1.36831 -3.363454,-5.37614 0.644687,-8.06817 2.876832,-1.9322 3.04812,-0.45692 0.273187,2.35292 -4.484436,4.54084 6.019828,6.04226 18.034282,2.57772 0.65876,-0.18996 2.570367,-0.58227 4.248019,-0.87178 3.33569,-0.57564 5.296355,-1.26797 6.003318,-2.11981 0.478695,-0.57678 -1.122881,-6.012996 -2.322318,-7.882626 -0.742435,-1.15728 -3.139532,-8.57047 -3.845479,-11.89243 -0.329865,-1.55222 -0.802216,-3.77472 -1.049679,-4.93889 -1.070332,-5.03533 -1.90753,-8.53563 -2.262572,-9.45977 -0.209847,-0.54621 -0.381537,-1.63967 -0.381537,-2.42991 v -1.4368 l -2.578946,0.23369 c -15.786488,1.43054 -34.801696,2.19808 -35.062628,1.41529 -0.41729,-1.25187 3.517879,-1.83429 12.594353,-1.86399 8.210885,-0.0269 15.51862,-0.34675 21.872222,-0.9574 3.00743,-0.28904 7.531805,-0.67442 10.054166,-0.85639 2.522361,-0.18197 5.617986,-0.40487 6.879166,-0.49533 1.261181,-0.0905 4.3568057,-0.26533 6.8791667,-0.38858 2.522361,-0.12325 4.8242359,-0.31293 5.11527758,-0.4215 0.89986553,-0.33569 6.43264502,-0.45695 8.26172362,-0.18106 2.6909531,0.40588 3.9392861,3.25981 1.4258678,3.25981 -0.445142,0 -0.8692056,-0.17957 -0.9423611,-0.39903 -0.2885934,-0.86578 -10.5255374,-1.12551 -18.6230076,-0.47249 -0.679097,0.0548 -3.536597,0.26988 -6.35,0.47802 -6.236536,0.46141 -8.113889,0.70663 -8.113889,1.05984 0,0.14869 0.393894,1.23973 0.875323,2.42453 1.051204,2.58703 2.38548,7.56072 3.19296,11.90218 1.600941,8.60754 3.585355,14.5982 6.840033,20.649076 1.946088,3.61804 -0.573074,5.71809 -8.438871,7.03489 -12.419982,2.07922 -20.583517,3.02265 -21.519444,2.48692 z m 44.44999858,-2.34783 c -3.31713758,-0.52257 -4.59287018,-1.5246 -5.10604188,-4.01056 -0.1401868,-0.67909 -0.4774247,-1.58632 -0.7494199,-2.01606 -0.6741548,-1.06512 -0.6228362,-1.42345 0.2432226,-1.69832 0.4057685,-0.12879 0.9511171,-0.7448 1.2118904,-1.36891 0.795782,-1.904576 4.75201529,-5.147256 6.2799134,-5.147256 0.2769165,0 0.7011141,-0.23813 0.9426575,-0.52917 1.0125075,-1.22 3.3762384,-0.10819 3.7252521,1.75222 0.4507688,2.4028 -3.1509863,6.226806 -6.62011116,7.028616 -2.59710754,0.60026 -2.82600744,0.8078 -2.20833234,2.00225 1.00029074,1.93435 5.7691617,2.6301 8.9334972,1.30335 3.5044875,-1.46937 7.9077075,-2.16855 8.0842865,-1.2837 0.300553,1.50609 -11.018117,4.55337 -14.73681442,3.96754 z m 2.29305552,-9.62117 c 1.7897333,-0.775306 2.5007745,-2.856056 0.9759879,-2.856056 -1.6067863,0 -5.38571,2.881896 -5.38571,4.107266 0,0.79065 1.55987038,0.71694 2.64583323,-0.12502 0.58208327,-0.4513 1.37583327,-0.95808 1.76388887,-1.12619 z m 29.2256019,8.15701 c -1.448209,-1.40544 -2.124491,-3.07035 -2.485573,-6.11912 -0.283753,-2.39585 -0.943952,-2.592206 -2.550213,-0.75849 -6.025596,6.87886 -6.916532,7.60314 -7.949106,6.46216 -1.737677,-1.92011 -0.09089,-9.656776 1.73325,-8.14287 0.341574,0.28348 0.546873,1.0336 0.546873,1.99816 0,2.15301 0.427852,2.00005 3.704166,-1.32422 1.552222,-1.574946 3.353897,-3.271546 4.003725,-3.770216 l 1.181498,-0.90668 0.653944,0.8623 c 0.359668,0.47426 0.752186,1.73542 0.872257,2.80257 0.731485,6.501086 1.275024,7.555046 3.924515,7.609966 l 1.748565,0.0362 0.436283,-2.29989 c 0.725879,-3.82649 2.437219,-6.121976 3.065283,-4.1116 0.09093,0.29105 0.253665,0.80366 0.361647,1.13915 0.156679,0.48679 0.664111,0.13057 2.512634,-1.76389 3.409093,-3.493806 4.077745,-3.310136 5.971964,1.64038 l 1.096204,2.86492 1.698663,0.17639 c 2.781286,0.28881 2.299699,2.04235 -0.652286,2.37508 -2.028751,0.22867 -3.617764,-1.17344 -4.681107,-4.13049 -0.753212,-2.09461 -6.844276,2.29396 -6.84772,4.93374 -0.0011,0.70441 -1.524003,1.0624 -2.141692,0.5034 -0.723435,-0.6547 -2.322075,-0.26985 -3.18171,0.76595 -0.675107,0.81345 -1.573463,0.56287 -3.022064,-0.84294 z M 192.10688,93.786404 c -0.82145,-1.3906 0.27679,-2.54552 1.69753,-1.78516 1.11485,0.59664 1.08437,1.04004 -0.13762,2.00235 l -0.97709,0.76947 z m 39.85291,0.80004 c -0.69289,-0.69288 -0.22528,-2.58704 0.6386,-2.58704 1.32719,0 2.33909,1.66408 1.42043,2.33582 -0.71022,0.51934 -1.67341,0.63685 -2.05903,0.25122 z"
       style="fill:#000000;stroke-width:0.352778" />
  </g>
</svg>
