<?xml version="1.0" encoding="UTF-8" standalone="no"?>
<svg
   xmlns:dc="http://purl.org/dc/elements/1.1/"
   xmlns:cc="http://creativecommons.org/ns#"
   xmlns:rdf="http://www.w3.org/1999/02/22-rdf-syntax-ns#"
   xmlns:svg="http://www.w3.org/2000/svg"
   xmlns="http://www.w3.org/2000/svg"
   xmlns:sodipodi="http://sodipodi.sourceforge.net/DTD/sodipodi-0.dtd"
   xmlns:inkscape="http://www.inkscape.org/namespaces/inkscape"
   width="210mm"
   height="297mm"
   viewBox="0 0 210 297"
   version="1.1"
   id="svg1955"
   inkscape:version="1.0.2-2 (e86c870879, 2021-01-15)"
   sodipodi:docname="internet logo orange.svg"
   inkscape:export-filename="C:\Users\jenny\Documents\GitHub\Jenny-Christie-website\Resource material\internet logo orange.png"
   inkscape:export-xdpi="8469.7822"
   inkscape:export-ydpi="8469.7822">
  <defs
     id="defs1949" />
  <sodipodi:namedview
     id="base"
     pagecolor="#ffffff"
     bordercolor="#666666"
     borderopacity="1.0"
     inkscape:pageopacity="0.0"
     inkscape:pageshadow="2"
     inkscape:zoom="1.4"
     inkscape:cx="410.95604"
     inkscape:cy="559.53917"
     inkscape:document-units="mm"
     inkscape:current-layer="layer1"
     inkscape:document-rotation="0"
     showgrid="false"
     inkscape:window-width="1624"
     inkscape:window-height="1020"
     inkscape:window-x="228"
     inkscape:window-y="0"
     inkscape:window-maximized="0" />
  <metadata
     id="metadata1952">
    <rdf:RDF>
      <cc:Work
         rdf:about="">
        <dc:format>image/svg+xml</dc:format>
        <dc:type
           rdf:resource="http://purl.org/dc/dcmitype/StillImage" />
        <dc:title />
      </cc:Work>
    </rdf:RDF>
  </metadata>
  <g
     inkscape:label="Layer 1"
     inkscape:groupmode="layer"
     id="layer1">
    <path
       d="m 90.259341,153.91329 a 1.4947783,1.4947782 0 1 0 -2.11392,2.11391 1.4947783,1.4947782 0 1 0 2.11392,-2.11391 z m -2.3382,1.05696 a 1.2787695,1.2787695 0 0 1 0.0447,-0.33573 c 0.049,0.10544 0.12012,0.19652 0.1685,0.3047 0.0625,0.13906 0.23042,0.10049 0.30456,0.22234 0.0658,0.10817 -0.004,0.24497 0.0448,0.35815 0.0358,0.0822 0.12012,0.1001 0.17831,0.16015 0.0595,0.0606 0.0582,0.14361 0.0673,0.22262 a 2.0377031,2.037703 0 0 0 0.0497,0.2754 c 0,7.1e-4 0,0.001 5.1e-4,0.002 -0.49935,-0.17537 -0.85837,-0.65136 -0.85837,-1.2097 z m 1.28124,1.28123 a 1.2887125,1.2887124 0 0 1 -0.21354,-0.0179 c 7.1e-4,-0.0181 0.001,-0.035 0.003,-0.0467 0.0162,-0.1061 0.0693,-0.20987 0.141,-0.28928 0.0708,-0.0783 0.16783,-0.13133 0.22762,-0.22021 0.0586,-0.0868 0.0761,-0.20353 0.052,-0.3049 -0.0356,-0.14974 -0.23903,-0.19973 -0.34874,-0.28094 -0.0631,-0.0467 -0.11918,-0.11891 -0.20199,-0.12478 -0.0382,-0.003 -0.0701,0.006 -0.10797,-0.004 -0.0347,-0.009 -0.0619,-0.0277 -0.0989,-0.0228 -0.0691,0.009 -0.11264,0.0829 -0.18684,0.0729 -0.0704,-0.009 -0.14294,-0.0918 -0.15896,-0.15889 -0.0206,-0.0862 0.0477,-0.11418 0.12072,-0.12185 0.0305,-0.003 0.0647,-0.007 0.094,0.005 0.0386,0.0143 0.0568,0.0521 0.0914,0.0711 0.0649,0.0356 0.0781,-0.0213 0.0681,-0.0789 -0.0149,-0.0863 -0.0322,-0.12152 0.0448,-0.18097 0.0534,-0.041 0.099,-0.0706 0.0905,-0.14421 -0.005,-0.0432 -0.0288,-0.0628 -0.007,-0.10584 0.0168,-0.0328 0.0627,-0.0623 0.0927,-0.0819 0.0773,-0.0504 0.33132,-0.0467 0.22756,-0.18792 -0.0305,-0.0414 -0.0867,-0.11551 -0.14014,-0.12565 -0.0667,-0.0126 -0.0964,0.0619 -0.14287,0.0947 -0.048,0.034 -0.1416,0.0725 -0.18972,0.02 -0.0647,-0.0707 0.0429,-0.0938 0.0667,-0.14321 0.011,-0.023 0,-0.055 -0.0185,-0.0851 q 0.0361,-0.0152 0.0734,-0.0282 a 0.10410063,0.10410063 0 0 0 0.0534,0.02 c 0.0446,0.003 0.0867,-0.0212 0.12572,0.009 0.0432,0.0334 0.0744,0.0755 0.1318,0.0859 0.0555,0.0101 0.11431,-0.0223 0.12805,-0.0791 0.008,-0.0346 0,-0.0711 -0.008,-0.10677 a 1.2734309,1.2734309 0 0 1 0.70068,0.21494 c -0.0133,-0.005 -0.0293,-0.004 -0.049,0.005 -0.0405,0.0188 -0.0979,0.0667 -0.10263,0.11424 -0.005,0.0539 0.0741,0.0615 0.11191,0.0615 0.0567,0 0.11417,-0.0254 0.0959,-0.0909 -0.008,-0.0284 -0.0187,-0.058 -0.0362,-0.0759 a 1.2897134,1.2897134 0 0 1 0.12012,0.0944 c -6.1e-4,6e-4 -10e-4,0.001 -0.002,0.002 -0.0384,0.04 -0.0831,0.0717 -0.10937,0.12045 -0.0185,0.0343 -0.0394,0.0506 -0.077,0.0595 -0.0207,0.005 -0.0443,0.007 -0.0617,0.0205 -0.0483,0.038 -0.0208,0.12946 0.025,0.15689 0.0579,0.0346 0.14367,0.0183 0.18731,-0.0311 0.0341,-0.0387 0.0542,-0.1059 0.11552,-0.10583 a 0.102766,0.102766 0 0 1 0.0722,0.0294 c 0.0254,0.0263 0.0204,0.0508 0.0258,0.0837 0.01,0.0583 0.061,0.0267 0.0923,-0.003 a 1.2820393,1.2820392 0 0 1 0.0617,0.12526 c -0.0344,0.0496 -0.0618,0.10363 -0.14461,0.0458 -0.0496,-0.0346 -0.0801,-0.0849 -0.14234,-0.1005 -0.0544,-0.0133 -0.11011,5.1e-4 -0.16382,0.01 -0.0611,0.0106 -0.13347,0.0153 -0.17978,0.0615 -0.0448,0.0446 -0.0685,0.10424 -0.11611,0.14902 -0.0922,0.0867 -0.13106,0.18144 -0.0714,0.30409 0.0574,0.11791 0.17744,0.18191 0.30696,0.1735 0.12726,-0.008 0.25945,-0.0823 0.25578,0.10263 -0.001,0.0655 0.0123,0.11078 0.0324,0.17157 0.0186,0.056 0.0173,0.11037 0.0216,0.16823 a 1.0543526,1.0543525 0 0 0 0.0316,0.20066 1.2795703,1.2795702 0 0 1 -1.01051,0.49468 z"
       id="path1864"
       style="display:inline;fill:#ffa500;fill-opacity:1;stroke-width:0.00667308"
       inkscape:transform-center-x="-4.9444863"
       inkscape:transform-center-y="6.1471991" />
  </g>
</svg>
