<?xml version="1.0" encoding="UTF-8" standalone="no"?>
<svg
   xmlns:dc="http://purl.org/dc/elements/1.1/"
   xmlns:cc="http://creativecommons.org/ns#"
   xmlns:rdf="http://www.w3.org/1999/02/22-rdf-syntax-ns#"
   xmlns:svg="http://www.w3.org/2000/svg"
   xmlns="http://www.w3.org/2000/svg"
   xmlns:sodipodi="http://sodipodi.sourceforge.net/DTD/sodipodi-0.dtd"
   xmlns:inkscape="http://www.inkscape.org/namespaces/inkscape"
   version="1.1"
   id="svg833"
   width="1688"
   height="1600"
   viewBox="0 0 1688 1600"
   sodipodi:docname="JC logo July 21-final.svg"
   inkscape:version="1.0.2-2 (e86c870879, 2021-01-15)">
  <metadata
     id="metadata839">
    <rdf:RDF>
      <cc:Work
         rdf:about="">
        <dc:format>image/svg+xml</dc:format>
        <dc:type
           rdf:resource="http://purl.org/dc/dcmitype/StillImage" />
        <dc:title />
      </cc:Work>
    </rdf:RDF>
  </metadata>
  <defs
     id="defs837" />
  <sodipodi:namedview
     pagecolor="#ffffff"
     bordercolor="#666666"
     borderopacity="1"
     objecttolerance="10"
     gridtolerance="10"
     guidetolerance="10"
     inkscape:pageopacity="0"
     inkscape:pageshadow="2"
     inkscape:window-width="1756"
     inkscape:window-height="1020"
     id="namedview835"
     showgrid="false"
     inkscape:snap-object-midpoints="true"
     inkscape:zoom="0.70710678"
     inkscape:cx="990.55188"
     inkscape:cy="963.0536"
     inkscape:window-x="0"
     inkscape:window-y="2"
     inkscape:window-maximized="0"
     inkscape:current-layer="g841"
     inkscape:document-rotation="0" />
  <g
     inkscape:groupmode="layer"
     inkscape:label="egg-graphic1"
     id="g841"
     style="display:inline">
    <flowRoot
       xml:space="preserve"
       id="flowRoot4461"
       style="font-style:normal;font-weight:normal;font-size:40px;line-height:1.25;font-family:sans-serif;letter-spacing:0px;word-spacing:0px;display:inline;fill:#000000;fill-opacity:1;stroke:none"
       transform="matrix(1.0666667,0,0,1.0666667,2329.8173,1121.3379)"><flowRegion
         id="flowRegion4463"><rect
           id="rect4465"
           width="165.66502"
           height="48.487324"
           x="141.42136"
           y="2399.3525" /></flowRegion><flowPara
         id="flowPara4467" /></flowRoot>
    <text
       xml:space="preserve"
       style="font-style:normal;font-weight:normal;font-size:40px;line-height:1.25;font-family:sans-serif;letter-spacing:0px;word-spacing:0px;display:inline;fill:#000000;fill-opacity:1;stroke:none;stroke-width:1"
       x="2948.0308"
       y="3423.7158"
       id="text4473" />
    <text
       xml:space="preserve"
       style="font-style:normal;font-weight:normal;font-size:40px;line-height:1.25;font-family:sans-serif;letter-spacing:0px;word-spacing:0px;display:inline;fill:#000000;fill-opacity:1;stroke:none;stroke-width:1"
       x="1052.9845"
       y="1714.5376"
       id="text4656" />
    <text
       id="text4423"
       y="1573.067"
       x="1802.934"
       style="font-style:normal;font-weight:normal;font-size:40px;line-height:1.25;font-family:sans-serif;letter-spacing:0px;word-spacing:0px;display:inline;fill:#000000;fill-opacity:1;stroke:none;stroke-width:1"
       xml:space="preserve"><tspan
         style="font-size:192px;stroke-width:1"
         y="1573.067"
         x="1802.934"
         id="tspan4421"
         sodipodi:role="line"> </tspan></text>
    <text
       xml:space="preserve"
       style="font-style:normal;font-weight:normal;font-size:40px;line-height:1.25;font-family:sans-serif;letter-spacing:0px;word-spacing:0px;display:inline;fill:#000000;fill-opacity:1;stroke:none;stroke-width:1"
       x="604.47675"
       y="2183.2485"
       id="text124" />
    <text
       xml:space="preserve"
       style="font-style:normal;font-weight:normal;font-size:40px;line-height:1.25;font-family:sans-serif;letter-spacing:0px;word-spacing:0px;display:inline;fill:#000000;fill-opacity:1;stroke:none;stroke-width:1"
       x="1324.1029"
       y="1658.1433"
       id="text78" />
    <text
       xml:space="preserve"
       style="font-style:normal;font-weight:normal;font-size:40px;line-height:1.25;font-family:sans-serif;letter-spacing:0px;word-spacing:0px;fill:#000000;fill-opacity:1;stroke:none;stroke-width:1"
       x="1489.8173"
       y="1681.0005"
       id="text82" />
    <path
       style="fill:#ffffff;stroke-width:1.33417"
       id="path942"
       d="m 450.20184,930.0437 c 0.30859,1.35513 0.6736,2.69272 1.10885,4.01256 0.41466,1.30386 0.94181,2.56483 1.50031,3.81216 0.63335,1.37032 1.20576,2.7639 1.67199,4.19983 0.42198,1.23151 0.53856,2.52447 0.64324,3.8124 0.10956,1.06754 0.0991,2.13348 -0.02,3.19801 -0.12423,1.06682 -0.37505,2.10173 -0.71697,3.11777 -0.47476,1.35063 -0.7772,2.75134 -1.03854,4.15613 -0.17915,1.37925 -0.56368,2.70393 -1.08341,3.98949 -0.5054,1.17518 -1.06724,2.32555 -1.62959,3.47433 -0.45109,0.89928 -0.8797,1.81063 -1.36732,2.69093 -0.50006,0.8568 -1.04403,1.68598 -1.52087,2.55641 -0.49284,0.89426 -0.87236,1.84408 -1.27431,2.78094 -0.36317,0.70653 -0.60762,1.48056 -1.03775,2.15145 -0.17966,0.22177 -0.0528,0.37952 -0.0416,0.62305 0,0 3.90023,-1.79664 3.90023,-1.79664 v 0 c 0.21904,-0.29369 0.50744,-0.53081 0.67586,-0.85878 0.32354,-0.70684 0.59272,-1.43762 0.91753,-2.14407 0.41284,-0.93075 0.81826,-1.86663 1.32534,-2.75136 0.49091,-0.85968 1.02647,-1.69218 1.50702,-2.55769 0.47153,-0.89201 0.90817,-1.8024 1.34815,-2.71026 0.53242,-1.15554 1.07075,-2.30904 1.56148,-3.48308 0.48305,-1.31112 0.8054,-2.66344 1.00211,-4.04749 0.26319,-1.38096 0.56783,-2.75468 1.02664,-4.08613 0.31228,-1.03694 0.54261,-2.09181 0.60229,-3.17668 0.0708,-1.07363 -0.0133,-2.14056 -0.16508,-3.2052 -0.18134,-1.29021 -0.39973,-2.5742 -0.90332,-3.78599 -0.5407,-1.41569 -1.16482,-2.79424 -1.79582,-4.17168 -0.56093,-1.22487 -1.14479,-2.44148 -1.59491,-3.71321 -0.44637,-1.29107 -0.91453,-2.58578 -1.1483,-3.93596 0,0 -3.45323,1.84876 -3.45323,1.84876 z" />
    <path
       style="fill:#ffffff;stroke-width:1.33417"
       id="path944"
       d="m 211.6608,1008.6608 c 0.16859,-0.2613 0.3213,-0.5335 0.50576,-0.7838 0.22882,-0.3104 0.46392,-0.6188 0.73215,-0.896 0.27315,-0.2822 1.23717,-0.9531 0.88639,-0.7764 -0.86523,0.4359 -1.80583,0.8402 -2.44976,1.564 -0.2079,0.2337 0.64355,0.015 0.92656,0.1482 0.39236,0.1847 0.69491,0.5189 1.04237,0.7784 0.37132,0.475 0.66084,1.0273 1.11396,1.425 2.18831,1.9209 5.49401,3.4791 8.03452,4.9258 0,0 3.52387,-2.2967 3.52387,-2.2967 v 0 c -2.24967,-1.2191 -3.41398,-1.8006 -5.58583,-3.1794 -0.80166,-0.5089 -1.646,-0.971 -2.35507,-1.6026 -0.47665,-0.4245 -0.77147,-1.0171 -1.1572,-1.5257 -0.43607,-0.3469 -1.55302,-1.5161 -2.37359,-1.1936 -3.00243,1.1799 -4.84404,2.4776 -6.40925,5.0238 0,0 3.56512,-1.611 3.56512,-1.611 z" />
    <circle
       id="path946"
       style="fill:#000000;stroke:#000000"
       cx="231.22392"
       cy="1016.8196"
       r="0.47122976" />
    <circle
       id="path962"
       style="fill:#000000;stroke:#000000"
       cx="241.14536"
       cy="625.17065"
       r="0.031415317" />
    <circle
       id="path966"
       style="fill:#000000;stroke:#000000"
       cx="211.46196"
       cy="638.51385"
       r="0.47122976" />
    <circle
       id="path988"
       style="fill:#000000;stroke:#000000"
       cx="462.10147"
       cy="932.61206"
       r="0.31415316" />
    <path
       style="fill:#000000;stroke-width:1.33417"
       id="path992"
       d="m 295.78801,798.48219 c -0.45257,0.86361 -0.18101,0.41023 -0.8439,1.34222 0,0 0.75609,0.41079 0.75609,0.41079 v 0 c 1.01173,-0.73992 0.51681,-0.43224 1.46675,-0.95141 0,0 -1.37894,-0.8016 -1.37894,-0.8016 z" />
    <path
       style="fill:#000000;stroke-width:0.176512"
       d="m 630.54448,1138.6747 c -68.08294,-0.6527 -125.89601,-39.4363 -149.5938,-95.9908 -25.02202,-67.85947 11.7215,-131.63477 66.76096,-167.86487 34.80262,-20.2791 74.97698,-27.3514 99.11161,-28.0253 21.88968,-0.7899 50.89867,0.7715 68.71689,7.2444 15.60278,6.5205 26.51051,16.9346 33.3305,26.3678 3.25099,5.0156 7.22199,13.9198 7.20643,20.9217 -0.21299,9.4981 -6.85205,27.294 -17.77378,37.8593 -10.65579,6.9581 -8.72749,0.4784 -11.06099,-0.8146 -0.87393,-3.8026 -0.4107,-7.6302 2.35627,-10.2972 7.94128,-7.7818 12.29299,-16.2159 10.76215,-27.5775 -0.17702,-14.6943 -19.31297,-32.2214 -44.71963,-35.8523 -86.98466,-7.8277 -137.61859,15.5946 -179.64315,66.0429 -39.28166,48.1086 -24.04023,118.15767 22.70927,153.14957 34.02107,24.7019 59.70896,34.9939 102.16675,36.4968 29.23905,0.6657 52.80428,-2.0664 72.64039,-12.0637 2.26726,-0.9895 7.41895,-3.3588 10.10596,-4.9509 2.39703,-1.2862 4.69931,0.4978 6.72392,-0.861 1.71409,-1.1792 5.87888,-0.9009 6.72602,0.4494 -1.2906,7.3908 -8.51205,10.6688 -14.58277,13.587 -4.32835,2.7279 -9.65243,6.0593 -18.17607,10.1423 -28.55177,10.946 -38.75571,12.8504 -73.76693,12.037 z"
       id="path913"
       sodipodi:nodetypes="cccccccccccccccccccccc" />
    <path
       style="fill:#000000;stroke-width:0.32"
       d="m 697.44609,966.07203 c -18.00526,-3.9144 -36.14972,-10.8234 -49.7994,-20.3851 -10.0282,-7.1315 -18.24979,-14.9027 -22.7662,-22.625 -4.5323,-7.7495 -4.7402,-13.1454 -4.8608,-17.45 0.016,-18.0477 19.2068,-31.4636 47.7114,-34.003 10.3326,-0.6654 10.8153,-1.7205 8.4878,3.6765 0.74783,5.6484 -3.07136,5.535 -9.2034,6.6599 -14.1205,2.6185 -28.5897,10.8333 -32.371,18.3785 -5.0412,10.059 9.9857,30.7833 27.7174,39.5328 3.78695,1.8629 16.39774,7.3584 23.87923,9.2934 28.68685,7.5912 53.17089,10.8475 80.48497,4.4844 8.09183,-1.0972 15.51004,-4.8688 20.3936,-8.592 5.563,-4.2743 6.3583,-11.4956 2.4674,-22.4029 -2.1604,-6.0564 -7.1847,-16.3538 -11.1966,-22.9476 -15.33603,-25.0975 -33.6351,-50.3936 -51.8182,-71.5377 -8.10292,-9.7648 -33.33738,-42.7512 -40.59787,-52.0884 -14.36636,-14.3827 -3.86819,-16.6686 -25.95962,-17.4539 -54.74021,2.2926 -75.56803,8.7571 -106.51185,9.0993 -6.88152,0.6611 -24.4665,1.0757 -27.57865,0.762 -6.70023,-0.6755 -14.27431,-9.1638 -12.45689,-13.9605 1.21263,-3.2005 1.84342,-3.3483 14.79644,-3.4678 15.87434,-0.1698 29.73595,-1.8684 43.37843,-3.0941 28.72225,-2.1501 54.0349,-4.8614 80.52381,-6.1836 59.6397,-2.1602 139.0596,6.2499 220.45614,-0.8195 12.3449,-0.8473 4.87504,12.3463 -0.16956,13.2728 -31.58251,5.2439 -67.54513,7.9441 -116.98658,5.9188 -26.95289,-0.092 -71.29588,-11.9224 -56.02835,10.7903 25.0375,29.0266 45.68306,56.2 67.26745,85.5709 11.28742,14.835 21.69924,30.5184 30.0931,46.3463 21.44248,30.5552 12.55622,51.0997 -5.0832,59.0622 -11.07264,5.4303 -18.21481,7.4158 -31.709,8.6578 -26.24654,3.3159 -39.30644,0.8549 -62.56,-4.4948 z"
       id="path897-8"
       sodipodi:nodetypes="ccsccccsccccscccccsscccccccccccc" />
    <a
       id="a943">
      <g
         id="g917"
         transform="translate(-63.63961,-414.36457)">
        <g
           aria-label="enny"
           id="text933-3"
           style="font-style:normal;font-weight:normal;font-size:128px;line-height:1.25;font-family:sans-serif;letter-spacing:0.01px;display:inline;fill:#000000;fill-opacity:1;stroke:none">
          <path
             d="m 938.625,1351.0313 q -0.75,3.4375 -1.5,8.75 -6,1.5 -10.4375,2 -4.375,0.5625 -8.75,0.5625 -7.8125,0 -14.0625,-1.875 -6.1875,-1.875 -10.625,-6.5 -4.4375,-4.6875 -6.375,-10.6875 -1.9375,-6 -1.9375,-12.6875 0,-9.3125 3.5625,-17.25 3.5625,-8 10.6875,-12.5625 7.1875,-4.5625 18.1875,-4.5625 5.6875,0 10.875,1.6875 5.1875,1.625 8.625,5 3.4375,3.375 5.3125,8.375 1.875,4.9375 1.875,10.8125 0,2.25 -0.375,4.375 H 896 q -0.25,3.4375 -0.25,5.25 0,6.5625 2.75,12.125 2.75,5.5 8.125,8.375 5.375,2.8125 12.375,2.8125 8.0625,0 19.625,-4 z m -42.125,-29.75 h 37.25 q -0.0625,-3.9375 -0.5,-6.125 -0.4375,-2.1875 -1.625,-4.5 -1.1875,-2.375 -3.25,-4.0625 -2,-1.75 -4.875,-2.625 -2.8125,-0.9375 -6.125,-0.9375 -3.5625,0 -6.8125,1 -3.1875,1 -5.6875,2.75 -2.4375,1.75 -4.1875,4.125 -1.6875,2.3125 -2.5625,4.5 -0.8125,2.1875 -1.625,5.875 z"
             style="font-style:normal;font-variant:normal;font-weight:normal;font-stretch:normal;font-size:128px;font-family:'Eras Medium ITC';-inkscape-font-specification:'Eras Medium ITC';letter-spacing:10.5px"
             id="path919" />
          <path
             d="m 964.875,1360.9688 q 3,-39.1875 3.125,-63.3125 l 5.625,0.062 q 2.0625,0 5.4375,-0.062 l -0.8125,12.5 q 1.5625,-2.625 2.5,-4 0.9375,-1.4375 2.5,-3 1.5625,-1.5625 3.6875,-2.875 2.125,-1.375 5,-2.25 2.875,-0.9375 5.8125,-1.375 3,-0.4375 5.9375,-0.4375 5.375,0 10.375,1.3125 5,1.3125 8.1875,4.3125 3.25,2.9375 4.3125,6.625 1.125,3.6875 1.125,7.9375 0,0.8125 -0.062,3.125 -0.062,2.3125 -0.25,6.0625 l -1.25,26.1875 q -0.125,3.75 -0.1875,9.1875 -2.8125,-0.125 -5.3125,-0.125 -3.0625,0 -5.75,0.125 0.625,-7.5625 0.9375,-14.5625 l 0.8125,-14.5625 q 0.375,-7.5 0.375,-11.3125 0,-5.5 -1.875,-8.75 -1.875,-3.3125 -6,-5.0625 -4.125,-1.8125 -9.25,-1.8125 -7.25,0 -12.4375,3.4375 -4.75,3.1875 -7.375,9.0625 -1.8125,4.1875 -2.5625,12.375 -0.9375,9.8125 -1.3125,31.1875 -3.5,-0.125 -5.4375,-0.125 -1.9375,0 -5.875,0.125 z"
             style="font-style:normal;font-variant:normal;font-weight:normal;font-stretch:normal;font-size:128px;font-family:'Eras Medium ITC';-inkscape-font-specification:'Eras Medium ITC';letter-spacing:10.5px"
             id="path921" />
          <path
             d="m 1052.5625,1360.9688 q 3,-39.1875 3.125,-63.3125 l 5.625,0.062 q 2.0625,0 5.4375,-0.062 l -0.8125,12.5 q 1.5625,-2.625 2.5,-4 0.9375,-1.4375 2.5,-3 1.5625,-1.5625 3.6875,-2.875 2.125,-1.375 5,-2.25 2.875,-0.9375 5.8125,-1.375 3,-0.4375 5.9375,-0.4375 5.375,0 10.375,1.3125 5,1.3125 8.1875,4.3125 3.25,2.9375 4.3125,6.625 1.125,3.6875 1.125,7.9375 0,0.8125 -0.062,3.125 -0.062,2.3125 -0.25,6.0625 l -1.25,26.1875 q -0.125,3.75 -0.1875,9.1875 -2.8125,-0.125 -5.3125,-0.125 -3.0625,0 -5.75,0.125 0.625,-7.5625 0.9375,-14.5625 l 0.8125,-14.5625 q 0.375,-7.5 0.375,-11.3125 0,-5.5 -1.875,-8.75 -1.875,-3.3125 -6,-5.0625 -4.125,-1.8125 -9.25,-1.8125 -7.25,0 -12.4375,3.4375 -4.75,3.1875 -7.375,9.0625 -1.8125,4.1875 -2.5625,12.375 -0.9375,9.8125 -1.3125,31.1875 -3.5,-0.125 -5.4375,-0.125 -1.9375,0 -5.875,0.125 z"
             style="font-style:normal;font-variant:normal;font-weight:normal;font-stretch:normal;font-size:128px;font-family:'Eras Medium ITC';-inkscape-font-specification:'Eras Medium ITC';letter-spacing:10.5px"
             id="path923" />
          <path
             d="m 1130.25,1389.9063 q -0.4375,-5.3125 -1.0625,-9 3.125,1.5 5.8125,2 2.6875,0.5625 4.5625,0.5625 2.4375,0 4.75,-0.875 2.3125,-0.875 3.75,-2.3125 1.4375,-1.4375 3,-4 1.625,-2.5 3.375,-5.9375 1.8125,-3.4375 3.4375,-7.6875 l -13.3125,-37.9375 -9.75,-27.125 q 4.5625,0.125 6.0625,0.125 1.75,0 5.6875,-0.125 1,4.375 1.6875,6.6875 0.6875,2.3125 3,9.4375 l 9.4375,28.6875 q 1.5625,4.875 3.125,10.5 l 7.0625,-17.25 13.0625,-30.5625 q 0.5625,-1.375 1.0625,-2.8125 0.5625,-1.5 1.6875,-4.6875 4,0.125 5.5625,0.125 1.3125,0 5.8125,-0.125 -2.4375,5.5625 -11.8125,25.9375 l -23.1875,51.5625 q -2.4375,5.1875 -4.4375,7.875 -1.625,2.125 -3.5,3.6875 -1.5,1.3125 -3.375,2.25 -2.3125,1.125 -5,1.75 -2.9375,0.625 -6,0.625 -4.8125,0 -10.5,-1.375 z"
             style="font-style:normal;font-variant:normal;font-weight:normal;font-stretch:normal;font-size:128px;font-family:'Eras Medium ITC';-inkscape-font-specification:'Eras Medium ITC';letter-spacing:10.5px"
             id="path925" />
        </g>
        <g
           aria-label="hristie"
           id="text933-0-4"
           style="font-style:normal;font-weight:normal;font-size:128px;line-height:1.25;font-family:sans-serif;letter-spacing:0.01px;fill:#000000;fill-opacity:1;stroke:none">
          <path
             d="m 804.46875,1503.2188 1.5625,-27.1875 1.4375,-37.0625 0.375,-21.0625 5.6875,0.062 q 2.125,0 5.5625,-0.062 l -1.375,21.6875 -0.5,12.9375 q 1.5,-2.6875 2.5625,-4.25 1.125,-1.625 2.8125,-3.1875 1.75,-1.625 3.625,-2.75 1.875,-1.125 4.1875,-1.9375 2.3125,-0.875 5.5625,-1.4375 3.25,-0.5625 6.8125,-0.5625 5.3125,0 10.125,1.1875 4.875,1.1875 8.3125,3.9375 3.5,2.75 4.75,6.5625 1.3125,3.8125 1.3125,7.75 0,1.5625 -0.0625,4.125 -0.1875,3.875 -0.5,9.0625 l -1.0625,23 q -0.1875,3.75 -0.25,9.1875 -3.625,-0.125 -5.5625,-0.125 -2.125,0 -5.9375,0.125 0.6875,-6.75 1.5625,-21.25 0.9375,-14.5 0.9375,-20.125 0,-5 -1.8125,-8.25 -1.8125,-3.3125 -6,-5.0625 -4.1875,-1.75 -9.3125,-1.75 -4.6875,0 -8.75,1.4375 -3.6875,1.3125 -6.3125,3.6875 -2.5625,2.375 -4.125,5.8125 -1.6875,3.6875 -2.375,7.4375 -1.0625,5.9375 -1.5,16.5 -0.25,6.3125 -0.6875,21.5625 -3.5,-0.125 -5.25,-0.125 -1.625,0 -5.8125,0.125 z"
             style="font-style:normal;font-variant:normal;font-weight:normal;font-stretch:normal;font-size:128px;font-family:'Eras Medium ITC';-inkscape-font-specification:'Eras Medium ITC';letter-spacing:10.5px"
             id="path928" />
          <path
             d="m 892.28125,1503.2188 q 2.25,-36.0625 2.25,-57.5625 l -0.0625,-5.75 q 3.1875,0.062 5.25,0.062 2.375,0 5.3125,-0.062 l -0.5,10.375 q 2.3125,-3.875 4.0625,-5.8125 1.8125,-2 4.0625,-3.25 2.25,-1.3125 5.0625,-2 2.875,-0.75 5.9375,-0.75 2.625,0 5.1875,0.625 0.0625,4.125 0.4375,9.25 -3.875,-1.0625 -6.9375,-1.0625 -3.6875,0 -6.625,1.25 -2.9375,1.1875 -5.3125,3.6875 -2.3125,2.4375 -3.8125,5.875 -1.25,2.75 -1.9375,7.125 -0.625,4.375 -1,15.9375 -0.25,8.4375 -0.25,17.875 v 4.1875 q -3.375,-0.125 -5.4375,-0.125 -1.875,0 -5.6875,0.125 z"
             style="font-style:normal;font-variant:normal;font-weight:normal;font-stretch:normal;font-size:128px;font-family:'Eras Medium ITC';-inkscape-font-specification:'Eras Medium ITC';letter-spacing:10.5px"
             id="path930" />
          <path
             d="m 950.84375,1426.2813 q 0.1875,-5.875 0.1875,-8.875 3.4375,0.125 6.0625,0.125 3.3125,0 6,-0.125 -0.125,1.9375 -0.375,8.875 -3.375,-0.062 -5.8125,-0.062 -2.4375,0 -6.0625,0.062 z m -2.8125,76.9375 1.0625,-15.75 1.1875,-26.875 0.5,-20.6875 5.75,0.062 5.625,-0.062 q -0.6875,9.75 -1.25,20.4375 -0.5625,10.625 -0.9375,23.25 -0.3125,12.625 -0.3125,19.625 -3.9375,-0.125 -5.625,-0.125 -1.5625,0 -6,0.125 z"
             style="font-style:normal;font-variant:normal;font-weight:normal;font-stretch:normal;font-size:128px;font-family:'Eras Medium ITC';-inkscape-font-specification:'Eras Medium ITC';letter-spacing:10.5px"
             id="path932" />
          <path
             d="m 984.09375,1502.0313 -0.375,-4.5625 q 0,-0.75 -0.5,-4.75 9.625,4.1875 17.74995,4.1875 4.25,0 7.1875,-1.125 2.9375,-1.125 4.375,-3.3125 1.5,-2.25 1.5,-4.625 0,-1.3125 -0.4375,-2.625 -0.375,-1.3125 -1.1875,-2.5 -0.8125,-1.25 -2.4375,-2.6875 -1.5625,-1.5 -6.625,-5.5625 -4.99995,-4.0625 -7.62495,-6.3125 -2.5625,-2.3125 -4.4375,-4.6875 -1.8125,-2.4375 -2.6875,-4.875 -0.875,-2.4375 -0.875,-4.9375 0,-4 2.5,-7.75 2.5625,-3.75 7.3125,-5.5625 4.81245,-1.875 11.24995,-1.875 7.1875,0 15.8126,1.6875 0.25,4.875 0.625,8.9375 -7.0001,-2.875 -13.8126,-2.875 -3.6875,0 -6.875,1 -3.125,0.9375 -4.62495,2.875 -1.4375,1.9375 -1.4375,4.25 0,1.5 0.5,2.875 0.5,1.375 1.74995,3 1.3125,1.5625 3.125,3.125 1.8125,1.5625 7.1875,5.875 5.4375,4.3125 7.4375,6.375 2,2.0625 3.4375,4.25 1.4375,2.1875 2.0625,4.375 0.6876,2.125 0.6876,4.375 0,4.375 -2.6251,8.125 -2.5625,3.75 -7.6875,5.8125 -5.125,2.0625 -11.5,2.0625 -2.6875,0 -6.31245,-0.375 -3.625,-0.3125 -6.1875,-0.8125 -2.5,-0.4375 -6.25,-1.375 z"
             style="font-style:normal;font-variant:normal;font-weight:normal;font-stretch:normal;font-size:128px;font-family:'Eras Medium ITC';-inkscape-font-specification:'Eras Medium ITC';letter-spacing:10.5px"
             id="path934" />
          <path
             d="m 1080.2813,1494.9688 q -0.6875,3.0625 -1.5,8.125 -4.25,1 -6.75,1.25 -2.5,0.25 -4.75,0.25 -5.5625,0 -9,-1.375 -3.375,-1.4375 -5.1875,-4.5 -1.8125,-3.125 -1.8125,-8.4375 0,-0.6875 0.062,-2.4375 0.062,-1.75 0.625,-12.1875 l 1.5,-28 h -8.3125 q 0.25,-2.625 0.4375,-7.5 h 8.5 q 0.3125,-3.5 0.625,-11.9375 5.875,-1.125 9.9375,-2.125 -0.4375,9.25 -0.5,14.0625 h 17.375 q -0.3125,3.9375 -0.375,7.5 h -17.3125 l -1.6875,35.1875 -0.062,2.6875 q 0,4.5625 1,6.875 1.0625,2.25 3.125,3.25 2.0625,1 4.3125,1 1.5625,0 3.375,-0.25 1.8125,-0.25 6.375,-1.4375 z"
             style="font-style:normal;font-variant:normal;font-weight:normal;font-stretch:normal;font-size:128px;font-family:'Eras Medium ITC';-inkscape-font-specification:'Eras Medium ITC';letter-spacing:10.5px"
             id="path936" />
          <path
             d="m 1103.0938,1426.2813 q 0.1875,-5.875 0.1875,-8.875 3.4375,0.125 6.0625,0.125 3.3125,0 6,-0.125 -0.125,1.9375 -0.375,8.875 -3.375,-0.062 -5.8125,-0.062 -2.4375,0 -6.0625,0.062 z m -2.8125,76.9375 1.0625,-15.75 1.1875,-26.875 0.5,-20.6875 5.75,0.062 5.625,-0.062 q -0.6875,9.75 -1.25,20.4375 -0.5625,10.625 -0.9375,23.25 -0.3125,12.625 -0.3125,19.625 -3.9375,-0.125 -5.625,-0.125 -1.5625,0 -6,0.125 z"
             style="font-style:normal;font-variant:normal;font-weight:normal;font-stretch:normal;font-size:128px;font-family:'Eras Medium ITC';-inkscape-font-specification:'Eras Medium ITC';letter-spacing:10.5px"
             id="path938" />
          <path
             d="m 1191.0938,1493.2813 q -0.75,3.4375 -1.5,8.75 -6,1.5 -10.4375,2 -4.375,0.5625 -8.75,0.5625 -7.8125,0 -14.0625,-1.875 -6.1875,-1.875 -10.625,-6.5 -4.4375,-4.6875 -6.375,-10.6875 -1.9375,-6 -1.9375,-12.6875 0,-9.3125 3.5625,-17.25 3.5625,-8 10.6875,-12.5625 7.1875,-4.5625 18.1875,-4.5625 5.6875,0 10.875,1.6875 5.1875,1.625 8.625,5 3.4375,3.375 5.3125,8.375 1.875,4.9375 1.875,10.8125 0,2.25 -0.375,4.375 h -47.6875 q -0.25,3.4375 -0.25,5.25 0,6.5625 2.75,12.125 2.75,5.5 8.125,8.375 5.375,2.8125 12.375,2.8125 8.0625,0 19.625,-4 z m -42.125,-29.75 h 37.25 q -0.062,-3.9375 -0.5,-6.125 -0.4375,-2.1875 -1.625,-4.5 -1.1875,-2.375 -3.25,-4.0625 -2,-1.75 -4.875,-2.625 -2.8125,-0.9375 -6.125,-0.9375 -3.5625,0 -6.8125,1 -3.1875,1 -5.6875,2.75 -2.4375,1.75 -4.1875,4.125 -1.6875,2.3125 -2.5625,4.5 -0.8125,2.1875 -1.625,5.875 z"
             style="font-style:normal;font-variant:normal;font-weight:normal;font-stretch:normal;font-size:128px;font-family:'Eras Medium ITC';-inkscape-font-specification:'Eras Medium ITC';letter-spacing:10.5px"
             id="path940" />
        </g>
      </g>
    </a>
    <g
       id="g1231"
       transform="matrix(1.1840678,0,0,1.0720682,-313.9515,-209.54985)"
       inkscape:transform-center-x="-3.1650836"
       inkscape:transform-center-y="7.3852787">
      <g
         id="g1210"
         transform="translate(0,-0.08838835)">
        <g
           id="g1157">
          <path
             style="display:inline;fill:#ccff00;stroke-width:0.235851"
             d="m 826.93473,1058.2007 c -5.68452,-7.2589 -9.08661,-14.3076 -7.85535,-17.9548 0.87046,-2.5784 1.03722,-3.7757 2.21259,-6.1891 1.30049,-2.6704 2.81983,-6.4206 5.00759,-7.463 6.61519,-1.6695 14.16365,1.4003 19.65919,-1.1305 1.39736,-0.6514 2.73896,-3.058 4.3194,-4.1479 1.85957,-4.1103 2.4899,-3.4059 2.86198,1.1932 -0.24951,9.6312 -1.49164,20.6335 -7.15267,28.3785 -5.37197,8.5726 -17.73871,8.237 -19.05273,7.3136 z m 10.1469,-8.8239 c 5.19945,-3.0442 6.65734,-6.0741 4.53005,-10.41 -2.92902,-4.1953 -4.97554,-5.5078 -9.47792,-4.5053 -6.6001,5.8773 -7.99465,8.5466 -4.86322,14.3655 1.85763,1.754 7.5051,1.8444 9.81109,0.5498 z"
             id="path1092"
             sodipodi:nodetypes="cssccccccccccc" />
          <g
             id="g1129">
            <path
               style="fill:#5f8dd3;stroke-width:0.235851"
               d="m 830.89339,1049.3574 c -3.90534,-1.4517 -4.88614,-6.756 -1.09978,-10.2977 1.33926,-1.2528 3.83708,-2.5743 5.2333,-2.4891 2.50385,0.1528 5.22639,3.3748 5.56953,5.9405 0.22131,1.6549 -1.28255,4.4249 -2.30852,5.2882 -1.35977,1.1442 -5.65023,2.2064 -7.39453,1.5581 z"
               id="path1090"
               sodipodi:nodetypes="ssssss" />
            <g
               id="g1110">
              <path
                 style="display:inline;fill:#4d4d4d;stroke-width:1.33417"
                 id="path1002-1"
                 d="m 837.48706,1034.5872 c -1.87388,-0.6871 -3.85817,-0.629 -5.3533,-0.1257 -2.74424,1.1472 -4.92616,3.1911 -6.33717,5.5346 -0.83794,1.3836 -1.20687,2.9331 -1.35158,4.5261 -0.0768,1.5479 0.29257,2.9443 1.18559,4.2016 0.93063,1.1932 1.89917,1.816 3.34818,2.5024 1.397,0.7543 2.9009,0.8631 4.46,0.8036 2.3475,-0.2458 4.52356,-0.8035 6.41932,-2.2207 1.2539,-1.038 2.09591,-2.4194 2.7639,-3.8815 0.92701,-2.1767 1.26181,-5.3999 0.20938,-7.1369 -4.4414,-7.0681 -8.91599,-1.7966 -6.20308,-0.9412 1.91892,0.8308 2.92308,2.7064 2.93319,4.5085 -0.12999,0.8982 -0.12617,2.0089 -0.47764,2.84 -0.53305,1.3645 -1.10776,2.4295 -2.09322,2.6997 -2.79183,1.4142 -5.06496,1.0364 -7.10179,-0.101 -1.3119,-0.7626 -1.71531,-2.4137 -1.70459,-3.2747 0.0629,-1.2 0.34714,-2.3401 0.97848,-3.3776 2.38744,-3.5252 4.75534,-4.133 6.21703,-3.7535 4.57022,1.5162 8.98038,-0.4091 2.1073,-2.8037 z"
                 sodipodi:nodetypes="ccccccccccccccccccc" />
            </g>
          </g>
        </g>
        <g
           id="g1113">
          <path
             style="fill:#ff6600;stroke-width:0.235851"
             d="m 856.93113,1069.6107 c -5.18752,0.3623 -8.61016,-0.2403 -11.79334,-1.624 5.8927,-3.499 10.74532,-8.1724 13.77993,-11.9557 7.55052,-9.9101 3.0577,-24.0597 0.42607,-32.1303 -6.07517,-13.5982 9.16318,6.5211 9.79199,8.0236 3.98013,10.1123 4.51601,20.9618 0.93976,28.5399 -3.53053,5.8548 -4.26876,8.6488 -13.14441,9.1465 z"
             id="path1082"
             sodipodi:nodetypes="ccccccc" />
        </g>
        <path
           style="fill:#ffcc00;stroke-width:0.235851"
           d="m 831.26258,1060.4757 c 5.67517,0.2773 8.00069,-1.4616 12.34629,-4.7738 5.78733,-4.7087 7.5007,-9.5694 8.9917,-15.3807 1.07714,-4.3537 1.76925,-7.5334 1.90389,-13.9043 0.095,-4.4934 0.10921,-8.8005 0.39308,-8.802 0.43033,1.0689 1.75861,2.706 2.25987,3.9237 2.53365,6.4509 4.42806,13.214 4.7413,18.8268 0.0909,8.2353 -0.13003,10.767 -9.78475,20.7387 -2.86647,2.3101 -5.08803,5.5914 -8.69919,6.3404 -5.16892,-1.9351 -8.68024,-3.979 -12.15219,-6.9688 z"
           id="path1084"
           sodipodi:nodetypes="cccscccccc" />
      </g>
      <g
         id="g1215">
        <path
           style="display:inline;fill:#4d4d4d;stroke-width:0.067591"
           d="m 845.28062,1070.9005 c -17.09285,-5.793 -26.10121,-13.8508 -27.4751,-27.7592 -0.24721,-4.1944 0.63401,-7.0226 1.87683,-10.5061 2.94629,-7.9816 10.30096,-9.225 15.60525,-8.2964 6.35371,1.6877 11.33909,0.3503 14.3084,-4.4852 1.59662,-2.9061 1.51005,-5.3694 2.13132,-8.3737 0.32317,-0.8332 0.71552,-1.1454 1.33949,-1.0656 0.62648,0.08 0.92971,0.4086 1.70637,1.8495 0.35493,0.6582 1.09473,2.1109 1.9951,3.0169 3.46831,3.7694 7.31227,6.0157 10.01076,9.4246 2.74395,3.146 4.32251,7.2853 5.76729,10.5813 4.60384,10.8813 3.36777,29.1752 -9.20149,35.4016 -5.40037,2.16 -12.86491,2.2124 -18.06422,0.2123 z m 15.97174,-2.4215 c 10.51211,-5.5865 12.97294,-21.732 6.75272,-36.4466 -1.25303,-3.4159 -3.63035,-5.9139 -6.24027,-8.4154 -1.44152,-1.3799 -2.86152,-2.847 -4.20414,-4.2105 -1.79062,-1.8186 -2.02939,-2.0225 -2.48006,-2.1183 -0.60634,-0.1292 -0.83921,0.1405 -1.39759,1.6175 -0.7342,1.9419 -2.56019,5.0534 -3.76686,6.4184 -1.88201,2.3635 -6.6842,4.0714 -18.11463,2.4829 -9.10097,-0.8622 -13.50752,12.0922 -10.2143,20.2911 3.32928,8.2458 10.43998,13.5127 17.51349,17.0281 7.16484,3.0705 18.14479,5.5293 22.15164,3.3528 z"
           id="path951-6-0-2"
           sodipodi:nodetypes="ccccccssccccccccccsccccc" />
        <path
           style="display:inline;fill:#4d4d4d;stroke-width:1.33417"
           id="path1000-0"
           d="m 849.45175,1023.3303 c 1.88905,0.7859 3.55079,-4.2691 2.94508,1.0816 -0.1835,1.9394 -0.4335,5.7232 -0.5109,7.2234 -0.22303,5.0261 -2.33174,11.5114 -3.78754,14.7464 -1.60761,3.6035 -2.8052,5.4319 -5.2051,7.3147 -3.2424,2.2951 -4.81387,3.2405 -9.19598,4.2343 -2.05248,0.541 -3.26258,0.4297 -5.01182,-0.1405 -3.49695,-1.5363 -4.87336,-2.2601 -2.1204,-0.6679 0.73654,2.209 4.20786,4.7635 6.2177,5.1043 -0.13369,-0.9499 -0.68652,-1.5057 -0.14534,-1.5779 0.80909,-0.034 3.81851,0.3328 7.22554,-1.6365 3.80144,-2.2635 5.65328,-3.8858 7.91975,-6.7993 2.4633,-3.5253 4.85468,-9.6237 5.38908,-12.5315 1.09069,-4.2654 1.51916,-9.2388 1.34772,-13.328 0.23997,-7.3281 0.41569,-8.4405 0.92085,-7.6796 0.79955,0.3603 0.35282,-2.3734 0.35282,-2.3734 -2.70753,0.9683 -5.66529,4.1864 -6.34146,7.0297 z"
           sodipodi:nodetypes="cccccccccccccccccc" />
        <path
           style="display:inline;fill:#4d4d4d;stroke-width:1.33417"
           id="path996-3"
           d="m 856.63434,1022.0657 c 1.59537,3.3237 5.48339,15.5521 4.02076,23.5661 -1.00831,5.1152 -2.40789,7.3803 -6.28686,11.7556 -2.82285,3.6155 -4.40843,4.6084 -7.80099,7.4092 -0.52926,0.4083 -3.5856,2.4125 -6.75455,1.0745 -0.87436,-0.1546 4.61454,3.8348 7.38927,1.864 5.98529,-4.1561 8.12543,-5.2148 12.34007,-11.6584 2.64651,-3.6125 3.94965,-8.4738 4.15028,-16.0997 -0.29427,-8.988 -3.14128,-12.9444 -4.16861,-16.0226 -4.20264,-14.0244 -6.73719,-10.6008 -2.88937,-1.8887 z"
           sodipodi:nodetypes="cccccccccc" />
      </g>
    </g>
  </g>
</svg>
