<?xml version="1.0" encoding="UTF-8" standalone="no"?>
<!-- Created with Inkscape (http://www.inkscape.org/) -->

<svg
   xmlns:dc="http://purl.org/dc/elements/1.1/"
   xmlns:cc="http://creativecommons.org/ns#"
   xmlns:rdf="http://www.w3.org/1999/02/22-rdf-syntax-ns#"
   xmlns:svg="http://www.w3.org/2000/svg"
   xmlns="http://www.w3.org/2000/svg"
   xmlns:sodipodi="http://sodipodi.sourceforge.net/DTD/sodipodi-0.dtd"
   xmlns:inkscape="http://www.inkscape.org/namespaces/inkscape"
   width="210mm"
   height="297mm"
   viewBox="0 0 210 297"
   version="1.1"
   id="svg252"
   inkscape:version="0.92.3 (2405546, 2018-03-11)"
   sodipodi:docname="JC logo text+dwgdrawing.svg">
  <defs
     id="defs246" />
  <sodipodi:namedview
     id="base"
     pagecolor="#ffffff"
     bordercolor="#666666"
     borderopacity="1.0"
     inkscape:pageopacity="0.0"
     inkscape:pageshadow="2"
     inkscape:zoom="2"
     inkscape:cx="-1089.2348"
     inkscape:cy="753.82401"
     inkscape:document-units="mm"
     inkscape:current-layer="layer1"
     showgrid="false"
     inkscape:window-width="1366"
     inkscape:window-height="705"
     inkscape:window-x="-8"
     inkscape:window-y="-8"
     inkscape:window-maximized="1"
     showguides="true"
     inkscape:guide-bbox="true">
    <sodipodi:guide
       position="-342.77316,198.18036"
       orientation="0,1"
       id="guide4251"
       inkscape:locked="false" />
    <sodipodi:guide
       position="-327.23288,185.25559"
       orientation="0,1"
       id="guide4253"
       inkscape:locked="false" />
    <sodipodi:guide
       position="-260.08541,198.18037"
       orientation="1,0"
       id="guide4419"
       inkscape:locked="false" />
  </sodipodi:namedview>
  <metadata
     id="metadata249">
    <rdf:RDF>
      <cc:Work
         rdf:about="">
        <dc:format>image/svg+xml</dc:format>
        <dc:type
           rdf:resource="http://purl.org/dc/dcmitype/StillImage" />
        <dc:title></dc:title>
      </cc:Work>
    </rdf:RDF>
  </metadata>
  <g
     inkscape:label="Layer 1"
     inkscape:groupmode="layer"
     id="layer1">
    <path
       style="fill:#ff6600;stroke-width:0.17857143"
       d="m -1242.3419,412.01714 c -2.1476,0.39739 -4.5588,0.9941 -6.003,2.76088 -0.8613,1.41992 -0.9443,3.70119 0.4624,4.80957 1.5713,0.78303 3.2263,-0.71401 3.9328,-2.0316 0.7965,-1.72252 1.2217,-3.535 2.3661,-5.45943 -0.049,-0.2141 -0.583,-0.09 -0.7583,-0.0794 z"
       id="path4327"
       inkscape:connector-curvature="0"
       transform="scale(0.26458333)"
       sodipodi:nodetypes="cccccc" />
    <text
       xml:space="preserve"
       style="font-style:normal;font-weight:normal;font-size:10.58333302px;line-height:1.25;font-family:sans-serif;letter-spacing:0px;word-spacing:-0.0238125px;fill:#000000;fill-opacity:1;stroke:none;stroke-width:0.26458332"
       x="-326.07056"
       y="105.0683"
       id="text155"><tspan
         sodipodi:role="line"
         id="tspan153"
         x="-326.07056"
         y="105.0683"
         style="font-style:normal;font-variant:normal;font-weight:normal;font-stretch:normal;font-size:6.3499999px;font-family:Centaur;-inkscape-font-specification:Centaur;word-spacing:-0.94191667px;stroke-width:0.26458332"><tspan
           id="tspan4255"
           style="font-size:9.87777805px;letter-spacing:1.32291663px;word-spacing:-0.94191667px;stroke-width:0.26458332"
           dx="-0.23 0 0 0 0 0 0 0 0 0 0 0.22">Jenny Christie</tspan></tspan></text>
    <text
       id="text424"
       y="111.68288"
       x="-326.25955"
       style="font-style:normal;font-weight:normal;font-size:10.58333302px;line-height:1.25;font-family:sans-serif;letter-spacing:0px;word-spacing:-0.38629167px;fill:#000000;fill-opacity:1;stroke:none;stroke-width:0.26458332;"
       xml:space="preserve"><tspan
         style="font-style:normal;font-variant:normal;font-weight:normal;font-stretch:normal;font-size:4.23333311px;font-family:Centaur;-inkscape-font-specification:Centaur;letter-spacing:1.32291663px;word-spacing:-0.38629167px;stroke-width:0.26458332;"
         y="111.68288"
         x="-326.25955"
         id="tspan422"
         sodipodi:role="line">Clinical H<tspan
   style="word-spacing:-0.111125px"
   id="tspan4423">ypnotherapis</tspan>t</tspan></text>
    <path
       style="fill:#00ff00;stroke-width:0.12626907"
       d="m -1247.7704,383.78886 c 0.034,-0.15626 0.4837,-1.53318 0.7686,-2.5551 0.9147,-3.28106 0.9969,-4.16386 3.5779,-4.57179 0.6634,-0.10916 1.9889,0.21418 2.4006,0.51688 1.2168,0.89462 1.2627,2.58725 -0.036,3.77983 -0.7135,0.65503 -1.7141,1.11163 -3.3274,1.57446 -0.7135,0.20471 -1.6294,0.52686 -2.0479,0.78108 -1.2295,0.77274 -1.4165,0.85244 -1.3355,0.47464 z"
       id="path4257"
       inkscape:connector-curvature="0"
       transform="scale(0.26458333)"
       sodipodi:nodetypes="ccccccccc" />
    <path
       style="fill:#00ff00;stroke-width:0.12626907"
       d="m -1239.3759,422.34108 c -0.9763,-0.39234 -1.3673,-0.88081 -1.3673,-1.5895 0,-1.59061 2.0366,-2.30498 3.1268,-1.06333 0.3396,0.38681 0.4398,0.92462 0.3797,1.29502 -0.1726,1.24809 -1.0335,1.35781 -2.1392,1.35781 z"
       id="path4261"
       inkscape:connector-curvature="0"
       transform="scale(0.26458333)"
       sodipodi:nodetypes="csccc" />
    <path
       style="fill:#00ff00;stroke-width:0.12626907"
       d="m -1248.8751,405.19189 c -0.7656,-0.20621 -1.1666,-0.47833 -1.6129,-1.09433 -1.0726,-1.48069 -0.7203,-3.69315 0.6727,-4.22515 1.2024,-0.45922 2.1716,0.20064 3.0896,2.10359 0.6473,1.34182 0.8383,2.14795 0.6185,2.61099 -0.3332,0.70191 -1.4785,0.9522 -2.7679,0.6049 z"
       id="path4263"
       inkscape:connector-curvature="0"
       transform="scale(0.26458333)" />
    <path
       style="fill:#2c89a0;stroke-width:0.01578363"
       d="m -1242.4537,392.01327 c -0.8294,0.006 -1.6771,0.17606 -2.3955,0.60431 -0.3251,0.2009 -0.4439,0.61071 -0.4166,0.97411 0.043,0.67373 0.3654,1.29272 0.7353,1.84357 0.4686,0.67576 1.0696,1.28494 1.8138,1.65158 0.6048,0.30087 1.3148,0.3353 1.9683,0.20004 0.5587,-0.12099 1.0888,-0.40023 1.4712,-0.83006 0.4887,-0.51434 0.6994,-1.25733 0.6263,-1.9559 -0.094,-0.54855 -0.3767,-1.05808 -0.7826,-1.43783 -0.5275,-0.53298 -0.7924,-0.63232 -1.5175,-0.77386 -0.3443,-0.0638 -1.1529,-0.2766 -1.5027,-0.276 z"
       id="path4273"
       inkscape:connector-curvature="0"
       transform="scale(0.26458333)"
       sodipodi:nodetypes="cccccccccccc" />
    <path
       style="fill:#2aff2a;stroke-width:0.01578363"
       d="m -1249.1156,399.54188 c -0.6472,0.005 -1.2882,0.31997 -1.6658,0.84986 -0.3086,0.11178 -0.6043,1.57437 -0.4674,2.38822 0.1539,0.83887 0.6138,1.63024 1.298,2.14552 0.4485,0.31557 0.9922,0.46287 1.5255,0.55881 0.6483,0.10433 1.3517,0.0785 1.94,-0.24015 0.3579,-0.21046 0.6508,-0.58569 0.6516,-1.01545 0.015,-0.64449 -0.2429,-1.25265 -0.4897,-1.83472 -0.3732,-0.82995 -0.7872,-1.67571 -1.4662,-2.30152 -0.361,-0.33045 -0.8289,-0.55807 -1.326,-0.55057 z"
       id="path4281"
       inkscape:connector-curvature="0"
       transform="scale(0.26458333)"
       sodipodi:nodetypes="cccccccccc" />
    <path
       style="fill:#ff6600;stroke-width:0.25253814"
       d="m -1242.1943,412.07047 c -2.5157,0.54202 -6.1415,1.14925 -6.7357,4.16639 -0.3313,1.45086 0.5865,4.10385 2.5018,3.48966 3.7972,-1.98625 3.2217,-4.50547 4.4924,-7.06022 1.1497,-0.7978 0.7224,-0.8402 -0.2585,-0.59583 z"
       id="path4285"
       inkscape:connector-curvature="0"
       transform="scale(0.26458333)"
       sodipodi:nodetypes="ccccc" />
    <path
       style="fill:#00ffff;stroke-width:0.25253814"
       d="m -1242.692,374.17742 c -2.7975,-0.0915 -5.7114,1.7058 -6.1615,4.61375 -0.8419,2.84001 -1.3641,6.51905 -1.8536,9.37548 1.0789,-0.0795 2.3913,-1.48962 3.4336,-1.65996 3.268,-1.41331 7.6869,-1.36114 9.7763,-4.71959 1.2823,-2.18539 0.4977,-5.11255 -1.3347,-6.63307 -1.0145,-0.7438 -2.6299,-1.00958 -3.8601,-0.97661 z m -0.2693,2.16334 c 1.6699,-0.20176 3.5265,1.39911 2.8475,3.14243 -0.9809,2.78494 -4.3361,3.00729 -6.5685,4.267 -0.6081,0.27717 -1.3511,1.00188 -1.6957,1.21386 0.8222,-2.56093 1.3883,-5.28615 2.731,-7.6299 0.6618,-0.76138 1.717,-0.99843 2.6857,-0.99339 z"
       id="path4293"
       inkscape:connector-curvature="0"
       transform="scale(0.26458333)"
       sodipodi:nodetypes="ccccccccccccc" />
    <path
       style="fill:#ff6600;stroke-width:0.17857143"
       d="m -1251.5749,373.92253 c -0.9912,1.24858 -1.1902,1.88575 -1.2778,2.82173 0.6403,2.00805 1.6605,2.20546 2.6331,1.50092 1.4666,-1.19827 1.6288,-2.55946 0.4016,-4.22135 -0.4016,-0.19574 -0.7013,0.0621 -1.7569,-0.1013 z"
       id="path4303"
       inkscape:connector-curvature="0"
       transform="scale(0.26458333)"
       sodipodi:nodetypes="ccccc" />
    <path
       style="fill:#ffff00;stroke-width:0.17857143"
       d="m -1241.8467,389.22333 c 1.3697,1.43757 2.5841,1.12556 3.8716,0.23115 1.2538,-1.12917 1.5178,-3.0724 0.389,-3.75256 -2.3299,-0.37784 -4.0318,-0.19312 -4.2606,3.52141 z"
       id="path4307"
       inkscape:connector-curvature="0"
       transform="scale(0.26458333)"
       sodipodi:nodetypes="cccc" />
    <path
       style="fill:#00ffff;stroke-width:0.17857143"
       d="m -1251.5469,407.582 c -1.2439,0.18506 -1.7682,2.42252 -0.1652,2.95271 1.0266,0.11601 2.3716,-1.28795 1.6518,-2.10553 -0.493,-0.86041 -0.8374,-1.06616 -1.4866,-0.84718 z"
       id="path4309"
       inkscape:connector-curvature="0"
       transform="scale(0.26458333)"
       sodipodi:nodetypes="cccc" />
    <path
       style="fill:#ffff00;stroke-width:0.25253814"
       d="m -1237.1214,407.42175 c -2.5679,1.55185 -6.288,1.69271 -9.0122,2.25566 -2.8095,0.62692 -5.9328,2.66788 -6.2984,5.74412 0.292,3.58914 1.0408,5.6427 4.9655,6.54627 3.2625,0.62497 6.0194,-1.5848 6.901,-5.04707 0.9357,-2.85789 1.8956,-5.82905 3.0397,-8.5969 -0.01,-0.13581 0.5336,-0.92172 0.4044,-0.90208 z m -3.8551,4.16485 c -1.1027,1.3197 -1.6398,2.17153 -1.9157,3.94739 -0.7364,1.94487 -2.1569,4.57472 -4.598,4.29414 -1.7604,-0.66399 -1.7822,-3.18385 -1.1887,-4.65667 1.1519,-2.33091 4.0834,-2.65021 6.337,-3.15432 0.6365,-0.18317 1.2798,-0.38878 1.3654,-0.43054 z"
       id="path4291"
       inkscape:connector-curvature="0"
       transform="scale(0.26458333)"
       sodipodi:nodetypes="ccccccccccccc" />
    <path
       d="m -327.15498,107.46671 c -0.0161,-0.5629 -0.3646,-1.01774 -0.79711,-1.40094 -0.41702,-0.31085 -0.55849,-0.30534 -0.9743,-0.51199 -0.4772,-0.40475 -0.70552,-1.00793 -0.6544,-1.2924 0.0684,-0.25567 0.10325,0.1901 0.25523,0.3897 0.2688,0.46677 0.80655,0.66948 1.20435,0.48028 0.42371,-0.16891 0.64271,-0.80493 0.26197,-1.13019 -0.3546,-0.38402 -0.97266,-0.38758 -1.44017,-0.22799 -0.48542,0.19383 -0.51778,0.58899 -0.27705,1.13655 0.0923,0.29694 0.62446,0.63132 0.10269,0.47093 -0.55421,-0.12428 -1.22003,-0.59287 -1.39465,-0.73532 -0.4764,-0.43317 -0.5293,-0.88619 -0.41742,-1.3792 0.20009,-0.45406 0.83162,-0.48153 1.25716,-0.43398 0.59439,0.019 1.14688,0.25982 1.71183,0.41019 0.53461,0.1498 1.10664,-0.24012 1.11058,-0.80941 0.0225,-0.57048 -0.8008,-0.58766 -1.11789,-0.2727 -0.55556,0.57113 -0.20442,0.81992 -0.33074,0.86165 -0.44628,-0.14073 -0.94451,-0.30148 -1.41756,-0.31143 -0.37759,-0.0336 -1.01658,0.0822 -0.85888,0.0824 0.38422,-0.26369 0.9656,-0.48877 1.33484,-0.60265 0.41464,-0.10203 1.39618,-0.31021 1.8807,-0.6587 0.47942,-0.41922 0.62326,-0.69696 0.52339,-1.43165 -0.0981,-0.439874 -0.20487,-0.661033 -0.51786,-0.927843 -0.23267,-0.164019 -0.48058,-0.292933 -1.20913,-0.319023 -0.80851,0.07744 -0.97017,0.267962 -1.20459,0.531767 -0.31349,0.365276 -0.47368,0.943939 -0.58957,1.627989 -0.14353,0.76038 0.0198,1.03891 -0.27364,1.55356 -0.10648,0.18041 -0.48507,0.83778 -0.25628,0.28466 0.31278,-0.60852 0.14374,-1.22596 0.004,-1.8334 -0.0816,-0.43231 -0.15537,-0.72086 -0.16895,-1.069935 0.3244,0.548285 1.0395,0.122445 0.96575,-0.548092 -0.1233,-0.663748 -0.76509,-0.696122 -0.97307,-0.186352 -0.14253,0.380343 -0.14332,0.552485 -0.0231,1.299359 0.0769,0.58036 0.26792,1.1539 0.22336,1.7444 -0.0462,0.43917 -0.25795,0.53109 -0.25818,1.18045 -0.0123,0.45626 0.0461,0.78041 0.26194,1.07567 0.37237,0.4424 0.8888,0.64099 1.19354,0.78455 0.46962,0.22689 0.96418,0.77956 0.71427,1.39115 -0.12791,0.24779 -0.16972,0.52514 -0.28959,0.0485 -0.0775,-0.43612 -0.44668,-1.1891 -0.94218,-1.11259 -0.48779,0.0387 -0.74761,0.63706 -0.53631,1.17503 0.13921,0.36179 0.52625,0.66931 1.19064,0.57191 0.48727,-0.13382 0.87364,-0.65902 0.72915,-1.31499 -0.0779,-0.30294 -0.6815,-0.76472 0.0502,-0.43815 0.53683,0.24191 1.15237,0.42403 1.48316,0.95478 0.11788,0.17084 0.67971,0.90508 0.13758,1.09126 -0.4518,0.2314 -1.43857,-0.0765 -2.18904,-0.0788 -0.46894,-0.0257 -1.06977,-0.0112 -1.41971,0.14595 -0.35922,0.1612 -0.54611,0.55561 -0.30798,0.84804 0.41368,0.42163 1.00405,-0.31197 0.62282,-0.67216 -0.22297,-0.23241 0.4329,-0.22771 0.63202,-0.23032 0.29767,-0.0179 0.61445,0.006 0.8877,0.0369 0.57885,0.0492 1.14541,0.2533 1.71898,0.0581 0.50729,-0.20295 -0.20306,0.23078 -0.47593,0.28032 -0.39469,0.10113 -0.67414,0.12988 -1.20288,0.15279 -0.53494,0.0316 -1.04944,0.16594 -1.51893,0.50991 -0.48253,0.38806 -0.73645,0.78169 -0.76999,1.12665 -0.0315,0.63413 0.17207,1.04549 0.39269,1.37515 0.33663,0.39336 0.60726,0.44871 1.02316,0.5303 0.73273,0.0915 1.2083,-0.12353 1.4877,-0.49844 0.33542,-0.43649 0.5032,-0.947 0.653,-1.49196 0.19645,-0.76502 0.29048,-1.03764 0.491,-1.48721 0.003,0.21613 -0.0871,0.42034 -0.0411,0.98766 0.0577,0.57181 0.13238,1.0588 0.17154,1.63245 0.0598,0.35112 -0.16869,-0.13252 -0.61547,-0.0929 -0.59743,0.15782 -0.52144,1.06702 0.19296,0.9808 0.32198,0.003 0.57822,-0.32778 0.566,-0.86351 -0.10247,-0.75355 -0.16015,-1.02147 -0.20201,-1.719 -0.0507,-0.98201 0.2134,-1.27969 0.23064,-1.72861 z m -0.12342,-7.02091 c 0.0173,0.31253 -0.14671,0.85739 -0.88221,1.20916 -0.40022,0.17129 -0.74527,0.26022 -1.20875,0.36956 -0.50386,0.1075 -0.88336,0.30431 -1.37698,0.54108 -0.32853,0.22233 0.0526,-0.0387 0.0597,-0.65527 0.046,-0.73238 0.14476,-1.36364 0.40337,-2.052104 0.11629,-0.287385 0.55493,-0.899696 1.68674,-0.839867 0.31884,0.03356 0.54338,0.09121 0.80169,0.271255 0.38424,0.286193 0.50216,0.978856 0.51645,1.156186 z m -0.0101,1.95356 c -0.008,0.42003 -0.3467,0.80393 -0.7848,0.77545 -0.58844,0.0588 -0.54729,-0.57507 -0.19576,-0.9456 0.23034,-0.22841 1.02412,-0.33682 0.98056,0.17015 z m -0.0743,8.87528 c -0.0431,0.55077 -0.97223,0.62534 -0.86985,-0.0376 0.10167,-0.58647 0.82548,-0.33554 0.86985,0.0376 z m -0.017,-3.4296 c -0.15983,0.3362 -0.33427,0.67909 -0.45232,1.0363 -0.17974,0.6753 -0.33593,1.35732 -0.63993,1.98938 -0.22677,0.42643 -0.81004,0.80653 -1.29577,0.7836 -0.56467,-0.041 -0.83559,-0.10739 -1.25255,-0.62379 -0.1735,-0.23257 -0.25599,-0.50323 -0.32563,-0.94672 -0.0685,-0.58397 0.33088,-0.92999 0.69536,-1.24117 0.46344,-0.32055 1.05768,-0.49849 1.41382,-0.50093 0.53507,-0.0373 0.77138,-0.015 1.37924,-0.23111 0.2019,-0.0852 0.27308,-0.1256 0.47778,-0.26556 z m -0.38597,-3.43048 c 0.0127,0.50057 -0.4381,0.74366 -0.87028,0.65511 -0.48959,-0.10649 -1.00083,-0.95641 -0.69108,-1.14965 0.50331,-0.2854 1.45668,-0.17438 1.56136,0.49454 z m -0.26915,4.22196 c -0.24769,0.31811 -0.77213,0.34008 -1.18222,0.44776 -0.52849,0.0573 -1.10278,0.37434 -1.25226,0.91516 -0.12347,0.42379 0.0125,1.21526 0.59256,1.12187 0.44922,-0.0586 0.77679,-0.4686 0.94669,-0.8653 0.14908,-0.4525 0.2494,-0.96658 0.63882,-1.28247 0.11538,-0.0792 0.20132,-0.21036 0.25641,-0.33702 z m -0.004,-8.4517 c -0.0144,-0.438349 -0.34377,-0.707406 -1.06933,-0.619098 -0.56728,0.06032 -0.74745,0.723268 -0.83114,1.063838 -0.1056,0.41269 -0.34629,0.96835 -0.44149,1.42262 0.12174,-0.30452 0.66914,-0.62362 1.02758,-0.72614 0.51722,-0.1289 1.12045,-0.36115 1.28582,-0.92287 0.0197,-0.071 0.029,-0.14473 0.0285,-0.21835 z m -0.0854,0.0415 c -0.0416,0.58898 -0.70874,0.87357 -1.21958,0.97597 -0.58527,0.12807 -0.90514,0.69801 -0.63521,-0.0449 0.1447,-0.57719 0.20184,-0.83154 0.39557,-1.15536 0.26249,-0.398746 0.92415,-0.402131 1.22946,-0.206794 0.14126,0.105487 0.22438,0.266534 0.22976,0.431114 z m -0.37216,8.81055 c -0.29643,0.36711 -0.40208,0.81598 -0.54676,1.25521 -0.18468,0.40292 -0.68215,0.95626 -1.15405,0.65538 -0.28042,-0.22758 -0.28511,-0.95192 0.0276,-1.28597 0.30733,-0.36392 0.78127,-0.46033 1.22684,-0.53426 0.14435,-0.0259 0.30871,-0.10304 0.44644,-0.0904 z m -1.14876,-2.08766 c -0.0377,0.44011 -0.77769,0.36692 -1.09068,0.13848 -0.3179,-0.25045 -0.45875,-1.01252 -0.0261,-1.26888 0.5196,-0.27347 0.80282,0.22821 1.05018,0.81328 0.0297,0.10392 0.0495,0.21047 0.0666,0.31712 z m -0.86543,-7.465447 c 0.0462,0.360653 -0.37286,0.799697 -0.72227,0.559897 -0.45141,-0.333398 -0.047,-1.146912 0.36638,-1.066765 0.20095,0.01922 0.358,0.314274 0.35589,0.506868 z m -0.24036,8.707177 c 0.0454,0.53787 -0.975,0.57002 -0.57208,-0.1799 0.23511,-0.3149 0.47485,-0.13596 0.57208,0.1799 z"
       style="fill:#666666;stroke-width:0.00621887"
       id="path912-3"
       inkscape:connector-curvature="0"
       sodipodi:nodetypes="cccccccccccccccccccccccccccccccccccccccccccccccccccccccccccccccccccccccccccccccccccccccccccccccccccccccccccccccccccccccccccccccccccccccccccccc" />
  </g>
</svg>
