<?xml version="1.0" encoding="UTF-8" standalone="no"?>
<svg
   xmlns:dc="http://purl.org/dc/elements/1.1/"
   xmlns:cc="http://creativecommons.org/ns#"
   xmlns:rdf="http://www.w3.org/1999/02/22-rdf-syntax-ns#"
   xmlns:svg="http://www.w3.org/2000/svg"
   xmlns="http://www.w3.org/2000/svg"
   xmlns:sodipodi="http://sodipodi.sourceforge.net/DTD/sodipodi-0.dtd"
   xmlns:inkscape="http://www.inkscape.org/namespaces/inkscape"
   sodipodi:docname="mumWebsiteDrawing edit1.svg"
   inkscape:version="0.92.3 (2405546, 2018-03-11)"
   id="svg8"
   version="1.1"
   viewBox="0 0 735.78961 558.79761"
   height="558.79761mm"
   width="735.78961mm">
  <defs
     id="defs2" />
  <sodipodi:namedview
     fit-margin-bottom="0"
     fit-margin-right="0"
     fit-margin-left="0"
     fit-margin-top="0"
     inkscape:window-maximized="1"
     inkscape:window-y="-8"
     inkscape:window-x="-8"
     inkscape:window-height="705"
     inkscape:window-width="1366"
     showgrid="false"
     inkscape:document-rotation="0"
     inkscape:current-layer="layer1"
     inkscape:document-units="mm"
     inkscape:cy="989.32976"
     inkscape:cx="815.55861"
     inkscape:zoom="0.24748737"
     inkscape:pageshadow="2"
     inkscape:pageopacity="0.0"
     borderopacity="1.0"
     bordercolor="#666666"
     pagecolor="#ffffff"
     id="base" />
  <metadata
     id="metadata5">
    <rdf:RDF>
      <cc:Work
         rdf:about="">
        <dc:format>image/svg+xml</dc:format>
        <dc:type
           rdf:resource="http://purl.org/dc/dcmitype/StillImage" />
        <dc:title></dc:title>
      </cc:Work>
    </rdf:RDF>
  </metadata>
  <g
     transform="translate(57.660108,-33.724926)"
     id="layer1"
     inkscape:groupmode="layer"
     inkscape:label="Layer 1">
    <path
       d="m 412.66438,324.71595 c -12.35763,-0.14375 -24.40029,3.06992 -36.69712,3.87093 -11.03848,3.76385 -23.88671,5.50342 -31.81777,15.39812 -8.35606,11.62479 -17.09786,24.57824 -17.1102,39.4201 -3.07021,11.78343 -10.96933,21.27436 -17.66369,31.08109 -6.60086,9.6307 -13.62302,20.75237 -24.96488,25.10722 -15.73011,9.9752 -37.52375,11.07677 -53.68973,1.41389 -8.8735,-8.7184 -19.88019,-14.96535 -28.12726,-24.282 -6.77992,-12.75911 -8.06502,-28.80016 -0.11917,-41.36882 8.76574,-9.37601 24.37252,-14.08388 35.8066,-6.90085 9.30672,5.67507 21.51247,12.24789 18.20516,25.2313 -3.3114,6.75454 1.19316,22.08028 6.31127,8.86915 0.58357,-12.89119 9.60976,-24.84922 22.72342,-26.85921 8.08485,-5.27757 26.69107,7.32304 28.78661,-2.39381 -11.64619,-4.75864 -28.09163,-3.31944 -32.39651,-18.6985 -6.35915,-6.06793 2.6369,-21.92056 -6.15882,-22.8296 -2.64024,13.3116 -10.34279,27.24371 -23.86883,32.13343 -12.40761,3.14333 -24.83078,-7.54314 -37.71877,-1.19681 -12.42426,1.95619 -22.68547,12.28702 -22.13199,25.18138 -3.23412,13.55089 1.88234,29.15786 12.39682,38.2354 11.43841,7.08277 19.99514,18.57901 32.69517,23.54017 11.6512,4.24353 25.01261,3.50915 36.82625,0.37512 11.67938,-3.6337 22.50709,-10.02572 29.94902,-19.81844 5.15527,-5.25067 8.18506,-12.43412 13.30141,-17.15111 -1.92228,11.2214 -3.54619,23.13398 -8.0847,33.4675 -0.11122,12.72956 -6.75945,26.9129 -5.25293,40.89994 -0.54128,20.61388 -8.59356,40.7789 -21.42143,56.8822 -10.65237,6.69821 -20.7968,14.87775 -32.72253,19.18299 -21.29174,5.89731 -43.55398,6.44146 -65.50946,7.36916 1.20763,9.64913 21.26451,3.54417 30.4588,4.43498 14.91686,0.79763 29.24148,-2.31388 42.88894,-8.1751 10.65324,-6.17886 22.95763,-11.43707 31.28667,-20.82461 7.27823,-11.17106 15.15615,-22.33325 17.51424,-35.73943 7.0984,-18.2064 -1.13096,-40.7713 12.43063,-56.79788 8.22363,-7.55767 15.80682,-18.39585 27.28608,-23.38275 25.1759,-8.12373 54.43055,0.44196 71.84983,20.14817 8.00081,13.69802 9.11792,31.93879 0.97462,45.87679 -4.8945,13.18025 -21.41011,17.55737 -33.02307,10.37821 -9.99636,-7.90436 -13.99751,-20.72411 -16.33395,-32.75334 -9.95504,-6.29496 -2.79801,17.2633 -7.30473,23.2448 -2.0395,16.00874 -24.51147,12.14477 -30.06525,22.33511 10.76837,2.27393 28.39572,1.38365 32.84137,15.71639 3.79524,6.25124 -8.7765,26.99038 3.81479,19.1595 9.07448,-15.00257 23.88114,-25.46967 36.41068,-37.43933 11.14722,-2.38594 15.44479,-8.87702 18.66467,-19.12964 7.4067,-12.56183 5.79097,-28.51868 2.45493,-42.11273 -7.7641,-11.22225 -17.02456,-22.1078 -29.93352,-27.45321 -12.18348,-5.66514 -26.07733,-6.0985 -39.29888,-6.48698 -13.58946,1.272 -24.93834,9.46684 -33.96848,19.1797 -11.75484,10.59169 -0.71771,-10.38586 -1.77146,-15.8812 3.2285,-15.86566 8.77416,-31.14778 11.9394,-46.9932 3.11102,-13.68626 8.51362,-28.57642 21.93763,-35.45587 13.16301,-8.4448 29.07377,-8.11208 43.84548,-11.36751 14.1677,-0.85359 30.0446,-5.60462 43.25717,1.46046 -0.90134,-9.27602 -19.43747,-6.93419 -27.72434,-8.0863 l -1.97822,-0.0145 z m -137.95901,24.08071 c 2.75877,6.79149 8.61654,15.1899 11.87056,21.5191 -10.47391,-0.1706 -18.23909,11.73199 -26.13872,12.87177 0.62595,-7.78903 -18.82735,-14.22988 -4.16753,-16.76456 8.96788,-2.61201 12.47975,-12.08461 18.43569,-17.62631 z m 94.85672,146.40242 c 5.52145,10.03154 14.15825,20.20415 25.33979,21.93645 -8.3889,5.53389 -16.00418,20.88308 -24.63704,20.79736 5.37896,-12.34829 -17.57763,-16.83538 -15.34697,-22.99431 7.93325,-3.95004 10.67135,-12.54894 14.64422,-19.7395 z"
       style="fill:#000000;stroke-width:0.352777"
       id="path944" />
    <path
       d="m 434.44945,43.552307 c -31.9313,0.903582 -57.73287,20.683327 -79.47113,45.217394 -17.6331,23.656529 -17.32085,31.681449 -29.04346,55.268989 -22.9596,27.07048 -57.17616,40.0217 -73.3129,37.12131 -14.50377,-3.87391 10.78294,-5.85662 22.10495,-14.47786 26.47829,-15.24784 37.97862,-45.75252 27.24537,-68.318708 -9.58059,-24.035491 -45.66108,-36.459013 -64.11148,-14.860739 -21.78402,20.115267 -21.98608,55.175947 -12.93309,81.696087 10.99439,27.53659 33.41169,29.37169 64.47267,15.71668 16.84405,-5.23316 35.81241,-35.424 26.71362,-5.82568 -7.04952,31.43878 -33.63159,69.20768 -41.71142,79.11485 -24.57207,27.02396 -50.27217,30.02506 -78.23709,23.67786 -25.7581,-11.35024 -27.31645,-47.1746 -24.61885,-71.31481 1.08097,-33.71791 14.7386,-65.05832 23.26835,-97.1057 8.49761,-30.327398 -13.6215,-62.777354 -45.91516,-63.000226 -32.36193,-1.274958 -33.33577,45.427054 -15.46973,63.414156 32.39913,31.51498 46.51195,11.59628 48.87894,18.7615 -7.9834,25.31682 -17.10139,53.57914 -17.66647,80.41404 -1.90772,21.41989 4.66469,57.66767 4.6763,48.72189 C 154.36018,235.97776 139.70191,202.9975 133.24233,182.05219 120.11594,134.95313 137.0753,125.93117 96.632517,77.255295 71.663361,46.630371 58.230619,40.010204 16.553641,45.675656 c -24.953144,5.562765 -37.498629,11.621225 -52.6339,29.377394 -9.304342,13.19738 -16.617178,27.26027 -18.097259,68.58921 3.208339,34.96659 15.200658,55.0337 30.165559,68.33304 20.7209197,17.78298 53.546651,26.8693 92.350951,33.44427 31.742218,7.80657 58.932588,-1.12472 88.128468,15.52153 10.23405,6.0423 47.52424,27.51762 16.14733,14.53906 -34.51908,-17.7438 -69.54462,-8.15372 -104.002761,-0.17658 -21.877992,3.11412 -45.049853,12.97032 -60.6937756,9.58323 31.1028446,-18.40161 6.9460556,-58.96825 -31.0917324,-54.78357 -37.652268,6.99403 -39.251781,42.57162 -10.334297,54.36938 24.7581597,9.0554 38.6634347,8.95924 73.47178,2.13927 32.92212,-4.36237 65.457436,-15.19838 98.954166,-12.67055 24.91356,2.62359 30.12729,14.63275 66.96349,14.64611 25.88196,0.6993 44.26995,-2.61904 61.01877,-14.85978 25.09566,-21.12284 36.36167,-50.41854 44.50543,-67.70473 12.8705,-26.64115 45.14326,-55.03142 78.1616,-40.0161 13.47002,3.73806 27.69499,15.23909 3.5066,15.92452 -24.73991,4.39615 -67.45413,25.33832 -63.1134,53.44703 2.19723,27.67048 36.13883,42.40928 66.6555,30.4227 20.52251,-7.89659 37.96741,-29.85214 32.44266,-67.53988 -7.59086,-27.64185 -37.38329,-49.55977 -74.59579,-41.36279 -17.18388,4.41388 -43.37894,38.6585 -24.85428,-2.84552 13.72285,-30.4529 24.05433,-65.369641 54.16217,-84.134761 9.69034,-6.685845 51.3421,-38.557881 61.90218,-7.804174 13.12741,25.629711 -4.33963,81.604665 -4.46538,124.177945 -1.45303,26.6001 -0.63647,60.68465 8.28005,80.53541 9.14384,20.37755 31.51798,30.97872 48.10658,17.46995 23.91751,-23.4659 -17.69729,-56.95708 -38.13038,-35.33045 -13.18343,12.64875 -12.91714,-24.55729 -13.06459,-35.85294 -1.01801,-16.88552 0.29683,-34.85548 2.09444,-50.35668 2.79461,-32.83558 14.36894,-64.974091 3.2883,-97.511132 -11.51337,-28.777554 13.09105,11.51872 15.90172,26.998366 5.73844,22.388886 7.36763,38.241926 8.66658,68.236136 1.78139,30.34449 9.41355,59.53055 28.9266,86.16321 22.01285,27.37224 44.34144,41.77545 63.91155,43.67881 35.97126,1.78756 59.30692,-9.76139 78.00669,-22.27623 22.31448,-19.09503 25.45408,-34.44789 30.08315,-58.0407 5.18922,-41.5654 -7.00791,-68.54293 -28.27641,-84.3917 C 624.24229,106.5863 595.28231,97.068601 564.36891,88.570748 520.97246,77.426986 505.50669,72.092301 480.00377,60.718192 c 12.26118,-0.137955 23.84476,4.9429 56.02646,2.328717 32.43715,-3.274132 60.06338,-7.510261 92.60454,-9.730857 19.91752,-3.389656 -7.51769,9.568933 -5.26673,34.914044 8.95267,33.889434 60.52834,29.579184 55.63719,-10.946515 0.14447,-18.26502 -18.59411,-32.800578 -48.9844,-32.107162 -42.74577,5.813703 -57.94386,9.084064 -97.51346,11.45798 -55.706,2.877863 -72.59234,-12.105384 -98.05792,-13.082092 z M 32.088176,50.032732 c 28.152556,-4.195133 53.045623,18.309007 77.906134,57.507388 13.74553,28.94454 8.40047,39.49231 13.09144,61.62646 6.09777,28.58312 19.90818,50.1099 33.33961,78.11179 12.61168,18.63646 -2.19589,-2.97605 -37.17165,-3.3847 C 77.707675,241.28287 41.89897,235.68163 2.8444125,221.01135 -13.45813,214.41524 -48.192566,189.53158 -44.798711,125.32861 c 1.903919,-18.08715 5.17412,-30.823536 15.387438,-45.477407 16.234747,-21.797708 51.440037,-29.007782 61.499449,-29.818471 z m 114.906994,1.071052 c 23.82635,0.473051 45.60447,19.667136 43.98799,44.518713 3.33615,33.381303 -32.62235,31.046123 -53.64068,11.106033 -12.95687,-13.067672 -19.10675,-58.096363 9.65269,-55.624746 z m 503.46643,4.220414 c 31.24261,2.444255 35.47263,55.150932 -2.12631,49.343132 -33.26848,-5.766566 -19.03345,-46.827773 2.12631,-49.343132 z m -194.55143,0.960148 c 19.07185,9.066279 38.52341,18.962659 58.78658,25.659488 38.30778,10.195132 76.99708,19.055676 112.85106,36.299476 24.18977,12.86458 45.75282,45.95165 44.45149,73.50573 -2.32421,32.03218 -6.09393,47.40057 -35.38559,71.0525 -21.01049,12.44848 -28.54728,14.52203 -53.70484,18.47245 -33.12687,3.87952 -52.75525,-18.76913 -70.40785,-39.4449 -18.18405,-26.28988 -28.27686,-59.99926 -28.41585,-80.2018 -2.11737,-30.35317 -0.84865,-43.75794 -13.11066,-78.240051 -4.83529,-11.4528 -7.12415,-15.490334 -15.06434,-27.102893 z M 261.31,78.179281 c 28.39631,-0.723059 42.18556,24.851919 37.16295,49.368439 -6.03922,27.77273 -54.25428,56.77366 -65.2155,39.20247 C 217.0673,138.19857 223.36562,84.118096 261.31,78.179281 Z m 239.49975,15.268172 c 18.0445,14.050767 19.29109,43.800167 25.3992,67.063407 3.2516,29.97966 21.23501,62.5573 51.91488,71.03656 24.03906,7.0041 68.93695,-0.70204 63.63959,-33.61384 -3.32134,-25.48314 -26.58287,-44.06437 -49.0865,-53.70271 -25.6684,-8.45688 -54.83021,-14.148 -72.74949,-36.23754 -4.48977,-6.54603 -11.93334,-11.4209 -19.11768,-14.545877 z M 21.371315,93.674828 c -24.8663173,0.816693 -40.129207,19.500052 -35.119603,60.658642 3.419349,32.18038 41.028296,42.40034 60.348039,47.14873 23.410226,5.99233 54.930909,19.64383 80.700599,25.0442 C 110.02619,219.62033 91.9244,188.56821 86.109358,168.23415 78.796907,138.89545 65.621819,104.67511 33.757583,95.294122 29.731532,94.178033 25.547432,93.64721 21.371315,93.674828 Z m 1.213364,4.66018 c 33.410704,2.363892 50.68846,40.393902 56.497178,69.371772 7.265253,33.20077 39.595863,51.34537 -2.549388,36.03346 C 43.79099,195.53215 29.362818,192.29097 10.992705,181.30059 -11.626503,166.41043 -10.306412,129.44329 0.77412519,112.12383 6.7600948,104.11101 13.248118,98.639974 22.584679,98.335008 Z M 523.51224,119.63552 c 20.8253,16.81472 46.28822,22.80914 71.20496,31.01619 22.85666,10.47633 54.24514,38.69628 37.17726,65.46496 -19.06942,18.51386 -53.99944,16.17305 -72.9498,-1.5608 -20.6429,-17.43459 -26.11191,-44.31961 -30.30665,-69.5958 -1.46468,-8.18818 -5.84721,-17.51218 -5.12577,-25.32455 z m -118.42533,65.16553 c 24.96627,2.13938 20.81421,44.11622 7.85529,61.86937 -14.20754,18.03486 -57.43751,26.02455 -71.97983,1.47727 -15.51304,-29.4751 12.94577,-45.54024 46.13544,-59.57323 5.89563,-1.68369 11.93851,-2.81743 17.9891,-3.77341 z m -423.49146,49.09261 c 20.4587902,-2.62203 45.365,21.15208 31.761533,40.97291 -18.9130937,25.60612 -65.060865,2.66819 -60.514316,-20.78431 1.090328,-11.39922 17.827677,-20.30796 28.752783,-20.1886 z M 475.5255,247.529 c 30.51192,-2.57993 32.33585,55.30809 -10.20454,32.45231 -17.86377,-13.33697 -7.71253,-26.93671 10.20454,-32.45231 z"
       style="fill:#000000;stroke-width:0.352777"
       id="path912"
       inkscape:connector-curvature="0"
       sodipodi:nodetypes="ccccccccccccccccccccccccccccccccccccccccccccccccccccccccccccccccccccccccccccccccccccccccccccccccccccccccccccccccccccccccccccccccccccccccc" />
  </g>
</svg>
