<?xml version="1.0" encoding="UTF-8" standalone="no"?>
<svg
   xmlns:dc="http://purl.org/dc/elements/1.1/"
   xmlns:cc="http://creativecommons.org/ns#"
   xmlns:rdf="http://www.w3.org/1999/02/22-rdf-syntax-ns#"
   xmlns:svg="http://www.w3.org/2000/svg"
   xmlns="http://www.w3.org/2000/svg"
   xmlns:sodipodi="http://sodipodi.sourceforge.net/DTD/sodipodi-0.dtd"
   xmlns:inkscape="http://www.inkscape.org/namespaces/inkscape"
   sodipodi:docname="mumWebsiteDrawing edit4.svg"
   inkscape:version="0.92.3 (2405546, 2018-03-11)"
   id="svg8"
   version="1.1"
   viewBox="0 0 735.78961 558.79761"
   height="558.79761mm"
   width="735.78961mm">
  <defs
     id="defs2" />
  <sodipodi:namedview
     fit-margin-bottom="0"
     fit-margin-right="0"
     fit-margin-left="0"
     fit-margin-top="0"
     inkscape:window-maximized="1"
     inkscape:window-y="-8"
     inkscape:window-x="-8"
     inkscape:window-height="705"
     inkscape:window-width="1366"
     showgrid="false"
     inkscape:document-rotation="0"
     inkscape:current-layer="layer1"
     inkscape:document-units="mm"
     inkscape:cy="1443.9211"
     inkscape:cx="-945.26035"
     inkscape:zoom="0.12374369"
     inkscape:pageshadow="2"
     inkscape:pageopacity="0.0"
     borderopacity="1.0"
     bordercolor="#666666"
     pagecolor="#ffffff"
     id="base" />
  <metadata
     id="metadata5">
    <rdf:RDF>
      <cc:Work
         rdf:about="">
        <dc:format>image/svg+xml</dc:format>
        <dc:type
           rdf:resource="http://purl.org/dc/dcmitype/StillImage" />
        <dc:title></dc:title>
      </cc:Work>
    </rdf:RDF>
  </metadata>
  <g
     transform="translate(57.660108,-33.724926)"
     id="layer1"
     inkscape:groupmode="layer"
     inkscape:label="Layer 1">
    <path
       d="m 188.6585,45.598366 c 0.90358,31.9313 20.68333,57.732874 45.2174,79.471134 23.65653,17.6331 31.68145,17.32085 55.26899,29.04346 27.07048,22.9596 40.0217,57.17616 37.12131,73.3129 -3.87391,14.50377 -5.85662,-10.78294 -14.47786,-22.10495 -15.24784,-26.47829 -45.75252,-37.97862 -68.31871,-27.24537 -24.03549,9.58059 -36.45902,45.66108 -14.86074,64.11148 20.11527,21.78402 55.17595,21.98608 81.69609,12.93309 27.53659,-10.99439 29.37169,-33.41169 15.71668,-64.47267 -5.23316,-16.84405 -35.424,-35.81241 -5.82568,-26.71362 31.43878,7.04952 69.20768,33.63159 79.11485,41.71142 27.02396,24.57207 30.02506,50.27217 23.67786,78.23709 -11.35024,25.7581 -47.1746,27.31645 -71.31481,24.61885 -33.71791,-1.08097 -65.05832,-14.7386 -97.1057,-23.26835 -30.3274,-8.49761 -62.77736,13.6215 -63.00023,45.91516 -1.27496,32.36193 45.42705,33.33577 63.41416,15.46973 31.51498,-32.39913 11.59628,-46.51195 18.7615,-48.87894 25.31682,7.9834 53.57914,17.10139 80.41404,17.66647 21.41989,1.90772 57.66767,-4.66469 48.72189,-4.6763 -21.79558,14.95869 -54.77584,27.72708 -75.72115,34.18666 -64.94906,11.93758 -79.20131,17.59629 -106.68678,37.36576 -29.86897,29.1269 -35.35521,39.53583 -29.68976,81.21281 5.56277,24.95314 11.62123,37.49862 29.3774,52.6339 13.19738,9.30434 27.26027,16.61717 68.58921,18.09725 34.96659,-3.20833 55.0337,-15.20065 68.33304,-30.16555 17.78298,-20.72092 26.8693,-53.54666 33.44427,-92.35096 7.80657,-31.74221 -1.12472,-58.93258 15.52153,-88.12846 6.0423,-10.23405 27.51762,-47.52424 14.53906,-16.14733 -17.7438,34.51908 -8.15372,69.54462 -0.17658,104.00276 4.62602,24.52382 8.81258,40.89211 9.58323,60.69377 -18.40161,-31.10284 -58.96825,-6.94605 -54.78357,31.09174 6.99403,37.65226 42.57162,39.25178 54.36938,10.33429 8.67742,-19.08851 8.95924,-31.10391 2.13927,-73.47178 -4.36237,-32.92212 -15.19838,-65.45743 -12.67055,-98.95416 2.62359,-24.91356 14.63275,-30.12729 14.64611,-66.96349 0.6993,-25.88196 -2.61904,-44.26995 -14.85978,-61.01877 -21.12284,-25.09566 -50.41854,-36.36167 -67.70473,-44.50543 -26.64115,-12.8705 -55.03142,-45.14326 -40.0161,-78.161604 3.73806,-13.47002 15.23909,-27.69499 15.92452,-3.5066 4.39615,24.739914 25.33832,67.454134 53.44703,63.113404 27.67048,-2.19723 42.40928,-36.13883 30.4227,-66.655504 -7.89659,-20.52251 -29.85214,-37.96741 -67.53988,-32.44266 -27.64185,7.59086 -49.55977,37.38329 -41.36279,74.595794 4.41388,17.18388 38.6585,43.37894 -2.84552,24.85428 -30.4529,-13.72285 -65.36965,-24.05433 -84.13477,-54.162174 -6.68584,-9.69034 -38.55788,-51.3421 -7.80417,-61.90218 25.62971,-13.12741 81.60467,4.33963 124.17795,4.46538 26.6001,1.45303 60.68465,0.63647 80.53541,-8.28005 20.37755,-9.14384 30.97872,-31.51797968 17.46995,-48.10658 -23.4659,-23.91751 -56.95708,17.69729032 -35.33045,38.13038 12.64875,13.18343 -24.55729,12.91714 -35.85294,13.06459 -16.88552,1.01801 -34.85548,-0.29683 -50.35668,-2.09444 -32.83558,-2.79461 -64.9741,-14.36894 -97.51114,-3.2883 -28.77755,11.51337 11.51872,-13.09105 26.99837,-15.90172 22.38889,-5.7384397 38.24193,-7.3676297 68.23614,-8.6665797 30.34449,-1.78139 59.53055,-9.41355 86.16321,-28.9266003 27.37224,-22.01285 41.77545,-44.34144 43.67881,-63.91155 1.78756,-35.971256 -9.76139,-59.306916 -22.27623,-78.006686 -19.09503,-22.31448 -34.44789,-25.45408 -58.0407,-30.08315 -41.5654,-5.18922 -68.54293,7.00791 -84.3917,28.27641 -19.02766,24.75971 -28.54536,53.71969 -37.04322,84.633086 -11.14376,43.39645 -16.47844,58.86222 -27.85255,84.36514032 -0.13796,-12.26118032 4.9429,-23.84476032 2.32871,-56.02646032 -3.27413,-32.43715 -7.51026,-60.063376 -9.73085,-92.604536 -3.38966,-19.91752 9.56893,7.51769 34.91404,5.26673 33.88944,-8.95267 29.57919,-60.52834 -10.94651,-55.63719 -18.26502,-0.14447 -32.80058,18.59411 -32.10717,48.9844 5.81371,42.74577 9.08407,57.943856 11.45798,97.513456 2.87787,55.7060003 -12.10538,72.59234 -13.08209,98.05792 z m 6.48043,402.361274 c -4.19514,-28.15256 17.93103,-58.33729 52.97168,-73.74839 19.49513,-11.85565 39.87028,-13.69214 66.16217,-19.89501 28.58312,-6.09777 50.1099,-17.26235 78.11179,-30.69378 18.63646,-12.61168 -2.97605,2.19589 -3.3847,37.17165 -2.6108,41.54603 -8.21204,77.35474 -22.88232,116.40929 -6.59611,16.30255 -31.47977,51.03698 -95.68274,47.64313 -18.08715,-1.90392 -30.82354,-5.17412 -45.47741,-15.38744 -21.79771,-16.23475 -29.00778,-51.44004 -29.81847,-61.49945 z m 1.07105,-114.90699 c 0.47305,-23.82635 19.66714,-45.60447 44.51871,-43.98799 33.38131,-3.33615 31.04613,32.62235 11.10604,53.64068 -13.06768,12.95687 -58.09637,19.10675 -55.62475,-9.65269 z m 4.22041,-503.46643 c 2.44426,-31.24261 55.15094,-35.47263 49.34314,2.12631 -5.76657,33.26848 -46.82778,19.03345 -49.34314,-2.12631 z m 0.96015,194.551426 c 9.06628,-19.0718497 18.96266,-38.52341 25.65949,-58.78658 10.19513,-38.30778 19.05568,-76.997076 36.29948,-112.851056 12.86458,-24.18977 45.95165,-45.75282 73.50573,-44.45149 32.03218,2.32421 47.40057,6.09393 71.0525,35.38559 12.44848,21.01049 14.52203,28.54728 18.47245,53.70484 3.87952,33.126866 -18.76913,52.755246 -39.4449,70.407846 -26.28988,18.18405 -59.99926,28.2768603 -80.2018,28.4158503 -30.35317,2.11737 -43.75794,0.84865 -78.24006,13.11066 -11.4528,4.8352897 -15.49033,7.1241497 -27.10289,15.0643397 z m 21.89494,194.600174 c -0.72306,-28.39631 24.85192,-42.18556 49.36844,-37.16295 27.77273,6.03922 56.77366,54.25428 39.20247,65.2155 -28.55162,16.19015 -82.6321,9.89183 -88.57091,-28.05255 z m 15.26817,-239.499754 c 14.05077,-18.0445 43.80017,-19.29109 67.06341,-25.3992 29.97966,-3.2516 62.5573,-21.23501 71.03656,-51.91488 7.0041,-24.039056 -0.70204,-68.936946 -33.61384,-63.639586 -25.48314,3.32134 -44.06437,26.58287 -53.70271,49.0865 -8.45688,25.668396 -14.148,54.830206 -36.23754,72.749486 -6.54603,4.48977 -11.4209,11.93334 -14.54588,19.11768 z m 0.22737,479.438434 c 0.8167,24.86632 19.50006,40.12921 60.65865,35.1196 32.18038,-3.41934 42.40034,-41.02829 47.14873,-60.34803 5.99233,-23.41023 19.64383,-54.93091 25.0442,-80.7006 -6.90607,17.27416 -37.95819,35.37595 -58.29225,41.19099 -29.3387,7.31245 -63.55904,20.48754 -72.94003,52.35177 -1.11609,4.02605 -1.64691,8.21015 -1.6193,12.38627 z m 4.66018,-1.21336 c 2.3639,-33.41071 40.39391,-50.68846 69.37178,-56.49718 33.20077,-7.26525 51.34537,-39.59586 36.03346,2.54939 -8.20809,32.74148 -11.44927,47.16965 -22.43965,65.53976 -14.89016,22.61921 -51.8573,21.29912 -69.17676,10.21858 -8.01282,-5.98597 -13.48386,-12.47399 -13.78883,-21.81055 z m 21.30052,-500.927564 c 16.81472,-20.8253 22.80914,-46.28822 31.01619,-71.204956 10.47633,-22.85666 38.69628,-54.24514 65.46496,-37.17726 18.51386,19.06942 16.17305,53.999436 -1.5608,72.949796 -17.43459,20.6429 -44.31961,26.11191 -69.5958,30.30665 -8.18818,1.46468 -17.51218,5.84721 -25.32455,5.12577 z m 65.16553,118.42533 c 2.13938,-24.96627 44.11622,-20.81421 61.86937,-7.85529 18.03486,14.20754 26.02455,57.437514 1.47727,71.979834 -29.4751,15.51304 -45.54024,-12.94577 -59.57323,-46.135444 -1.68369,-5.89563 -2.81743,-11.93851 -3.77341,-17.9891 z m 49.09261,423.491464 c -2.62203,-20.45879 21.15208,-45.365 40.97291,-31.76154 25.60612,18.9131 2.66819,65.06087 -20.78431,60.51432 -11.39922,-1.09033 -20.30796,-17.82768 -20.1886,-28.75278 z M 392.6352,4.5223163 C 390.05527,-25.989604 447.94329,-27.813534 425.08751,14.726856 411.75054,32.590626 398.1508,22.439386 392.6352,4.5223163 Z"
       style="fill:#000000;stroke-width:0.352777"
       id="path912"
       inkscape:connector-curvature="0"
       sodipodi:nodetypes="ccccccccccccccccccccccccccccccccccccccccccccccccccccccccccccccccccccccccccccccccccccccccccccccccccccccccccccccccccccccccccccccccccccccccc" />
    <path
       d="m -1101.1749,226.8953 c -0.9036,-31.9313 -20.6833,-57.7328 -45.2174,-79.4711 -23.6565,-17.6331 -31.6814,-17.3208 -55.269,-29.0435 -27.0704,-22.959602 -40.0217,-57.176102 -37.1213,-73.312902 3.8739,-14.5037 5.8566,10.783 14.4779,22.105 15.2478,26.4783 45.7525,37.978602 68.3187,27.2454 24.0355,-9.5806 36.459,-45.6611 14.8607,-64.1115 -20.1152,-21.7839996 -55.1759,-21.9860996 -81.6961,-12.9331 -27.5365,10.9944 -29.3716,33.4117 -15.7166,64.4727 5.2331,16.844 35.424,35.812402 5.8256,26.713602 -31.4387,-7.0495 -69.2076,-33.631602 -79.1148,-41.711402 -27.024,-24.5721 -30.0251,-50.2722 -23.6779,-78.2371 11.3503,-25.7581 47.1746,-27.3165 71.3148,-24.6189 33.718,1.081 65.0584,14.7386 97.1057,23.2684 30.3274,8.4976004 62.7774,-13.6215 63.0003,-45.9152 1.2749,-32.3619 -45.4271,-33.3358 -63.4142,-15.4697 -31.515,32.3991 -11.5963,46.5119 -18.7615,48.8789 -25.3168,-7.9834 -53.5791,-17.1014 -80.414,-17.6664 -21.4199,-1.9078 -57.6677,4.6646 -48.7219,4.6763 21.7956,-14.9587 54.7758,-27.7271 75.7211,-34.1867 64.9491,-11.9376 79.2013,-17.5963 106.6868,-37.365798 29.869,-29.1269 35.3552,-39.5358 29.6898,-81.2128 -5.5628,-24.9531 -11.6213,-37.4986 -29.3774,-52.6339 -13.1974,-9.3043 -27.2603,-16.6172 -68.5892,-18.0972 -34.9666,3.2083 -55.0337,15.2006 -68.3331,30.1655 -17.783,20.7209 -26.8693,53.5467 -33.4442,92.351 -7.8066,31.7422 1.1247,58.932598 -15.5216,88.128398 -6.0423,10.2341 -27.5176,47.5243004 -14.539,16.1474 17.7438,-34.5191 8.1537,-69.544698 0.1765,-104.002798 -4.626,-24.5238 -8.8125,-40.8921 -9.5832,-60.6938 18.4016,31.1029 58.9683,6.9461 54.7836,-31.0917 -6.9941,-37.6523 -42.5716,-39.2518 -54.3694,-10.3343 -8.6774,19.0885 -8.9592,31.1039 -2.1393,73.4718 4.3624,32.9221 15.1984,65.4574 12.6706,98.954098 -2.6236,24.9136 -14.6328,30.1273 -14.6461,66.9635004 -0.6993,25.8819996 2.619,44.2699996 14.8598,61.0187996 21.1228,25.0957 50.4185,36.3617 67.7047,44.505402 26.6411,12.8705 55.0314,45.1433 40.0161,78.1616 -3.7381,13.4701 -15.2391,27.695 -15.9245,3.5066 -4.3962,-24.7399 -25.3384,-67.4541 -53.4471,-63.1133 -27.6704,2.1972 -42.4093,36.1388 -30.4227,66.6555 7.8966,20.5225 29.8522,37.9674 67.5399,32.4426 27.6419,-7.5909 49.5598,-37.3833 41.3628,-74.5958 -4.4139,-17.1839 -38.6585,-43.3789 2.8455,-24.8543 30.4529,13.7229 65.3697,24.0544 84.1348,54.1622 6.6858,9.6903 38.5579,51.3421 7.8042,61.9022 -25.6297,13.1274 -81.6047,-4.3396 -124.178,-4.4654 -26.6001,-1.453 -60.6846,-0.6365 -80.5354,8.2801 -20.3775,9.1438 -30.9787,31.5179 -17.4699,48.1065 23.4659,23.9175 56.957,-17.6972 35.3304,-38.1303 -12.6488,-13.1835 24.5573,-12.9172 35.8529,-13.0646 16.8856,-1.018 34.8555,0.2968 50.3567,2.0944 32.8356,2.7946 64.9741,14.3689 97.5112,3.2883 28.7775,-11.5134 -11.5188,13.0911 -26.9984,15.9017 -22.3889,5.7385 -38.2419,7.3677 -68.2361,8.6666 -30.3445,1.7814 -59.5306,9.4136 -86.1633,28.9266 -27.3722,22.0129 -41.7754,44.34145 -43.6788,63.91156 -1.7875,35.97125 9.7614,59.30692 22.2763,78.00669 19.095,22.31448 34.4479,25.45408 58.0407,30.08315 41.5654,5.18922 68.5429,-7.00791 84.3917,-28.27641 19.0276,-24.75971 28.5453,-53.7197 37.0432,-84.63309 11.1437,-43.3965 16.4784,-58.8622 27.8525,-84.3651 0.138,12.2611 -4.9429,23.8447 -2.3287,56.0264 3.2742,32.43717 7.5103,60.06339 9.7309,92.60456 3.3896,19.91752 -9.569,-7.51769 -34.9141,-5.26673 -33.8894,8.95267 -29.5792,60.52834 10.9465,55.63719 18.2651,0.14447 32.8006,-18.59411 32.1072,-48.9844 -5.8137,-42.74578 -9.0841,-57.94386 -11.458,-97.51342 -2.8778,-55.706 12.1054,-72.5924 13.0821,-98.058 z m -6.4804,-402.3612 c 4.1951,28.1525 -17.931,58.3372 -52.9717,73.7484 -19.4951,11.855598 -39.8703,13.692098 -66.1622,19.894998 -28.5831,6.0977 -50.1099,17.2623 -78.1117,30.6937 -18.6365,12.6117 2.976,-2.1958 3.3847,-37.1716 2.6107,-41.545998 8.212,-77.354798 22.8823,-116.409298 6.5961,-16.3025 31.4797,-51.037 95.6827,-47.6431 18.0872,1.9039 30.8236,5.1741 45.4774,15.3874 21.7977,16.2347 29.0078,51.44 29.8185,61.4995 z m -1.0711,114.906898 c -0.473,23.8264 -19.6671,45.6045 -44.5187,43.988 -33.3813,3.3362 -31.0461,-32.6223 -11.106,-53.6407 13.0677,-12.9568 58.0964,-19.1067 55.6247,9.6527 z m -4.2204,503.466492 c -2.4442,31.24261 -55.1509,35.47263 -49.3431,-2.12631 5.7666,-33.26848 46.8278,-19.03345 49.3431,2.12631 z m -0.9601,-194.55139 c -9.0663,19.0718 -18.9627,38.5234 -25.6595,58.7865 -10.1951,38.30782 -19.0557,76.99711 -36.2995,112.8511 -12.8646,24.18977 -45.9516,45.75282 -73.5057,44.45149 -32.0322,-2.32421 -47.4006,-6.09393 -71.0525,-35.38559 -12.4485,-21.01049 -14.5221,-28.54729 -18.4725,-53.70485 -3.8795,-33.12686 18.7692,-52.75525 39.4449,-70.40785 26.2899,-18.184 59.9993,-28.2769 80.2018,-28.4158 30.3532,-2.1174 43.758,-0.8487 78.2401,-13.1107 11.4528,-4.8353 15.4903,-7.1242 27.1029,-15.0643 z m -21.895,-194.600202 c 0.7231,28.3963 -24.8519,42.1855 -49.3684,37.1629 -27.7727,-6.0392 -56.7737,-54.2543 -39.2025,-65.2155 28.5517,-16.1900996 82.6321,-9.8918 88.5709,28.0526 z M -1151.07,293.2556 c -14.0508,18.0445 -43.8002,19.2911 -67.0634,25.3992 -29.9797,3.2516 -62.5573,21.23505 -71.0366,51.91492 -7.0041,24.03905 0.702,68.93695 33.6138,63.63959 25.4832,-3.32134 44.0644,-26.58287 53.7028,-49.08651 8.4568,-25.66839 14.148,-54.8302 36.2375,-72.7495 6.546,-4.4897 11.4209,-11.9333 14.5459,-19.1177 z m -0.2274,-479.4384 c -0.8167,-24.8663 -19.5001,-40.1292 -60.6586,-35.1196 -32.1804,3.4193 -42.4004,41.0283 -47.1488,60.348 -5.9923,23.4103 -19.6438,54.9309 -25.0442,80.700598 6.9061,-17.2741 37.9582,-35.375898 58.2923,-41.190998 29.3387,-7.3124 63.559,-20.4875 72.94,-52.3517 1.1161,-4.0261 1.6469,-8.2102 1.6193,-12.3863 z m -4.6602,1.2134 c -2.3639,33.4107 -40.3939,50.6884 -69.3718,56.4971 -33.2007,7.2653 -51.3453,39.595898 -36.0334,-2.5494 8.2081,-32.7414 11.4493,-47.1696 22.4396,-65.5397 14.8902,-22.6192 51.8573,-21.2991 69.1768,-10.2186 8.0128,5.986 13.4839,12.474 13.7888,21.8106 z m -21.3005,500.9275 c -16.8147,20.82533 -22.8091,46.28825 -31.0162,71.20498 -10.4763,22.85667 -38.6963,54.24515 -65.4649,37.17727 -18.5139,-19.06943 -16.1731,-53.99944 1.5608,-72.9498 17.4345,-20.6429 44.3196,-26.11195 69.5958,-30.30665 8.1881,-1.4647 17.5121,-5.8472 25.3245,-5.1258 z m -65.1655,-118.4253 c -2.1394,24.9663 -44.1162,20.8142 -61.8694,7.8553 -18.0349,-14.2076 -26.0246,-57.4375 -1.4773,-71.9799 29.4751,-15.513 45.5403,12.9458 59.5733,46.1355 1.6837,5.8956 2.8174,11.9385 3.7734,17.9891 z m -49.0926,-423.4915 c 2.622,20.4588 -21.1521,45.365 -40.973,31.7615 -25.6061,-18.913 -2.6681,-65.0608 20.7844,-60.5143 11.3992,1.0904 20.3079,17.8277 20.1886,28.7528 z m -13.6354,493.9301 c 2.58,30.5119 -55.3081,32.3358 -32.4523,-10.2045 13.337,-17.8638 26.9367,-7.7126 32.4523,10.2045 z"
       style="fill:#000000;stroke-width:0.352777"
       id="path912-3"
       inkscape:connector-curvature="0"
       sodipodi:nodetypes="ccccccccccccccccccccccccccccccccccccccccccccccccccccccccccccccccccccccccccccccccccccccccccccccccccccccccccccccccccccccccccccccccccccccccc" />
  </g>
</svg>
