<?xml version="1.0" encoding="UTF-8" standalone="no"?>
<svg
   xmlns:dc="http://purl.org/dc/elements/1.1/"
   xmlns:cc="http://creativecommons.org/ns#"
   xmlns:rdf="http://www.w3.org/1999/02/22-rdf-syntax-ns#"
   xmlns:svg="http://www.w3.org/2000/svg"
   xmlns="http://www.w3.org/2000/svg"
   xmlns:sodipodi="http://sodipodi.sourceforge.net/DTD/sodipodi-0.dtd"
   xmlns:inkscape="http://www.inkscape.org/namespaces/inkscape"
   sodipodi:docname="mumWebsiteDrawing.svg"
   inkscape:version="0.92.3 (2405546, 2018-03-11)"
   id="svg8"
   version="1.1"
   viewBox="0 0 735.78961 558.79761"
   height="558.79761mm"
   width="735.78961mm">
  <defs
     id="defs2" />
  <sodipodi:namedview
     fit-margin-bottom="0"
     fit-margin-right="0"
     fit-margin-left="0"
     fit-margin-top="0"
     inkscape:window-maximized="1"
     inkscape:window-y="-8"
     inkscape:window-x="-8"
     inkscape:window-height="705"
     inkscape:window-width="1366"
     showgrid="false"
     inkscape:document-rotation="0"
     inkscape:current-layer="layer1"
     inkscape:document-units="mm"
     inkscape:cy="781.80231"
     inkscape:cx="1228.3917"
     inkscape:zoom="0.24748737"
     inkscape:pageshadow="2"
     inkscape:pageopacity="0.0"
     borderopacity="1.0"
     bordercolor="#666666"
     pagecolor="#ffffff"
     id="base" />
  <metadata
     id="metadata5">
    <rdf:RDF>
      <cc:Work
         rdf:about="">
        <dc:format>image/svg+xml</dc:format>
        <dc:type
           rdf:resource="http://purl.org/dc/dcmitype/StillImage" />
        <dc:title></dc:title>
      </cc:Work>
    </rdf:RDF>
  </metadata>
  <g
     transform="translate(57.660108,-33.724926)"
     id="layer1"
     inkscape:groupmode="layer"
     inkscape:label="Layer 1">
    <path
       d="m 412.66438,324.71595 c -12.35763,-0.14375 -24.40029,3.06992 -36.69712,3.87093 -11.03848,3.76385 -23.88671,5.50342 -31.81777,15.39812 -8.35606,11.62479 -17.09786,24.57824 -17.1102,39.4201 -3.07021,11.78343 -10.96933,21.27436 -17.66369,31.08109 -6.60086,9.6307 -13.62302,20.75237 -24.96488,25.10722 -15.73011,9.9752 -37.52375,11.07677 -53.68973,1.41389 -8.8735,-8.7184 -19.88019,-14.96535 -28.12726,-24.282 -6.77992,-12.75911 -8.06502,-28.80016 -0.11917,-41.36882 8.76574,-9.37601 24.37252,-14.08388 35.8066,-6.90085 9.30672,5.67507 21.51247,12.24789 18.20516,25.2313 -3.3114,6.75454 1.19316,22.08028 6.31127,8.86915 0.58357,-12.89119 9.60976,-24.84922 22.72342,-26.85921 8.08485,-5.27757 26.69107,7.32304 28.78661,-2.39381 -11.64619,-4.75864 -28.09163,-3.31944 -32.39651,-18.6985 -6.35915,-6.06793 2.6369,-21.92056 -6.15882,-22.8296 -2.64024,13.3116 -10.34279,27.24371 -23.86883,32.13343 -12.40761,3.14333 -24.83078,-7.54314 -37.71877,-1.19681 -12.42426,1.95619 -22.68547,12.28702 -22.13199,25.18138 -3.23412,13.55089 1.88234,29.15786 12.39682,38.2354 11.43841,7.08277 19.99514,18.57901 32.69517,23.54017 11.6512,4.24353 25.01261,3.50915 36.82625,0.37512 11.67938,-3.6337 22.50709,-10.02572 29.94902,-19.81844 5.15527,-5.25067 8.18506,-12.43412 13.30141,-17.15111 -1.92228,11.2214 -3.54619,23.13398 -8.0847,33.4675 -0.11122,12.72956 -6.75945,26.9129 -5.25293,40.89994 -0.54128,20.61388 -8.59356,40.7789 -21.42143,56.8822 -10.65237,6.69821 -20.7968,14.87775 -32.72253,19.18299 -21.29174,5.89731 -43.55398,6.44146 -65.50946,7.36916 1.20763,9.64913 21.26451,3.54417 30.4588,4.43498 14.91686,0.79763 29.24148,-2.31388 42.88894,-8.1751 10.65324,-6.17886 22.95763,-11.43707 31.28667,-20.82461 7.27823,-11.17106 15.15615,-22.33325 17.51424,-35.73943 7.0984,-18.2064 -1.13096,-40.7713 12.43063,-56.79788 8.22363,-7.55767 15.80682,-18.39585 27.28608,-23.38275 25.1759,-8.12373 54.43055,0.44196 71.84983,20.14817 8.00081,13.69802 9.11792,31.93879 0.97462,45.87679 -4.8945,13.18025 -21.41011,17.55737 -33.02307,10.37821 -9.99636,-7.90436 -13.99751,-20.72411 -16.33395,-32.75334 -9.95504,-6.29496 -2.79801,17.2633 -7.30473,23.2448 -2.0395,16.00874 -24.51147,12.14477 -30.06525,22.33511 10.76837,2.27393 28.39572,1.38365 32.84137,15.71639 3.79524,6.25124 -8.7765,26.99038 3.81479,19.1595 9.07448,-15.00257 23.88114,-25.46967 36.41068,-37.43933 11.14722,-2.38594 15.44479,-8.87702 18.66467,-19.12964 7.4067,-12.56183 5.79097,-28.51868 2.45493,-42.11273 -7.7641,-11.22225 -17.02456,-22.1078 -29.93352,-27.45321 -12.18348,-5.66514 -26.07733,-6.0985 -39.29888,-6.48698 -13.58946,1.272 -24.93834,9.46684 -33.96848,19.1797 -11.75484,10.59169 -0.71771,-10.38586 -1.77146,-15.8812 3.2285,-15.86566 8.77416,-31.14778 11.9394,-46.9932 3.11102,-13.68626 8.51362,-28.57642 21.93763,-35.45587 13.16301,-8.4448 29.07377,-8.11208 43.84548,-11.36751 14.1677,-0.85359 30.0446,-5.60462 43.25717,1.46046 -0.90134,-9.27602 -19.43747,-6.93419 -27.72434,-8.0863 l -1.97822,-0.0145 z m -137.95901,24.08071 c 2.75877,6.79149 8.61654,15.1899 11.87056,21.5191 -10.47391,-0.1706 -18.23909,11.73199 -26.13872,12.87177 0.62595,-7.78903 -18.82735,-14.22988 -4.16753,-16.76456 8.96788,-2.61201 12.47975,-12.08461 18.43569,-17.62631 z m 94.85672,146.40242 c 5.52145,10.03154 14.15825,20.20415 25.33979,21.93645 -8.3889,5.53389 -16.00418,20.88308 -24.63704,20.79736 5.37896,-12.34829 -17.57763,-16.83538 -15.34697,-22.99431 7.93325,-3.95004 10.67135,-12.54894 14.64422,-19.7395 z"
       style="fill:#000000;stroke-width:0.352777"
       id="path944" />
    <path
       d="m 434.44945,43.552307 c -31.9313,0.903582 -58.00014,23.890561 -79.47113,45.217394 -18.70218,16.440249 -18.12266,43.441309 -33.85431,61.416189 -18.14875,17.44878 -41.9418,34.67631 -68.50205,30.97411 -14.50377,-3.87391 21.55526,-8.12448 27.20763,-17.12369 21.18662,-12.97999 32.87594,-43.10669 22.14269,-65.672878 -9.58059,-24.035491 -44.52715,-36.648001 -62.97755,-15.049727 -21.78402,20.115265 -23.12001,55.364935 -14.06702,81.885075 10.99439,27.53659 45.97336,26.69899 67.41263,12.77672 14.43863,-5.50043 35.54515,-32.48404 23.77366,-2.88572 -5.86883,29.24607 -26.08948,52.83365 -41.97869,77.24396 -22.43391,15.79864 -50.53944,28.95599 -78.50436,22.60879 -25.7581,-11.35024 -26.78191,-44.23464 -24.08431,-68.37485 1.08097,-33.71791 14.7386,-65.05832 23.26835,-97.1057 8.49761,-30.327398 -13.6215,-62.777354 -45.91516,-63.000226 -32.36193,-1.274958 -33.33577,45.427054 -15.46973,63.414156 11.28484,16.28062 37.69206,16.94167 49.14621,21.16693 -7.9834,25.31682 -15.76504,50.63917 -16.33012,77.47407 -3.77861,15.27269 3.06107,58.20221 3.07268,49.25643 C 154.36018,235.97776 147.98727,209.1447 136.44956,185.25942 125.99587,148.04934 118.08017,107.78926 90.466323,78.624068 74.317062,56.01723 47.005299,37.337509 18.157258,46.744734 -5.1922686,48.298456 -25.48857,61.573194 -33.942103,83.605675 -44.4334,102.14681 -55.160081,122.30117 -52.039362,144.44407 c -0.533434,24.54308 13.597041,47.01562 28.027403,65.66034 24.99723219,23.66291 61.030198,25.53296 92.350951,35.31516 29.069527,7.00476 61.070748,0.4789 88.128468,15.52153 13.17401,2.03326 48.86059,27.78489 17.48368,14.80633 -34.51908,-9.99299 -70.88097,-6.01556 -105.339111,1.96158 -19.472566,1.5105 -45.049853,10.56489 -60.6937756,7.1778 31.1028446,-18.40161 -1.3392996,-63.24456 -31.0917324,-54.78357 -34.177764,-3.42948 -39.251781,42.57162 -10.334297,54.36938 22.887273,11.19356 49.354216,4.68293 73.47178,2.13927 32.92212,-4.36237 65.457436,-15.19838 98.954166,-12.67055 24.91356,2.62359 48.03435,17.30544 73.37796,7.96437 23.74381,-1.9734 45.6063,-13.30982 65.82963,-24.21421 15.20668,-22.45919 33.68897,-42.935 42.63453,-69.04108 12.0687,-24.50299 44.67127,-38.22586 68.80717,-22.64358 13.47002,3.73806 27.506,17.88492 3.5066,15.92452 -24.73991,4.39615 -51.9525,23.7347 -47.61177,51.84341 2.19723,27.67048 32.06263,43.41907 55.96472,29.35362 25.62519,-7.7076 40.29456,-37.6655 29.76997,-62.19448 -13.47079,-28.71093 -45.4718,-52.92357 -78.33757,-45.10457 -12.28918,2.58885 -37.76628,24.22595 -23.25066,-1.77644 13.72285,-30.4529 24.05433,-65.369641 54.16217,-84.134761 16.63935,-11.496697 51.3421,-38.557881 61.90218,-7.804174 17.13645,40.596805 -7.81413,82.673745 -4.46538,124.177945 0.9524,23.39287 -2.10645,47.58844 2.53376,70.37917 6.33751,21.04572 32.72068,44.20856 53.85287,27.62619 23.91751,-23.4659 -17.69729,-56.95708 -38.13038,-35.33045 -13.36011,31.78254 -12.91714,-24.55729 -13.06459,-35.85294 -1.01801,-16.88552 0.29683,-34.85548 2.09444,-50.35668 2.79461,-32.83558 12.76532,-66.310439 1.68468,-98.84748 -11.51337,-28.777554 14.78441,19.018061 17.50534,28.334714 5.73844,22.388886 4.42767,46.260016 10.2702,68.236136 0.17777,29.80995 8.0772,60.59963 28.39206,83.49051 16.66746,17.75054 38.05341,40.67396 64.8398,36.96466 24.47867,-5.16145 48.75696,-12.93621 70.93124,-24.38197 22.84902,-11.87875 31.60128,-36.31878 36.23035,-59.91159 C 687.27848,169.77661 670.2705,141.46273 649.002,125.61396 624.24229,106.5863 593.01445,99.336458 564.36891,88.570748 536.71222,81.398423 508.28592,74.8204 482.6496,62.041109 c -1.26442,-9.217252 35.48835,1.390115 48.30251,-2.735973 32.43715,-3.274132 65.1415,-3.768488 97.68266,-5.989084 19.91752,-3.389656 -8.85404,23.199679 3.82043,35.181314 4.13395,31.003194 59.192,18.086594 49.48999,-11.213785 -8.67542,-20.937715 -31.69031,-33.067848 -54.86432,-28.899928 -39.53854,3.141008 -79.05816,4.807752 -118.62776,7.181668 -26.30635,2.343324 -48.53808,-11.036306 -74.00366,-12.013014 z M 30.217289,48.161845 c 31.894329,2.219336 58.391014,27.128902 73.095281,54.032875 9.73649,19.85739 17.75491,41.63048 22.44588,63.76463 6.09777,28.58312 21.77906,53.85167 30.66691,81.31902 15.55164,22.91277 -23.84472,-5.11421 -34.49895,-0.97927 C 80.38037,243.6883 38.959005,236.21617 -0.09555231,221.54589 -30.028841,202.12084 -53.805226,166.5464 -47.738676,129.60493 -45.834757,111.51778 -37.486435,93.435996 -27.273117,78.782125 -19.323725,54.044452 8.1307482,51.64523 30.217289,48.161845 Z m 116.777881,2.941939 c 23.82635,0.473051 45.60447,19.667136 43.98799,44.518713 3.87069,33.648573 -38.50228,32.917013 -53.64068,11.106033 -12.95687,-13.067672 -19.10675,-58.096363 9.65269,-55.624746 z m 503.46643,4.220414 c 31.24261,2.444255 37.07625,53.801152 -0.52269,45.347512 -17.23231,-6.033828 -20.63707,-42.832153 0.52269,-45.347512 z m -194.55143,0.960148 c 19.07185,9.066279 38.52341,17.072778 58.78658,23.769607 38.30778,10.195132 76.99708,20.945557 112.85106,38.189357 24.18977,12.86458 49.74844,35.6847 48.44711,65.37693 -7.66961,23.74683 -9.423,52.79508 -34.36794,65.86368 -21.01049,12.44848 -45.03971,20.10226 -68.87435,25.3756 -24.84152,4.9486 -44.4699,-17.16551 -60.25161,-33.03043 -19.5204,-22.01357 -28.27686,-51.17937 -28.41585,-80.2018 -5.58189,-24.20597 -5.59141,-49.84585 -11.72845,-74.171721 -5.6371,-9.849183 -14.51599,-20.660167 -16.44655,-31.171223 z M 261.12101,77.045352 c 24.04959,0.977834 47.28824,26.552808 37.35194,50.502368 -3.58237,27.58374 -39.51321,51.85997 -65.2155,39.20247 -16.19015,-28.55162 -9.13588,-81.309177 27.86356,-89.704838 z m 239.68874,16.402101 c 18.0445,14.050767 19.29109,43.800167 25.3992,67.063407 3.2516,29.97966 21.23501,62.5573 51.91488,71.03656 24.03906,7.0041 68.93695,-0.70204 63.63959,-33.61384 -3.32134,-25.48314 -26.58287,-44.06437 -49.0865,-53.70271 -25.6684,-8.45688 -54.83021,-14.148 -72.74949,-36.23754 -4.48977,-6.54603 -11.93334,-11.4209 -19.11768,-14.545877 z M 21.371315,93.674828 c -28.6080907,4.558466 -35.318355,39.812532 -32.981447,63.865872 0.746654,30.27474 33.01021,40.88694 58.209883,43.9415 25.815652,7.32868 53.327289,4.1422 79.096979,9.54257 C 108.42257,204.1187 91.9244,188.56821 86.109358,168.23415 78.796907,138.89545 65.621819,104.67511 33.757583,95.294122 29.731532,94.178033 25.547432,93.64721 21.371315,93.674828 Z m 1.213364,4.66018 c 33.410704,2.363892 50.499472,38.126042 56.30819,67.103912 1.196335,16.54065 37.816681,45.50342 1.994194,36.03346 C 55.629131,197.27333 25.888314,197.36909 5.3800447,181.03332 -13.23012,162.93593 -9.7718727,133.18506 0.77412519,112.12383 7.0273643,106.24917 13.248118,98.639974 22.584679,98.335008 Z M 523.51224,119.63552 c 20.8253,16.81472 46.28822,22.80914 71.20496,31.01619 22.85666,10.47633 54.24514,38.69628 37.17726,65.46496 -19.06942,18.51386 -53.99944,16.17305 -72.9498,-1.5608 -20.6429,-17.43459 -26.11191,-44.31961 -30.30665,-69.5958 -1.46468,-8.18818 -5.84721,-17.51218 -5.12577,-25.32455 z m -118.42533,65.16553 c 24.96627,2.13938 31.16501,38.67356 18.20609,56.42671 -14.20754,18.03486 -50.99619,32.31488 -65.53851,7.7676 -18.91482,-24.56141 2.95722,-54.89237 29.34332,-60.4209 5.89563,-1.68369 11.93851,-2.81743 17.9891,-3.77341 z m -423.49146,49.09261 c 20.4587902,-2.62203 45.365,21.15208 31.761533,40.97291 -18.9130937,25.60612 -67.73356,4.00454 -60.781586,-27.19878 5.099371,-10.86468 18.094947,-13.89349 29.020053,-13.77413 z M 475.5255,247.529 c 38.44386,-2.5008 20.15522,56.68024 -8.86819,30.04688 -15.19108,-5.05161 -5.67952,-31.49372 8.86819,-30.04688 z"
       style="fill:#000000;stroke-width:0.352777"
       id="path912" />
  </g>
</svg>
