<?xml version="1.0" encoding="UTF-8" standalone="no"?>
<svg
   xmlns:dc="http://purl.org/dc/elements/1.1/"
   xmlns:cc="http://creativecommons.org/ns#"
   xmlns:rdf="http://www.w3.org/1999/02/22-rdf-syntax-ns#"
   xmlns:svg="http://www.w3.org/2000/svg"
   xmlns="http://www.w3.org/2000/svg"
   xmlns:sodipodi="http://sodipodi.sourceforge.net/DTD/sodipodi-0.dtd"
   xmlns:inkscape="http://www.inkscape.org/namespaces/inkscape"
   version="1.1"
   id="svg3782"
   width="2666"
   height="2235"
   viewBox="0 0 2666 2235"
   sodipodi:docname="addiction-1.svg"
   inkscape:version="1.0.2-2 (e86c870879, 2021-01-15)">
  <metadata
     id="metadata3788">
    <rdf:RDF>
      <cc:Work
         rdf:about="">
        <dc:format>image/svg+xml</dc:format>
        <dc:type
           rdf:resource="http://purl.org/dc/dcmitype/StillImage" />
        <dc:title></dc:title>
      </cc:Work>
    </rdf:RDF>
  </metadata>
  <defs
     id="defs3786" />
  <sodipodi:namedview
     pagecolor="#ffffff"
     bordercolor="#666666"
     borderopacity="1"
     objecttolerance="10"
     gridtolerance="10"
     guidetolerance="10"
     inkscape:pageopacity="0"
     inkscape:pageshadow="2"
     inkscape:window-width="1920"
     inkscape:window-height="986"
     id="namedview3784"
     showgrid="false"
     inkscape:zoom="2.8635347"
     inkscape:cx="447.77087"
     inkscape:cy="524.23209"
     inkscape:window-x="-11"
     inkscape:window-y="-11"
     inkscape:window-maximized="1"
     inkscape:current-layer="g3790" />
  <g
     inkscape:groupmode="layer"
     inkscape:label="Image"
     id="g3790">
    <path
       style="fill:#000000"
       d="m 924.8394,1953.095 c -3.40361,-2.6774 -8.26291,-12.2715 -10.19439,-20.1277 -0.94393,-3.8394 -1.61376,-10.746 -1.61376,-16.6395 0,-5.5416 -0.74166,-13.8378 -1.64814,-18.436 -1.69189,-8.5824 -2.19038,-28.0918 -1.42729,-55.8605 0.20403,-7.425 -0.13183,-18 -0.74636,-23.5 -2.89601,-25.919 -3.48119,-35.5972 -3.4162,-56.5 0.0598,-19.2333 -0.24056,-24.0245 -2.06882,-33 -2.91506,-14.311 -2.89025,-34.571 0.0588,-48 1.14741,-5.225 2.58539,-14.225 3.19551,-20 0.61011,-5.775 1.59031,-14.775 2.17821,-20 0.5879,-5.225 0.91262,-20.5462 0.72161,-34.0471 -0.30339,-21.4428 -0.57154,-24.8889 -2.12036,-27.25 -1.22833,-1.8725 -2.63409,-2.7029 -4.57569,-2.7029 -3.22928,0 -5.57423,2.3069 -9.6567,9.5 -1.56078,2.75 -5.1804,8.375 -8.04361,12.5 -2.86321,4.125 -6.71513,10.2 -8.55983,13.5 -6.52897,11.6797 -15.34365,17.8154 -35.89112,24.9827 -11.9156,4.1563 -12.86121,4.1383 -24.82107,-0.4739 -13.49794,-5.2054 -18.94081,-10.2116 -38.67893,-35.5759 -5.5,-7.0678 -12.72119,-15.794 -16.04708,-19.3917 -9.01479,-9.7514 -13.01966,-16.2773 -25.29191,-41.2127 -6.13692,-12.4693 -12.64262,-24.6193 -14.4571,-27 -6.63658,-8.7075 -11.99511,-17.2101 -20.81626,-33.03 -4.95883,-8.8932 -10.73748,-19.1235 -12.84144,-22.734 -2.10396,-3.6105 -4.55817,-8.3263 -5.45379,-10.4797 -0.89563,-2.1534 -5.39605,-9.5784 -10.00093,-16.5 -5.26249,-7.9101 -9.3574,-15.3707 -11.02394,-20.0848 -1.45829,-4.125 -4.58995,-10.875 -6.95925,-15 -2.3693,-4.125 -10.0124,-19.1332 -16.98468,-33.3516 -6.97228,-14.2184 -13.74789,-27.2684 -15.0569,-29 -1.30902,-1.7316 -3.77074,-6.7727 -5.47049,-11.2024 -1.69975,-4.4298 -4.71277,-10.7298 -6.6956,-14 -1.98283,-3.2703 -5.28717,-9.321 -7.34299,-13.446 -8.85131,-17.7601 -13.87372,-26.8156 -17.45518,-31.4718 -2.10331,-2.7346 -5.58262,-8.778 -7.7318,-13.4299 -2.14918,-4.6519 -4.96447,-9.8436 -6.2562,-11.5371 -3.92656,-5.148 -12.31141,-21.6564 -14.58194,-28.7094 -1.17712,-3.6566 -3.74129,-9.2816 -5.69816,-12.5 -1.95687,-3.2185 -4.35215,-8.1234 -5.32283,-10.8999 -0.97069,-2.7765 -2.65948,-6.8265 -3.75288,-9 -1.0934,-2.1735 -2.55349,-5.7519 -3.24465,-7.9519 -1.61162,-5.1299 -12.47874,-27.9396 -14.99408,-31.472 -1.05591,-1.4829 -3.27463,-6.4084 -4.93048,-10.9455 -1.65585,-4.5372 -4.63115,-11.1471 -6.61177,-14.6888 -1.98062,-3.5417 -4.47814,-8.9885 -5.55005,-12.1041 -1.0719,-3.1155 -3.92103,-9.312 -6.3314,-13.7699 -4.10493,-7.5921 -9.62012,-23.309 -11.13808,-31.7409 -0.36845,-2.0466 -1.99176,-5.8055 -3.60735,-8.353 -5.22161,-8.2337 -13.82824,-26.2701 -16.80283,-35.2129 -5.76083,-17.31925 -10.0659,-28.27969 -12.74794,-32.45552 -1.50395,-2.34159 -5.2557,-8.98243 -8.33723,-14.75743 -3.08153,-5.775 -9.34509,-17.25 -13.91904,-25.5 -4.57394,-8.25 -9.13731,-17.38172 -10.14083,-20.29271 -3.17997,-9.22438 -6.94044,-14.88935 -15.28601,-23.02768 -6.04649,-5.89634 -10.28505,-9.0042 -16.61691,-12.18409 -4.675,-2.3478 -10.75,-6.16635 -13.5,-8.48567 -2.75,-2.31932 -7.25,-5.47781 -10,-7.01887 -2.75,-1.54106 -7.475,-5.16129 -10.5,-8.04495 -3.025,-2.88366 -7.525,-6.24352 -10,-7.46634 -2.475,-1.22283 -7.32369,-4.22423 -10.77487,-6.66978 -3.45119,-2.44555 -10.65119,-6.72185 -16,-9.50288 -13.92014,-7.23754 -17.51979,-9.98675 -23.69869,-18.0997 -3.01904,-3.96403 -7.98823,-10.2385 -11.04264,-13.94327 -3.47258,-4.21198 -8.69476,-12.90543 -13.93693,-23.20107 -4.61091,-9.05583 -9.85087,-18.62466 -11.64436,-21.26407 -9.70137,-14.27712 -18.69582,-26.36677 -22.91377,-30.79892 -6.79489,-7.13996 -16.58824,-20.78013 -18.10568,-25.21756 -1.64201,-4.80173 -1.74273,-22.05266 -0.19724,-33.78244 0.6522,-4.95 2.77222,-14.48775 4.71115,-21.19501 1.93893,-6.70725 4.04847,-15.25725 4.68785,-19 0.63939,-3.74274 2.94978,-11.52999 5.13421,-17.30499 2.18443,-5.775 4.84623,-14.4997 5.91512,-19.38822 2.07743,-9.50107 2.8081,-11.30439 6.61707,-16.33115 1.34169,-1.77066 3.3188,-6.04566 4.39358,-9.5 1.07478,-3.45435 2.88317,-7.85563 4.01864,-9.78063 1.97974,-3.35633 3.99004,-8.42689 11.40382,-28.76376 1.8574,-5.09506 3.87491,-10.19393 4.48336,-11.33082 2.6113,-4.87926 9.96963,-28.15286 10.99941,-34.78991 0.6174,-3.97925 2.67773,-11.82061 4.57851,-17.42525 5.75427,-14.08717 2.28794,-23.32014 5.80034,-37.57519 1.82731,-8.46413 1.9007,-16.85511 5.06797,-25.51048 12.63988,-28.64624 13.2763,-65.81729 24.17768,-88.95211 28.94663,-41.88529 70.47937,-81.29231 115.32546,-103.54027 44.72243,-20.80626 91.17733,-31.73565 131.5,-32.5823 27.22316,1.27342 61.03352,5.2845 79,11.1273 49.64271,19.47755 89.92176,42.92967 127.34954,81.83018 29.40962,29.43458 76.87779,94.27767 99.10452,165.91023 30.6843,83.86795 18.36313,160.48998 40.05787,224.76872 15.99173,43.42884 32.68708,70.43604 51.58861,88.01909 24.17047,24.50691 56.51751,47.74889 84.41701,59.42609 18.2235,8.56323 37.9005,16.00744 57.4825,21.30866 39.3857,8.05565 81.9783,14.26574 114.7434,16.09815 30.5469,2.81645 64.1076,4.26705 90.7566,9.44549 45.2891,11.30226 89.438,37.42885 124,65.48964 32.5319,26.58984 58.9352,53.79181 81.0701,76.01414 58.647,55.26105 107.4222,106.20075 170.7624,152.02425 36.2462,26.5344 72.8966,52.7321 111.283,74.367 37.5883,21.5279 70.7574,42.4514 116.8206,66.6149 58.3956,31.5618 126.696,64.3069 183.8616,92.0285 27.7074,12.0029 58.5611,33.3898 90.6116,27.9973 17.0376,-3.6737 49.9935,-11.8543 66.6628,-14.5558 40.2723,-6.3768 60.9735,-5.8813 84.702,-4.6368 23.1714,0.5524 42.917,3.4017 66.4004,19.8083 21.8123,14.744 35.7633,28.4119 53.7014,56.8848 16.3036,26.7539 30.4283,54.8999 41.624,77.5 8.4566,19.4301 12.1375,28.8715 15.3731,43.7658 5.6264,25.2844 5.0934,32.3242 2.37,37.0395 -5.2534,9.0957 -9.8457,12.456 -19.0683,14.191 -5.9584,0.3911 -12.0455,-6.6133 -17.2652,-11.75 -6.567,-6.4625 -15.8486,-16.7 -20.6258,-22.75 -8.7243,-11.0487 -26.4421,-27.408 -38.2261,-35.8445 -16.4222,-12.3405 -29.6653,-21.268 -45.7362,-31.5918 -17.8206,-9.2252 -27.5584,-12.9584 -39.8214,-14.5549 -22.3272,-2.3369 -40.2035,-1.4029 -53.6047,7.0583 -8.7677,5.62 -9.8192,7.6566 -11.3194,13.8078 -1.3704,5.6191 -0.8289,16.1077 3.8414,24.2599 4.1862,7.3072 13.6672,18.1837 26.263,29.6058 14.4603,12.2535 37.2127,18.3722 58.9584,11.9386 3.7737,-1.645 9.3522,-3.5625 12.2928,-4.585 8.1934,-2.849 18.3054,-4.9918 26.4449,-0.4686 13.3167,11.7742 13.6145,16.9884 8.1894,31.1613 -7.5517,17.9322 -23.9297,33.2105 -38.147,39.6133 -14.4144,6.4529 -20.6647,8.0842 -33.7045,8.7969 -21.0277,1.1493 -38.1681,-3.1157 -62.2143,-13.3874 -20.9435,-9.633 -32.6964,-19.7234 -42.7666,-29.9436 -8.0097,-8.1763 -17.2729,-18.4961 -20.5847,-22.9328 -3.3119,-4.4367 -8.1531,-9.7274 -10.7583,-11.7571 -2.6053,-2.0297 -13.5584,-12.1247 -24.3403,-22.4333 -10.7819,-10.3086 -23.7362,-22.2256 -28.7873,-26.4822 -5.0512,-4.2566 -10.9441,-10.1219 -13.0953,-13.034 -5.0645,-6.8555 -14.2809,-13.9688 -28.3394,-19.5868 -77.2739,-30.7702 -106.991,-43.0139 -156.5213,-65.66 -56.8351,-25.0767 -78.21,-37.6215 -156.3068,-76.8964 -55.8743,-29.2457 -115.6921,-51.6001 -169.6596,-77.386 -41.1241,-16.7748 -82.3536,-41.6301 -118.7304,-57.7196 -43.5632,-20.6098 -89.2567,-46.8261 -130.416,-61.9858 -13.6418,-4.6943 -16.0449,-4.891 -20.9495,-1.7153 -5.9246,3.8362 -11.2285,22.9595 -11.2616,40.6042 -7.8224,75.3812 -16.8537,99.2949 -20.0137,222.119 2.0431,156.325 31.563,298.2331 26.261,443 -0.6167,14.3565 -1.0412,17.5267 -2.7302,20.3869 -3.069,5.1972 -7.5909,7.1131 -16.7882,7.1131 -6.255,0 -9.8816,0.6899 -18.1268,3.4485 -8.3739,2.8017 -11.7871,3.4405 -18.1961,3.4058 -5.7975,-0.032 -9.3263,0.5265 -13.3107,2.1045 -3.5366,1.4007 -9.4477,2.4799 -17,3.1035 -6.368,0.5258 -16.3032,1.6085 -22.0782,2.4058 -19.1051,2.6379 -41.7326,3.7475 -50.0178,2.4528 -4.4864,-0.7011 -12.8874,-0.9621 -20.9822,-0.6516 -7.425,0.2846 -16.0354,0.114 -19.1343,-0.3792 -4.6566,-0.741 -6.8157,-0.5317 -12.4423,1.2063 -5.4849,1.694 -8.277,1.9845 -14.3657,1.4939 -22.4785,-1.8106 -34.5994,-1.8245 -41.1115,-0.047 -4.1885,1.1431 -12.5754,2.029 -23.9462,2.5296 -24.0508,1.0587 -37.8955,2.4557 -48.5,4.8945 -18.49195,4.2525 -18.89475,4.2856 -29.99191,2.4645 -9.78418,-1.6056 -10.87461,-1.6026 -20.17567,0.055 -7.50702,1.3381 -11.80636,2.7886 -18.17847,6.133 -9.63821,5.0585 -16.04385,5.828 -20.34585,2.444 z M 806.87626,1310.6433 c 3.33903,-3.0072 4.82744,-6.291 6.1451,-13.5575 1.39466,-7.6911 12.3736,-40.9899 18.97626,-57.5545 2.63076,-6.6 5.72842,-15.15 6.88368,-19 8.37709,-27.9173 10.10268,-33.4133 11.50385,-36.6396 0.86935,-2.0017 2.49799,-7.8517 3.61918,-13 1.1212,-5.1482 3.14496,-12.7354 4.49725,-16.8604 1.35229,-4.125 3.16284,-12 4.02345,-17.5 0.86062,-5.5 2.71062,-13.7767 4.11111,-18.3926 2.86126,-9.4304 3.69911,-13.9951 5.98502,-32.6074 2.79927,-22.7921 8.96127,-42.7959 17.40433,-56.5 4.61733,-7.4945 5.06621,-11.9564 2.53406,-25.1892 -0.80924,-4.22905 -1.74965,-11.42905 -2.08979,-16.00005 -0.69114,-9.28793 -7.0187,-35.86285 -11.39278,-47.8481 -4.89793,-13.42065 -12.30499,-21.9627 -19.0445,-21.9627 -2.47908,0 -6.26559,1.99147 -15.08381,7.93317 -6.47561,4.36325 -13.49364,8.41915 -15.59563,9.01313 -2.10198,0.59397 -13.04679,1.36397 -24.32179,1.71109 -17.24523,0.53094 -21.67093,0.36368 -27.87502,-1.05352 -4.05626,-0.92656 -10.71806,-2.10852 -14.80401,-2.62657 -10.34339,-1.31141 -42.96614,-10.80054 -60.32097,-17.54584 -7.975,-3.09964 -19.42667,-7.40336 -25.44816,-9.56383 -11.32467,-4.06322 -24.68556,-10.2813 -34.98432,-16.28151 -3.26287,-1.90099 -9.32592,-4.66104 -13.47345,-6.13344 -4.14754,-1.47241 -10.02792,-4.27587 -13.06752,-6.22991 -3.0396,-1.95405 -9.28578,-5.29637 -13.88038,-7.42739 -4.59461,-2.13101 -11.74424,-6.16239 -15.88807,-8.95861 -9.0517,-6.10803 -26.27236,-13.83677 -30.83016,-13.83677 -5.61369,0 -7.42382,3.49551 -7.44911,14.38486 -0.0117,5.01333 0.72166,13.84014 1.62956,19.61514 2.54983,16.21891 16.36049,57.65329 23.66529,71 1.95664,3.575 4.52436,9.79543 5.70606,13.82318 1.92535,6.56246 2.96252,8.19962 9.9846,15.76059 5.76393,6.20623 8.95959,10.74843 12.08481,17.17683 2.85751,5.87765 7.25349,12.34125 13.42513,19.73935 5.04702,6.0501 10.2242,12.7402 11.50485,14.867 1.28064,2.1267 3.98132,5.7766 6.0015,8.1107 2.02018,2.3342 5.84731,8.4691 8.50474,13.6332 2.65743,5.164 7.05613,12.6992 9.77489,16.7447 3.14741,4.6834 6.15653,10.9585 8.28306,17.273 1.83692,5.4546 4.8938,12.4946 6.79307,15.6444 1.89927,3.1499 5.32081,9.5303 7.60341,14.1788 2.28261,4.6484 4.64328,9.0458 5.24593,9.772 3.12074,3.7603 18.15203,29.8085 25.54979,44.2762 4.64033,9.075 10.08566,18.4512 12.10072,20.8361 4.50598,5.3328 6.28083,7.9914 13.7643,20.6174 3.2447,5.4744 8.19981,12.4494 11.01135,15.5 2.81154,3.0506 6.1288,7.5715 7.3717,10.0465 1.2429,2.475 3.73185,6.975 5.53099,10 1.79915,3.025 4.50187,8.7278 6.00605,12.6729 1.50417,3.9451 4.52606,9.3405 6.71531,11.9898 2.18926,2.6493 5.53978,7.9133 7.44562,11.6978 2.39877,4.7633 6.26133,9.7713 12.55102,16.2729 11.26578,11.6453 15.71667,13.2884 21.61243,7.9787 z M 453.45982,789.45982 c 3.71219,-3.71219 1.41929,-7.59387 -8.64275,-14.6314 -8.39596,-5.87226 -40.78582,-33.5535 -40.78582,-34.85666 0,-0.45685 -2.51625,-2.88035 -5.59167,-5.38557 -6.3873,-5.20306 -10.33866,-5.92019 -12.85163,-2.33243 -3.93885,5.6235 -1.66657,9.68082 15.24677,27.22409 15.94537,16.53926 17.18769,17.51797 32.19653,25.36473 12.13679,6.34523 17.49054,7.55527 20.42857,4.61724 z m 54.05061,-0.81684 c 4.80653,-4.80653 3.85891,-14.37842 -1.78988,-18.07966 -5.26585,-3.45031 -16.57597,-3.14959 -20.54295,0.54621 -4.52872,4.21915 -1.77398,9.62068 8.19122,16.06151 6.96118,4.49923 10.72279,4.89076 14.14161,1.47194 z M 446.4354,738.98127 c 3.87415,-3.40156 6.10353,-8.79112 5.17188,-12.50313 -1.68633,-6.71886 -16.45767,2.30239 -16.54276,10.10311 -0.0676,6.19748 5.66721,7.4079 11.37088,2.40002 z m 167.16086,-40.99536 c 3.33991,-3.11769 5.78234,-7.89352 8.86256,-17.32953 1.34408,-4.11748 4.03569,-9.80055 5.98134,-12.62903 3.92865,-5.71125 5.34534,-9.82726 6.19409,-17.9961 0.62487,-6.01414 -0.42674,-8.30008 -4.35521,-9.46711 -1.8664,-0.55446 -3.61524,0.67018 -10.20914,7.14902 -8.21754,8.07415 -14.3217,17.12539 -22.62485,33.54811 -5.30249,10.48775 -5.68878,14.61906 -1.6638,17.79415 3.93601,3.1049 13.98965,2.50134 17.81501,-1.06951 z m -71.06501,-48.56732 c 14.13565,-6.85926 21.93296,-11.58446 27.16366,-16.46125 2.65999,-2.48002 6.88708,-5.91486 9.39354,-7.63299 7.19785,-4.934 11.9428,-10.73307 11.9428,-14.59598 0,-6.22847 -4.11933,-7.34564 -11.85262,-3.21445 -2.55606,1.36547 -8.19122,3.90591 -12.52257,5.64543 -5.49818,2.20813 -9.72388,4.81599 -14,8.63997 -3.36865,3.01246 -8.82481,7.3075 -12.12481,9.54453 -9.68465,6.5651 -17.5,14.5068 -17.5,17.78292 0,3.71913 3.46731,6.17126 7.5,5.30412 1.65,-0.3548 7.05,-2.61033 12,-5.0123 z m -211.51561,-3.86853 c 1.59438,-1.92112 0.86808,-7.65189 -1.77672,-14.01881 -3.56758,-8.58835 -8.41007,-25.69501 -9.32457,-32.94006 -0.60151,-4.7655 -2.32047,-10.09219 -5.48602,-17 -2.53551,-5.53297 -5.37979,-12.75994 -6.32061,-16.05994 -2.26484,-7.94406 -3.69233,-10.40345 -6.70275,-11.54801 -4.66928,-1.77526 -8.37372,2.24261 -8.37372,9.08221 0,1.59721 1.125,6.35035 2.5,10.56255 1.375,4.2122 2.5,8.91924 2.5,10.4601 0,1.54086 2.20195,10.14592 4.89322,19.12236 2.69128,8.97643 5.38484,18.15152 5.98571,20.38909 0.99627,3.71004 6.6257,11.83954 13.9752,20.1817 3.07187,3.48676 6.1489,4.1562 8.13026,1.76881 z"
       id="path3794"
       sodipodi:nodetypes="cssssssssssssssssssssssssssssssssssssssssssssssssssssssssssssssssssssssssssssssccccccccccccccccccccccccccccsccsccccssccscccsccsssssccccccscccssscssssssscssssssccssssssssssssssssssssssssssssssssssssssssssssssssssssssssssssssssssssssssssssssssssssssssssssssssssssssss" />
  </g>
</svg>
