<?xml version="1.0" encoding="UTF-8" standalone="no"?>
<svg
   xmlns:dc="http://purl.org/dc/elements/1.1/"
   xmlns:cc="http://creativecommons.org/ns#"
   xmlns:rdf="http://www.w3.org/1999/02/22-rdf-syntax-ns#"
   xmlns:svg="http://www.w3.org/2000/svg"
   xmlns="http://www.w3.org/2000/svg"
   xmlns:sodipodi="http://sodipodi.sourceforge.net/DTD/sodipodi-0.dtd"
   xmlns:inkscape="http://www.inkscape.org/namespaces/inkscape"
   version="1.1"
   id="svg3782"
   width="2666"
   height="2235"
   viewBox="0 0 2666 2235"
   sodipodi:docname="addiction-1 edited.svg"
   inkscape:version="1.0.2-2 (e86c870879, 2021-01-15)">
  <metadata
     id="metadata3788">
    <rdf:RDF>
      <cc:Work
         rdf:about="">
        <dc:format>image/svg+xml</dc:format>
        <dc:type
           rdf:resource="http://purl.org/dc/dcmitype/StillImage" />
        <dc:title></dc:title>
      </cc:Work>
    </rdf:RDF>
  </metadata>
  <defs
     id="defs3786" />
  <sodipodi:namedview
     pagecolor="#ffffff"
     bordercolor="#666666"
     borderopacity="1"
     objecttolerance="10"
     gridtolerance="10"
     guidetolerance="10"
     inkscape:pageopacity="0"
     inkscape:pageshadow="2"
     inkscape:window-width="1920"
     inkscape:window-height="986"
     id="namedview3784"
     showgrid="false"
     inkscape:zoom="0.70710678"
     inkscape:cx="423.65166"
     inkscape:cy="930.24937"
     inkscape:window-x="-11"
     inkscape:window-y="-11"
     inkscape:window-maximized="1"
     inkscape:current-layer="g3790"
     inkscape:document-rotation="0" />
  <g
     inkscape:groupmode="layer"
     inkscape:label="Image"
     id="g3790">
    <path
       style="fill:#000000"
       d="m 779.1048,1871.1231 c -2.67163,-60.0705 -4.13335,-107.6458 -3.41918,-158.5893 1.64958,-55.3428 4.483,-102.4929 4.08531,-155.0471 1.572,-38.7206 -5.08869,-36.7295 -24.39636,-7.9529 -17.5739,28.2526 -42.99951,48.0872 -69.27202,38.0088 -38.5227,-12.5599 -113.08726,-146.2955 -154.61138,-226.0088 -29.3101,-57.2397 -58.99317,-109.9844 -83.69689,-160.9017 -48.20188,-86.8575 -85.61924,-189.8399 -121.57064,-271.34089 -14.49551,-42.47668 -24.84681,-66.25473 -47.68311,-83.57782 -12.57434,-9.93956 -27.34388,-20.24156 -40.11691,-27.68863 -85.31514,-66.41441 -100.24725,-86.75357 -117.8912,-139.66797 -8.04073,-31.42547 -11.76716,-49.76341 -11.09798,-93.67106 2.68576,-46.0657 15.62217,-72.46638 22.5668,-83.07839 24.37284,-31.399 33.05612,-42.95427 30.48764,-61.23955 0.86521,-20.72233 -1.20425,-40.78108 -0.13638,-62.71894 -0.31259,-35.04932 13.88011,-89.65746 29.24565,-114.46259 36.62944,-52.01263 70.47937,-81.29231 115.32546,-103.54027 44.72243,-20.80626 91.17733,-31.73565 131.5,-32.5823 27.22316,1.27342 61.03352,5.2845 79,11.1273 49.64271,19.47755 89.92176,42.92967 127.34954,81.83018 29.40962,29.43458 76.87779,94.27767 99.10452,165.91023 30.6843,83.86795 18.36313,160.48998 40.05787,224.76872 15.99173,43.42884 32.68708,70.43604 51.58861,88.01909 24.17047,24.50691 56.51751,47.74889 84.41704,59.42609 18.2235,8.56323 37.9005,16.00744 57.4825,21.30866 39.38571,8.05565 81.97831,14.26574 114.74341,16.09815 30.5469,2.81645 64.1076,4.26705 90.7566,9.44549 45.2891,11.30226 89.438,37.42885 124,65.48964 32.5319,26.58984 58.9352,53.79181 81.0701,76.01414 58.647,55.26102 107.4222,106.20072 170.7624,152.02422 36.2462,26.5344 72.8966,52.7321 111.283,74.367 37.5883,21.5279 70.7574,42.4514 116.8206,66.6149 58.3956,31.5618 126.696,64.3069 183.8616,92.0285 27.7074,12.0029 58.5611,33.3898 90.6116,27.9973 17.0376,-3.6737 49.9935,-11.8543 66.6628,-14.5558 40.2723,-6.3768 60.9735,-5.8813 84.702,-4.6368 23.1714,0.5524 42.917,3.4017 66.4004,19.8083 21.8123,14.744 35.7633,28.4119 53.7014,56.8848 16.3036,26.7539 30.4283,54.8999 41.624,77.5 8.4566,19.4301 12.1375,28.8715 15.3731,43.7658 5.6264,25.2844 5.0934,32.3242 2.37,37.0395 -5.2534,9.0957 -9.8457,12.456 -19.0683,14.191 -5.9584,0.3911 -12.0455,-6.6133 -17.2652,-11.75 -6.567,-6.4625 -15.8486,-16.7 -20.6258,-22.75 -8.7243,-11.0487 -26.4421,-27.408 -38.2261,-35.8445 -16.4222,-12.3405 -29.6653,-21.268 -45.7362,-31.5918 -17.8206,-9.2252 -27.5584,-12.9584 -39.8214,-14.5549 -22.3272,-2.3369 -40.2035,-1.4029 -53.6047,7.0583 -8.7677,5.62 -9.8192,7.6566 -11.3194,13.8078 -1.3704,5.6191 -0.8289,16.1077 3.8414,24.2599 4.1862,7.3072 13.6672,18.1837 26.263,29.6058 14.4603,12.2535 37.2127,18.3722 58.9584,11.9386 3.7737,-1.645 9.3522,-3.5625 12.2928,-4.585 8.1934,-2.849 18.3054,-4.9918 26.4449,-0.4686 13.3167,11.7742 13.6145,16.9884 8.1894,31.1613 -7.5517,17.9322 -23.9297,33.2105 -38.147,39.6133 -14.4144,6.4529 -20.6647,8.0842 -33.7045,8.7969 -21.0277,1.1493 -38.1681,-3.1157 -62.2143,-13.3874 -40.3863,-19.8251 -70.765,-65.7608 -92.0296,-91.5116 -20.4082,-25.0341 -54.3461,-45.1304 -76.6423,-54.6582 -77.2739,-30.7702 -106.991,-43.0139 -156.5213,-65.66 -56.8351,-25.0767 -78.21,-37.6215 -156.3068,-76.8964 -55.8743,-29.2457 -115.6921,-51.6001 -169.6596,-77.386 -41.1241,-16.7748 -82.3536,-41.6301 -118.7304,-57.7196 -43.5632,-20.6098 -89.2567,-46.8261 -130.416,-61.9858 -13.6418,-4.6943 -16.0449,-4.891 -20.9495,-1.7153 -5.9246,3.8362 -11.2285,22.9595 -11.2616,40.6042 -7.8224,75.3812 -16.8537,99.2949 -20.0137,222.119 2.0431,156.325 31.563,298.2331 26.261,443 -2.4855,32.1667 -8.1989,33.6725 -37.6452,30.9485 -44.0494,-1.5845 -63.6007,19.5079 -120.6028,13.4724 -43.8166,-3.7994 -123.30031,-12.6219 -248.82829,17.699 -28.82466,10.5677 -34.25206,-3.6208 -35.97281,-30.0269 z M 676.76862,1261.1458 c 3.33903,-3.0072 4.82744,-6.291 6.1451,-13.5575 24.22842,-62.6358 36.87361,-121.4113 53.61478,-178.9471 13.27954,-43.7518 26.76143,-89.07521 23.83362,-130.29662 -0.69114,-9.28793 -7.0187,-35.86285 -11.39278,-47.8481 -4.89793,-13.42065 -12.30499,-21.9627 -19.0445,-21.9627 -37.90289,26.41665 -61.60153,24.07209 -109.41687,16.90543 -58.8984,-15.22275 -86.50395,-27.56392 -135.55781,-57.68266 -9.80903,-5.95506 -20.24773,-10.02754 -29.76845,-16.386 -9.0517,-6.10803 -26.27236,-13.83677 -30.83016,-13.83677 -11.10963,2.9198 -7.41559,23.5736 -5.81955,34 2.54983,16.21891 19.32371,57.65329 26.62851,71 73.72175,113.28002 92.61331,149.01622 123.82047,200.67672 6.48163,9.9034 79.35689,142.8656 86.17521,149.9566 11.26578,11.6453 15.71667,13.2884 21.61243,7.9787 z M 323.35218,739.96235 c 0,0 1.41929,-7.59387 -8.64275,-14.6314 -8.39596,-5.87226 -30.09694,-26.30268 -36.98816,-33.00344 -7.47978,-7.27306 -20.70194,-19.2097 -35.90339,-41.62845 -7.07877,-10.4396 -15.32224,-17.96631 -24.22019,-33.08721 -0.77972,-1.32504 -0.36261,-1.16195 -0.79338,-0.89909 -0.91309,0.55717 -0.94149,0.60285 -2.93351,1.95246 -4.81458,3.2619 -4.4919,2.39784 -4.09686,3.06935 4.28396,7.28208 10.37273,19.27566 23.63855,38.80198 10.44081,16.16416 39.47163,45.29213 59.31663,61.26637 9.58347,7.96163 21.58734,18.45133 30.62306,18.15943 z m 54.05061,-0.81684 c 4.80653,-4.80653 3.85891,-14.37842 -1.78988,-18.07966 -5.26585,-3.45031 -16.57597,-3.14959 -20.54295,0.54621 -4.52872,4.21915 -1.77398,9.62068 8.19122,16.06151 6.96118,4.49923 10.72279,4.89076 14.14161,1.47194 z M 316.32776,689.4838 c 3.87415,-3.40156 6.10353,-8.79112 5.17188,-12.50313 -1.68633,-6.71886 -16.45767,2.30239 -16.54276,10.10311 -0.0676,6.19748 5.66721,7.4079 11.37088,2.40002 z m 167.16086,-40.99536 c 3.33991,-3.11769 5.78234,-7.89352 8.86256,-17.32953 1.34408,-4.11748 4.03569,-9.80055 5.98134,-12.62903 3.92865,-5.71125 5.34534,-9.82726 6.19409,-17.9961 0.62487,-6.01414 -0.42674,-8.30008 -4.35521,-9.46711 -1.8664,-0.55446 -3.61524,0.67018 -10.20914,7.14902 -8.21754,8.07415 -14.3217,17.12539 -22.62485,33.54811 -5.30249,10.48775 -5.68878,14.61906 -1.6638,17.79415 3.93601,3.1049 13.98965,2.50134 17.81501,-1.06951 z m -71.06501,-48.56732 c 14.13565,-6.85926 21.93296,-11.58446 27.16366,-16.46125 2.65999,-2.48002 6.88708,-5.91486 9.39354,-7.63299 7.19785,-4.934 11.9428,-10.73307 11.9428,-14.59598 0,-6.22847 -4.11933,-7.34564 -11.85262,-3.21445 -2.55606,1.36547 -8.19122,3.90591 -12.52257,5.64543 -5.49818,2.20813 -9.72388,4.81599 -14,8.63997 -3.36865,3.01246 -8.82481,7.3075 -12.12481,9.54453 -9.68465,6.5651 -17.5,14.5068 -17.5,17.78292 0,3.71913 3.46731,6.17126 7.5,5.30412 1.65,-0.3548 7.05,-2.61033 12,-5.0123 z m -222.6169,-50.8274 c -12.51223,-29.76717 -4.70758,11.86482 0.49816,26.10608 7.15225,19.5663 7.92773,23.29578 16.52335,41.46665 1.43957,2.57979 1.99703,3.54578 2.51031,4.40422 0.37257,0.6231 0.54017,0.056 3.53404,-1.77168 2.10538,-1.28531 2.85761,-1.96518 3.66777,-2.42901 0.3883,-0.22232 0.55918,-0.37236 0.52539,-0.44721 -0.0668,-0.14791 -0.2114,-0.39185 -0.47819,-0.86892 -0.8286,-1.48166 -8.94131,-19.32496 -10.41334,-22.7253 -6.22673,-14.38353 -7.50042,-20.51907 -16.36745,-43.73483 z"
       id="path3794"
       sodipodi:nodetypes="ccccccccccccccccccccccccccccccccccccccccsccsccccssccscccsccccccccscccccccscccscccccccccsssssssssccsssssssssssssssssssssssssssssscscsssssscc" />
  </g>
</svg>
