<?xml version="1.0" encoding="UTF-8" standalone="no"?>
<svg
   xmlns:dc="http://purl.org/dc/elements/1.1/"
   xmlns:cc="http://creativecommons.org/ns#"
   xmlns:rdf="http://www.w3.org/1999/02/22-rdf-syntax-ns#"
   xmlns:svg="http://www.w3.org/2000/svg"
   xmlns="http://www.w3.org/2000/svg"
   xmlns:sodipodi="http://sodipodi.sourceforge.net/DTD/sodipodi-0.dtd"
   xmlns:inkscape="http://www.inkscape.org/namespaces/inkscape"
   width="210mm"
   height="297mm"
   viewBox="0 0 210 297"
   version="1.1"
   id="svg8"
   inkscape:version="1.0.2-2 (e86c870879, 2021-01-15)"
   sodipodi:docname="arrow-1a.svg">
  <defs
     id="defs2" />
  <sodipodi:namedview
     id="base"
     pagecolor="#ffffff"
     bordercolor="#666666"
     borderopacity="1.0"
     inkscape:pageopacity="0.0"
     inkscape:pageshadow="2"
     inkscape:zoom="0.7"
     inkscape:cx="103.83896"
     inkscape:cy="463.91285"
     inkscape:document-units="mm"
     inkscape:current-layer="layer1"
     inkscape:document-rotation="0"
     showgrid="false"
     inkscape:window-width="1549"
     inkscape:window-height="1020"
     inkscape:window-x="84"
     inkscape:window-y="11"
     inkscape:window-maximized="0"
     showguides="false" />
  <metadata
     id="metadata5">
    <rdf:RDF>
      <cc:Work
         rdf:about="">
        <dc:format>image/svg+xml</dc:format>
        <dc:type
           rdf:resource="http://purl.org/dc/dcmitype/StillImage" />
        <dc:title></dc:title>
      </cc:Work>
    </rdf:RDF>
  </metadata>
  <g
     inkscape:label="Layer 1"
     inkscape:groupmode="layer"
     id="layer1">
    <path
       style="fill:#000000;stroke-width:0.264583"
       d="M 102.41845,170.24992 C 101.90494,169.7777 26.161745,48.484604 25.022431,46.310034 c -0.166533,-0.31786 -0.302787,-0.71022 -0.302787,-0.87192 0,-0.46727 1.252018,-1.59287 1.771757,-1.59287 0.275553,0 16.455889,15.98158 38.773479,38.29719 0,0 22.760178,26.961486 38.34784,26.768906 13.46134,-0.16632 38.12107,-26.636616 38.12107,-26.636616 40.24035,-40.23675 38.83607,-38.91022 39.97984,-37.76646 1.00985,1.00986 0.91687,1.21572 -4.3398,9.60785 -2.7966,4.46472 -20.20041,32.28736 -38.67513,61.828086 -18.47471,29.54072 -33.88463,53.9783 -34.24427,54.30572 -0.35963,0.32742 -0.81919,0.59531 -1.02124,0.59531 -0.20205,0 -0.65868,-0.26789 -1.01474,-0.59531 z m 29.38649,-49.67552 c 15.42857,-24.665776 30.50732,-48.764206 33.50833,-53.552066 3.00101,-4.78787 5.45638,-8.77581 5.45638,-8.86211 0,-0.0863 -14.83113,14.957782 -33.27383,33.11301 C 125.17296,103.40401 109.60161,112.15735 103.37648,112.3038 97.691417,112.43754 87.592628,109.23445 69.4887,91.139514 L 36.068443,57.735864 46.20659,74.007744 c 48.09158,77.187646 57.2298,91.541316 57.37745,91.371546 0.0929,-0.10684 12.79234,-20.13911 28.2209,-44.80489 z"
       id="path3796"
       sodipodi:nodetypes="ssssssssssssssssssscsss" />
    <text
       xml:space="preserve"
       style="font-size:19.7556px;line-height:1.25;font-family:sans-serif;stroke-width:0.264583"
       x="42.333332"
       y="266.09525"
       id="text2626"><tspan
         sodipodi:role="line"
         id="tspan2624"
         x="42.333332"
         y="266.09525"
         style="stroke-width:0.264583">#807433</tspan></text>
  </g>
</svg>
