<?xml version="1.0" encoding="UTF-8" standalone="no"?>
<!-- Created with Inkscape (http://www.inkscape.org/) -->

<svg
   xmlns:osb="http://www.openswatchbook.org/uri/2009/osb"
   xmlns:dc="http://purl.org/dc/elements/1.1/"
   xmlns:cc="http://creativecommons.org/ns#"
   xmlns:rdf="http://www.w3.org/1999/02/22-rdf-syntax-ns#"
   xmlns:svg="http://www.w3.org/2000/svg"
   xmlns="http://www.w3.org/2000/svg"
   xmlns:xlink="http://www.w3.org/1999/xlink"
   xmlns:sodipodi="http://sodipodi.sourceforge.net/DTD/sodipodi-0.dtd"
   xmlns:inkscape="http://www.inkscape.org/namespaces/inkscape"
   width="210mm"
   height="297mm"
   viewBox="0 0 210 297"
   version="1.1"
   id="svg206"
   inkscape:version="0.92.3 (2405546, 2018-03-11)"
   sodipodi:docname="logo drawing1.svg">
  <defs
     id="defs200">
    <linearGradient
       id="linearGradient4767"
       osb:paint="solid">
      <stop
         style="stop-color:#000000;stop-opacity:1;"
         offset="0"
         id="stop4765" />
    </linearGradient>
    <inkscape:path-effect
       effect="bspline"
       id="path-effect255"
       is_visible="true"
       weight="33.333333"
       steps="2"
       helper_size="0"
       apply_no_weight="true"
       apply_with_weight="true"
       only_selected="false" />
    <inkscape:path-effect
       effect="bspline"
       id="path-effect251"
       is_visible="true"
       weight="33.333333"
       steps="2"
       helper_size="0"
       apply_no_weight="true"
       apply_with_weight="true"
       only_selected="false" />
    <inkscape:path-effect
       effect="bspline"
       id="path-effect239"
       is_visible="true"
       weight="33.333333"
       steps="2"
       helper_size="0"
       apply_no_weight="true"
       apply_with_weight="true"
       only_selected="false" />
    <inkscape:path-effect
       effect="bspline"
       id="path-effect226"
       is_visible="true"
       weight="33.333333"
       steps="2"
       helper_size="0"
       apply_no_weight="true"
       apply_with_weight="true"
       only_selected="false" />
    <linearGradient
       inkscape:collect="always"
       xlink:href="#linearGradient4767"
       id="linearGradient4769"
       x1="60.849564"
       y1="97.366982"
       x2="139.46861"
       y2="97.366982"
       gradientUnits="userSpaceOnUse" />
    <linearGradient
       gradientTransform="translate(-40.193825,3.0433652)"
       inkscape:collect="always"
       xlink:href="#linearGradient4767"
       id="linearGradient4769-9"
       x1="60.849564"
       y1="97.366982"
       x2="139.46861"
       y2="97.366982"
       gradientUnits="userSpaceOnUse" />
    <linearGradient
       inkscape:collect="always"
       xlink:href="#linearGradient4767"
       id="linearGradient4926"
       gradientUnits="userSpaceOnUse"
       gradientTransform="translate(43.977248,3.954781)"
       x1="60.849564"
       y1="97.366982"
       x2="139.46861"
       y2="97.366982" />
    <linearGradient
       inkscape:collect="always"
       xlink:href="#linearGradient4767"
       id="linearGradient4930"
       gradientUnits="userSpaceOnUse"
       gradientTransform="matrix(1.0107084,0,0,0.99998349,-45.769272,1.8462976)"
       x1="60.849564"
       y1="97.366982"
       x2="139.46861"
       y2="97.366982" />
  </defs>
  <sodipodi:namedview
     id="base"
     pagecolor="#ffffff"
     bordercolor="#666666"
     borderopacity="1.0"
     inkscape:pageopacity="0.0"
     inkscape:pageshadow="2"
     inkscape:zoom="1.4142136"
     inkscape:cx="272.70846"
     inkscape:cy="728.12486"
     inkscape:document-units="mm"
     inkscape:current-layer="layer1"
     showgrid="false"
     inkscape:snap-grids="true"
     showguides="false"
     inkscape:window-width="1366"
     inkscape:window-height="705"
     inkscape:window-x="-8"
     inkscape:window-y="-8"
     inkscape:window-maximized="1">
    <inkscape:grid
       type="xygrid"
       id="grid243" />
  </sodipodi:namedview>
  <metadata
     id="metadata203">
    <rdf:RDF>
      <cc:Work
         rdf:about="">
        <dc:format>image/svg+xml</dc:format>
        <dc:type
           rdf:resource="http://purl.org/dc/dcmitype/StillImage" />
        <dc:title></dc:title>
      </cc:Work>
    </rdf:RDF>
  </metadata>
  <g
     inkscape:label="Layer 1"
     inkscape:groupmode="layer"
     id="layer1">
    <circle
       style="fill:#ffffff;stroke-width:0.265;stroke:url(#linearGradient4769);stroke-miterlimit:4;stroke-dasharray:none"
       id="path208"
       cx="100.15909"
       cy="97.366982"
       r="39.309525" />
    <path
       style="fill:none;stroke:#000000;stroke-width:0.26458332px;stroke-linecap:butt;stroke-linejoin:miter;stroke-opacity:1"
       d="M 100.06737,44.122803 99.31142,238.40256"
       id="path218"
       inkscape:connector-curvature="0" />
    <path
       style="fill:none;stroke:#000000;stroke-width:0.26458332px;stroke-linecap:butt;stroke-linejoin:miter;stroke-opacity:1"
       d="M 28.726198,98.5625 H 201.08333"
       id="path220"
       inkscape:connector-curvature="0" />
    <path
       id="path228"
       transform="scale(0.26458333)"
       style="fill:#ffff00;stroke-width:0.99999994"
       d="m -944.61133,42.574219 c 0.0168,0.07504 0.0343,0.145882 0.0508,0.220703 0.29743,0.666076 0.59657,1.331305 0.89258,1.998047 3.13891,-0.07318 6.23186,0.379075 9.26367,2.34375 1.38321,1.329849 2.80849,2.617167 4.1836,3.955078 0.33658,2e-6 0.67318,-2e-6 1.00976,0 0.18602,-0.252629 0.64173,-0.856932 0.68164,-0.910156 3.28067,-4.048805 3.66296,-4.892132 5.24805,-5.933594 a 160,155.71427 0 0 0 -21.33008,-1.673828 z m -89.85157,26.232422 a 160,155.71427 0 0 0 -71.2519,129.427739 160,155.71427 0 0 0 159.99996,155.71484 160,155.71427 0 0 0 160,-155.71484 160,155.71427 0 0 0 -50.59961,-113.363286 c -2.8948,7.808403 -13.81968,11.489659 -26.70313,2.134765 -1.37975,-1.001873 -0.2984,-0.233823 -3.36719,-2.115234 -0.2177,-1.512835 0.10601,-1.11879 -2.27343,-1.65625 -8.44842,-1.908265 -7.3808,-1.188748 -16.52735,-3.527344 -0.50254,0.902085 -1.02469,1.669552 -1.53711,2.142578 -0.38162,0.35229 0.54643,-1.853724 0.12305,-1.552734 -2.90438,2.065334 4.76937,12.119345 -2.99805,10.261719 -3.82953,6.035096 -4.01565,7.601182 -9.14843,11.749996 -0.44512,0.35978 -1.05124,0.49482 -1.61719,0.58008 -0.2041,0.0306 -0.47785,-0.43659 -0.56641,-0.25 -1.33266,2.80808 -2.03224,5.89352 -3.42969,8.66992 -1.27059,2.52441 -3.026,4.77512 -4.53906,7.16211 -1.06046,1.7777 -10.61639,18.66121 -13.12304,19.36328 -20.15147,5.644 -25.36098,2.77314 -28.16602,-10.81445 -0.51609,-0.74408 -1.11285,-1.6692 -1.74609,-2.81055 -1.03348,-1.86266 -1.31098,-4.10521 -2.4668,-5.89453 -2.59786,-4.02171 -5.18302,-5.78888 -8.82422,-9.00586 -1.76496,-3.61362 -3.68076,-7.15639 -5.29492,-10.83984 -1.02395,-2.336666 0.23327,-10.9457 0,-13.683594 0.15718,-1.691683 0.0622,-3.435043 0.23633,-5.123047 -5.68812,0.0016 -11.37635,0.0085 -17.06446,-0.0039 -6.01474,-0.0098 -12.03035,0.02451 -18.04494,0.0332 -6.087,-0.193512 -12.1556,-0.471402 -18.209,0.548828 -13.5395,-0.949604 -14.0311,0.855596 -12.8613,-11.433593 z m 68.95313,10.855468 c 0.51036,0.742803 1.02016,1.529563 1.48438,2.28125 -0.32963,-0.572542 -0.82658,-1.447294 -1.30078,-2.28125 -0.0612,2e-6 -0.1224,-10e-7 -0.1836,0 z m 45.39649,0 c -0.94744,0.463223 -1.93398,0.920823 -2.95899,1.373047 0.51938,-0.242401 1.03521,-0.503623 0.75,-0.460937 -4.07308,0.609626 -8.08093,1.599116 -12.12109,2.398437 -1.90484,-1.036458 -3.45451,-1.958426 -4.87109,-2.845703 -0.21711,2.508749 -0.54089,4.987108 -0.75391,7.292969 -0.22585,1.073375 -0.23373,2.505964 -0.1582,3.953125 3.58689,2.931193 6.24988,6.540431 8.56836,10.410153 4.14887,-5.466271 2.94936,-9.622349 8.20312,-15.716794 0.28882,-0.335024 5.01863,-3.474031 7.43164,-6.404297 z m -2.41992,41.738281 c 1.82902,12.93018 0.32181,0.12512 0.1582,0.0586 -0.0521,-0.0212 -0.10603,-0.0377 -0.1582,-0.0586 z m -27.16602,6.2793 c 0.0982,0.31583 0.21973,0.72137 0.28906,0.92578 1.26561,0.93207 0.79997,0.54531 -0.28906,-0.92578 z" />
    <ellipse
       style="fill:#ffff00;stroke-width:0.26458332"
       id="path241"
       cx="-244.55058"
       cy="216.86905"
       rx="5.6696429"
       ry="0.75595242" />
    <path
       style="fill:none;fill-opacity:0;stroke:url(#linearGradient4926);stroke-width:0.26499999;stroke-miterlimit:4;stroke-dasharray:none"
       d="m 183.97501,101.32177 v 0 m -55.13973,36.22039 c -2.35146,-0.99458 -4.586,-2.21147 -6.67728,-3.62431 -2.09129,-1.41284 -4.0393,-3.02164 -5.81771,-4.80005 -7.11362,-7.11362 -11.91036,-19.45454 -11.91036,-30.30958 0,-14.780407 8.55426,-25.142019 20.61252,-31.855403 m 0,0 c 1.13995,-0.648607 1.255,-0.740606 1.62268,-0.962109"
       id="path4895"
       inkscape:connector-curvature="0"
       sodipodi:nodetypes="cccsssccc" />
    <path
       style="fill:none;stroke:url(#linearGradient4930);stroke-width:0.26641288;stroke-miterlimit:4;stroke-dasharray:none"
       d="m 73.208032,64.026906 c 13.038275,6.447456 21.984802,19.782496 21.9848,35.184759 -2e-6,13.276275 -6.652282,25.015305 -16.838886,32.132235"
       id="path208-9"
       inkscape:connector-curvature="0" />
    <rect
       style="fill:none;stroke-width:0.26499999;stroke-miterlimit:4;stroke-dasharray:none"
       id="rect4856"
       width="6.614583"
       height="6.614583"
       x="146.84375"
       y="57.552082" />
    <ellipse
       style="fill:none;stroke-width:0.26499999;stroke-miterlimit:4;stroke-dasharray:none"
       id="path4858"
       cx="144.85938"
       cy="60.859375"
       rx="5.953125"
       ry="3.3072915" />
    <rect
       style="fill:none;stroke-width:0.26499999;stroke-miterlimit:4;stroke-dasharray:none"
       id="rect4860"
       width="9.260417"
       height="5.2916665"
       x="142.875"
       y="57.552082" />
  </g>
</svg>
