<?xml version="1.0" encoding="UTF-8" standalone="no"?>
<!-- Created with Inkscape (http://www.inkscape.org/) -->

<svg
   xmlns:dc="http://purl.org/dc/elements/1.1/"
   xmlns:cc="http://creativecommons.org/ns#"
   xmlns:rdf="http://www.w3.org/1999/02/22-rdf-syntax-ns#"
   xmlns:svg="http://www.w3.org/2000/svg"
   xmlns="http://www.w3.org/2000/svg"
   xmlns:sodipodi="http://sodipodi.sourceforge.net/DTD/sodipodi-0.dtd"
   xmlns:inkscape="http://www.inkscape.org/namespaces/inkscape"
   width="315.9657mm"
   height="542.26874mm"
   viewBox="0 0 1119.5635 1921.4247"
   id="svg2"
   version="1.1"
   inkscape:version="0.92.3 (2405546, 2018-03-11)"
   sodipodi:docname="anxiety.svg">
  <defs
     id="defs4" />
  <sodipodi:namedview
     id="base"
     pagecolor="#ffffff"
     bordercolor="#666666"
     borderopacity="1.0"
     inkscape:pageopacity="0.0"
     inkscape:pageshadow="2"
     inkscape:zoom="2.8"
     inkscape:cx="745.62245"
     inkscape:cy="375.73079"
     inkscape:document-units="px"
     inkscape:current-layer="layer1"
     showgrid="false"
     fit-margin-top="0"
     fit-margin-left="0"
     fit-margin-right="0"
     fit-margin-bottom="0"
     inkscape:window-width="1366"
     inkscape:window-height="705"
     inkscape:window-x="-8"
     inkscape:window-y="-8"
     inkscape:window-maximized="1"
     inkscape:snap-global="false" />
  <metadata
     id="metadata7">
    <rdf:RDF>
      <cc:Work
         rdf:about="">
        <dc:format>image/svg+xml</dc:format>
        <dc:type
           rdf:resource="http://purl.org/dc/dcmitype/StillImage" />
        <dc:title></dc:title>
      </cc:Work>
    </rdf:RDF>
  </metadata>
  <g
     inkscape:label="Layer 1"
     inkscape:groupmode="layer"
     id="layer1"
     transform="translate(274.24231,336.19663)">
    <path
       style="fill:#000000"
       d="m 270.66893,1556.7886 c -22.81063,2.7262 -69.12892,8.2456 -64.35851,-10.4106 5.31167,-68.2103 5.60833,-129.9106 1.40365,-196.1054 -32.07045,8.2991 -62.22127,18.4732 -92.71401,13.5621 -28.143862,-4.9229 -44.067744,-44.7763 -44.545747,-63.5491 -1.954211,-86.4831 14.126998,-165.1604 16.243607,-269.9572 4.133921,-29.0652 -75.798126,-34.57237 -82.1985585,-71.78894 -7.921383,-56.28279 18.3462635,-80.10624 32.6375255,-99.7536 6.606298,-9.93294 23.888749,-16.36284 37.623735,-24.1972 16.357179,-4.40981 11.019123,-21.52519 10.618018,-29.3923 0.821336,-30.23918 3.804167,-75.60307 10.123204,-91.30339 6.092236,-17.097 14.350876,-33.66814 28.342226,-44.42567 33.08791,-26.11467 64.47631,-22.64825 101.1511,-13.42077 70.04292,14.36435 101.48037,53.09328 128.13804,66.12483 21.61042,8.90979 34.36564,7.75454 35.0922,-1.80547 1.40165,-42.87576 0.179,-58.51152 -0.2743,-102.88584 0.12889,-10.8152 1.25075,-24.87128 -9.22472,-38.56597 C 362.49778,562.43787 359.36891,560.58751 342.81135,543.48723 272.89116,468.95976 239.45206,370.00468 243.50143,275 247.83656,228.50062 263.16029,183.88944 280.49452,144.42829 310.2384,95.702838 361.7772,46.006854 411.95328,28.2061 512.13468,3.7128814 562.92848,35.454299 586.52158,50 c 87.87865,58.71921 128.96998,122.49289 128.81765,221.5 2.24859,115.15787 -47.84619,223.71752 -106.39443,278.12183 -26.3746,18.93727 -45.48188,33.00436 -44.06462,49.54388 -1.71344,25.69054 2.43708,66.1267 8.17017,103.00274 2.2749,14.67778 22.77579,8.22471 29.02108,4.80045 58.73056,-30.22054 104.55639,-64.47754 168.04884,-65.12141 61.68533,1.3489 71.94604,42.06445 67.38913,117.65251 -0.3899,10.00882 -0.16632,12.70483 5.86429,12.85621 26.22204,4.63716 42.62575,17.53875 51.85155,39.73032 8.86523,19.77417 10.66615,39.61426 10.73087,62.83961 1.23938,21.56041 -1.63797,47.2515 -7.0985,55.33018 -12.02571,23.10776 -38.21517,32.75377 -63.66972,46.42496 -12.50129,7.6574 -12.01609,35.05172 -12.04073,50.31872 4.49183,55.9286 8.30392,133.6598 12.85604,188.0939 10.09428,109.0679 -36.56157,112.4542 -104.64773,103.0384 -19.53326,-2.4671 -10.67758,39.9243 -13.38365,102.9034 -3.65107,89.158 -12.00617,96.4193 -60.43604,99.0591 -85.52718,8.5573 -246.68935,18.0874 -386.86685,36.6938 z M 292,1327.5042 c 46.93948,-20.1389 60.05779,-25.6797 123.76325,-56.865 15.55897,-7.6571 30.67294,-19.9395 44.97409,-27.6392 6.77789,-2.4829 17.06956,-5.0091 31.40552,2.3258 4.17963,2.8431 45.54277,22.3598 55.5757,25.9216 46.88353,21.0538 78.19477,32.6501 95.7842,35.5866 68.90153,10.4037 49.69434,4.2776 5.99724,-7.4141 -25.95367,-5.483 -79.10466,-29.467 -128.06179,-48.8809 -39.45344,-17.2647 -37.26252,-30.1107 -62.02288,-17.1638 -23.79882,13.7663 -39.99459,25.5184 -61.91533,35.6997 -55.29716,25.7265 -79.77873,40.925 -134.98975,59.7173 -4.26643,1.37 -14.28163,5.014 -16.20333,7.8786 8.29534,3.3691 23.19001,0.4143 45.69308,-9.1666 z m 250.88197,-133.7116 c 19.2011,-9.0674 40.16828,-28.7956 53.7504,-35.7289 4.83864,-2.4902 14.33476,-10.7209 17.26004,-16.2073 -12.47037,1.3194 -24.64488,11.9876 -31.2735,15.8109 -17.74721,11.3482 -33.74026,23.3414 -50.16452,35.119 -13.71275,8.8902 0.75921,5.0819 10.42758,1.0064 z M 321.30103,1148 c 9.90568,-5.4163 5.07208,-7.9275 -1.83375,-11.394 -16.07141,-9.0952 -17.56476,-11.823 -33.96728,-19.8171 -29.78792,-14.9671 -57.11166,-28.747 -87.5,-42.5205 -21.04104,-9.7186 -37.50377,-23.4211 -57.71676,-33.6609 -17.51024,-9.2082 -20.42089,-2.8301 -6.42996,5.833 50.29427,35.2921 104.51851,51.9282 149.64672,77.8077 14.03728,7.7395 27.72027,17.8553 13.61688,25.0246 -11.47262,8.6186 -22.67687,13.0109 -34.61637,17.5029 -27.64909,9.1737 -86.21685,30.9661 -5.33128,9.209 19.87272,-5.6713 48.01481,-18.7275 64.1318,-27.9847 z m 104.8391,-51.0364 c 19.73409,-8.8478 13.13323,-12.8856 6.30171,-10.7705 -23.83945,11.4232 -38.63218,17.735 -47.03485,23.1448 -7.90893,4.7841 -26.01598,16.8857 -31.29174,21.4541 -2.08984,2.4638 19.32481,-3.2395 28.62075,-9.458 8.42229,-5.3826 23.51486,-15.4079 43.40413,-24.3704 z m 257.6445,37.8344 c -4.40289,-2.7368 -15.56893,-7.6454 -14.85663,-15.1194 3.19979,-8.7586 74.86598,-50.2126 101.16522,-74.6007 3.43559,-3.995 15.90522,-15.4066 15.68677,-20.2379 -0.51376,-3.0826 -0.6191,-5.5292 -12.31315,3.3664 -47.15021,36.113 -70.77912,51.8387 -113.68068,83.32 -7.50333,3.5821 -12.87408,7.8068 -13.24455,8.4063 -1.68339,2.1388 3.5027,3.0755 5.14241,3.8551 10.17672,5.2327 23.69171,14.3369 35.00696,15.1391 1.20504,0.04 0.43714,-1.8384 -2.90635,-4.1289 z m -62.85316,-130.93 C 656.5378,984.4766 685.42697,958.2893 710,936.64562 c 19.59114,-14.77464 42.4191,-32.41319 53.4631,-49.99916 5.45737,-8.68833 -5.27856,-13.83121 -10.6219,-22.55033 -15.12777,-21.40298 -21.67593,-51.06021 -6.03101,-73.38245 4.49741,-7.24664 15.14534,-10.94208 19.11157,-8.09442 15.41205,11.74638 13.20285,50.98581 41.77467,52.13566 11.26435,1.06106 26.74669,-11.26961 23.98014,-22.10863 -1.7927,-3.99544 -14.43949,6.31602 -26.25758,4.71387 -12.07511,-1.2849 -21.01794,-34.39472 -34.4806,-41.07314 -15.37304,-6.47944 -27.53001,3.26347 -35.15572,14.71298 -17.66245,34.03529 3.18544,56.44485 11.09447,90.22349 3.746,12.02908 -20.76332,27.5317 -30.48446,36.27651 -44.69491,41.46556 -73.05513,61.09156 -128.89268,93.6811 -18.74666,10.5853 -53.89963,23.2914 -103,47.3189 -15.14506,6.1906 -96.2274,-25.8837 -130.69827,-35.5808 C 294.48221,999.58205 233.68862,975.0402 177.81851,945 c -6.59985,-3.71669 -9.70534,-10.90341 -6.82537,-21.9826 4.45516,-16.24613 4.4818,-34.47901 3.81159,-46.39141 -0.48026,-21.40766 -22.63033,-18.97647 -33.49763,-13.05125 -9.72129,5.13006 -12.11123,16.9014 -12.60138,22.17526 -3.15068,26.08328 6.37704,4.60289 7.83817,-1.0134 1.54906,-4.6845 13.48926,-18.35853 21.71112,-17.85284 15.06075,2.68752 9.66307,34.736 5.11429,52.41177 -2.55791,8.20171 -4.46385,19.47256 -1.53215,27.9654 2.9896,5.77744 156.0363,76.70637 222.24781,96.81287 32.05587,11.9437 64.2503,24.7298 92.62577,24.927 17.70788,-0.9338 91.3111,-35.4623 144.22074,-65.1328 z"
       id="path4147"
       inkscape:connector-curvature="0"
       transform="matrix(1.25,0,0,1.25,-287.12493,-361.51019)"
       sodipodi:nodetypes="ccccccccccccccccccccccccccccccccccccccccccccccccccccccccccccccccccccccccccccccccccccccccccccccccccccccccccccccccccc" />
  </g>
</svg>
