<?xml version="1.0" encoding="UTF-8" standalone="no"?>
<!-- Created with Inkscape (http://www.inkscape.org/) -->

<svg
   xmlns:dc="http://purl.org/dc/elements/1.1/"
   xmlns:cc="http://creativecommons.org/ns#"
   xmlns:rdf="http://www.w3.org/1999/02/22-rdf-syntax-ns#"
   xmlns:svg="http://www.w3.org/2000/svg"
   xmlns="http://www.w3.org/2000/svg"
   xmlns:sodipodi="http://sodipodi.sourceforge.net/DTD/sodipodi-0.dtd"
   xmlns:inkscape="http://www.inkscape.org/namespaces/inkscape"
   width="349.9003mm"
   height="453.31894mm"
   viewBox="0 0 349.9003 453.31894"
   version="1.1"
   id="svg45"
   inkscape:version="0.92.3 (2405546, 2018-03-11)"
   sodipodi:docname="depression.svg">
  <defs
     id="defs39" />
  <sodipodi:namedview
     id="base"
     pagecolor="#ff00ff"
     bordercolor="#666666"
     borderopacity="1.0"
     inkscape:pageopacity="0"
     inkscape:pageshadow="2"
     inkscape:zoom="0.12374369"
     inkscape:cx="-963.52969"
     inkscape:cy="1704.9966"
     inkscape:document-units="mm"
     inkscape:current-layer="layer1"
     showgrid="false"
     fit-margin-top="0"
     fit-margin-left="0"
     fit-margin-right="0"
     fit-margin-bottom="0"
     inkscape:window-width="1366"
     inkscape:window-height="705"
     inkscape:window-x="-8"
     inkscape:window-y="-8"
     inkscape:window-maximized="1"
     inkscape:pagecheckerboard="true" />
  <metadata
     id="metadata42">
    <rdf:RDF>
      <cc:Work
         rdf:about="">
        <dc:format>image/svg+xml</dc:format>
        <dc:type
           rdf:resource="http://purl.org/dc/dcmitype/StillImage" />
        <dc:title></dc:title>
      </cc:Work>
    </rdf:RDF>
  </metadata>
  <g
     inkscape:label="Layer 1"
     inkscape:groupmode="layer"
     id="layer1"
     transform="translate(60.231051,86.687687)">
    <path
       inkscape:connector-curvature="0"
       id="path60"
       d="m 186.81087,366.38748 c -11.53037,-1.34964 -16.18791,-5.68062 -18.2887,-13.52259 -2.18935,-5.81115 0.83297,-17.85587 10.18597,-50.78198 3.07052,-8.28819 3.78,-15.58153 3.55152,-24.36195 -0.0374,-32.11776 1.21287,-60.29997 -2.26963,-90.92622 -1.31315,-4.04633 -2.02208,-1.43397 -3.7713,4.59393 -7.14635,16.56632 -12.19933,29.2917 -17.41207,42.3696 -5.94055,18.2573 -13.80705,36.61481 -22.12378,51.90245 -9.29766,15.45758 -17.83278,29.77694 -30.84099,41.50519 C 77.402062,348.9138 29.579337,347.5873 4.3215383,336.6171 -7.8552699,330.97307 -30.311462,307.25296 -37.661696,286.71905 -44.624159,267.41612 -48.145063,247.91617 -52.727745,228.33433 -55.34987,205.80485 -59.119,180.81234 -59.5634,160.24821 c 0.642253,-19.2372 -1.51351,-41.2875 2.092877,-58.20833 4.898623,-33.827122 10.646262,-50.716345 22.02504,-74.723941 6.96361,-12.809257 14.204485,-22.0921461 23.789051,-29.667554 12.8272647,-11.542926 26.573642,-15.418851 40.997665,-21.493354 13.873665,-6.09357 26.210229,-8.581118 33.00085,-10.851474 4.046965,-0.914235 9.423417,-3.567613 17.126048,-7.72618 8.17369,-3.302319 13.617263,-9.889651 19.59783,-16.165456 8.937319,-8.132619 14.256789,-12.278822 25.464349,-17.928163 11.64165,-5.090893 25.14171,-8.31349 38.5303,-9.215888 15.9662,-1.275313 20.32461,-0.754002 29.35202,0.408144 18.75505,5.489179 20.81556,6.076678 31.15559,13.617904 5.55712,4.454324 10.83593,9.444304 16.16071,20.349175 1.67504,5.822469 3.57655,11.602893 4.63915,16.963634 3.53255,13.482568 3.56845,24.7574639 -4.05873,36.7919562 -7.51799,12.7014288 -15.77145,20.3453118 -23.99822,27.5281238 -3.2879,2.722883 -5.28844,4.786016 0.9379,3.850573 7.20736,-1.199697 11.30099,3.717755 15.78958,10.271187 4.77071,8.083585 5.22965,16.705292 7.86327,16.892702 0.90988,-0.09449 2.36235,-0.4016 5.13093,-0.286304 3.97573,0.281336 14.04469,10.782274 18.18071,18.661046 3.16988,4.986208 5.20194,16.53105 3.98718,22.035709 0,0 -3.04198,22.02314 -12.23401,34.36895 -10.62987,9.44722 -14.06448,13.55017 -14.41214,16.30944 -1.38729,3.85228 -2.14277,8.11764 -2.87072,11.91508 -2.89774,12.55659 -5.37811,28.2939 -6.12934,39.88052 -5.36464,37.08128 -19.4386,96.77013 -15.77992,109.52806 1.32241,9.37771 4.92547,16.3801 15.82771,15.55313 8.20552,0.45696 16.55014,-0.21167 24.58147,-0.0504 19.22088,-0.91021 23.26798,2.6358 26.90299,5.74409 3.0464,2.59185 4.11528,4.44326 5.07833,10.46066 -0.29799,12.54608 -7.27694,20.01419 -18.80781,20.45319 -15.8371,0.16096 -48.85466,-2.8286 -59.52432,-1.21349 -8.29311,0.93917 -15.51152,2.42651 -24.02207,2.08653 z M 120.54271,178.08689 c 2.63918,-0.0268 3.42017,-1.13671 3.42017,-1.13671 0.14036,-0.81327 -2.42048,-1.18236 -5.15997,-1.44179 -24.462348,1.12078 -48.158005,-1.30867 -69.091182,-5.83789 -4.226687,-0.65943 -5.719158,-0.49954 -5.719158,0.82706 4.296217,4.12614 14.290366,4.21055 19.930058,5.06295 19.716108,4.01043 38.528702,4.51832 56.620082,2.52638 z m 36.76664,-1.74204 c -1.71212,-1.07745 -18.59749,0.0493 -19.41332,0.0493 -0.84557,0 -3.93035,0.92602 -3.26578,1.34683 9.52757,0.21951 16.38099,0.61483 22.01764,-0.40393 0.39115,-0.0707 0.66146,-0.99218 0.66146,-0.99218 z m -25.81801,1.52257 c 0.096,-1.04023 -0.83733,-1.13138 -1.45758,-1.38581 -1.15537,-0.47394 -3.36354,-1.00101 -3.74576,-0.0688 -0.23454,0.572 0.0451,1.76324 0.96756,1.47976 z m 67.46417,-4.4116 c 1.10356,-0.9987 0.96307,-2.33122 -1.19857,-1.67086 -0.63314,0.24295 -14.81507,2.47846 -15.02349,4.11151 2.71555,1.71471 12.64354,-1.27075 16.22206,-2.44065 z m 14.32249,-5.34815 c 6.69773,-4.64178 13.75223,-9.31539 17.21932,-12.53901 9.27618,-6.97455 17.32251,-11.3409 6.13564,-7.7322 -8.22842,7.58926 -9.88125,6.84765 -16.66727,12.7508 -2.30574,2.04062 -16.65458,9.99336 -16.65458,9.99336 -1.31704,3.81041 8.4398,-1.45294 9.96689,-2.47295 z M 38.9372,170.3429 c 1.590719,-2.39352 -6.170404,-2.94514 -7.503813,-3.19654 -2.12659,-0.40776 -1.621908,1.06115 -1.025057,1.64194 0.560193,0.54511 4.101833,1.22298 5.760132,1.50954 2.210209,0.38194 2.236481,0.38237 2.768738,0.0451 z m -13.444256,-4.91659 c -14.981236,-3.06312 -27.6077144,-15.19178 -29.8756113,-30.22532 -1.2960971,-8.72141 -2.4940488,-21.43718 -1.7208388,-31.4648 1.0198564,-15.428922 1.7022664,-25.332845 4.196915,-40.868683 0.7489228,-3.503618 -0.3143697,-5.492999 -1.059581,-4.198031 -2.4309329,4.224278 -2.8440981,8.210719 -3.7345436,11.863248 -2.5002765,17.99699 -2.9459927,22.968831 -2.7175277,54.835076 0.204534,3.94663 2.2463948,17.65091 6.041002,23.59175 4.28116277,6.02993 9.7998396,11.42503 18.4568294,16.08852 3.308449,1.45973 7.451089,1.41999 10.046724,2.56124 2.871142,1.00556 2.217982,-2.4623 0.366632,-2.183 z m 78.541676,-15.81506 c -6.674252,-0.60872 -27.510955,-3.4138 -36.096877,-8.08569 -10.020318,-4.20299 -19.815093,-12.27614 -23.109699,-28.3192 -1.631065,-6.66903 -1.025517,-19.127708 -1.250136,-25.858566 0.172135,-4.308563 -0.246544,-10.993828 -0.04374,-15.20277 -0.770638,-7.411914 -1.735005,2.426021 -2.147117,5.119974 -2.937945,18.034907 -0.814584,35.775352 0.778637,41.695802 4.532999,16.58394 16.545392,24.30475 27.997182,28.0777 15.389529,4.13849 26.793089,5.16437 36.19858,5.76722 6.30272,0.08 10.87889,0.34094 16.14623,0.0286 25.92229,0.25481 26.41556,-3.56213 0.36076,-3.49858 -7.51106,0.62968 -11.24176,0.42229 -18.83382,0.27551 z m 57.39315,3.39261 c 1.03144,-0.55201 0.86603,-1.69171 -0.28778,-1.98272 -16.76177,-3.38743 -10.99412,5.13072 0.28778,1.98272 z m 16.81552,-2.39693 c 3.09037,-0.83923 -1.37004,-1.68697 -1.37004,-1.68697 -3.261,-0.30858 -10.20284,0.73901 -10.81683,1.73321 -0.33874,0.9541 1.14064,2.42099 2.27457,2.08115 3.86942,-0.35625 8.93985,-1.85364 9.9123,-2.12739 z m 16.65013,-4.32594 c 4.3136,-1.31924 4.55255,-1.55365 8.52438,-5.91237 4.40888,-5.233 5.7499,-8.86946 7.32375,-13.59334 3.48282,-7.95816 -6.60281,-19.66108 -11.39323,-37.125016 -0.89614,-4.643376 -1.5088,-9.664728 -0.70405,-14.119115 1.27434,-4.25491 2.29056,-6.441132 6.0786,-8.545793 2.49034,-0.935159 4.68597,-0.369934 6.46123,1.001769 1.59939,1.287564 3.99924,5.478033 4.50422,7.596929 1.12022,6.141753 0.84989,12.498528 6.10935,15.395146 3.783,2.051405 6.24914,2.32469 9.89184,2.149073 5.22225,-0.0408 6.93973,-1.744992 6.95479,-11.932499 -0.13753,-5.287544 -0.96733,-10.21401 -1.39282,-13.778009 0.0668,-2.463297 1.27497,-4.481124 -1.66706,-1.770714 -1.14443,1.44744 1.68274,23.062132 -3.09598,23.698888 -7.24275,0.647852 -11.40418,-0.08874 -12.56947,-5.843176 -1.31198,-6.608242 -2.94597,-15.518246 -9.60406,-19.885869 -7.96364,-1.798656 -8.025,0.173929 -12.65339,4.505921 -3.03008,5.282361 -2.28497,7.143193 -2.70336,13.109477 0.32905,6.631104 7.03808,21.990318 11.42938,34.462058 3.60994,8.98958 1.56654,11.63524 -1.4122,17.42634 -4.20119,6.80094 -7.15681,8.59516 -11.76913,11.57178 -2.34939,2.10217 -2.60732,3.00901 1.68727,1.58852 z M 81.494796,136.91822 c 0.52695,-0.20221 2.2902,-2.69994 4.39793,-6.22988 6.67521,-14.58939 17.157024,-30.882516 24.365244,-42.759566 1.45182,-1.901394 3.01227,-3.67584 7.48823,-9.745157 10.38786,-12.173646 17.51825,-23.654754 33.56962,-33.123467 5.41968,-2.024236 1.73629,-2.251504 -2.13599,-2.395795 -9.8646,-2.030459 -16.40789,-4.215497 -22.17109,-6.512155 -11.68906,-4.418924 -28.546988,-9.483272 -36.837354,-18.693286 -0.995339,-1.317621 -2.501617,-1.6559 -3.84275,-2.257633 -2.908231,-1.032075 -4.512924,-0.167704 -6.95419,0.937209 -6.169331,6.227607 -8.291876,12.143947 -8.989908,22.141869 -0.01807,19.343686 0.03145,36.140912 1.36016,54.379065 0.48563,14.123036 1.535874,26.601156 3.57296,39.340456 0.794877,3.36286 3.934868,5.77879 6.177168,4.91834 z"
       style="fill:#000000;stroke-width:0.35277778"
       sodipodi:nodetypes="ccccccccccccccccccccccccccccccccccccccccccccccccccccccscscccaccccccccccccccccccccccsccccccccccccccccccccccccccccccccccccccccccccccccccccccccccccccccc" />
  </g>
</svg>
