<?xml version="1.0" encoding="UTF-8" standalone="no"?>
<svg
   xmlns:dc="http://purl.org/dc/elements/1.1/"
   xmlns:cc="http://creativecommons.org/ns#"
   xmlns:rdf="http://www.w3.org/1999/02/22-rdf-syntax-ns#"
   xmlns:svg="http://www.w3.org/2000/svg"
   xmlns="http://www.w3.org/2000/svg"
   xmlns:sodipodi="http://sodipodi.sourceforge.net/DTD/sodipodi-0.dtd"
   xmlns:inkscape="http://www.inkscape.org/namespaces/inkscape"
   sodipodi:docname="drawing-signature edited.svg"
   inkscape:version="1.0.2-2 (e86c870879, 2021-01-15)"
   id="svg8"
   version="1.1"
   viewBox="0 0 317.01654 70.682205"
   height="70.682205mm"
   width="317.01654mm">
  <defs
     id="defs2" />
  <sodipodi:namedview
     inkscape:window-maximized="1"
     inkscape:window-y="-11"
     inkscape:window-x="-11"
     inkscape:window-height="986"
     inkscape:window-width="1920"
     fit-margin-bottom="0"
     fit-margin-right="0"
     fit-margin-left="0"
     fit-margin-top="0"
     showgrid="false"
     inkscape:document-rotation="0"
     inkscape:current-layer="layer1"
     inkscape:document-units="mm"
     inkscape:cy="98.081061"
     inkscape:cx="459.28137"
     inkscape:zoom="0.9899495"
     inkscape:pageshadow="2"
     inkscape:pageopacity="0.0"
     borderopacity="1.0"
     bordercolor="#666666"
     pagecolor="#ffffff"
     id="base"
     showguides="true"
     inkscape:guide-bbox="true">
    <sodipodi:guide
       position="144.16264,39.692179"
       orientation="0,-1"
       id="guide913" />
  </sodipodi:namedview>
  <metadata
     id="metadata5">
    <rdf:RDF>
      <cc:Work
         rdf:about="">
        <dc:format>image/svg+xml</dc:format>
        <dc:type
           rdf:resource="http://purl.org/dc/dcmitype/StillImage" />
        <dc:title></dc:title>
      </cc:Work>
    </rdf:RDF>
  </metadata>
  <g
     transform="translate(64.180222,-63.892668)"
     id="layer1"
     inkscape:groupmode="layer"
     inkscape:label="Layer 1">
    <path
       id="path881"
       style="fill:#000000;stroke-width:0.3683"
       d="m 112.39039,112.06528 c -8.51359,-1.39299 -10.60052,-2.3593 -15.02789,-6.95836 -3.060404,-3.1791 -4.676165,-6.601125 -4.676165,-9.903665 0,-0.41945 -0.168438,-0.86673 -0.374308,-0.99396 -0.205868,-0.12724 -0.284883,-0.376025 -0.175586,-0.552878 0.109297,-0.176844 0.375692,-1.278848 0.591987,-2.44889 1.894541,-10.248562 16.612432,-21.09188 32.685192,-24.080622 2.35778,-0.438428 4.65277,-0.969918 5.10003,-1.181078 0.84562,-0.399267 4.9771,1.246265 6.4566,2.571602 1.4448,1.294278 -0.29431,5.557264 -2.80649,6.879386 -1.84742,0.972277 -1.93369,0.634606 -0.42358,-1.658363 3.20399,-4.865009 -0.004,-6.675639 -8.64345,-4.881024 -15.60667,3.241255 -28.210609,11.999945 -30.127267,20.93598 -0.715339,3.3351 -0.717458,3.853247 -0.02944,7.207417 1.275945,6.220805 3.914027,9.069935 11.189307,12.084465 7.27043,3.01251 23.3082,2.00156 31.76587,-2.00237 4.45305,-2.1081 4.99912,-2.08993 2.64513,0.0881 -2.59242,2.39861 -5.73479,3.36599 -15.25939,4.69758 -6.20063,0.86689 -8.57326,0.90309 -12.89051,0.19671 z m 101.74169,-2.2916 c -0.68087,-0.52037 -1.47368,-5.37861 -1.44146,-8.83295 0.0243,-2.602715 -0.72183,-3.347895 -2.98912,-2.985345 -1.35266,0.2163 -1.42683,0.17938 -1.30934,-0.65164 0.10828,-0.76594 0.34907,-0.89544 1.84459,-0.992 2.56175,-0.16539 2.49892,0.11011 2.7572,-12.085833 0.25026,-11.815428 0.38027,-12.783174 1.69235,-12.59682 0.80171,0.113869 0.82439,0.229064 0.71295,3.616468 -0.71685,21.781375 -0.79608,21.417985 4.65296,21.337065 7.3878,-0.10972 6.06391,1.72869 -1.59143,2.20991 l -3.3147,0.20836 0.12566,3.683015 c 0.0691,2.02565 0.25255,4.27726 0.4076,5.00359 0.40727,1.90727 -0.38454,2.97485 -1.54726,2.08618 z m 14.05918,-0.7366 c -1.1088,-1.75732 -0.61118,-9.590805 0.86735,-13.653385 0.77001,-2.115845 1.72431,-0.18553 1.33303,2.69646 -0.17877,1.31667 -0.2995,4.397115 -0.26828,6.845425 0.0715,5.60717 -0.38092,6.56992 -1.9321,4.1115 z m 16.19895,0.82395 c -3.97846,-0.67297 -8.06688,-4.98046 -8.06688,-8.4991 0,-0.20548 -0.36642,-1.01028 -0.81427,-1.788425 -0.89483,-1.5548 -0.55168,-2.59826 0.85442,-2.59826 0.44527,0 0.88933,-0.48541 1.26349,-1.38112 2.34047,-5.6029 10.04169,-7.408571 12.20947,-2.862703 1.36938,2.871583 -1.8324,5.897453 -8.35691,7.897808 -6.36688,1.95201 -0.29818,7.75497 8.25559,7.89408 3.50706,0.057 4.46181,0.57726 2.38688,1.30059 -1.31074,0.45692 -5.14132,0.47532 -7.73179,0.0372 z m -0.70088,-12.166725 c 3.83647,-1.95272 4.98372,-3.46963 3.64024,-4.8131 -1.87468,-1.874701 -5.80979,-0.17843 -7.36158,3.1733 -1.56623,3.38287 -0.56769,3.82287 3.72134,1.6398 z m -97.8909,10.679515 c -0.55377,-1.03751 -0.6952,-1.68254 -0.46424,-2.11772 0.18264,-0.34419 0.5126,-2.28315 0.73329,-4.3088 0.22065,-2.025645 0.63182,-5.008875 0.91371,-6.629405 0.28187,-1.620512 1.02436,-6.012484 1.64995,-9.759943 2.27573,-13.631884 2.66431,-15.372869 3.71161,-16.629793 l 0.72029,-0.864452 0.0121,1.968963 c 0.006,1.08293 -0.21652,2.823153 -0.49614,3.867153 -0.27964,1.044 -0.87345,4.384205 -1.31961,7.422684 -0.44613,3.038478 -1.13006,7.09898 -1.5198,9.023344 -0.38976,1.924374 -0.87489,5.156194 -1.07808,7.181854 -0.20323,2.02565 -0.46553,4.202665 -0.58294,4.837805 -0.3805,2.05806 0.44067,1.65705 3.53121,-1.72445 6.51284,-7.125918 7.44663,-7.163961 8.49076,-0.34586 0.76547,4.99837 1.31479,6.08979 3.33941,6.63497 1.73093,0.46609 1.83524,0.92158 0.28212,1.2322 -3.25964,0.65193 -4.92465,-0.58719 -5.31015,-3.95183 -0.81563,-7.118685 -2.60159,-6.523515 -9.51005,3.16919 -2.08286,2.92227 -2.0756,2.91995 -3.10357,0.99409 z m 23.50454,0.32212 c -0.79464,-1.07482 -0.82971,-1.30139 -0.43158,-2.78989 0.2383,-0.89104 0.53883,-3.10699 0.66785,-4.92434 0.27398,-3.860125 1.52125,-5.296845 2.43899,-2.809485 0.37588,1.01883 1.1769,0.75457 1.82363,-0.60162 0.87965,-1.84466 2.72959,-3.799839 3.78642,-4.001874 0.83318,-0.159273 3.60036,2.377524 3.07409,2.818144 -0.41599,0.34828 -2.53526,0.51023 -2.72203,0.20801 -0.12109,-0.19593 -0.34126,-0.35623 -0.48925,-0.35623 -0.32134,0 -2.80567,4.581085 -3.19566,5.892795 -0.49287,1.65779 -3.46118,7.73431 -3.77814,7.73431 -0.17019,0 -0.69862,-0.52643 -1.17432,-1.16982 z m 15.54694,0.43822 c -0.51702,-0.8279 -0.62688,-5.38097 -0.13712,-5.68365 0.17586,-0.1087 0.43455,-1.06293 0.57485,-2.12054 0.27523,-2.074845 1.19848,-3.986425 1.92532,-3.986425 0.79906,0 0.85607,0.58687 0.30816,3.173105 -0.29546,1.39456 -0.54009,3.64348 -0.54358,4.9976 -0.0104,3.80854 -0.97954,5.45828 -2.12763,3.61991 z m 10.51143,-0.0242 c -2.45211,-1.29482 -2.75964,-2.90814 -0.89829,-4.71223 1.04833,-1.01607 1.29675,-1.11357 1.67525,-0.65749 0.25778,0.3106 0.30091,0.62417 0.10273,0.74667 -2.5929,1.60249 1.52245,3.71426 4.3693,2.2421 4.09792,-2.11912 2.49313,-4.93151 -3.47624,-6.09216 -5.34182,-1.038625 -5.94023,-4.328755 -1.13956,-6.265685 0.6077,-0.24518 1.63033,-0.672593 2.27249,-0.949806 4.26053,-1.839204 6.27322,0.838026 2.43005,3.232426 -1.36378,0.8497 -1.94029,0.6652 -1.94029,-0.62098 0,-1.14654 -0.54048,-1.13604 -2.08296,0.0405 -2.09481,1.59779 -1.1299,2.43092 3.8613,3.33391 3.42938,0.620435 5.64335,3.202005 4.60143,5.365415 -1.24574,2.58652 -3.8153,4.44897 -6.09714,4.4193 -0.55355,-0.007 -1.10195,0.14148 -1.2187,0.33041 -0.31051,0.5024 -0.92071,0.40009 -2.45932,-0.41236 z m -5.55511,-21.318058 c -0.85759,-1.451786 0.28897,-2.657523 1.77223,-1.863707 1.1639,0.622892 1.13208,1.085802 -0.14368,2.090454 l -1.02008,0.803326 z m 41.60644,0.835242 c -0.72337,-0.723367 -0.23519,-2.70087 0.6667,-2.70087 1.38559,0 2.44201,1.7373 1.48293,2.438596 -0.74147,0.542191 -1.74704,0.664872 -2.14963,0.262274 z" />
    <path
       id="path853"
       style="fill:#000000;stroke-width:0.352778"
       d="m 48.270633,134.14487 c -0.546196,-0.65812 -0.01961,-2.54426 1.118079,-4.00485 0.360433,-0.46273 0.655335,-0.98647 0.655335,-1.16387 0,-0.43987 5.646035,-8.04332 8.072546,-10.87119 2.729653,-3.18116 3.634345,-4.2096 4.451064,-5.05988 0.388056,-0.40401 0.943681,-1.07938 1.234722,-1.50084 0.291042,-0.42147 1.203855,-1.65094 2.028473,-2.73217 2.213775,-2.90268 1.998567,-3.35918 -1.191842,-2.52819 -5.653585,1.47257 -8.950519,-0.36196 -8.950519,-4.98038 0,-1.23193 0.167298,-1.636336 0.866429,-2.094426 1.201554,-0.78729 1.603015,-0.39182 1.603015,1.579076 0,3.28229 1.904524,4.3137 6.234638,3.37643 1.518659,-0.32873 3.31682,-0.71579 3.995917,-0.86013 2.487341,-0.52871 3.783306,-1.38294 6.26091,-4.126836 1.388441,-1.53768 3.156373,-3.13309 3.928734,-3.54535 l 1.404288,-0.74957 0.367062,1.05295 c 0.230145,0.66019 0.243621,1.20805 0.03614,1.46877 -1.739702,2.18602 -2.773024,3.192766 -4.354417,4.242436 -1.918039,1.27312 -4.425329,3.69694 -6.130078,5.92599 -1.297644,1.69674 -4.126876,5.00231 -6.080093,7.10376 -0.862866,0.92835 -2.212241,2.53491 -2.998611,3.57013 -0.78637,1.03522 -2.655013,3.39354 -4.15254,5.24072 -1.497528,1.84717 -3.07261,3.97146 -3.500184,4.72064 -0.427573,0.74918 -1.020822,1.64875 -1.318327,1.99904 -0.297508,0.35029 -0.958236,1.45275 -1.468289,2.44991 -1.038648,2.03056 -1.432059,2.30765 -2.112447,1.48783 z m -92.41825,-21.67596 c -0.291042,-0.16659 -1.057402,-0.49911 -1.70302,-0.73893 -3.683699,-1.36831 -3.363454,-5.37614 0.644687,-8.06817 2.876832,-1.9322 3.04812,-0.45692 0.273187,2.35292 -4.484436,4.54084 6.019828,6.04226 18.034282,2.57772 0.65876,-0.18996 2.570367,-0.58227 4.248019,-0.87178 3.33569,-0.57564 5.296355,-1.26797 6.003318,-2.11981 0.478695,-0.57678 -1.122881,-6.012996 -2.322318,-7.882626 -0.742435,-1.15728 -3.139532,-8.57047 -3.845479,-11.89243 -0.329865,-1.55222 -0.802216,-3.77472 -1.049679,-4.93889 -1.070332,-5.03533 -1.90753,-8.53563 -2.262572,-9.45977 -0.209847,-0.54621 -0.381537,-1.63967 -0.381537,-2.42991 v -1.4368 l -2.578946,0.23369 c -15.786488,1.43054 -34.801696,2.19808 -35.062628,1.41529 -0.41729,-1.25187 3.517879,-1.83429 12.594353,-1.86399 8.210885,-0.0269 15.51862,-0.34675 21.872222,-0.9574 3.00743,-0.28904 7.531805,-0.67442 10.054166,-0.85639 2.522361,-0.18197 5.617986,-0.40487 6.879166,-0.49533 1.261181,-0.0905 4.3568057,-0.26533 6.8791667,-0.38858 2.522361,-0.12325 4.8242359,-0.31293 5.11527758,-0.4215 0.89986553,-0.33569 6.43264502,-0.45695 8.26172362,-0.18106 2.6909531,0.40588 3.9392861,3.25981 1.4258678,3.25981 -0.445142,0 -0.8692056,-0.17957 -0.9423611,-0.39903 -0.2885934,-0.86578 -10.5255374,-1.12551 -18.6230076,-0.47249 -0.679097,0.0548 -3.536597,0.26988 -6.35,0.47802 -6.236536,0.46141 -8.113889,0.70663 -8.113889,1.05984 0,0.14869 0.393894,1.23973 0.875323,2.42453 1.051204,2.58703 2.38548,7.56072 3.19296,11.90218 1.600941,8.60754 3.585355,14.5982 6.840033,20.649076 1.946088,3.61804 -0.573074,5.71809 -8.438871,7.03489 -12.419982,2.07922 -20.583517,3.02265 -21.519444,2.48692 z m 44.44999858,-2.34783 c -3.31713758,-0.52257 -4.59287018,-1.5246 -5.10604188,-4.01056 -0.1401868,-0.67909 -0.4774247,-1.58632 -0.7494199,-2.01606 -0.6741548,-1.06512 -0.6228362,-1.42345 0.2432226,-1.69832 0.4057685,-0.12879 0.9511171,-0.7448 1.2118904,-1.36891 0.795782,-1.904576 4.75201529,-5.147256 6.2799134,-5.147256 0.2769165,0 0.7011141,-0.23813 0.9426575,-0.52917 1.0125075,-1.22 3.3762384,-0.10819 3.7252521,1.75222 0.4507688,2.4028 -3.1509863,6.226806 -6.62011116,7.028616 -2.59710754,0.60026 -2.82600744,0.8078 -2.20833234,2.00225 1.00029074,1.93435 5.7691617,2.6301 8.9334972,1.30335 3.5044875,-1.46937 7.9077075,-2.16855 8.0842865,-1.2837 0.300553,1.50609 -11.018117,4.55337 -14.73681442,3.96754 z m 2.29305552,-9.62117 c 1.7897333,-0.775306 2.5007745,-2.856056 0.9759879,-2.856056 -1.6067863,0 -5.38571,2.881896 -5.38571,4.107266 0,0.79065 1.55987038,0.71694 2.64583323,-0.12502 0.58208327,-0.4513 1.37583327,-0.95808 1.76388887,-1.12619 z m 29.2256019,8.15701 c -1.448209,-1.40544 -2.124491,-3.07035 -2.485573,-6.11912 -0.283753,-2.39585 -0.943952,-2.592206 -2.550213,-0.75849 -6.025596,6.87886 -6.916532,7.60314 -7.949106,6.46216 -1.737677,-1.92011 -0.09089,-9.656776 1.73325,-8.14287 0.341574,0.28348 0.546873,1.0336 0.546873,1.99816 0,2.15301 0.427852,2.00005 3.704166,-1.32422 1.552222,-1.574946 3.353897,-3.271546 4.003725,-3.770216 l 1.181498,-0.90668 0.653944,0.8623 c 0.359668,0.47426 0.752186,1.73542 0.872257,2.80257 0.731485,6.501086 1.275024,7.555046 3.924515,7.609966 l 1.748565,0.0362 0.436283,-2.29989 c 0.725879,-3.82649 2.437219,-6.121976 3.065283,-4.1116 0.09093,0.29105 0.253665,0.80366 0.361647,1.13915 0.156679,0.48679 0.664111,0.13057 2.512634,-1.76389 3.409093,-3.493806 4.077745,-3.310136 5.971964,1.64038 l 1.096204,2.86492 1.698663,0.17639 c 2.781286,0.28881 2.299699,2.04235 -0.652286,2.37508 -2.028751,0.22867 -3.617764,-1.17344 -4.681107,-4.13049 -0.753212,-2.09461 -6.844276,2.29396 -6.84772,4.93374 -0.0011,0.70441 -1.524003,1.0624 -2.141692,0.5034 -0.723435,-0.6547 -2.322075,-0.26985 -3.18171,0.76595 -0.675107,0.81345 -1.573463,0.56287 -3.022064,-0.84294 z" />
  </g>
</svg>
