<?xml version="1.0" encoding="UTF-8" standalone="no"?>
<svg
   xmlns:dc="http://purl.org/dc/elements/1.1/"
   xmlns:cc="http://creativecommons.org/ns#"
   xmlns:rdf="http://www.w3.org/1999/02/22-rdf-syntax-ns#"
   xmlns:svg="http://www.w3.org/2000/svg"
   xmlns="http://www.w3.org/2000/svg"
   xmlns:sodipodi="http://sodipodi.sourceforge.net/DTD/sodipodi-0.dtd"
   xmlns:inkscape="http://www.inkscape.org/namespaces/inkscape"
   width="210mm"
   height="297mm"
   viewBox="0 0 210 297"
   version="1.1"
   id="svg2544"
   inkscape:version="1.0.2-2 (e86c870879, 2021-01-15)"
   sodipodi:docname="email logo orange.svg"
   inkscape:export-filename="C:\Users\jenny\Documents\GitHub\Jenny-Christie-website\Resource material\email logo orange.png"
   inkscape:export-xdpi="8459.4404"
   inkscape:export-ydpi="8459.4404">
  <defs
     id="defs2538" />
  <sodipodi:namedview
     id="base"
     pagecolor="#ffffff"
     bordercolor="#666666"
     borderopacity="1.0"
     inkscape:pageopacity="0.0"
     inkscape:pageshadow="2"
     inkscape:zoom="1.979899"
     inkscape:cx="431.87151"
     inkscape:cy="505.6981"
     inkscape:document-units="mm"
     inkscape:current-layer="layer1"
     inkscape:document-rotation="0"
     showgrid="false"
     inkscape:window-width="1624"
     inkscape:window-height="1020"
     inkscape:window-x="38"
     inkscape:window-y="0"
     inkscape:window-maximized="0" />
  <metadata
     id="metadata2541">
    <rdf:RDF>
      <cc:Work
         rdf:about="">
        <dc:format>image/svg+xml</dc:format>
        <dc:type
           rdf:resource="http://purl.org/dc/dcmitype/StillImage" />
        <dc:title />
      </cc:Work>
    </rdf:RDF>
  </metadata>
  <g
     inkscape:label="Layer 1"
     inkscape:groupmode="layer"
     id="layer1">
    <path
       d="m 113.00732,155.30214 h -2.25273 a 0.37585688,0.37585688 0 0 0 -0.37546,0.37545 v 1.60909 a 0.37585688,0.37585688 0 0 0 0.37546,0.37546 h 2.25273 a 0.37585688,0.37585688 0 0 0 0.37545,-0.37546 v -1.60909 a 0.37585688,0.37585688 0 0 0 -0.37545,-0.37545 z m -0.0951,0.62104 -0.96546,0.75091 a 0.10727274,0.10727274 0 0 1 -0.13168,0 l -0.96545,-0.75091 a 0.10727274,0.10727274 0 1 1 0.13168,-0.16936 l 0.89961,0.69969 0.89962,-0.69969 a 0.10727274,0.10727274 0 0 1 0.13168,0.16936 z"
       id="path835"
       style="fill:#ffa500;fill-opacity:1;stroke-width:0.00670451" />
  </g>
</svg>
