<?xml version="1.0" encoding="UTF-8" standalone="no"?>
<svg
   xmlns:dc="http://purl.org/dc/elements/1.1/"
   xmlns:cc="http://creativecommons.org/ns#"
   xmlns:rdf="http://www.w3.org/1999/02/22-rdf-syntax-ns#"
   xmlns:svg="http://www.w3.org/2000/svg"
   xmlns="http://www.w3.org/2000/svg"
   xmlns:sodipodi="http://sodipodi.sourceforge.net/DTD/sodipodi-0.dtd"
   xmlns:inkscape="http://www.inkscape.org/namespaces/inkscape"
   width="210mm"
   height="297mm"
   viewBox="0 0 210 297"
   version="1.1"
   id="svg1668"
   inkscape:version="1.0.2-2 (e86c870879, 2021-01-15)"
   sodipodi:docname="favicon-mage.svg">
  <defs
     id="defs1662" />
  <sodipodi:namedview
     id="base"
     pagecolor="#ffffff"
     bordercolor="#666666"
     borderopacity="1.0"
     inkscape:pageopacity="0.0"
     inkscape:pageshadow="2"
     inkscape:zoom="0.35"
     inkscape:cx="400"
     inkscape:cy="560"
     inkscape:document-units="mm"
     inkscape:current-layer="layer1"
     inkscape:document-rotation="0"
     showgrid="false"
     inkscape:window-width="1624"
     inkscape:window-height="1020"
     inkscape:window-x="76"
     inkscape:window-y="0"
     inkscape:window-maximized="0" />
  <metadata
     id="metadata1665">
    <rdf:RDF>
      <cc:Work
         rdf:about="">
        <dc:format>image/svg+xml</dc:format>
        <dc:type
           rdf:resource="http://purl.org/dc/dcmitype/StillImage" />
        <dc:title></dc:title>
      </cc:Work>
    </rdf:RDF>
  </metadata>
  <g
     inkscape:label="Layer 1"
     inkscape:groupmode="layer"
     id="layer1">
    <g
       id="g1630"
       transform="matrix(0.26458333,0,0,0.26458333,-133.24779,-114.25645)"
       style="display:inline">
      <g
         id="g1582">
        <g
           id="g1577">
          <path
             style="display:inline;fill:#ccff00;stroke-width:0.235851"
             d="m 826.93473,1058.2007 c -5.68452,-7.2589 -9.08661,-14.3076 -7.85535,-17.9548 0.87046,-2.5784 1.03722,-3.7757 2.21259,-6.1891 1.30049,-2.6704 2.81983,-6.4206 5.00759,-7.463 6.61519,-1.6695 14.16365,1.4003 19.65919,-1.1305 1.39736,-0.6514 2.73896,-3.058 4.3194,-4.1479 1.85957,-4.1103 2.4899,-3.4059 2.86198,1.1932 -0.24951,9.6312 -1.49164,20.6335 -7.15267,28.3785 -5.37197,8.5726 -17.73871,8.237 -19.05273,7.3136 z m 10.1469,-8.8239 c 5.19945,-3.0442 6.65734,-6.0741 4.53005,-10.41 -2.92902,-4.1953 -4.97554,-5.5078 -9.47792,-4.5053 -6.6001,5.8773 -7.99465,8.5466 -4.86322,14.3655 1.85763,1.754 7.5051,1.8444 9.81109,0.5498 z"
             id="path1092"
             sodipodi:nodetypes="cssccccccccccc" />
        </g>
      </g>
      <g
         id="g1609"
         transform="translate(0.08838835,-0.97227187)">
        <g
           id="g1592"
           transform="translate(-0.26516505)">
          <g
             id="g1585"
             style="display:inline">
            <path
               style="fill:#ff6600;stroke-width:0.235851"
               d="m 856.93113,1069.6107 c -5.18752,0.3623 -8.61016,-0.2403 -11.79334,-1.624 5.8927,-3.499 10.74532,-8.1724 13.77993,-11.9557 7.55052,-9.9101 3.0577,-24.0597 0.42607,-32.1303 -6.07517,-13.5982 9.16318,6.5211 9.79199,8.0236 3.98013,10.1123 4.51601,20.9618 0.93976,28.5399 -3.53053,5.8548 -4.26876,8.6488 -13.14441,9.1465 z"
               id="path1082"
               sodipodi:nodetypes="ccccccc" />
          </g>
          <path
             style="fill:#ffcc00;stroke-width:0.235851"
             d="m 831.26258,1060.4757 c 5.67517,0.2773 8.00069,-1.4616 12.34629,-4.7738 5.78733,-4.7087 7.5007,-9.5694 8.9917,-15.3807 1.07714,-4.3537 1.76925,-7.5334 1.90389,-13.9043 0.095,-4.4934 0.10921,-8.8005 0.39308,-8.802 0.43033,1.0689 1.75861,2.706 2.25987,3.9237 2.53365,6.4509 4.42806,13.214 4.7413,18.8268 0.0909,8.2353 -0.13003,10.767 -9.78475,20.7387 -2.86647,2.3101 -5.08803,5.5914 -8.69919,6.3404 -5.16892,-1.9351 -8.68024,-3.979 -12.15219,-6.9688 z"
             id="path1084"
             sodipodi:nodetypes="cccscccccc" />
        </g>
        <g
           id="g1574">
          <g
             id="g1562">
            <path
               style="display:inline;fill:#4d4d4d;stroke-width:0.067591"
               d="m 845.28062,1070.9005 c -17.09285,-5.793 -26.10121,-13.8508 -27.4751,-27.7592 -0.24721,-4.1944 0.63401,-7.0226 1.87683,-10.5061 2.94629,-7.9816 10.30096,-9.225 15.60525,-8.2964 6.35371,1.6877 11.33909,0.3503 14.3084,-4.4852 1.59662,-2.9061 1.51005,-5.3694 2.13132,-8.3737 0.32317,-0.8332 0.71552,-1.1454 1.33949,-1.0656 0.62648,0.08 0.92971,0.4086 1.70637,1.8495 0.35493,0.6582 1.09473,2.1109 1.9951,3.0169 3.46831,3.7694 7.31227,6.0157 10.01076,9.4246 2.74395,3.146 4.32251,7.2853 5.76729,10.5813 4.60384,10.8813 3.36777,29.1752 -9.20149,35.4016 -5.40037,2.16 -12.86491,2.2124 -18.06422,0.2123 z m 15.97174,-2.4215 c 10.51211,-5.5865 12.97294,-21.732 6.75272,-36.4466 -1.25303,-3.4159 -3.63035,-5.9139 -6.24027,-8.4154 -1.44152,-1.3799 -2.86152,-2.847 -4.20414,-4.2105 -1.79062,-1.8186 -2.02939,-2.0225 -2.48006,-2.1183 -0.60634,-0.1292 -0.83921,0.1405 -1.39759,1.6175 -0.7342,1.9419 -2.56019,5.0534 -3.76686,6.4184 -1.88201,2.3635 -6.6842,4.0714 -18.11463,2.4829 -9.10097,-0.8622 -13.50752,12.0922 -10.2143,20.2911 3.32928,8.2458 10.43998,13.5127 17.51349,17.0281 7.16484,3.0705 18.14479,5.5293 22.15164,3.3528 z"
               id="path951-6-0-2"
               sodipodi:nodetypes="ccccccssccccccccccsccccc" />
            <g
               id="g1551">
              <g
                 id="g1537">
                <path
                   style="display:inline;fill:#4d4d4d;stroke-width:1.33417"
                   id="path996-3"
                   d="m 856.63434,1022.0657 c 1.59537,3.3237 5.48339,15.5521 4.02076,23.5661 -1.00831,5.1152 -2.40789,7.3803 -6.28686,11.7556 -2.82285,3.6155 -4.40843,4.6084 -7.80099,7.4092 -0.52926,0.4083 -3.5856,2.4125 -6.75455,1.0745 -0.87436,-0.1546 4.61454,3.8348 7.38927,1.864 5.98529,-4.1561 8.21382,-6.2755 12.34007,-11.6584 2.64651,-3.6125 3.94965,-8.4738 4.15028,-16.0997 -0.0291,-4.4802 -3.14128,-12.9444 -4.16861,-16.0226 -4.20264,-14.0244 -6.73719,-10.6008 -2.88937,-1.8887 z"
                   sodipodi:nodetypes="cccccccccc" />
                <path
                   style="display:inline;fill:#4d4d4d;stroke-width:1.33417"
                   id="path1000-0"
                   d="m 849.45175,1023.3303 c 1.88905,0.7859 3.55079,-4.2691 2.94508,1.0816 -0.1835,1.9394 -0.4335,5.7232 -0.5109,7.2234 -0.22303,5.0261 -2.33174,11.5114 -3.78754,14.7464 -1.60761,3.6035 -2.8052,5.4319 -5.2051,7.3147 -3.2424,2.2951 -4.81387,3.2405 -9.19598,4.2343 -2.05248,0.541 -3.26258,0.4297 -5.01182,-0.1405 -3.49695,-1.5363 -4.87336,-2.2601 -2.1204,-0.6679 0.73654,2.209 4.20786,4.7635 6.2177,5.1043 -0.13369,-0.9499 -0.68652,-1.5057 -0.14534,-1.5779 0.80909,-0.034 3.81851,0.3328 7.22554,-1.6365 3.80144,-2.2635 5.65328,-3.8858 7.91975,-6.7993 2.4633,-3.5253 4.85468,-9.6237 5.38908,-12.5315 1.09069,-4.2654 1.51916,-9.2388 1.34772,-13.328 0.23997,-7.3281 0.41569,-8.4405 0.92085,-7.6796 0.79955,0.3603 0.35282,-2.3734 0.35282,-2.3734 -2.70753,0.9683 -5.66529,4.1864 -6.34146,7.0297 z"
                   sodipodi:nodetypes="cccccccccccccccccc" />
              </g>
              <g
                 id="g1542">
                <g
                   id="g1533">
                  <path
                     style="fill:#5f8dd3;stroke-width:0.235851"
                     d="m 830.89339,1049.3574 c -3.90534,-1.4517 -4.88614,-6.756 -1.09978,-10.2977 1.33926,-1.2528 3.83708,-2.5743 5.2333,-2.4891 2.50385,0.1528 5.22639,3.3748 5.56953,5.9405 0.22131,1.6549 -1.28255,4.4249 -2.30852,5.2882 -1.35977,1.1442 -5.65023,2.2064 -7.39453,1.5581 z"
                     id="path1090"
                     sodipodi:nodetypes="ssssss" />
                  <path
                     style="display:inline;fill:#4d4d4d;stroke-width:1.33417"
                     id="path1002-1"
                     d="m 837.48706,1034.5872 c -1.87388,-0.6871 -3.85817,-0.629 -5.3533,-0.1257 -2.74424,1.1472 -4.92616,3.1911 -6.33717,5.5346 -0.83794,1.3836 -1.20687,2.9331 -1.35158,4.5261 -0.0768,1.5479 0.29257,2.9443 1.18559,4.2016 0.93063,1.1932 1.89917,1.816 3.34818,2.5024 1.397,0.7543 2.9009,0.8631 4.46,0.8036 2.3475,-0.2458 4.52356,-0.8035 6.41932,-2.2207 1.2539,-1.038 2.09591,-2.4194 2.7639,-3.8815 0.92701,-2.1767 1.26181,-5.3999 0.20938,-7.1369 -4.4414,-7.0681 -8.91599,-1.7966 -6.20308,-0.9412 1.91892,0.8308 2.92308,2.7064 2.93319,4.5085 -0.12999,0.8982 -0.12617,2.0089 -0.47764,2.84 -0.53305,1.3645 -1.10776,2.4295 -2.09322,2.6997 -2.79183,1.4142 -5.06496,1.0364 -7.10179,-0.101 -1.3119,-0.7626 -1.71531,-2.4137 -1.70459,-3.2747 0.0629,-1.2 0.34714,-2.3401 0.97848,-3.3776 2.38744,-3.5252 4.75534,-4.133 6.21703,-3.7535 4.57022,1.5162 8.98038,-0.4091 2.1073,-2.8037 z"
                     sodipodi:nodetypes="ccccccccccccccccccc" />
                </g>
              </g>
            </g>
          </g>
        </g>
      </g>
    </g>
  </g>
</svg>
