<?xml version="1.0" encoding="UTF-8" standalone="no"?>
<!-- Created with Inkscape (http://www.inkscape.org/) -->

<svg
   xmlns:dc="http://purl.org/dc/elements/1.1/"
   xmlns:cc="http://creativecommons.org/ns#"
   xmlns:rdf="http://www.w3.org/1999/02/22-rdf-syntax-ns#"
   xmlns:svg="http://www.w3.org/2000/svg"
   xmlns="http://www.w3.org/2000/svg"
   xmlns:sodipodi="http://sodipodi.sourceforge.net/DTD/sodipodi-0.dtd"
   xmlns:inkscape="http://www.inkscape.org/namespaces/inkscape"
   width="382.54105mm"
   height="680.19812mm"
   viewBox="0 0 1355.4604 2410.1508"
   id="svg4149"
   version="1.1"
   inkscape:version="0.92.3 (2405546, 2018-03-11)"
   sodipodi:docname="grief.svg">
  <defs
     id="defs4151" />
  <sodipodi:namedview
     id="base"
     pagecolor="#ffffff"
     bordercolor="#666666"
     borderopacity="1.0"
     inkscape:pageopacity="0.0"
     inkscape:pageshadow="2"
     inkscape:zoom="0.175"
     inkscape:cx="-158.76405"
     inkscape:cy="645.31469"
     inkscape:document-units="px"
     inkscape:current-layer="layer1"
     showgrid="false"
     fit-margin-top="0"
     fit-margin-left="0"
     fit-margin-right="0"
     fit-margin-bottom="0"
     inkscape:window-width="1366"
     inkscape:window-height="705"
     inkscape:window-x="-8"
     inkscape:window-y="-8"
     inkscape:window-maximized="1"
     inkscape:snap-global="false" />
  <metadata
     id="metadata4154">
    <rdf:RDF>
      <cc:Work
         rdf:about="">
        <dc:format>image/svg+xml</dc:format>
        <dc:type
           rdf:resource="http://purl.org/dc/dcmitype/StillImage" />
        <dc:title></dc:title>
      </cc:Work>
    </rdf:RDF>
  </metadata>
  <g
     inkscape:label="Layer 1"
     inkscape:groupmode="layer"
     id="layer1"
     transform="translate(166.03362,753.85593)">
    <path
       style="fill:#000000"
       d="M 48.49277,1939.1894 C 43.542089,1813.6387 43.337003,1675.9141 37.093269,1562.9105 25.366182,1257.047 -35.844892,1102.2713 296.06079,1070.4794 c 169.76555,-16.0109 204.96045,-53.0123 205.04356,-79.58189 1.06122,-62.18671 4.51474,-127.42228 4.33898,-176.98914 1.21972,-20.82613 -5.75576,-27.56707 -24.53894,-40.2247 -8.79633,-4.72745 -13.68084,-7.44943 -25.14872,-13.58645 C 399.55191,726.76822 363.99942,680.8773 334.44591,643.5 265.50701,553.29125 248.86208,509.54624 231.85423,413.17335 223.96953,357.94101 232.48155,291.86365 256.41768,244.5588 285.39664,182.56105 336.97752,121.81662 383.5,83.363976 469.3471,20.257908 517.88513,12.738427 646.09592,25.207266 692.13188,32.460722 733.78027,55.495771 775.92963,84 c 81.1431,58.67353 123.35918,156.60585 131.05031,255.37869 7.93975,108.59147 -16.45141,193.58533 -68.40807,308.54185 -27.20406,71.74724 -58.86608,96.56843 -103.03308,124.28353 -8.06127,8.11806 -9.05517,21.06999 -9.63728,33.79593 -3.81781,79.4897 -6.30551,124.74835 -4.39637,177.79373 4.63806,49.39357 25.71749,68.27617 89.494,71.75027 86.12212,1.7958 169.32558,1.3188 229.81966,22.456 34.0779,13.967 70.7564,37.3768 76.5737,97.5 3.8871,55.1943 -8.2053,115.2028 -16.5807,162 -11.1449,55.484 -10.7182,100.6044 -19.2258,141 -12.6414,153.1516 -16.2931,323.2594 -6.5069,419.851 2.2071,18.5887 16.4303,74.7319 -46.1737,66.2557 -362.07497,-52.8684 -538.95393,4.5709 -935.013086,3.8498 -40.791535,4.3389 -45.493874,-19.2756 -45.399544,-29.2671 z m 854.67131,-105.9939 c 7.82313,-70.3316 9.2707,-97.852 9.20134,-146.6955 -3.3803,-80.2948 -5.92153,-175.9667 -5.3289,-262.5465 1.2487,-26.033 -8.90938,-22.175 -15.96853,8.5465 -7.50733,26.2675 -6.75829,40.5847 -9.60674,62 -1.47414,47.827 5.87196,119.9429 5.74897,152 -0.25902,82.4649 2.20516,121.8125 0.86447,201.5264 -1.54076,11.0733 12.90579,-8.7683 15.08939,-14.8309 z M 200.1129,1809.5994 c 16.37337,-50.1902 21.00412,-93.471 21.3904,-130.2014 0.50843,-54.2176 1.11763,-105.1174 2.50938,-163.8523 0.10188,-14.1939 -3.38435,-45.7681 -4.67319,-49.5643 -1.78948,-11.5617 -6.33016,-16.1522 -9.04414,-14.8909 -3.37231,1.6731 -3.81153,45.2412 -4.2203,55.9095 0.0886,48.1609 -9.89159,185.6787 -13.50762,288.5 -0.36362,15.2432 -0.30098,31.2129 7.54547,14.0994 z M 732.53105,702.5 c 4.1465,-7.81222 4.77345,-16.23925 2.96897,-21 -4.6007,-9.526 -8.93257,-16.62863 -14.41795,-25.22337 -5.87338,-7.59419 -5.85572,-4.2853 -7.48742,-0.73693 -4.97253,16.00544 -9.11207,24.44625 -15.43094,32.68212 -2.90024,3.92378 -6.95792,11.48093 -6.32653,16.45972 2.76496,10.03651 9.25075,14.43411 17.34807,15.06425 13.52574,-1.46066 18.67312,-7.73168 23.3458,-17.24579 z M 754.09573,526 C 752.2976,503.69568 741.29676,488.91945 732.5,471.07239 c -1.94574,-3.78524 -5.02255,-1.39686 -6.05103,3.39549 -2.29241,12.34538 -4.965,22.5935 -7.979,27.8684 -13.22513,18.88794 -18.64179,50.55154 8.03003,51.6945 15.32449,0.29586 28.17373,-13.49336 27.59573,-28.03078 z M 449.5,454.59452 c 17.99253,-4.97241 26.75398,-8.88312 38.6733,-15.38448 4.71786,-2.54916 13.3736,-8.66584 14.8267,-15.58556 1.27624,-4.55195 -1.53956,-9.57575 -6.67653,-6.62448 -7.60136,4.04188 -13.16571,7.92929 -23.86319,13.42142 -25.4495,9.91563 -35.78768,11.98977 -57.06215,12.10999 -3.48737,-0.27098 -8.16888,-0.99979 -9.46795,0.51091 -1.67394,2.31702 0.14586,4.93921 3.17449,7.15338 10.87633,6.61562 17.42796,8.30112 40.39533,4.39879 z m 260.19894,-40.1788 c 9.04052,-2.6832 15.04185,-4.77403 23.05382,-18.62342 C 735.24382,391.11183 740.875,383.29711 739,381 c -1.56947,-1.805 -9.86194,8.70717 -15.44204,12.23469 -18.03534,10.62495 -27.07146,14.37803 -48.32582,15.77983 -12.13391,1.05749 -27.38371,0.32914 -31.73214,-0.25265 -5.30145,-0.62067 -5.33347,5.61715 -1.82834,6.30978 7.59973,1.0608 15.52263,2.25232 22.63118,2.4925 18.2779,1.30236 29.29964,1.73677 45.3961,-3.14843 z M 495.16917,332.5 c 2.97729,-2.96549 6.75806,-6.69352 5.83083,-8.93018 -2.69097,-1.57323 -4.21529,0.23475 -6.36275,1.98037 -10.41516,9.09869 -24.19896,17.75132 -34.63725,24.0735 -17.81356,8.60549 -39.99057,12.50629 -62.33242,9.10052 -6.73126,-1.48541 -12.08498,2.9892 -4.41758,5.66312 47.3585,12.99671 72.06029,4.27831 101.91917,-31.88733 z m 234.00632,4.51708 c 3.39612,-0.89236 8.10872,-2.69036 12.82451,-6.36571 5.21596,-3.2977 0.16373,-3.6414 -8.20536,-1.23613 -13.25209,2.79883 -22.55693,5.35947 -34.79464,5.61954 -25.39115,-0.35577 -38.41785,-4.87376 -50.86205,-13.38971 -6.05169,-3.96359 -18.21083,-11.59824 -19.77838,-9.95281 -6.01137,6.40504 -3.66798,9.88523 2.71104,17.85733 10.79735,7.88192 22.49316,12.53791 31.42939,14.37033 7.65489,2.00671 43.48011,0.72872 66.67549,-6.90284 z"
       id="path4708"
       inkscape:connector-curvature="0"
       transform="matrix(1.25,0,0,1.25,-207.32144,-787.45922)"
       sodipodi:nodetypes="cccccccccccccccccccccccccccccccccccccccccccccccccccccccccccccccccccccccccccccccccccccccccccc" />
  </g>
</svg>
