<?xml version="1.0" encoding="UTF-8" standalone="no"?>
<svg
   xmlns:dc="http://purl.org/dc/elements/1.1/"
   xmlns:cc="http://creativecommons.org/ns#"
   xmlns:rdf="http://www.w3.org/1999/02/22-rdf-syntax-ns#"
   xmlns:svg="http://www.w3.org/2000/svg"
   xmlns="http://www.w3.org/2000/svg"
   xmlns:sodipodi="http://sodipodi.sourceforge.net/DTD/sodipodi-0.dtd"
   xmlns:inkscape="http://www.inkscape.org/namespaces/inkscape"
   width="175.06654mm"
   height="105.28607mm"
   viewBox="0 0 175.06654 105.28607"
   version="1.1"
   id="svg8"
   inkscape:version="1.0.2-2 (e86c870879, 2021-01-15)"
   sodipodi:docname="JC-logo-July21-very-final.svg">
  <defs
     id="defs2" />
  <sodipodi:namedview
     id="base"
     pagecolor="#ffffff"
     bordercolor="#666666"
     borderopacity="1.0"
     inkscape:pageopacity="0.0"
     inkscape:pageshadow="2"
     inkscape:zoom="0.35"
     inkscape:cx="360.13246"
     inkscape:cy="-85.343348"
     inkscape:document-units="mm"
     inkscape:current-layer="layer1"
     inkscape:document-rotation="0"
     showgrid="false"
     fit-margin-top="0"
     fit-margin-left="0"
     fit-margin-right="0"
     fit-margin-bottom="0"
     inkscape:window-width="1920"
     inkscape:window-height="986"
     inkscape:window-x="-11"
     inkscape:window-y="-11"
     inkscape:window-maximized="1" />
  <metadata
     id="metadata5">
    <rdf:RDF>
      <cc:Work
         rdf:about="">
        <dc:format>image/svg+xml</dc:format>
        <dc:type
           rdf:resource="http://purl.org/dc/dcmitype/StillImage" />
        <dc:title></dc:title>
      </cc:Work>
    </rdf:RDF>
  </metadata>
  <g
     inkscape:label="Layer 1"
     inkscape:groupmode="layer"
     id="layer1"
     transform="translate(-10.548287,-80.032808)">
    <g
       id="g997"
       transform="matrix(0.26458333,0,0,0.26458333,-114.21,-116.37344)">
      <g
         style="font-style:normal;font-weight:normal;font-size:128px;line-height:1.25;font-family:sans-serif;letter-spacing:0.01px;display:inline;fill:#000000;fill-opacity:1;stroke:none"
         id="text933-3"
         aria-label="enny">
        <path
           id="path915"
           style="font-style:normal;font-variant:normal;font-weight:normal;font-stretch:normal;font-size:128px;font-family:'Eras Medium ITC';-inkscape-font-specification:'Eras Medium ITC';letter-spacing:10.5px"
           d="m 873.57117,938.08087 q -0.75,3.4375 -1.5,8.75 -6,1.5 -10.4375,2 -4.375,0.5625 -8.75,0.5625 -7.8125,0 -14.0625,-1.875 -6.1875,-1.875 -10.625,-6.5 -4.4375,-4.6875 -6.375,-10.6875 -1.9375,-6 -1.9375,-12.6875 0,-9.3125 3.5625,-17.25 3.5625,-8 10.6875,-12.5625 7.1875,-4.5625 18.1875,-4.5625 5.6875,0 10.875,1.6875 5.1875,1.625 8.625,5 3.4375,3.375 5.3125,8.375 1.875,4.9375 1.875,10.8125 0,2.25 -0.375,4.375 h -47.6875 q -0.25,3.4375 -0.25,5.25 0,6.5625 2.75,12.125 2.75,5.5 8.125,8.375 5.375,2.8125 12.375,2.8125 8.0625,0 19.625,-4 z m -42.125,-29.75 h 37.25 q -0.0625,-3.9375 -0.5,-6.125 -0.4375,-2.1875 -1.625,-4.5 -1.1875,-2.375 -3.25,-4.0625 -2,-1.75 -4.875,-2.625 -2.8125,-0.9375 -6.125,-0.9375 -3.5625,0 -6.8125,1 -3.1875,1 -5.6875,2.75 -2.4375,1.75 -4.1875,4.125 -1.6875,2.3125 -2.5625,4.5 -0.8125,2.1875 -1.625,5.875 z" />
        <path
           id="path917"
           style="font-style:normal;font-variant:normal;font-weight:normal;font-stretch:normal;font-size:128px;font-family:'Eras Medium ITC';-inkscape-font-specification:'Eras Medium ITC';letter-spacing:10.5px"
           d="m 899.88367,948.01837 q 3,-39.1875 3.125,-63.3125 l 5.625,0.0625 q 2.0625,0 5.4375,-0.0625 l -0.8125,12.5 q 1.5625,-2.625 2.5,-4 0.9375,-1.4375 2.5,-3 1.5625,-1.5625 3.6875,-2.875 2.125,-1.375 5,-2.25 2.875,-0.9375 5.8125,-1.375 3,-0.4375 5.9375,-0.4375 5.375,0 10.375,1.3125 5,1.3125 8.1875,4.3125 3.25,2.9375 4.3125,6.625 1.125,3.6875 1.125,7.9375 0,0.8125 -0.0625,3.125 -0.0625,2.3125 -0.25,6.0625 l -1.25,26.1875 q -0.125,3.75 -0.1875,9.1875 -2.8125,-0.125 -5.3125,-0.125 -3.0625,0 -5.75,0.125 0.625,-7.5625 0.9375,-14.5625 l 0.8125,-14.5625 q 0.375,-7.5 0.375,-11.3125 0,-5.5 -1.875,-8.75 -1.875,-3.3125 -6,-5.0625 -4.125,-1.8125 -9.25,-1.8125 -7.25,0 -12.4375,3.4375 -4.75,3.1875 -7.375,9.0625 -1.8125,4.1875 -2.5625,12.375 -0.9375,9.8125 -1.3125,31.1875 -3.5,-0.125 -5.4375,-0.125 -1.9375,0 -5.875,0.125 z" />
        <path
           id="path919"
           style="font-style:normal;font-variant:normal;font-weight:normal;font-stretch:normal;font-size:128px;font-family:'Eras Medium ITC';-inkscape-font-specification:'Eras Medium ITC';letter-spacing:10.5px"
           d="m 987.63367,948.01837 q 3,-39.1875 3.125,-63.3125 l 5.625,0.0625 q 2.0625,0 5.43753,-0.0625 l -0.8125,12.5 q 1.5625,-2.625 2.5,-4 0.9375,-1.4375 2.5,-3 1.5625,-1.5625 3.6875,-2.875 2.125,-1.375 5,-2.25 2.875,-0.9375 5.8125,-1.375 3,-0.4375 5.9375,-0.4375 5.375,0 10.375,1.3125 5,1.3125 8.1875,4.3125 3.25,2.9375 4.3125,6.625 1.125,3.6875 1.125,7.9375 0,0.8125 -0.062,3.125 -0.062,2.3125 -0.25,6.0625 l -1.25,26.1875 q -0.125,3.75 -0.1875,9.1875 -2.8125,-0.125 -5.3125,-0.125 -3.0625,0 -5.75,0.125 0.625,-7.5625 0.9375,-14.5625 l 0.8125,-14.5625 q 0.375,-7.5 0.375,-11.3125 0,-5.5 -1.875,-8.75 -1.875,-3.3125 -6,-5.0625 -4.125,-1.8125 -9.25,-1.8125 -7.25,0 -12.4375,3.4375 -4.75,3.1875 -7.375,9.0625 -1.8125,4.1875 -2.5625,12.375 -0.93753,9.8125 -1.31253,31.1875 -3.5,-0.125 -5.4375,-0.125 -1.9375,0 -5.875,0.125 z" />
        <path
           id="path921"
           style="font-style:normal;font-variant:normal;font-weight:normal;font-stretch:normal;font-size:128px;font-family:'Eras Medium ITC';-inkscape-font-specification:'Eras Medium ITC';letter-spacing:10.5px"
           d="m 1065.3837,976.95587 q -0.4375,-5.3125 -1.0625,-9 3.125,1.5 5.8125,2 2.6875,0.5625 4.5625,0.5625 2.4375,0 4.75,-0.875 2.3125,-0.875 3.75,-2.3125 1.4375,-1.4375 3,-4 1.625,-2.5 3.375,-5.9375 1.8125,-3.4375 3.4375,-7.6875 l -13.3125,-37.9375 -9.75,-27.125 q 4.5625,0.125 6.0625,0.125 1.75,0 5.6875,-0.125 1,4.375 1.6875,6.6875 0.6875,2.3125 3,9.4375 l 9.4375,28.6875 q 1.5625,4.875 3.125,10.5 l 7.0625,-17.25 13.0625,-30.5625 q 0.5625,-1.375 1.0625,-2.8125 0.5625,-1.5 1.6875,-4.6875 4,0.125 5.5625,0.125 1.3125,0 5.8125,-0.125 -2.4375,5.5625 -11.8125,25.9375 l -23.1875,51.5625 q -2.4375,5.1875 -4.4375,7.875 -1.625,2.125 -3.5,3.6875 -1.5,1.3125 -3.375,2.25 -2.3125,1.125 -5,1.75 -2.9375,0.625 -6,0.625 -4.8125,0 -10.5,-1.375 z" />
      </g>
      <g
         id="g964">
        <path
           sodipodi:nodetypes="cccccccccccccccccccccc"
           id="path913"
           d="m 629.13027,1140.0889 c -68.08294,-0.6527 -125.89601,-39.4363 -149.5938,-95.9908 -25.02202,-67.85946 11.7215,-131.63476 66.76096,-167.86486 34.80262,-20.2791 74.97698,-27.3514 99.11161,-28.0253 21.88968,-0.7899 50.89867,0.7715 68.71689,7.2444 15.60278,6.5205 26.51051,16.9346 33.3305,26.3678 3.25099,5.0156 7.22199,13.9198 7.20643,20.9217 -0.21299,9.4981 -6.85205,27.294 -17.77378,37.8593 -10.65579,6.9581 -8.72749,0.4784 -11.06099,-0.8146 -0.87393,-3.8026 -0.4107,-7.6302 2.35627,-10.2972 7.94128,-7.7818 12.29299,-16.2159 10.76215,-27.5775 -0.17702,-14.6943 -19.31297,-32.2214 -44.71963,-35.8523 -86.98466,-7.8277 -137.61859,15.5946 -179.64315,66.0429 -39.28166,48.1086 -24.04023,118.15766 22.70927,153.14956 34.02107,24.7019 59.70896,34.9939 102.16675,36.4968 29.23905,0.6657 52.80428,-2.0664 72.64039,-12.0637 2.26726,-0.9895 7.41895,-3.3588 10.10596,-4.9509 2.39703,-1.2862 4.69931,0.4978 6.72392,-0.861 1.71409,-1.1792 5.87888,-0.9009 6.72602,0.4494 -1.2906,7.3908 -8.51205,10.6688 -14.58277,13.587 -4.32835,2.7279 -9.65243,6.0593 -18.17607,10.1423 -28.55177,10.946 -38.75571,12.8504 -73.76693,12.037 z"
           style="fill:#000000;stroke-width:0.176512" />
        <path
           style="fill:#000000;stroke-width:0.32"
           d="m 696.03188,967.48624 c -18.00526,-3.9144 -36.14972,-10.8234 -49.7994,-20.3851 -10.0282,-7.1315 -18.24979,-14.9027 -22.7662,-22.625 -4.5323,-7.7495 -4.7402,-13.1454 -4.8608,-17.45 0.016,-18.0477 19.2068,-31.4636 47.7114,-34.003 10.3326,-0.6654 10.8153,-1.7205 8.4878,3.6765 0.74783,5.6484 -3.07136,5.535 -9.2034,6.6599 -14.1205,2.6185 -28.5897,10.8333 -32.371,18.3785 -5.0412,10.059 9.9857,30.7833 27.7174,39.5328 3.78695,1.8629 16.39774,7.3584 23.87923,9.2934 28.68685,7.5912 53.17089,10.8475 80.48497,4.4844 8.09183,-1.0972 15.51004,-4.8688 20.3936,-8.592 5.563,-4.2743 6.3583,-11.4956 2.4674,-22.4029 -2.1604,-6.0564 -7.1847,-16.3538 -11.1966,-22.9476 -15.33603,-25.0975 -33.6351,-50.3936 -51.8182,-71.5377 -8.10292,-9.7648 -33.33738,-42.7512 -40.59787,-52.0884 -14.36636,-14.3827 -3.86819,-16.6686 -25.95962,-17.4539 -54.74021,2.2926 -75.56803,8.7571 -106.51185,9.0993 -6.88152,0.6611 -24.4665,1.0757 -27.57865,0.762 -6.70023,-0.6755 -14.27431,-9.1638 -12.45689,-13.9605 1.21263,-3.2005 1.84342,-3.3483 14.79644,-3.4678 15.87434,-0.1698 29.73595,-1.8684 43.37843,-3.0941 28.72225,-2.1501 54.0349,-4.8614 80.52381,-6.1836 59.6397,-2.1602 139.0596,6.2499 220.45614,-0.8195 12.3449,-0.8473 4.87504,12.3463 -0.16956,13.2728 -31.58251,5.2439 -67.54513,7.9441 -116.98658,5.9188 -26.95289,-0.092 -71.29588,-11.9224 -56.02835,10.7903 25.0375,29.0266 45.68306,56.2 67.26745,85.5709 11.28742,14.835 21.69924,30.5184 30.0931,46.3463 21.44248,30.5552 12.55622,51.0997 -5.0832,59.0622 -11.07264,5.4303 -18.21481,7.4158 -31.709,8.6578 -26.24654,3.3159 -39.30644,0.8549 -62.56,-4.4948 z"
           id="path897-8"
           sodipodi:nodetypes="ccsccccsccccscccccsscccccccccccc" />
        <g
           style="font-style:normal;font-weight:normal;font-size:128px;line-height:1.25;font-family:sans-serif;letter-spacing:0.01px;fill:#000000;fill-opacity:1;stroke:none"
           id="text933-0-4"
           aria-label="hristie">
          <path
             id="path924"
             style="font-style:normal;font-variant:normal;font-weight:normal;font-stretch:normal;font-size:128px;font-family:'Eras Medium ITC';-inkscape-font-specification:'Eras Medium ITC';letter-spacing:10.5px"
             d="m 739.41492,1090.2684 1.5625,-27.1875 1.4375,-37.0625 0.375,-21.0625 5.6875,0.062 q 2.125,0 5.5625,-0.062 l -1.375,21.6875 -0.5,12.9375 q 1.5,-2.6875 2.5625,-4.25 1.125,-1.625 2.8125,-3.1875 1.75,-1.625 3.625,-2.75 1.875,-1.125 4.1875,-1.9375 2.3125,-0.875 5.5625,-1.4375 3.25,-0.5625 6.8125,-0.5625 5.3125,0 10.125,1.1875 4.875,1.1875 8.3125,3.9375 3.5,2.75 4.75,6.5625 1.3125,3.8125 1.3125,7.75 0,1.5625 -0.0625,4.125 -0.1875,3.875 -0.5,9.0625 l -1.0625,23 q -0.1875,3.75 -0.25,9.1875 -3.625,-0.125 -5.5625,-0.125 -2.125,0 -5.9375,0.125 0.6875,-6.75 1.5625,-21.25 0.9375,-14.5 0.9375,-20.125 0,-5 -1.8125,-8.25 -1.8125,-3.3125 -6,-5.0625 -4.1875,-1.75 -9.3125,-1.75 -4.6875,0 -8.75,1.4375 -3.6875,1.3125 -6.3125,3.6875 -2.5625,2.375 -4.125,5.8125 -1.6875,3.6875 -2.375,7.4375 -1.0625,5.9375 -1.5,16.5 -0.25,6.3125 -0.6875,21.5625 -3.5,-0.125 -5.25,-0.125 -1.625,0 -5.8125,0.125 z" />
          <path
             id="path926"
             style="font-style:normal;font-variant:normal;font-weight:normal;font-stretch:normal;font-size:128px;font-family:'Eras Medium ITC';-inkscape-font-specification:'Eras Medium ITC';letter-spacing:10.5px"
             d="m 827.16492,1090.2684 q 2.25,-36.0625 2.25,-57.5625 l -0.0625,-5.75 q 3.1875,0.062 5.25,0.062 2.375,0 5.3125,-0.062 l -0.5,10.375 q 2.3125,-3.875 4.0625,-5.8125 1.8125,-2 4.0625,-3.25 2.25,-1.3125 5.0625,-2 2.875,-0.75 5.9375,-0.75 2.625,0 5.1875,0.625 0.0625,4.125 0.4375,9.25 -3.875,-1.0625 -6.9375,-1.0625 -3.6875,0 -6.625,1.25 -2.9375,1.1875 -5.3125,3.6875 -2.3125,2.4375 -3.8125,5.875 -1.25,2.75 -1.9375,7.125 -0.625,4.375 -1,15.9375 -0.25,8.4375 -0.25,17.875 v 4.1875 q -3.375,-0.125 -5.4375,-0.125 -1.875,0 -5.6875,0.125 z" />
          <path
             id="path928"
             style="font-style:normal;font-variant:normal;font-weight:normal;font-stretch:normal;font-size:128px;font-family:'Eras Medium ITC';-inkscape-font-specification:'Eras Medium ITC';letter-spacing:10.5px"
             d="m 885.72742,1013.3309 q 0.1875,-5.875 0.1875,-8.875 3.4375,0.125 6.0625,0.125 3.3125,0 6,-0.125 -0.125,1.9375 -0.375,8.875 -3.375,-0.062 -5.8125,-0.062 -2.4375,0 -6.0625,0.062 z m -2.8125,76.9375 1.0625,-15.75 1.1875,-26.875 0.5,-20.6875 5.75,0.062 5.625,-0.062 q -0.6875,9.75 -1.25,20.4375 -0.5625,10.625 -0.9375,23.25 -0.3125,12.625 -0.3125,19.625 -3.9375,-0.125 -5.625,-0.125 -1.5625,0 -6,0.125 z" />
          <path
             id="path930"
             style="font-style:normal;font-variant:normal;font-weight:normal;font-stretch:normal;font-size:128px;font-family:'Eras Medium ITC';-inkscape-font-specification:'Eras Medium ITC';letter-spacing:10.5px"
             d="m 918.91492,1089.0809 -0.375,-4.5625 q 0,-0.75 -0.5,-4.75 9.625,4.1875 17.75,4.1875 4.25,0 7.1875,-1.125 2.9375,-1.125 4.375,-3.3125 1.5,-2.25 1.5,-4.625 0,-1.3125 -0.4375,-2.625 -0.375,-1.3125 -1.1875,-2.5 -0.8125,-1.25 -2.4375,-2.6875 -1.5625,-1.5 -6.625,-5.5625 -5,-4.0625 -7.625,-6.3125 -2.5625,-2.3125 -4.4375,-4.6875 -1.8125,-2.4375 -2.6875,-4.875 -0.875,-2.4375 -0.875,-4.9375 0,-4 2.5,-7.75 2.5625,-3.75 7.3125,-5.5625 4.8125,-1.875 11.25,-1.875 7.1875,0 15.8125,1.6875 0.25,4.875 0.625,8.9375 -7,-2.875 -13.8125,-2.875 -3.6875,0 -6.875,1 -3.125,0.9375 -4.625,2.875 -1.4375,1.9375 -1.4375,4.25 0,1.5 0.5,2.875 0.5,1.375 1.75,3 1.3125,1.5625 3.125,3.125 1.8125,1.5625 7.1875,5.875 5.4375,4.3125 7.4375,6.375 2,2.0625 3.4375,4.25 1.4375,2.1875 2.0625,4.375 0.6875,2.125 0.6875,4.375 0,4.375 -2.625,8.125 -2.5625,3.75 -7.6875,5.8125 -5.125,2.0625 -11.5,2.0625 -2.6875,0 -6.3125,-0.375 -3.625,-0.3125 -6.1875,-0.8125 -2.5,-0.4375 -6.25,-1.375 z" />
          <path
             id="path932"
             style="font-style:normal;font-variant:normal;font-weight:normal;font-stretch:normal;font-size:128px;font-family:'Eras Medium ITC';-inkscape-font-specification:'Eras Medium ITC';letter-spacing:10.5px"
             d="m 1015.0399,1082.0184 q -0.6875,3.0625 -1.5,8.125 -4.25,1 -6.75,1.25 -2.5,0.25 -4.75,0.25 -5.56248,0 -8.99998,-1.375 -3.375,-1.4375 -5.1875,-4.5 -1.8125,-3.125 -1.8125,-8.4375 0,-0.6875 0.0625,-2.4375 0.0625,-1.75 0.625,-12.1875 l 1.5,-28 h -8.3125 q 0.25,-2.625 0.4375,-7.5 h 8.5 q 0.3125,-3.5 0.625,-11.9375 5.875,-1.125 9.9375,-2.125 -0.4375,9.25 -0.5,14.0625 h 17.37498 q -0.3125,3.9375 -0.375,7.5 h -17.31248 l -1.6875,35.1875 -0.0625,2.6875 q 0,4.5625 1,6.875 1.0625,2.25 3.12498,3.25 2.0625,1 4.3125,1 1.5625,0 3.375,-0.25 1.8125,-0.25 6.375,-1.4375 z" />
          <path
             id="path934"
             style="font-style:normal;font-variant:normal;font-weight:normal;font-stretch:normal;font-size:128px;font-family:'Eras Medium ITC';-inkscape-font-specification:'Eras Medium ITC';letter-spacing:10.5px"
             d="m 1037.9774,1013.3309 q 0.1875,-5.875 0.1875,-8.875 3.4375,0.125 6.0625,0.125 3.3125,0 6,-0.125 -0.125,1.9375 -0.375,8.875 -3.375,-0.062 -5.8125,-0.062 -2.4375,0 -6.0625,0.062 z m -2.8125,76.9375 1.0625,-15.75 1.1875,-26.875 0.5,-20.6875 5.75,0.062 5.625,-0.062 q -0.6875,9.75 -1.25,20.4375 -0.5625,10.625 -0.9375,23.25 -0.3125,12.625 -0.3125,19.625 -3.9375,-0.125 -5.625,-0.125 -1.5625,0 -6,0.125 z" />
          <path
             id="path936"
             style="font-style:normal;font-variant:normal;font-weight:normal;font-stretch:normal;font-size:128px;font-family:'Eras Medium ITC';-inkscape-font-specification:'Eras Medium ITC';letter-spacing:10.5px"
             d="m 1125.9149,1080.3309 q -0.75,3.4375 -1.5,8.75 -6,1.5 -10.4375,2 -4.375,0.5625 -8.75,0.5625 -7.8125,0 -14.0625,-1.875 -6.1875,-1.875 -10.625,-6.5 -4.4375,-4.6875 -6.375,-10.6875 -1.9375,-6 -1.9375,-12.6875 0,-9.3125 3.5625,-17.25 3.5625,-8 10.6875,-12.5625 7.1875,-4.5625 18.1875,-4.5625 5.6875,0 10.875,1.6875 5.1875,1.625 8.625,5 3.4375,3.375 5.3125,8.375 1.875,4.9375 1.875,10.8125 0,2.25 -0.375,4.375 h -47.6875 q -0.25,3.4375 -0.25,5.25 0,6.5625 2.75,12.125 2.75,5.5 8.125,8.375 5.375,2.8125 12.375,2.8125 8.0625,0 19.625,-4 z m -42.125,-29.75 h 37.25 q -0.062,-3.9375 -0.5,-6.125 -0.4375,-2.1875 -1.625,-4.5 -1.1875,-2.375 -3.25,-4.0625 -2,-1.75 -4.875,-2.625 -2.8125,-0.9375 -6.125,-0.9375 -3.5625,0 -6.8125,1 -3.1875,1 -5.6875,2.75 -2.4375,1.75 -4.1875,4.125 -1.6875,2.3125 -2.5625,4.5 -0.8125,2.1875 -1.625,5.875 z" />
        </g>
        <g
           id="g1231"
           transform="matrix(1.1840678,0,0,1.0720682,-315.36571,-208.13564)"
           inkscape:transform-center-x="-3.1650836"
           inkscape:transform-center-y="7.3852787">
          <g
             id="g1210"
             transform="translate(0,-0.08838835)">
            <g
               id="g1157">
              <path
                 style="display:inline;fill:#ccff00;stroke-width:0.235851"
                 d="m 826.93473,1058.2007 c -5.68452,-7.2589 -9.08661,-14.3076 -7.85535,-17.9548 0.87046,-2.5784 1.03722,-3.7757 2.21259,-6.1891 1.30049,-2.6704 2.81983,-6.4206 5.00759,-7.463 6.61519,-1.6695 14.16365,1.4003 19.65919,-1.1305 1.39736,-0.6514 2.73896,-3.058 4.3194,-4.1479 1.85957,-4.1103 2.4899,-3.4059 2.86198,1.1932 -0.24951,9.6312 -1.49164,20.6335 -7.15267,28.3785 -5.37197,8.5726 -17.73871,8.237 -19.05273,7.3136 z m 10.1469,-8.8239 c 5.19945,-3.0442 6.65734,-6.0741 4.53005,-10.41 -2.92902,-4.1953 -4.97554,-5.5078 -9.47792,-4.5053 -6.6001,5.8773 -7.99465,8.5466 -4.86322,14.3655 1.85763,1.754 7.5051,1.8444 9.81109,0.5498 z"
                 id="path1092"
                 sodipodi:nodetypes="cssccccccccccc" />
              <g
                 id="g1129">
                <path
                   style="fill:#5f8dd3;stroke-width:0.235851"
                   d="m 830.89339,1049.3574 c -3.90534,-1.4517 -4.88614,-6.756 -1.09978,-10.2977 1.33926,-1.2528 3.83708,-2.5743 5.2333,-2.4891 2.50385,0.1528 5.22639,3.3748 5.56953,5.9405 0.22131,1.6549 -1.28255,4.4249 -2.30852,5.2882 -1.35977,1.1442 -5.65023,2.2064 -7.39453,1.5581 z"
                   id="path1090"
                   sodipodi:nodetypes="ssssss" />
                <g
                   id="g1110">
                  <path
                     style="display:inline;fill:#4d4d4d;stroke-width:1.33417"
                     id="path1002-1"
                     d="m 837.48706,1034.5872 c -1.87388,-0.6871 -3.85817,-0.629 -5.3533,-0.1257 -2.74424,1.1472 -4.92616,3.1911 -6.33717,5.5346 -0.83794,1.3836 -1.20687,2.9331 -1.35158,4.5261 -0.0768,1.5479 0.29257,2.9443 1.18559,4.2016 0.93063,1.1932 1.89917,1.816 3.34818,2.5024 1.397,0.7543 2.9009,0.8631 4.46,0.8036 2.3475,-0.2458 4.52356,-0.8035 6.41932,-2.2207 1.2539,-1.038 2.09591,-2.4194 2.7639,-3.8815 0.92701,-2.1767 1.26181,-5.3999 0.20938,-7.1369 -4.4414,-7.0681 -8.91599,-1.7966 -6.20308,-0.9412 1.91892,0.8308 2.92308,2.7064 2.93319,4.5085 -0.12999,0.8982 -0.12617,2.0089 -0.47764,2.84 -0.53305,1.3645 -1.10776,2.4295 -2.09322,2.6997 -2.79183,1.4142 -5.06496,1.0364 -7.10179,-0.101 -1.3119,-0.7626 -1.71531,-2.4137 -1.70459,-3.2747 0.0629,-1.2 0.34714,-2.3401 0.97848,-3.3776 2.38744,-3.5252 4.75534,-4.133 6.21703,-3.7535 4.57022,1.5162 8.98038,-0.4091 2.1073,-2.8037 z"
                     sodipodi:nodetypes="ccccccccccccccccccc" />
                </g>
              </g>
            </g>
            <g
               id="g1113">
              <path
                 style="fill:#ff6600;stroke-width:0.235851"
                 d="m 856.93113,1069.6107 c -5.18752,0.3623 -8.61016,-0.2403 -11.79334,-1.624 5.8927,-3.499 10.74532,-8.1724 13.77993,-11.9557 7.55052,-9.9101 3.0577,-24.0597 0.42607,-32.1303 -6.07517,-13.5982 9.16318,6.5211 9.79199,8.0236 3.98013,10.1123 4.51601,20.9618 0.93976,28.5399 -3.53053,5.8548 -4.26876,8.6488 -13.14441,9.1465 z"
                 id="path1082"
                 sodipodi:nodetypes="ccccccc" />
            </g>
            <path
               style="fill:#ffcc00;stroke-width:0.235851"
               d="m 831.26258,1060.4757 c 5.67517,0.2773 8.00069,-1.4616 12.34629,-4.7738 5.78733,-4.7087 7.5007,-9.5694 8.9917,-15.3807 1.07714,-4.3537 1.76925,-7.5334 1.90389,-13.9043 0.095,-4.4934 0.10921,-8.8005 0.39308,-8.802 0.43033,1.0689 1.75861,2.706 2.25987,3.9237 2.53365,6.4509 4.42806,13.214 4.7413,18.8268 0.0909,8.2353 -0.13003,10.767 -9.78475,20.7387 -2.86647,2.3101 -5.08803,5.5914 -8.69919,6.3404 -5.16892,-1.9351 -8.68024,-3.979 -12.15219,-6.9688 z"
               id="path1084"
               sodipodi:nodetypes="cccscccccc" />
          </g>
          <g
             id="g1215">
            <path
               style="display:inline;fill:#4d4d4d;stroke-width:0.067591"
               d="m 845.28062,1070.9005 c -17.09285,-5.793 -26.10121,-13.8508 -27.4751,-27.7592 -0.24721,-4.1944 0.63401,-7.0226 1.87683,-10.5061 2.94629,-7.9816 10.30096,-9.225 15.60525,-8.2964 6.35371,1.6877 11.33909,0.3503 14.3084,-4.4852 1.59662,-2.9061 1.51005,-5.3694 2.13132,-8.3737 0.32317,-0.8332 0.71552,-1.1454 1.33949,-1.0656 0.62648,0.08 0.92971,0.4086 1.70637,1.8495 0.35493,0.6582 1.09473,2.1109 1.9951,3.0169 3.46831,3.7694 7.31227,6.0157 10.01076,9.4246 2.74395,3.146 4.32251,7.2853 5.76729,10.5813 4.60384,10.8813 3.36777,29.1752 -9.20149,35.4016 -5.40037,2.16 -12.86491,2.2124 -18.06422,0.2123 z m 15.97174,-2.4215 c 10.51211,-5.5865 12.97294,-21.732 6.75272,-36.4466 -1.25303,-3.4159 -3.63035,-5.9139 -6.24027,-8.4154 -1.44152,-1.3799 -2.86152,-2.847 -4.20414,-4.2105 -1.79062,-1.8186 -2.02939,-2.0225 -2.48006,-2.1183 -0.60634,-0.1292 -0.83921,0.1405 -1.39759,1.6175 -0.7342,1.9419 -2.56019,5.0534 -3.76686,6.4184 -1.88201,2.3635 -6.6842,4.0714 -18.11463,2.4829 -9.10097,-0.8622 -13.50752,12.0922 -10.2143,20.2911 3.32928,8.2458 10.43998,13.5127 17.51349,17.0281 7.16484,3.0705 18.14479,5.5293 22.15164,3.3528 z"
               id="path951-6-0-2"
               sodipodi:nodetypes="ccccccssccccccccccsccccc" />
            <path
               style="display:inline;fill:#4d4d4d;stroke-width:1.33417"
               id="path1000-0"
               d="m 849.45175,1023.3303 c 1.88905,0.7859 3.55079,-4.2691 2.94508,1.0816 -0.1835,1.9394 -0.4335,5.7232 -0.5109,7.2234 -0.22303,5.0261 -2.33174,11.5114 -3.78754,14.7464 -1.60761,3.6035 -2.8052,5.4319 -5.2051,7.3147 -3.2424,2.2951 -4.81387,3.2405 -9.19598,4.2343 -2.05248,0.541 -3.26258,0.4297 -5.01182,-0.1405 -3.49695,-1.5363 -4.87336,-2.2601 -2.1204,-0.6679 0.73654,2.209 4.20786,4.7635 6.2177,5.1043 -0.13369,-0.9499 -0.68652,-1.5057 -0.14534,-1.5779 0.80909,-0.034 3.81851,0.3328 7.22554,-1.6365 3.80144,-2.2635 5.65328,-3.8858 7.91975,-6.7993 2.4633,-3.5253 4.85468,-9.6237 5.38908,-12.5315 1.09069,-4.2654 1.51916,-9.2388 1.34772,-13.328 0.23997,-7.3281 0.41569,-8.4405 0.92085,-7.6796 0.79955,0.3603 0.35282,-2.3734 0.35282,-2.3734 -2.70753,0.9683 -5.66529,4.1864 -6.34146,7.0297 z"
               sodipodi:nodetypes="cccccccccccccccccc" />
            <path
               style="display:inline;fill:#4d4d4d;stroke-width:1.33417"
               id="path996-3"
               d="m 856.63434,1022.0657 c 1.59537,3.3237 5.48339,15.5521 4.02076,23.5661 -1.00831,5.1152 -2.40789,7.3803 -6.28686,11.7556 -2.82285,3.6155 -4.40843,4.6084 -7.80099,7.4092 -0.52926,0.4083 -3.5856,2.4125 -6.75455,1.0745 -0.87436,-0.1546 4.61454,3.8348 7.38927,1.864 5.98529,-4.1561 8.12543,-5.2148 12.34007,-11.6584 2.64651,-3.6125 3.94965,-8.4738 4.15028,-16.0997 -0.29427,-8.988 -3.14128,-12.9444 -4.16861,-16.0226 -4.20264,-14.0244 -6.73719,-10.6008 -2.88937,-1.8887 z"
               sodipodi:nodetypes="cccccccccc" />
          </g>
        </g>
      </g>
    </g>
  </g>
</svg>
