<?xml version="1.0" encoding="UTF-8" standalone="no"?>
<!-- Created with Inkscape (http://www.inkscape.org/) -->

<svg
   xmlns:dc="http://purl.org/dc/elements/1.1/"
   xmlns:cc="http://creativecommons.org/ns#"
   xmlns:rdf="http://www.w3.org/1999/02/22-rdf-syntax-ns#"
   xmlns:svg="http://www.w3.org/2000/svg"
   xmlns="http://www.w3.org/2000/svg"
   xmlns:sodipodi="http://sodipodi.sourceforge.net/DTD/sodipodi-0.dtd"
   xmlns:inkscape="http://www.inkscape.org/namespaces/inkscape"
   width="210mm"
   height="297mm"
   viewBox="0 0 744.09448819 1052.3622047"
   id="svg2"
   version="1.1"
   inkscape:version="0.92.3 (2405546, 2018-03-11)"
   sodipodi:docname="Logo with text-resourceful mind v3.svg">
  <defs
     id="defs4" />
  <sodipodi:namedview
     id="base"
     pagecolor="#ffffff"
     bordercolor="#666666"
     borderopacity="1.0"
     inkscape:pageopacity="0.0"
     inkscape:pageshadow="2"
     inkscape:zoom="0.12374369"
     inkscape:cx="-1856.9046"
     inkscape:cy="1281.5136"
     inkscape:document-units="px"
     inkscape:current-layer="layer1"
     showgrid="false"
     inkscape:window-width="503"
     inkscape:window-height="405"
     inkscape:window-x="318"
     inkscape:window-y="94"
     inkscape:window-maximized="0"
     inkscape:snap-global="false"
     inkscape:snap-nodes="false"
     inkscape:snap-others="false" />
  <metadata
     id="metadata7">
    <rdf:RDF>
      <cc:Work
         rdf:about="">
        <dc:format>image/svg+xml</dc:format>
        <dc:type
           rdf:resource="http://purl.org/dc/dcmitype/StillImage" />
        <dc:title />
      </cc:Work>
    </rdf:RDF>
  </metadata>
  <g
     inkscape:label="Layer 1"
     inkscape:groupmode="layer"
     id="layer1">
    <flowRoot
       xml:space="preserve"
       id="flowRoot4461"
       style="fill:black;fill-opacity:1;stroke:none;font-family:'Eras Medium ITC';font-style:normal;font-weight:normal;font-size:40px;line-height:1.25;letter-spacing:0px;word-spacing:0px;-inkscape-font-specification:'Eras Medium ITC';font-stretch:normal;font-variant:normal;"><flowRegion
         id="flowRegion4463"
         style="-inkscape-font-specification:'Eras Medium ITC';font-family:'Eras Medium ITC';font-weight:normal;font-style:normal;font-stretch:normal;font-variant:normal;"><rect
           id="rect4465"
           width="165.66502"
           height="48.487324"
           x="141.42136"
           y="2399.3525"
           style="-inkscape-font-specification:'Eras Medium ITC';font-family:'Eras Medium ITC';font-weight:normal;font-style:normal;font-stretch:normal;font-variant:normal;" /></flowRegion><flowPara
         id="flowPara4467" /></flowRoot>    <text
       xml:space="preserve"
       style="font-style:normal;font-weight:normal;font-size:37.5px;line-height:1.25;font-family:'Eras Medium ITC';letter-spacing:0px;word-spacing:0px;fill:#000000;fill-opacity:1;stroke:none;stroke-width:0.9375;-inkscape-font-specification:'Eras Medium ITC';font-stretch:normal;font-variant:normal;"
       x="579.57507"
       y="2158.4792"
       id="text4473"><tspan
         sodipodi:role="line"
         id="tspan4471"
         x="579.57507"
         y="2192.6917"
         style="stroke-width:0.9375;-inkscape-font-specification:'Eras Medium ITC';font-family:'Eras Medium ITC';font-weight:normal;font-style:normal;font-stretch:normal;font-variant:normal;" /></text>
    <text
       xml:space="preserve"
       style="font-style:normal;font-weight:normal;font-size:37.5px;line-height:1.25;font-family:'Eras Medium ITC';letter-spacing:0px;word-spacing:0px;fill:#000000;fill-opacity:1;stroke:none;stroke-width:0.9375;-inkscape-font-specification:'Eras Medium ITC';font-stretch:normal;font-variant:normal;"
       x="-1197.0308"
       y="556.12476"
       id="text4656"><tspan
         sodipodi:role="line"
         id="tspan4654"
         x="-1197.0308"
         y="590.33716"
         style="font-style:normal;font-variant:normal;font-weight:normal;font-stretch:normal;font-family:'Eras Medium ITC';-inkscape-font-specification:'Eras Medium ITC';stroke-width:0.9375;" /><tspan
         sodipodi:role="line"
         x="-1197.0308"
         y="637.21216"
         style="font-style:normal;font-variant:normal;font-weight:normal;font-stretch:normal;font-family:'Eras Medium ITC';-inkscape-font-specification:'Eras Medium ITC';stroke-width:0.9375;"
         id="tspan4658" /></text>
    <text
       xml:space="preserve"
       style="font-style:normal;font-weight:normal;font-size:37.5px;line-height:1.25;font-family:'Eras Medium ITC';letter-spacing:0px;word-spacing:0px;fill:#000000;fill-opacity:1;stroke:none;stroke-width:0.9375;-inkscape-font-specification:'Eras Medium ITC';font-stretch:normal;font-variant:normal;"
       x="-1617.5067"
       y="995.54114"
       id="text124"><tspan
         sodipodi:role="line"
         id="tspan122"
         x="-1617.5067"
         y="1029.7535"
         style="stroke-width:0.9375;-inkscape-font-specification:'Eras Medium ITC';font-family:'Eras Medium ITC';font-weight:normal;font-style:normal;font-stretch:normal;font-variant:normal;" /></text>
    <text
       xml:space="preserve"
       style="font-style:normal;font-weight:normal;font-size:37.5px;line-height:1.25;font-family:'Eras Medium ITC';letter-spacing:0px;word-spacing:0px;fill:#000000;fill-opacity:1;stroke:none;stroke-width:0.9375;-inkscape-font-specification:'Eras Medium ITC';font-stretch:normal;font-variant:normal;"
       x="-942.85718"
       y="503.25507"
       id="text78"><tspan
         sodipodi:role="line"
         id="tspan76"
         x="-942.85718"
         y="537.46747"
         style="stroke-width:0.9375;-inkscape-font-specification:'Eras Medium ITC';font-family:'Eras Medium ITC';font-weight:normal;font-style:normal;font-stretch:normal;font-variant:normal;" /></text>
    <text
       xml:space="preserve"
       style="font-style:normal;font-weight:normal;font-size:37.5px;line-height:1.25;font-family:'Eras Medium ITC';letter-spacing:0px;word-spacing:0px;fill:#000000;fill-opacity:1;stroke:none;stroke-width:0.9375;-inkscape-font-specification:'Eras Medium ITC';font-stretch:normal;font-variant:normal;"
       x="-787.5"
       y="524.68365"
       id="text82"><tspan
         sodipodi:role="line"
         id="tspan80"
         x="-787.5"
         y="558.89606"
         style="stroke-width:0.9375;-inkscape-font-specification:'Eras Medium ITC';font-family:'Eras Medium ITC';font-weight:normal;font-style:normal;font-stretch:normal;font-variant:normal;" /></text>
    <text
       xml:space="preserve"
       style="font-style:normal;font-weight:normal;font-size:37.5px;line-height:1.25;font-family:'Eras Medium ITC';letter-spacing:0px;word-spacing:0px;fill:#000000;fill-opacity:1;stroke:none;stroke-width:0.9375;-inkscape-font-specification:'Eras Medium ITC';font-stretch:normal;font-variant:normal;"
       x="-1200.8188"
       y="914.0976"
       id="text95"><tspan
         sodipodi:role="line"
         id="tspan93"
         x="-1200.8188"
         y="948.31"
         style="stroke-width:0.9375;-inkscape-font-specification:'Eras Medium ITC';font-family:'Eras Medium ITC';font-weight:normal;font-style:normal;font-stretch:normal;font-variant:normal;" /></text>
    <g
       id="g171"
       transform="matrix(0.8,0,0,0.8,-1407.8251,-599.45962)">
      <path
         style="fill:#5f8dd3;stroke-width:1.33928573"
         d="m -1725.0312,356.38567 c -20.652,-21.86628 -7.7537,-55.0824 1.1573,-69.72531 25.0688,-25.40811 66.0562,-56.58771 97.6367,0.11097 7.8016,26.08512 49.7548,46.93718 53.6283,58.41158 -10.7965,5.37584 -55.2328,5.96253 -81.5808,12.29737 -22.0936,5.31195 -66.8396,0.93071 -70.8415,-1.09461 z"
         id="path613"
         inkscape:connector-curvature="0"
         sodipodi:nodetypes="ccccsc" />
      <path
         style="fill:#5f8dd3;stroke-width:1.33928573"
         d="m -1580.0418,290.60411 c -33.9634,-37.61617 -42.1695,-78.67381 -12.7519,-107.13261 43.5043,-18.85803 83.6975,-20.34223 124.0748,-0.77236 34.0702,39.1277 0.8934,79.94308 -30.9108,104.89622 -20.1019,17.56688 -23.8227,27.43611 -27.6021,51.25453 -15.3678,-21.08637 -29.7279,-34.31164 -52.81,-48.24578 z"
         id="path624"
         inkscape:connector-curvature="0"
         sodipodi:nodetypes="cccccc" />
      <g
         id="g84">
        <g
           id="g142">
          <path
             style="fill:#5f8dd3;stroke-width:1.33928573"
             d="m -1390.2894,351.27736 c -62.4192,-15.08377 -57.5348,-6.13846 -102.9387,-1.73771 13.5982,-14.09801 25.3021,-23.12143 48.4183,-75.90061 12.5778,-29.84824 26.8053,-55.51228 47.5372,-50.42991 33.0974,5.85745 51.7139,45.62235 63.7438,84.63157 -4.0753,26.56284 -19.6179,49.14906 -56.7606,43.43666 z"
             id="path626"
             inkscape:connector-curvature="0"
             sodipodi:nodetypes="cccccc" />
        </g>
      </g>
      <g
         transform="translate(-1861.1569,-42.696519)"
         id="g629">
        <path
           sodipodi:nodetypes="ccsccccccccccccccccccscccccccscc"
           transform="matrix(0.9375,0,0,0.9375,-51.819492,8.6038705)"
           inkscape:connector-curvature="0"
           id="path383"
           d="m 416.34391,447.51881 c -118.28731,-4.1004 -169.459,-3.25744 -262.07113,-4.31792 -26.18188,-0.73083 -25.0835,-4.14664 -17.06424,-27.75891 4.60758,-13.56673 18.07958,-53.16519 24.02892,-67.76989 24.17588,-49.45923 56.62863,-91.56605 102.21047,-120.55114 73.93043,-37.98046 125.49683,-49.21235 197.13348,-37.80844 77.72574,19.3452 132.4056,53.32361 180.21759,118.29568 14.49653,21.80261 45.37842,87.51 48.69529,138.758 -104.71246,2.99253 -168.84306,0.81088 -273.15038,1.15262 z M 285.50175,416.66788 c 34.12693,-5.93257 41.81344,-3.89891 80.61815,-11.53627 -22.72972,-27.00426 -41.93565,-31.22933 -58.83653,-64.78145 -16.33612,-21.59282 -32.58229,-36.15799 -55.69606,-32.40048 -25.33491,11.33296 -44.98579,22.44354 -55.10938,43.01801 -23.28268,74.38761 6.57192,77.71105 89.02382,65.70019 z m 245.04016,-10.04303 c 29.67309,6.28572 47.42433,11.6377 74.72498,-4.91728 11.30701,-13.70435 12.53627,-18.13422 14.54577,-33.34528 -6.98908,-37.73586 -29.74584,-75.49539 -48.55302,-88.26375 -14.97237,-8.44512 -26.96333,-9.69828 -37.7074,-4.01856 -15.30587,8.5799 -20.59163,19.17723 -29.54292,40.35553 -21.76932,44.46575 -22.58161,50.45808 -36.66617,69.28849 -7.28698,9.74236 -18.69449,20.95756 -18.69449,25.05317 31.48889,-5.82738 59.81842,-8.6623 81.89325,-4.15232 z M 415.57857,385.99284 c 9.81968,-25.26951 19.45466,-36.3532 39.42105,-52.19682 28.95884,-28.75804 52.1261,-61.7767 23.48756,-100.27626 -34.83611,-27.71739 -84.82194,-20.81014 -118.96128,-10.02944 -39.27972,12.0125 -43.7257,35.51393 -37.80995,73.9732 6.16862,22.44909 16.49464,36.83983 46.4242,60.56131 12.52973,9.93077 22.60019,16.88688 35.91607,34.95177 10.10811,9.88578 8.6687,2.73642 11.52235,-6.98376 z"
           style="fill:#ccff00;stroke-width:1.01015258" />
      </g>
      <path
         style="fill:#ffff00;stroke-width:0.94701803"
         d="m -1336.7149,588.47874 c 6.5513,-74.44442 -17.676,-100.54801 -34.5926,-118.30206 -34.4837,-42.02955 -116.3815,-47.34932 -171.4062,-41.12279 -64.5943,10.39033 -132.2355,28.95663 -165.1227,99.32936 -11.614,19.32232 -2.8715,31.74103 -7.7647,50.79402 -23.3366,-15.41072 -50.4659,-57.84115 -63.1113,-96.6222 -10.8169,-33.17341 -8.8797,-64.52987 -8.8797,-64.52987 0,0 155.4669,-3.15876 233.2032,-2.51659 95.5955,0.78971 286.6892,7.8321 286.6892,7.8321 0,0 -3.1852,31.80924 -14.7955,68.2587 -11.7756,36.96855 -32.1315,78.71046 -54.2197,96.87933 z"
         id="path379"
         inkscape:connector-curvature="0"
         sodipodi:nodetypes="cccccscacsc" />
      <g
         id="g139">
        <path
           sodipodi:nodetypes="cccccccccc"
           inkscape:connector-curvature="0"
           id="path377"
           d="m -1403.5285,524.88093 c -36.6201,-35.7663 -71.17,-50.78856 -114.9788,-50.88726 -66.4461,3.66353 -127.7539,36.17962 -140.073,90.05417 -5.3844,18.66622 2.5962,47.82431 6.7114,63.08794 -1.4923,1.49226 -41.2897,-26.70416 -60.1226,-42.14283 -8.8219,-70.90622 50.2089,-119.75007 106.9707,-139.47157 78.1684,-24.26085 160.7734,-25.59081 226.8594,19.70324 31.3777,28.20672 61.2132,98.766 33.0874,130.87602 -7.9051,8.00661 -37.7827,27.33931 -46.6234,29.40825 7.5858,-35.05298 5.5064,-73.64342 -11.8311,-100.62796 z"
           style="fill:#ffd42a;stroke-width:0.94701803" />
      </g>
      <path
         style="fill:#ff6600;stroke-width:0.94701803"
         d="m -1451.5903,586.69678 c -8.2585,-17.32542 -30.2634,-35.17188 -50.5462,-40.48474 -29.345,-7.68663 -76.1399,1.74078 -97.8068,19.08266 -29.8132,35.34821 -20.5531,55.22869 -4.2705,85.07454 -0.9985,1.04525 -26.4251,-6.40706 -34.6239,-11.81335 -10.3343,-6.81442 -13.3357,-17.43711 -15.9464,-39.85363 -7.6107,-58.4744 30.4996,-92.12168 70.4948,-108.201 36.9392,-12.96463 73.4823,-19.42601 122.9576,-4.08003 40.5836,16.8082 65.4328,45.734 72.6269,88.38253 2.3971,24.39219 -1.8042,54.79409 -21.5862,63.20303 -13.3041,4.67679 -37.0317,11.1821 -51.0112,12.82511 15.0283,-17.94031 18.083,-45.95101 9.7119,-64.13512 z"
         id="path375"
         inkscape:connector-curvature="0"
         sodipodi:nodetypes="csccsccccccc" />
      <path
         style="fill:#d40000;stroke-width:0.94701803"
         d="m -1596.3442,654.71449 c -47.1977,-47.41797 -10.0957,-91.56904 23.9507,-102.16434 20.7185,-9.16459 57.4545,-7.5859 71.5784,-3.09811 37.537,13.64643 53.7763,39.56358 54.291,65.64511 0.3679,14.26094 -13.8432,35.88133 -26.1358,42.06017 -40.4558,8.06917 -86.9645,13.92924 -123.6843,-2.44283 z"
         id="path373"
         inkscape:connector-curvature="0"
         sodipodi:nodetypes="cccccc" />
      <g
         id="g4489">
        <path
           sodipodi:nodetypes="ccccccccccccccccccccccccccsccccccccccscscccccccccccccccccccccccccccccccccccccccccccccccccccccccccccccccccccccccccccccccccccccccccccccccccccccccccccccccccccccccccccccccccccccccccccccccccccccccccccccccccc"
           inkscape:connector-curvature="0"
           id="path4149"
           d="m -1593.7088,662.52765 c -14.3396,-3.90281 -31.3985,-8.63164 -43.4575,-15.15605 -18.7808,-8.86692 -36.9596,-20.13318 -50.5304,-31.39497 -16.1816,-12.74228 -32.0615,-29.43121 -43.6344,-41.81286 -47.3317,-52.32332 -55.4978,-83.93973 -60.5264,-151.91585 2.1413,-11.83871 14.8258,-7.87313 21.9053,-8.76947 174.2363,-2.83243 256.2857,-3.93723 401.8596,2.51856 39.1958,-0.45432 72.6927,-1.62288 97.0987,1.49908 9.3141,3.12004 10.376,12.96306 2.8261,44.367 -11.7953,43.58421 -29.1008,86.78482 -37.168,97.56989 -20.1513,32.24758 -46.7119,53.0161 -88.6709,76.2632 -29.3632,15.41892 -44.2301,18.02497 -64.271,24.32483 -24.9159,8.578 -48.9803,11.44201 -68.3332,11.62649 -35.5889,-0.50796 -42.2851,-2.6088 -67.0979,-9.11985 z m 81.7249,-0.4353 c 37.1472,-3.06456 46.5878,-10.31432 59.097,-28.60842 9.0059,-15.3748 -0.6013,-52.54061 -22.4803,-68.42114 -17.0068,-13.9931 -37.629,-17.67723 -49.8427,-17.79132 -37.5359,2.30263 -78.1787,8.83379 -87.324,48.52673 -3.5552,18.75714 -1.4022,21.77804 2.2633,35.50967 3.3688,10.09641 11.3657,19.22312 17.4809,21.62358 26.6139,8.09278 46.3763,10.16495 80.8058,9.1609 z m 104.4359,-27.77306 c 8.8548,-4.06334 10.5686,-13.04764 12.5985,-21.24515 6.3126,-26.879 5.304,-47.40494 -5.7377,-71.78383 -16.0579,-32.15983 -55.5314,-55.69262 -95.7387,-60.83731 -46.0679,-1.50971 -67.4958,1.41134 -107.7834,23.33384 -32.1606,17.50021 -51.4732,53.16972 -50.5932,74.81704 1.1232,10.12601 1.5022,34.0696 6.7272,44.67364 2.1129,5.53622 9.2298,11.42997 17.9076,14.81753 4.2976,2.75285 8.7366,4.90136 13.5839,7.35851 2.7008,1.29877 5.3456,1.3534 7.329,-0.62912 -2.7048,-4.53343 -8.1577,-10.84222 -9.8369,-15.66074 -3.2868,-8.88373 -4.6608,-19.31786 -2.4347,-33.56384 3.7976,-14.4541 6.6711,-20.53533 16.6617,-30.182 9.8398,-9.43297 39.2936,-24.38021 83.6236,-24.36639 20.6926,0.52164 38.3374,6.89414 56.9174,24.14447 22.0404,18.07729 24.4869,50.20312 21.6791,59.55111 -2.4278,8.08269 -5.1288,13.6663 -11.4773,19.56966 -1.0914,1.00938 -1.9844,2.0514 -1.9844,2.31558 0,0.74464 1.4805,1.43068 3.1213,1.44636 13.8182,-2.39532 32.7841,-7.80735 45.437,-13.75936 z m 50.5169,-31.86543 c 8.3535,-5.34255 12.5994,-11.49772 14.8419,-24.21862 8.1486,-40.53651 -6.4801,-75.81509 -25.7133,-97.43346 -14.5602,-16.0091 -33.0953,-29.68794 -52.0178,-36.57075 -37.3542,-12.70773 -97.4885,-16.16608 -148.6284,-5.73278 -56.1857,12.76167 -81.822,28.89014 -103.9761,48.87788 -18.6773,19.59605 -29.7279,35.9539 -35.6736,58.72991 -1.1708,8.32556 -1.0134,16.33892 -1.2447,24.7122 -0.4291,6.57058 -0.3177,9.94675 3.0566,15.73955 15.6625,13.19627 25.1931,21.32313 39.1608,30.59272 3.4097,2.21383 4.8952,3.07441 7.8906,4.57106 5.5015,2.44365 3.4704,-0.69276 2.0745,-3.27789 -1.9914,-3.94381 -2.545,-10.99475 -3.5537,-16.20769 -9.187,-59.05145 31.2591,-100.58833 81.2727,-117.92597 37.1186,-12.8124 56.5637,-17.23506 98.7905,-9.28709 61.8969,18.36119 96.382,53.42429 96.7076,109.3355 0.01,11.55118 -0.6259,17.26609 -2.1053,24.71746 -1.472,3.87065 -3.0754,9.69066 -3.7785,13.43846 0.6049,0.49717 1.363,0.6724 2.0584,0.82443 10.5502,-6.47048 19.3879,-12.44079 30.8378,-20.88492 z m 25.1496,-22.80405 c 11.4135,-13.9652 17.4797,-22.97568 24.261,-35.26913 18.3941,-33.1859 42.5149,-107.13176 38.0518,-115.90087 -4.9902,-4.76731 -91.188,-3.95036 -132.6088,-6.68883 -98.26,-7.55267 -192.7446,-2.17045 -287.1706,-1.73914 -37.9709,1.65624 -50.1829,0.61961 -80.7592,-0.33885 -7.1153,0.27224 -12.1084,1.21972 -15.5005,3.16486 -0.5513,2.06608 0.6901,5.48724 1.2151,9.52288 1.8559,17.42326 8.0727,45.42717 13.5441,61.96754 7.7687,19.50946 14.0867,30.4819 23.9764,45.62372 6.8645,11.99897 15.5379,18.81389 23.9635,29.49009 1.1074,1.56818 2.5786,3.88666 4.1957,3.9042 1.9926,0.14705 1.4942,-3.74635 1.6619,-5.08842 -0.4341,-8.79023 0.3886,-15.80609 2.0211,-24.42549 7.7993,-27.6659 25.3695,-53.75451 51.5787,-74.30356 20.2156,-14.4892 65.6167,-38.92003 133.9827,-44.12096 35.0211,-1.52536 52.8144,-0.95099 98.8304,8.2949 21.2945,4.38953 54.2979,22.83089 74.9189,49.44303 16.8101,20.75176 25.4915,61.22747 24.5539,71.61568 -0.4734,6.03408 -1.7081,15.39876 -4.4604,25.08775 -0.012,1.09654 0.2907,1.43468 1.3428,1.43468 1.2512,-0.21364 1.7393,-0.59636 2.4015,-1.67408 z m -169.5157,-188.7046 c -71.3986,-1.51413 -135.6792,-3.01343 -200.7739,-4.34865 -51.0778,-2.7049 -61.0559,-3.24684 -78.4768,-0.39919 -9.5214,0.0761 -10.8508,-0.97617 -12.0488,-6.13481 0.5841,-10.0702 1.8417,-15.41074 5.3305,-27.47874 3.9398,-15.49114 7.8765,-30.51914 15.0817,-51.72895 13.8005,-34.45802 33.5823,-66.11182 50.2543,-84.35425 35.7982,-33.57441 49.0085,-41.03894 86.1612,-58.88966 12.7837,-5.84084 25.4793,-11.0974 35.2449,-14.22304 28.7534,-7.70983 33.875,-8.57803 60.2992,-9.83397 38.6083,-1.42173 66.575,4.64934 85.4956,11.4237 22.1354,8.38623 45.7433,18.44618 64.2459,29.32301 33.6848,19.33974 64.5484,51.51277 74.7139,65.17025 23.2185,33.45377 44.0961,77.19129 49.2605,118.43364 1.3074,5.70412 6.0791,25.10886 3.6792,29.06261 -3.5036,2.8211 -10.4637,1.04341 -15.8866,1.48387 -33.1171,2.5019 -86.6003,2.36778 -91.1457,2.48487 -46.0156,-1.61062 -87.5991,0.14175 -131.4351,0.009 z m 139.6974,-7.29568 c 30.822,-2.13182 59.3809,-0.0316 88.681,-2.70106 5.1101,-0.009 4.148,-3.79637 2.8635,-9.50339 -2.1793,-19.75727 -8.1568,-40.08908 -15.6818,-60.23217 -10.793,-25.96676 -22.8897,-48.50675 -39.5329,-70.51257 -19.6009,-23.58791 -42.9096,-42.15104 -65.7574,-57.38312 -17.8841,-11.25392 -48.6262,-23.61239 -59.2105,-27.81823 -11.1968,-4.6374 -45.016,-13.67871 -65.7671,-14.34794 -27.5962,-0.45565 -50.2035,2.03209 -73.7727,7.85428 -8.7728,2.28027 -38.341,12.47156 -63.9675,25.40672 -21.3081,13.38977 -36.6688,24.21543 -53.5363,39.22751 -24.2925,24.86049 -31.4447,37.99425 -50.0813,72.07039 -8.9328,22.51824 -20.7904,57.64905 -28.0764,85.26822 -1.1459,5.96976 -2.476,7.59113 4.046,6.7694 7.916,-0.91486 16.0469,-1.45089 23.9926,-0.7827 81.9925,3.31941 165.0669,1.64013 241.1621,5.10289 51.1542,2.47283 106.0105,2.39274 154.6387,1.58177 z m -376.4397,-40.28656 c -3.2087,-12.66007 -0.1651,-26.55279 2.0297,-34.71404 6.6462,-18.61389 11.984,-31.42468 37.022,-46.06222 17.7922,-10.93904 28.6627,-11.95149 41.2806,-10.54163 4.2386,1.06032 8.8487,4.07627 13.7672,7.88185 15.5219,10.57443 24.171,34.81629 35.8826,46.91625 11.5366,12.73097 20.9022,20.08568 34.3813,29.96238 2.011,1.9214 4.495,5.58099 7.0931,12.07749 -0.6164,2.49716 -2.6961,4.33435 -5.5962,4.31715 -10.413,-0.92857 -17.6538,-0.20932 -27.7853,0.0427 -23.0013,0.35928 -46.5858,5.90383 -67.3213,9.11526 -47.3422,3.11095 -64.8621,-0.13096 -70.7537,-18.99516 z m 66.5514,12.19471 c 20.5905,-0.8007 26.2395,-5.50079 53.9288,-7.43893 13.2527,-0.48425 25.9261,-1.94142 37.821,-2.715 2.108,-1.63861 2.5049,-3.04062 0.035,-5.90877 -4.534,-2.07568 -7.6191,-3.94169 -12.1158,-7.32249 -8.8473,-6.34369 -16.6535,-15.86395 -23.3876,-23.99453 -8.2795,-8.73773 -13.4022,-22.32434 -21.3541,-31.77191 -14.6848,-15.91338 -21.9849,-21.39685 -35.546,-19.2381 -8.6539,2.45508 -17.5477,5.96124 -24.8411,10.97196 -24.1367,17.84936 -26.8983,25.22568 -33.8004,43.19918 -3.3395,14.4724 -0.9899,25.57239 0.942,33.2748 5.7239,15.26218 34.2059,11.02196 58.3186,10.94379 z m 255.6366,-6.75897 c -23.3086,-5.44613 -45.9335,-2.56605 -66.769,4.5881 -3.3136,0.94083 -11.9821,1.43833 -13.8664,-0.0437 -1.1872,-0.93856 -0.7802,-2.57308 -0.8428,-3.96716 -0.1256,-3.56664 0.9242,-5.20497 5.1374,-7.79876 5.9144,-4.42442 11.9841,-10.22862 16.3931,-15.18954 4.9025,-3.98924 17.8657,-31.87162 26.5939,-51.82768 9.4537,-17.02551 16.6418,-36.33559 29.3647,-47.67381 11.7723,-9.972 30.1263,-8.68253 40.8104,-2.00059 13.2046,6.6504 25.9594,26.93925 35.9836,43.37102 4.1534,8.18925 6.8117,15.05551 9.2029,22.92765 3.0067,10.38009 4.6909,21.91428 1.5788,32.40191 -1.8003,5.391 -4.6957,10.6114 -7.8703,14.66096 -5.7775,6.85659 -10.984,11.1605 -18.8251,13.45034 -19.5124,5.48832 -40.2083,1.70398 -56.8912,-2.89878 z m 71.2377,-12.69722 c 9.0841,-13.00275 8.7624,-30.71333 5.5923,-42.39793 -6.368,-16.00854 -12.8281,-28.93812 -21.3114,-41.32207 -15.1221,-18.45511 -28.844,-33.93168 -51.7988,-24.80244 -8.4494,4.42745 -11.2071,8.54554 -16.0918,15.66189 -10.581,20.30568 -21.0471,42.59633 -29.6505,61.05928 -5.5715,12.87133 -11.7573,22.4628 -17.6604,29.33102 -4.6488,4.03801 -8.5124,8.12323 -12.7363,11.51399 -0.049,0.61752 0.2567,1.59016 0.9178,1.79335 1.2716,1.16318 19.7172,-3.06676 27.1444,-4.64648 12.4007,-2.62245 23.2621,-2.74546 35.719,-1.57954 19.6521,4.93292 38.5162,8.64277 56.9638,7.96111 9.3222,-1.63548 17.3335,-5.5777 22.9119,-12.57218 z m -189.8344,-0.37428 c -3.4274,-6.05421 -5.5813,-8.85487 -9.7761,-13.12686 -7.7021,-7.22403 -15.2553,-14.15888 -22.9006,-19.05813 -17.9592,-11.66808 -31.4419,-29.06844 -33.7368,-32.45747 -4.9814,-7.3681 -12.6244,-19.18021 -14.424,-40.34256 -0.2544,-32.49826 4.2851,-39.96886 21.1145,-50.52493 15.0536,-8.86979 26.8371,-11.49783 41.7533,-13.47415 32.313,-3.2951 53.1518,-1.85657 72.587,6.248 22.5221,10.05924 27.7601,16.71285 29.2475,47.49392 -1.6605,16.40038 -4.0772,21.59956 -7.8011,28.7985 -6.2772,10.46967 -12.2513,18.33872 -20.7123,27.05334 -12.1264,11.56508 -23.4191,17.27469 -28.7954,24.51276 -4.2178,5.06325 -6.3519,8.53702 -8.7538,13.21893 -3.5264,8.2098 -5.6509,19.61997 -6.5962,23.34192 -1.2962,2.38735 -2.1903,2.98468 -4.6692,2.98468 -3.0078,-0.48138 -4.2319,-1.56611 -6.5368,-4.66795 z m 7.714,-5.34546 c 2.0165,-7.57059 3.6176,-15.72776 5.7417,-20.8459 1.5535,-4.33481 9.457,-13.34247 17.9779,-21.42293 12.3726,-9.73698 22.2146,-16.73684 30.7078,-28.37676 9.4676,-14.64849 16.1549,-28.45915 16.0413,-43.51271 -0.8028,-13.31353 -3.557,-27.59684 -29.39,-38.82697 -10.5924,-3.583 -21.2948,-4.96991 -32.6874,-5.1659 -26.6094,0.4534 -33.9272,-0.11031 -60.4827,7.53458 -15.2377,5.97549 -19.9551,10.60777 -24.273,17.2415 -9.4527,19.35321 -6.184,51.15305 8.1068,73.11764 8.3697,13.33299 22.313,23.56297 32.9773,30.73204 14.963,10.2952 22.8085,18.32744 29.7709,29.50013 1.0978,1.84654 2.2696,3.64179 3.4895,5.40823 1.3016,0.1763 1.5464,-2.86497 2.0199,-5.38295 z"
           style="fill:#666666;stroke-width:0.46691605" />
      </g>
    </g>
    <g
       aria-label="esourceful"
       transform="scale(0.94581064,1.0572941)"
       style="font-style:normal;font-variant:normal;font-weight:normal;font-stretch:normal;font-size:35.46789932px;line-height:1.25;font-family:'Eras Medium ITC';-inkscape-font-specification:'Eras Medium ITC';letter-spacing:0px;word-spacing:0px;fill:#000000;fill-opacity:1;stroke:none;stroke-width:0.88669753"
       id="text633">
      <path
         d="m -2208.9214,-293.81613 q -2.1973,10.0708 -4.3945,25.63476 -17.5781,4.39454 -30.5786,5.85938 -12.8174,1.64795 -25.6348,1.64795 -22.8882,0 -41.1987,-5.49317 -18.1275,-5.49316 -31.128,-19.04296 -13.0004,-13.73291 -18.6767,-31.31104 -5.6763,-17.57812 -5.6763,-37.17041 0,-27.28271 10.437,-50.53711 10.437,-23.4375 31.3111,-36.8042 21.0571,-13.3667 53.2837,-13.3667 16.6626,0 31.8603,4.94385 15.1978,4.76074 25.2686,14.64844 10.0708,9.88769 15.5639,24.53613 5.4932,14.46533 5.4932,31.67725 0,6.59179 -1.0986,12.81738 h -139.7095 q -0.7324,10.0708 -0.7324,15.38086 0,19.22607 8.0566,35.52246 8.0566,16.11328 23.8037,24.53613 15.7471,8.23975 36.2549,8.23975 23.6206,0 57.4951,-11.71875 z m -123.4131,-87.1582 h 109.1309 q -0.1831,-11.53565 -1.4649,-17.94434 -1.2817,-6.40869 -4.7607,-13.18359 -3.479,-6.95801 -9.5215,-11.90186 -5.8594,-5.12695 -14.2822,-7.69043 -8.2398,-2.74658 -17.9443,-2.74658 -10.4371,0 -19.9585,2.92969 -9.3384,2.92968 -16.6626,8.05664 -7.1412,5.12695 -12.2681,12.08496 -4.9439,6.7749 -7.5073,13.18359 -2.3804,6.40869 -4.7608,17.21192 z"
         style="font-style:normal;font-variant:normal;font-weight:normal;font-stretch:normal;font-size:375px;font-family:'Eras Medium ITC';-inkscape-font-specification:'Eras Medium ITC';stroke-width:0.88669753"
         id="path79" />
      <path
         d="m -2170.103,-268.18137 -1.0987,-13.3667 q 0,-2.19726 -1.4648,-13.91601 28.1982,12.26807 52.0019,12.26807 12.4512,0 21.0572,-3.2959 8.6059,-3.2959 12.8174,-9.70459 4.3945,-6.5918 4.3945,-13.54981 0,-3.84521 -1.2817,-7.69043 -1.0987,-3.84521 -3.4791,-7.32422 -2.3803,-3.66211 -7.1411,-7.87353 -4.5776,-4.39453 -19.4091,-16.29639 -14.6485,-11.90185 -22.3389,-18.49365 -7.5073,-6.7749 -13.0005,-13.73291 -5.3101,-7.14111 -7.8735,-14.28223 -2.5635,-7.14111 -2.5635,-14.46533 0,-11.71875 7.3242,-22.70508 7.5073,-10.98633 21.4233,-16.29638 14.0992,-5.49317 32.959,-5.49317 21.0572,0 46.3257,4.94385 0.7324,14.28223 1.8311,26.18408 -20.5078,-8.42285 -40.4663,-8.42285 -10.8033,0 -20.1416,2.92969 -9.1553,2.74658 -13.5498,8.42285 -4.2115,5.67627 -4.2115,12.45117 0,4.39453 1.4649,8.42285 1.4648,4.02832 5.1269,8.78907 3.8452,4.57763 9.1553,9.15527 5.3101,4.57764 21.0571,17.21191 15.9302,12.63428 21.7896,18.67676 5.8594,6.04248 10.0708,12.45117 4.2114,6.40869 6.0425,12.81739 2.0141,6.22558 2.0141,12.81738 0,12.81738 -7.6904,23.80371 -7.5073,10.98633 -22.522,17.02881 -15.0146,6.04248 -33.6914,6.04248 -7.8735,0 -18.4936,-1.09863 -10.6202,-0.91553 -18.1275,-2.38038 -7.3242,-1.28173 -18.3105,-4.02832 z"
         style="font-style:normal;font-variant:normal;font-weight:normal;font-stretch:normal;font-size:375px;font-family:'Eras Medium ITC';-inkscape-font-specification:'Eras Medium ITC';stroke-width:0.88669753"
         id="path81" />
      <path
         d="m -1920.5303,-454.39963 q 19.2261,0 36.6211,5.49317 17.395,5.49316 30.0293,17.39502 12.8174,11.90185 19.4092,30.02929 6.5918,18.12744 6.5918,38.26905 0,21.78955 -7.1411,41.74804 -6.958,19.9585 -19.7754,33.87451 -12.6343,13.91602 -31.1279,20.50782 -18.3106,6.40869 -39.3677,6.40869 -19.5923,0 -36.9873,-5.85938 -17.395,-5.85937 -30.2124,-18.31054 -12.6343,-12.45118 -19.2261,-30.39551 -6.5918,-18.12744 -6.5918,-37.90283 0,-29.84619 12.085,-53.64991 12.0849,-23.98681 35.5224,-35.70556 23.4375,-11.90186 50.1709,-11.90186 z m -0.7324,23.2544 q -18.6768,0 -34.4238,9.33838 -15.564,9.33837 -23.0713,28.19824 -7.5073,18.67676 -7.5073,40.83252 0,19.40918 6.2255,34.97314 6.2256,15.38086 20.5079,24.90235 14.2822,9.52148 34.4238,9.52148 13.7329,0 26.001,-4.57764 12.268,-4.76074 21.4233,-15.56396 9.1553,-10.80322 13.5498,-26.36719 4.3945,-15.74707 4.3945,-32.95898 0,-16.11328 -4.3945,-30.21241 -4.3945,-14.09912 -13.5498,-22.52197 -8.9722,-8.60596 -20.5078,-12.08496 -11.3525,-3.479 -23.0713,-3.479 z"
         style="font-style:normal;font-variant:normal;font-weight:normal;font-stretch:normal;font-size:375px;font-family:'Eras Medium ITC';-inkscape-font-specification:'Eras Medium ITC';stroke-width:0.88669753"
         id="path83" />
      <path
         d="m -1617.4907,-264.70236 q -8.9722,-0.36621 -15.3809,-0.36621 -7.3242,0 -15.1977,0.36621 l 0.9155,-35.33936 q -4.3945,8.23975 -7.6904,12.81739 -3.1128,4.39453 -7.8736,8.78906 -4.7607,4.21142 -9.8877,7.14111 -4.9438,2.92969 -11.7187,5.31006 -6.7749,2.19727 -15.9302,3.66211 -8.9722,1.64795 -19.2261,1.64795 -22.3388,0 -38.269,-6.7749 -15.7471,-6.77491 -23.9868,-19.22608 -8.0567,-12.45117 -8.0567,-34.05762 0,-3.29589 0.3662,-11.16943 0.3663,-7.87353 1.0987,-20.50781 l 3.1128,-60.97412 0.5493,-19.59229 q 0.1831,-6.7749 0.1831,-17.21191 l 16.8457,0.1831 q 5.1269,0 15.7471,-0.1831 -2.5635,32.04346 -4.9439,70.12939 -2.1973,38.08594 -2.1973,48.70606 0,16.11328 5.127,25.81787 5.3101,9.52148 17.395,14.83154 12.2681,5.12695 27.6489,5.12695 13.5499,0 26.001,-4.76074 10.6201,-4.21142 17.9444,-11.35254 7.8735,-7.87353 13.1836,-20.3247 3.8452,-9.15528 5.8593,-23.62061 1.2818,-10.43701 2.5635,-37.53662 1.4648,-32.95898 2.0142,-67.0166 l 17.0288,0.1831 q 5.4931,0 15.3808,-0.1831 -2.5634,32.95898 -6.0424,100.15869 -2.0142,36.9873 -2.5635,85.32715 z"
         style="font-style:normal;font-variant:normal;font-weight:normal;font-stretch:normal;font-size:375px;font-family:'Eras Medium ITC';-inkscape-font-specification:'Eras Medium ITC';stroke-width:0.88669753"
         id="path85" />
      <path
         d="m -1568.7847,-264.70236 q 6.5918,-105.65186 6.5918,-168.64014 l -0.1831,-16.8457 q 9.3384,0.1831 15.3809,0.1831 6.958,0 15.5639,-0.1831 l -1.4648,30.39551 q 6.7749,-11.35254 11.9019,-17.02881 5.31,-5.85938 11.9018,-9.52149 6.5918,-3.84521 14.8316,-5.85937 8.4228,-2.19727 17.395,-2.19727 7.6904,0 15.1977,1.83106 0.1831,12.08496 1.2818,27.09961 -11.3526,-3.1128 -20.3247,-3.1128 -10.8033,0 -19.4092,3.66211 -8.606,3.47901 -15.564,10.80323 -6.7749,7.14111 -11.1694,17.21191 -3.6621,8.05664 -5.6763,20.87402 -1.831,12.81739 -2.9297,46.6919 -0.7324,24.71924 -0.7324,52.36816 v 12.26807 q -9.8877,-0.36621 -15.9302,-0.36621 -5.4931,0 -16.6626,0.36621 z"
         style="font-style:normal;font-variant:normal;font-weight:normal;font-stretch:normal;font-size:375px;font-family:'Eras Medium ITC';-inkscape-font-specification:'Eras Medium ITC';stroke-width:0.88669753"
         id="path87" />
      <path
         d="m -1300.7183,-292.53439 q -0.3662,2.92968 -2.0141,10.98632 -1.4649,7.87354 -2.5635,15.56397 -13.3667,3.11279 -25.8179,4.21143 -12.268,1.09863 -21.6064,1.09863 -19.7754,0 -36.6211,-5.31006 -16.6626,-5.31006 -29.1138,-17.39502 -12.4512,-12.26807 -18.3105,-30.2124 -5.8594,-18.12744 -5.8594,-38.08594 0,-26.9165 9.5215,-51.08643 9.5215,-24.16992 30.0293,-37.90283 20.5078,-13.73291 55.8471,-13.73291 26.001,0 50.7203,6.95801 1.0986,15.56396 2.0141,25.63477 -17.395,-5.49317 -28.3813,-7.32422 -10.9864,-2.01416 -20.3247,-2.01416 -16.1133,0 -28.9307,5.85937 -12.6343,5.85938 -21.6064,16.6626 -8.9722,10.80322 -13.0005,25.63477 -3.8452,14.83154 -3.8452,30.2124 0,20.69092 6.4086,36.25488 6.4087,15.56397 22.3389,24.16992 16.1133,8.42285 36.0718,8.42285 19.4092,0 45.0439,-8.60595 z"
         style="font-style:normal;font-variant:normal;font-weight:normal;font-stretch:normal;font-size:375px;font-family:'Eras Medium ITC';-inkscape-font-specification:'Eras Medium ITC';stroke-width:0.88669753"
         id="path89" />
      <path
         d="m -1108.0913,-293.81613 q -2.1973,10.0708 -4.3945,25.63476 -17.5782,4.39454 -30.5787,5.85938 -12.8173,1.64795 -25.6347,1.64795 -22.8882,0 -41.1987,-5.49317 -18.1275,-5.49316 -31.128,-19.04296 -13.0005,-13.73291 -18.6767,-31.31104 -5.6763,-17.57812 -5.6763,-37.17041 0,-27.28271 10.437,-50.53711 10.437,-23.4375 31.311,-36.8042 21.0572,-13.3667 53.2837,-13.3667 16.6626,0 31.8604,4.94385 15.1977,4.76074 25.2685,14.64844 10.0708,9.88769 15.564,24.53613 5.4932,14.46533 5.4932,31.67725 0,6.59179 -1.0987,12.81738 h -139.7094 q -0.7325,10.0708 -0.7325,15.38086 0,19.22607 8.0567,35.52246 8.0566,16.11328 23.8037,24.53613 15.7471,8.23975 36.2549,8.23975 23.6206,0 57.4951,-11.71875 z m -123.4131,-87.1582 h 109.1309 q -0.1831,-11.53565 -1.4649,-17.94434 -1.2817,-6.40869 -4.7607,-13.18359 -3.479,-6.95801 -9.5215,-11.90186 -5.8594,-5.12695 -14.2822,-7.69043 -8.2398,-2.74658 -17.9444,-2.74658 -10.437,0 -19.9585,2.92969 -9.3383,2.92968 -16.6626,8.05664 -7.1411,5.12695 -12.268,12.08496 -4.9439,6.7749 -7.5074,13.18359 -2.3803,6.40869 -4.7607,17.21192 z"
         style="font-style:normal;font-variant:normal;font-weight:normal;font-stretch:normal;font-size:375px;font-family:'Eras Medium ITC';-inkscape-font-specification:'Eras Medium ITC';stroke-width:0.88669753"
         id="path91" />
      <path
         d="m -1055.7231,-264.70236 2.0141,-33.69141 4.9439,-128.90625 h -22.8882 q 0.9155,-8.97217 1.4648,-22.52197 h 23.6206 q 0.3662,-17.02881 0.7325,-26.00098 0.5493,-9.15527 2.3803,-16.29638 2.0142,-7.32422 5.6763,-12.26807 3.8452,-5.12695 10.437,-9.33838 6.7749,-4.21143 15.564,-6.04248 8.9721,-2.01416 20.50778,-2.01416 15.19775,0 35.33936,4.57764 0.36621,10.98632 1.83105,23.25439 -17.39502,-6.04248 -31.67725,-6.04248 -6.958,0 -12.81738,1.83106 -5.85936,1.83105 -9.52146,4.94384 -3.479,2.92969 -5.8594,7.87354 -2.1973,4.94385 -3.1128,11.71875 -0.7324,6.7749 -0.7324,15.93017 l -0.1831,7.87354 h 50.9033 q -0.91552,7.87353 -1.64795,22.52197 h -49.07225 l -3.2959,93.5669 -1.648,69.03076 q -11.3525,-0.36621 -16.6626,-0.36621 -5.1269,0 -16.2963,0.36621 z"
         style="font-style:normal;font-variant:normal;font-weight:normal;font-stretch:normal;font-size:375px;font-family:'Eras Medium ITC';-inkscape-font-specification:'Eras Medium ITC';stroke-width:0.88669753"
         id="path93" />
      <path
         d="m -775.93799,-264.70236 q -8.97217,-0.36621 -15.38086,-0.36621 -7.32422,0 -15.19775,0.36621 l 0.91553,-35.33936 q -4.39454,8.23975 -7.69043,12.81739 -3.1128,4.39453 -7.87354,8.78906 -4.76074,4.21142 -9.88769,7.14111 -4.94385,2.92969 -11.71875,5.31006 -6.77491,2.19727 -15.93018,3.66211 -8.97217,1.64795 -19.22607,1.64795 -22.33887,0 -38.26905,-6.7749 -15.74707,-6.77491 -23.98681,-19.22608 -8.05664,-12.45117 -8.05664,-34.05762 0,-3.29589 0.36621,-11.16943 0.36621,-7.87353 1.09863,-20.50781 l 3.11279,-60.97412 0.54932,-19.59229 q 0.1831,-6.7749 0.1831,-17.21191 l 16.84571,0.1831 q 5.12695,0 15.74707,-0.1831 -2.56348,32.04346 -4.94385,70.12939 -2.19727,38.08594 -2.19727,48.70606 0,16.11328 5.12696,25.81787 5.31006,9.52148 17.39502,14.83154 12.26806,5.12695 27.64892,5.12695 13.54981,0 26.00098,-4.76074 10.62012,-4.21142 17.94434,-11.35254 7.87353,-7.87353 13.18359,-20.3247 3.84521,-9.15528 5.85937,-23.62061 1.28174,-10.43701 2.56348,-37.53662 1.46484,-32.95898 2.01416,-67.0166 l 17.02881,0.1831 q 5.49316,0 15.38086,-0.1831 -2.56348,32.95898 -6.04248,100.15869 -2.01416,36.9873 -2.56348,85.32715 z"
         style="font-style:normal;font-variant:normal;font-weight:normal;font-stretch:normal;font-size:375px;font-family:'Eras Medium ITC';-inkscape-font-specification:'Eras Medium ITC';stroke-width:0.88669753"
         id="path95" />
      <path
         d="m -726.49951,-264.70236 q 3.66211,-56.39649 7.14111,-133.66699 2.38037,-56.21338 3.47901,-116.27198 l 17.0288,0.18311 q 5.31006,0 16.29639,-0.18311 l -5.67627,107.48291 -4.02832,108.76465 -0.73242,33.69141 q -10.80322,-0.36621 -16.11328,-0.36621 -2.19727,0 -17.39502,0.36621 z"
         style="font-style:normal;font-variant:normal;font-weight:normal;font-stretch:normal;font-size:375px;font-family:'Eras Medium ITC';-inkscape-font-specification:'Eras Medium ITC';stroke-width:0.88669753"
         id="path97" />
    </g>
    <g
       aria-label="ind"
       transform="scale(1.0279978,0.97276473)"
       style="font-style:normal;font-variant:normal;font-weight:normal;font-stretch:normal;font-size:192.74958801px;line-height:1.25;font-family:'Eras Medium ITC';-inkscape-font-specification:'Eras Medium ITC';letter-spacing:0px;word-spacing:0px;fill:#000000;fill-opacity:1;stroke:none;stroke-width:0.96374792"
       id="text637">
      <path
         d="m -1118.4182,-172.597 q 0.5493,-17.21192 0.5493,-26.00098 10.0708,0.36621 17.7612,0.36621 9.7046,0 17.5782,-0.36621 -0.3663,5.67627 -1.0987,26.00098 -9.8877,-0.18311 -17.0288,-0.18311 -7.1411,0 -17.7612,0.18311 z m -8.2398,225.402828 3.1128,-46.142578 3.479,-78.735352 1.4649,-60.607908 16.8457,0.1831 16.4795,-0.1831 q -2.0142,28.56445 -3.6621,59.875487 -1.648,31.127929 -2.7466,68.1152339 -0.9155,36.9873051 -0.9155,57.4951171 -11.5357,-0.366211 -16.4795,-0.366211 -4.5777,0 -17.5782,0.366211 z"
         style="font-style:normal;font-variant:normal;font-weight:normal;font-stretch:normal;font-size:375px;font-family:'Eras Medium ITC';-inkscape-font-specification:'Eras Medium ITC'"
         id="path100" />
      <path
         d="m -1044.4436,52.805828 q 8.7891,-114.807129 9.1553,-185.485838 l 16.4795,0.1831 q 6.0424,0 15.9301,-0.1831 l -2.3803,36.621092 q 4.5776,-7.690432 7.32419,-11.718752 2.74658,-4.21142 7.32421,-8.78906 4.57764,-4.57764 10.80323,-8.42285 6.22558,-4.02832 14.64843,-6.5918 8.42286,-2.74658 17.02881,-4.02832 8.78907,-1.28174 17.39502,-1.28174 15.74707,0 30.39551,3.84522 14.64844,3.84521 23.98682,12.63427 9.52148,8.60596 12.63427,19.40918 3.2959,10.803227 3.2959,23.254399 0,2.380371 -0.1831,9.155273 -0.18311,6.774903 -0.73242,17.761231 l -3.66211,76.721191 q -0.36622,10.986328 -0.54932,26.916504 -8.23975,-0.366211 -15.56397,-0.366211 -8.97216,0 -16.8457,0.366211 1.83106,-22.155762 2.74658,-42.663574 l 2.38037,-42.663574 q 1.09864,-21.972657 1.09864,-33.14209 0,-16.113281 -5.49317,-25.634766 -5.49316,-9.704594 -17.57812,-14.831544 -12.08496,-5.31006 -27.09961,-5.31006 -21.24024,0 -36.43799,10.0708 -13.91601,9.338382 -21.60644,26.550296 -5.31003,12.268067 -7.50733,36.254883 -2.7466,28.7475588 -3.8452,91.369629 -10.2539,-0.366211 -15.9302,-0.366211 -5.6763,0 -17.2119,0.366211 z"
         style="font-style:normal;font-variant:normal;font-weight:normal;font-stretch:normal;font-size:375px;font-family:'Eras Medium ITC';-inkscape-font-specification:'Eras Medium ITC'"
         id="path102" />
      <path
         d="m -643.80884,52.805828 q -10.80322,-0.366211 -15.01465,-0.366211 -4.57763,0 -15.93017,0.366211 l 2.19726,-39.550781 q -5.85937,10.253906 -10.0708,15.930176 -4.21142,5.493164 -10.0708,10.437011 -5.67627,4.943848 -13.3667,8.972168 -7.50732,3.845215 -16.8457,6.042481 -9.33838,2.197265 -19.77539,2.197265 -17.76123,0 -33.3252,-6.408691 -15.38086,-6.408691 -26.18408,-18.310547 -10.80322,-11.901855 -15.56396,-27.6489257 -4.76075,-15.9301753 -4.76075,-33.1420893 0,-23.07129 8.97217,-45.410157 8.97217,-22.338867 25.26856,-36.804198 16.47949,-14.64844 37.17041,-20.32471 20.69092,-5.67627 43.94531,-5.67627 16.11328,0 38.26904,3.66211 0.91553,-19.95849 0.91553,-33.14209 0,-19.04297 -0.18311,-30.76172 l 16.6626,0.18311 q 6.22559,0 16.6626,-0.18311 l -5.31006,103.271488 -3.66211,118.286132 z m -26.36719,-162.963868 q -10.98632,-3.2959 -18.85986,-4.21142 -7.69043,-0.91553 -15.01465,-0.91553 -17.57812,0 -33.6914,5.12695 -15.93018,4.94385 -28.19825,16.479493 -12.08496,11.535645 -18.67675,29.296875 -6.5918,17.761231 -6.5918,34.790039 0,17.028809 6.22559,31.8603517 6.22558,14.6484373 19.22607,23.0712893 13.18359,8.239746 30.57861,8.239746 10.43701,0 19.04297,-2.746582 8.60596,-2.929688 15.56397,-8.422852 7.14111,-5.493164 13.3667,-14.8315427 6.22558,-9.3383789 9.88769,-21.6064453 3.11279,-10.803223 4.57764,-29.11377 0.73242,-8.972167 1.64795,-34.606933 z"
         style="font-style:normal;font-variant:normal;font-weight:normal;font-stretch:normal;font-size:375px;font-family:'Eras Medium ITC';-inkscape-font-specification:'Eras Medium ITC'"
         id="path104" />
    </g>
    <text
       xml:space="preserve"
       style="font-style:normal;font-variant:normal;font-weight:normal;font-stretch:normal;font-size:37.5px;line-height:1.25;font-family:'Eras Medium ITC';-inkscape-font-specification:'Eras Medium ITC';letter-spacing:0px;word-spacing:0px;fill:#000000;fill-opacity:1;stroke:none;stroke-width:0.9375"
       x="-1390.2224"
       y="169.74144"
       id="text4423"><tspan
         sodipodi:role="line"
         id="tspan4421"
         x="-1390.2224"
         y="169.74144"
         style="font-style:normal;font-variant:normal;font-weight:normal;font-stretch:normal;font-size:180px;font-family:'Eras Medium ITC';-inkscape-font-specification:'Eras Medium ITC';stroke-width:0.9375"> </tspan></text>
    <g
       aria-label="M"
       style="font-style:normal;font-weight:normal;font-size:37.5px;line-height:1.25;font-family:sans-serif;letter-spacing:0px;word-spacing:0px;fill:#000000;fill-opacity:1;stroke:none;stroke-width:0.9375"
       id="text4662"
       transform="matrix(2.88534,0,0,3.5403403,1644.7264,-1893.4501)">
      <path
         d="m -1259.0198,657.24613 c 46.2336,-39.39279 80.8522,-99.07844 79.7153,-170.47406 21.808,5.82897 52.7499,0.46446 62.2497,0.33782 22.9459,47.01678 25.4108,81.97804 21.231,134.485 32.5318,-43.42046 25.9188,-92.98525 41.3002,-136.03377 16.9104,5.82736 50.8028,0.3097 60.87784,0.17186 -1.7624,55.63394 18.15225,119.59989 18.95375,170.58759 -9.40417,-5.50564 -42.79929,-6.16905 -52.63289,-1.33792 7.1917,-36.52477 4.1827,-97.55942 3.7605,-142.93485 -18.1667,57.14475 -25.0964,114.53301 -54.4945,143.76646 -15.4492,-0.49142 -40.868,-3.92798 -62.6531,0.12152 11.707,-57.76087 15.6701,-93.91737 -4.6914,-139.58245 -7.9667,66.24428 -9.7782,74.16997 -54.0902,139.55969 -9.6552,-6.53099 -53.8936,1.16342 -59.5262,1.33311 z"
         style="font-style:normal;font-variant:normal;font-weight:normal;font-stretch:normal;font-size:250px;font-family:'Eras Medium ITC';-inkscape-font-specification:'Eras Medium ITC';stroke-width:0.9375"
         id="path4708"
         inkscape:connector-curvature="0"
         sodipodi:nodetypes="cccccccccccccc" />
    </g>
    <g
       aria-label="R"
       style="font-style:normal;font-weight:normal;font-size:37.5px;line-height:1.25;font-family:sans-serif;letter-spacing:0px;word-spacing:0px;fill:#000000;fill-opacity:1;stroke:none;stroke-width:0.9375"
       id="text99"
       transform="translate(-2140.2606,-56.82108)">
      <path
         d="m -805.23204,487.93949 c 63.49993,-149.75394 97.23506,-340.76104 -15.42367,-528.138445 37.17655,-201.174885 7.48743,-371.747175 -7.82807,-496.289065 119.64677,69.6315 266.24859,-3.56114 413.58254,15.72602 143.44227,18.7777 262.24682,110.93251 268.12744,273.06757 1.19917,222.260644 -97.27552,299.446786 -256.70609,321.796102 C -279.78516,261.07988 14.587242,361.61267 130.80667,503.09178 4.133162,462.73885 -168.93333,469.84089 -206.32147,476.57528 -303.24031,303.06569 -470.7947,156.37733 -565.24252,9.888796 c 290.56761,2.906355 301.60576,-132.675946 309.21579,-242.324436 -28.09389,-279.90038 -442.29069,-300.60611 -463.81448,-5.60886 0.64433,180.62974 169.05855,505.96198 166.21024,735.45417 -47.13634,-58.07131 -191.91681,-11.05272 -251.60107,-9.47018 z"
         style="font-style:normal;font-variant:normal;font-weight:normal;font-stretch:normal;font-size:1250px;font-family:'Eras Medium ITC';-inkscape-font-specification:'Eras Medium ITC';stroke-width:0.9375"
         id="path101"
         inkscape:connector-curvature="0"
         sodipodi:nodetypes="cccsccccccccc" />
    </g>
  </g>
</svg>
