<?xml version="1.0" encoding="UTF-8" standalone="no"?>
<!-- Created with Inkscape (http://www.inkscape.org/) -->

<svg
   xmlns:dc="http://purl.org/dc/elements/1.1/"
   xmlns:cc="http://creativecommons.org/ns#"
   xmlns:rdf="http://www.w3.org/1999/02/22-rdf-syntax-ns#"
   xmlns:svg="http://www.w3.org/2000/svg"
   xmlns="http://www.w3.org/2000/svg"
   xmlns:sodipodi="http://sodipodi.sourceforge.net/DTD/sodipodi-0.dtd"
   xmlns:inkscape="http://www.inkscape.org/namespaces/inkscape"
   width="362.2775mm"
   height="143.68933mm"
   viewBox="0 0 1283.6604 509.13542"
   id="svg2"
   version="1.1"
   inkscape:version="0.92.3 (2405546, 2018-03-11)"
   sodipodi:docname="drawing-4-logo-gray+colou+textr.svg">
  <defs
     id="defs4" />
  <sodipodi:namedview
     id="base"
     pagecolor="#ffffff"
     bordercolor="#666666"
     borderopacity="1.0"
     inkscape:pageopacity="0.0"
     inkscape:pageshadow="2"
     inkscape:zoom="0.35"
     inkscape:cx="794.04898"
     inkscape:cy="-71.054952"
     inkscape:document-units="px"
     inkscape:current-layer="layer1"
     showgrid="false"
     fit-margin-top="0"
     fit-margin-left="0"
     fit-margin-right="0"
     fit-margin-bottom="0"
     inkscape:window-width="1366"
     inkscape:window-height="705"
     inkscape:window-x="-8"
     inkscape:window-y="-8"
     inkscape:window-maximized="1"
     inkscape:snap-smooth-nodes="false"
     inkscape:object-nodes="false"
     inkscape:snap-nodes="false"
     inkscape:snap-others="false"
     inkscape:snap-global="false"
     showguides="false" />
  <metadata
     id="metadata7">
    <rdf:RDF>
      <cc:Work
         rdf:about="">
        <dc:format>image/svg+xml</dc:format>
        <dc:type
           rdf:resource="http://purl.org/dc/dcmitype/StillImage" />
        <dc:title></dc:title>
      </cc:Work>
    </rdf:RDF>
  </metadata>
  <g
     inkscape:label="Layer 1"
     inkscape:groupmode="layer"
     id="layer1"
     transform="translate(-107.10659,-277.39045)">
    <path
       style="fill:#66ff00;stroke-width:1.42857146"
       d="M 47.678218,260.66514 C 98.174136,119.44211 189.53826,77.439278 270.63693,61.293442 c 1.11864,1.118644 3.1157,69.532688 1.54276,75.414128 -74.0811,18.90405 -109.09468,47.59536 -133.74972,124.69104 -42.907126,0.665 -59.235493,2.34325 -90.751752,-0.73347 z"
       id="path65"
       inkscape:connector-curvature="0"
       transform="matrix(0.93749999,0,0,0.93749999,105.50527,271.56043)"
       sodipodi:nodetypes="ccccc" />
    <path
       style="fill:#ffff00;stroke-width:1.42857146"
       d="m 335.89251,228.13542 c -7.03994,-2.62105 2.59878,-23.61021 10.46894,-23.61021 4.61001,0 11.3229,16.46018 8.63456,20.58281 -2.35425,3.61028 -15.14386,4.50162 -19.1035,3.0274 z"
       id="path59"
       inkscape:connector-curvature="0"
       transform="matrix(0.93749999,0,0,0.93749999,105.50527,271.56043)"
       sodipodi:nodetypes="sscs" />
    <path
       style="fill:#2c5aa0;stroke-width:1.42857146"
       d="m 301.37802,170.0046 c 38.4728,8.10814 66.28224,-7.65814 90.22878,-31.61272 30.49436,-37.53415 22.03531,-56.377935 21.32736,-98.891758 33.70372,17.074785 85.56645,65.658398 89.54805,104.866968 -106.2625,4.66018 -127.98112,65.67292 -127.74165,116.15179 -35.30644,1.31504 -55.03245,0.86622 -69.58486,-1.83304 -1.86833,-23.16327 -2.99745,-50.99301 -3.77768,-88.68124 z m 59.87163,47.74062 c -4.04269,-18.0842 -5.27629,-17.80798 -16.06972,-17.50572 -19.09485,5.06846 -17.60931,19.64557 -13.21914,28.21131 14.0584,11.07232 28.83014,8.804 29.28886,-10.70559 z m 106.41317,-97.68975 c 5.00366,-14.99409 -6.2555,-21.361 -15.78082,-23.643708 -23.86126,4.081208 -20.04457,17.195698 -13.64942,28.649678 2.61866,4.83839 23.30537,-2.44683 29.43024,-5.00597 z"
       id="path57"
       inkscape:connector-curvature="0"
       transform="matrix(0.93749999,0,0,0.93749999,105.50527,271.56043)"
       sodipodi:nodetypes="ccccccccccccccc" />
    <path
       style="fill:#ffff00;stroke-width:1.42857146"
       d="m 434.14236,118.34166 c -2.60002,-4.85818 7.31197,-21.02924 19.82582,-22.034212 7.30636,5.152332 8.90056,19.202952 7.0429,24.574332 -6.47634,3.76626 -20.34438,3.81605 -26.86872,-2.54012 z"
       id="path61"
       inkscape:connector-curvature="0"
       transform="matrix(0.93749999,0,0,0.93749999,105.50527,271.56043)"
       sodipodi:nodetypes="cccc" />
    <path
       style="fill:#2c5aa0;stroke-width:1.42857146"
       d="m 449.60906,256.8128 c 0.0525,-30.83533 -11.77805,-78.32803 58.57985,-98.53759 3.03946,10.2523 21.02171,56.33055 24.78715,102.7933 -23.24641,-4.71375 -60.65773,-0.55713 -83.367,-4.25571 z"
       id="path55"
       inkscape:connector-curvature="0"
       transform="matrix(0.93749999,0,0,0.93749999,105.50527,271.56043)"
       sodipodi:nodetypes="cccc" />
    <path
       style="fill:#2c5aa0;stroke-width:1.42857146"
       d="m 303.71887,77.785249 c -4.97005,-20.717525 -5.20139,-42.8098 -3.80142,-63.349324 32.01745,0.124867 72.48297,8.301907 102.14519,16.792613 -6.95209,16.279464 -21.59444,44.001713 -35.45333,51.43515 -17.22263,7.161943 -49.96441,7.164097 -62.89044,-4.878439 z"
       id="path53"
       inkscape:connector-curvature="0"
       transform="matrix(0.93749999,0,0,0.93749999,105.50527,271.56043)"
       sodipodi:nodetypes="ccccc" />
    <path
       style="fill:#666666"
       d="m 381.17066,278.08221 c -5.05622,2.0396 -1.4051,28.39854 -1.33857,34.32216 -0.89832,75.869 1.43727,211.75091 4.16784,214.44442 2.5298,2.49547 16.797,0.45513 16.797,0.45513 39.34044,-1.3008 120.15678,-3.70653 120.15678,-3.70653 0,0 83.35796,3.41999 87.63688,0.33507 C 606.96075,365.33169 518.63475,272.82489 381.17066,278.08217 Z m 95.03894,25.88413 c -16.30543,42.2245 -32.50946,50.80789 -64.67048,46.91266 -8.28249,-2.13188 -19.69121,-6.56859 -20.96875,-10.68164 -1.05548,-3.39815 -0.67671,-34.5667 -0.43317,-51.12756 25.72797,-5.19195 63.57717,8.74434 86.0724,14.89654 z m 97.15876,99.70703 c -31.01874,-6.47189 -57.71609,5.74316 -79.76696,24.06974 -32.73856,30.86909 -32.47181,50.22747 -39.19345,85.16788 -25.25418,0.45677 -55.73361,3.01938 -59.16364,-0.30629 -4.46374,-3.66338 -4.3305,-38.35972 -4.25149,-62.67996 -0.11667,-9.45259 -1.07254,-13.5275 -0.12897,-17.54881 32.56406,6.95899 63.08638,-7.5948 84.73186,-29.27817 41.36992,-45.75022 16.37319,-81.71996 21.1012,-88.54214 21.17422,16.23653 63.54823,40.09575 76.67145,89.11775 z m -128.6144,11.4361 c -17.25087,8.97261 -29.12658,8.65618 -44.56436,6.49704 -2.4636,-1.48674 -7.19872,-2.8646 -8.25595,-6.71886 -3.45938,-21.00123 -1.83663,-41.87698 -0.88427,-60.65022 54.96601,16.74972 70.83389,-0.17294 93.27569,-42.35845 13.52023,42.43849 -2.52018,84.79207 -39.57111,103.23049 z m 66.36061,-50.75479 c -4.65357,7.48365 -7.10948,14.89206 -3.73896,21.9674 5.11356,10.73428 33.23565,8.20128 38.37333,-1.51004 4.8939,-9.25052 -1.48336,-20.65516 -9.91405,-23.7726 -9.65999,-2.94918 -19.2905,-5.41675 -24.72032,3.31524 z m 9.03619,5.52387 c 5.48626,-4.89648 11.90773,-4.07576 14.30807,-1.12513 2.69571,3.31371 4.23054,13.14916 0.4255,15.30907 -14.12013,4.95426 -24.8532,-3.57188 -14.73357,-14.18394 z m 50.56518,43.70524 c -58.84601,27.01858 -50.34015,59.10523 -50.41766,96.77396 -21.84541,0.48348 -32.95964,1.57152 -51.60242,-0.44477 2.31085,-48.00862 31.27403,-76.50723 46.317,-85.74233 9.59311,-5.88935 39.3442,-13.24701 55.70308,-10.58686 z m 10.10554,9.00476 c 7.86397,28.55281 20.95865,64.06807 19.57588,90.12221 -24.49758,-0.15592 -47.77547,0.39371 -67.74884,-2.4187 -5.76486,-26.2403 -3.53135,-48.5277 9.03749,-64.64682 15.76364,-15.94168 22.01876,-16.02545 39.13547,-23.05669 z m -156.90541,33.61859 c -4.28928,2.73539 -13.14023,13.62668 -13.18554,23.3418 -0.0579,12.40495 13.99046,15.21148 22,14.3789 6.37903,-0.6631 18.09989,-18.46371 12.94922,-27.32032 -5.87098,-11.32998 -16.6279,-13.3662 -21.76368,-10.40038 z m 4.93045,10.08771 c 1.73509,0.33826 5.24675,1.7402 6.39081,3.61575 4.03256,7.02233 2.89646,11.76984 -1.88125,13.31327 -5.17912,3.18214 -12.17458,2.27587 -13.01032,-4.2726 -0.88615,-6.94346 3.84081,-11.67551 8.50076,-12.65642 z"
       id="path4147-8"
       inkscape:connector-curvature="0"
       sodipodi:nodetypes="ccscccccccccccccccccccccccccsscsscscccccscccccccscccccscc" />
    <path
       style="fill:#ffd42a;stroke-width:1.42857146"
       d="M 123.69871,449.16288 C 85.671818,435.17783 54.524929,398.04067 46.648745,357.62729 c -1.82557,-10.6576 -5.307731,-26.87093 1.494728,-31.90218 58.706457,6.53999 107.511377,23.19034 161.519647,17.17495 24.8557,-2.88545 35.87224,-1.53529 35.87224,1.0884 -8.79289,27.4376 -16.3325,79.74727 -33.43863,98.48814 -26.15557,10.01893 -58.79316,12.18965 -88.39802,6.68628 z"
       id="path23"
       inkscape:connector-curvature="0"
       transform="matrix(0.93749999,0,0,0.93749999,105.50527,271.56043)"
       sodipodi:nodetypes="ccccccc" />
    <path
       style="fill:#ff8080;stroke-width:1.42857146"
       d="m 430.53536,451.45249 c -35.42115,-40.50794 -68.65687,-83.63811 -92.21123,-120.03095 69.34511,8.77483 125.36637,-19.14402 156.22404,-11.53919 -0.25322,33.11515 12.30049,53.25078 -6.47873,92.71067 -10.74409,20.3276 -46.53044,42.48118 -57.53408,38.85947 z"
       id="path37"
       inkscape:connector-curvature="0"
       transform="matrix(0.93749999,0,0,0.93749999,105.50527,271.56043)"
       sodipodi:nodetypes="ccccc" />
    <path
       style="fill:#ff6600;stroke-width:0.50507629"
       d="M 8.9824202,296.4759 C 115.51241,293.88687 404.1076,293.25588 532.01037,293.8612 526.96866,410.50615 481.38472,514.30987 321.14486,542.89502 87.096258,543.72321 13.625133,397.7132 8.9824202,296.4759 Z M 382.08427,481.95567 c 7.52376,-29.94546 -18.62629,-71.77155 -42.50403,-91.56443 -28.80219,-24.32168 -41.31449,-39.18122 -61.7349,-63.63467 1.26105,15.1937 -4.19016,42.32088 -5.71151,47.3429 -18.24768,56.8541 -35.52936,67.62894 -34.45938,105.34866 7.99955,24.28856 44.26091,27.54296 63.49459,28.81699 31.89999,2.38997 71.84726,1.07952 80.91523,-26.30945 z M 197.12352,453.7898 c 35.1368,-32.04955 50.77848,-89.37561 49.93494,-125.01786 -28.48313,17.79372 -52.93342,11.67175 -86.11554,10.64812 -36.61411,4.07021 -72.38097,-26.17264 -109.708294,-10.48547 -12.619344,9.40275 -16.577121,10.44324 -13.692974,26.56604 34.872104,64.3913 66.986558,115.94674 159.581868,98.28917 z m 245.18036,-1.76256 c 55.73926,-9.70333 70.87069,-97.9187 46.0965,-138.06705 -59.57575,8.53328 -98.10248,18.40718 -162.45366,11.7813 53.07013,54.07383 65.13053,103.70359 116.35716,126.28575 z"
       id="path80"
       inkscape:connector-curvature="0"
       transform="matrix(0.93749999,0,0,0.93749999,105.50527,271.56043)"
       sodipodi:nodetypes="ccccccccccccccccccccc" />
    <path
       style="fill:#666666;stroke-width:0.82556742"
       d="m 489.96615,541.8996 c -55.93577,1.73384 -92.23565,0.43399 -133.42926,2.45939 -40.61085,0.42071 -62.40089,-2.10317 -95.02529,-1.87642 -56.55391,1.34638 -104.46597,-1.39614 -145.06476,-0.0853 -8.3529,-0.0961 -8.31164,-2.04453 -8.96325,9.98222 0.86518,137.73534 104.12183,201.91739 202.6411,225.64458 142.86197,34.40659 297.69344,-34.00772 298.89274,-234.69786 -38.09753,-6.34781 -86.69241,-0.66167 -119.05128,-1.42659 z m -10.83219,10.41679 c 41.82617,2.72409 112.92848,-5.81198 117.91443,-0.31464 -7.22041,343.59814 -476.51586,240.23748 -480.65125,3.39072 1.64006,-3.93238 29.64711,-4.77643 53.42201,-3.2801 39.94345,4.69204 73.28706,-0.0768 111.29872,1.60261 68.80993,5.96597 134.11216,-0.52896 198.01609,-1.39859 z m 73.24023,9.16179 c -47.00038,8.30339 -87.99242,14.72571 -141.17367,11.49549 -6.60698,-0.46297 -11.76139,1.58456 -11.76139,4.67388 0,1.48443 7.81467,6.76824 7.81467,6.76824 11.63737,10.70132 20.07851,18.46504 31.13167,30.56295 23.89364,20.7228 37.36493,69.77571 61.15677,82.45258 33.37468,18.02671 86.48472,-27.02774 78.57889,-109.70335 -1.2958,-13.55085 -10.03271,-26.47274 -25.74694,-26.24979 z m 2.7426,12.0583 c 16.93114,-1.07293 13.74467,27.85927 14.14347,40.78387 -2.65321,26.82759 -4.80672,44.00807 -26.18413,62.88551 -17.86568,13.91472 -26.77614,16.19215 -43.94811,0.60449 -22.14905,-29.38513 -45.05299,-64.79259 -68.61509,-86.08777 -7.93349,-7.01919 -10.004,-6.32508 20.29949,-6.79897 36.95478,3.19209 59.21611,-9.53741 104.30437,-11.38713 z m -193.30253,0.56604 c -2.05888,0.0137 -3.53035,0.88177 -3.53035,2.86416 0,2.25715 2.70623,8.19418 4.90646,10.76449 2.34461,2.73907 -1.90878,26.58183 -7.43847,41.69784 -8.41418,25.13747 -22.70029,47.65975 -30.80533,70.90072 -4.03963,25.55443 3.17046,40.47134 21.70134,49.70165 29.08782,3.26428 62.82956,7.16526 87.70522,0.98632 52.90405,-13.02056 39.95496,-80.3058 -13.77212,-120.51481 -13.36194,-10.00014 -42.89718,-40.96851 -46.6758,-48.93994 -2.08481,-4.39807 -8.16038,-7.48653 -12.09095,-7.46043 z m -20.46421,-4.58262 c -1.36316,0.0914 -5.63299,3.79463 -11.37814,6.61169 -15.34854,13.57958 -61.99909,9.10419 -81.96946,6.45621 -47.39414,-6.6198 -51.78267,-9.77195 -80.35791,-13.97572 -15.10641,1.90777 -18.00511,2.62271 -22.89953,7.83749 -22.63203,25.14501 14.50259,71.51959 26.40472,85.54931 37.25071,39.98553 52.63116,48.2302 113.56922,39.87051 19.14665,-7.53199 29.74649,-12.00915 40.99767,-49.66935 5.17908,-20.12546 9.0331,-41.93168 14.81106,-60.55023 3.42632,-10.03606 3.82131,-22.33103 0.82237,-22.12991 z m -151.15221,15.23488 c 50.73462,9.60741 63.6623,19.0916 129.47183,7.79306 16.03739,-2.75339 12.30431,2.98357 6.77707,16.52247 -7.33117,23.62539 -13.2999,75.60783 -41.89819,82.68957 -23.85817,3.06651 -35.98784,3.68651 -60.17957,-1.54812 -48.62581,-22.22321 -86.22837,-81.44707 -70.1513,-102.30864 9.1956,-6.26999 15.41397,-7.61224 35.98016,-3.14834 z m 183.55465,15.69454 c 15.45662,14.9085 34.1452,34.74035 49.86533,47.27096 27.11529,21.16961 44.03796,79.27603 27.82559,84.63317 -18.89627,12.28384 -40.33242,12.36374 -60.37579,11.89139 -58.4633,-0.2778 -67.74485,-16.44883 -52.73274,-48.67631 10.94877,-30.26665 29.31707,-60.55197 33.84535,-90.20436 0.39903,-3.09194 0.67565,-4.8137 1.57226,-4.91485 z"
       id="path4147-1"
       inkscape:connector-curvature="0"
       sodipodi:nodetypes="cccccsccccccccccsccccscccccccccccccccccccccccccccccscccccccccccc" />
    <path
       style="fill:#aaeeff;stroke-width:1.42857146"
       d="m 141.24964,259.75331 c 21.67137,-48.83981 51.45411,-104.0447 129.59678,-115.9979 2.96,3.56658 5.27773,106.32534 2.07157,115.28264 -53.03217,2.75024 -87.04182,5.69404 -131.66835,0.71526 z"
       id="path63"
       inkscape:connector-curvature="0"
       transform="matrix(0.93749999,0,0,0.93749999,105.50527,271.56043)"
       sodipodi:nodetypes="cccc" />
    <path
       style="fill:#aaeeff;stroke-width:1.33928573"
       d="m 358.73638,281.42862 c 0.1901,14.30112 0.44598,26.22176 -0.0854,41.34765 C 211.91524,363.75014 170.81462,431.17196 146.43759,520.3443 l -35.93876,0.19951 c 7.2009,-102.63876 61.2686,-197.87744 248.23755,-239.11519 z"
       id="path69"
       inkscape:connector-curvature="0"
       sodipodi:nodetypes="ccccc" />
    <path
       style="fill:#666666"
       d="m 107.10659,499.94519 0.17434,21.64886 c 0.63243,2.95562 -0.76174,6.9718 2.25754,7.56208 82.59968,-4.10077 158.78849,-3.62602 244.4774,-2.4461 0,0 9.51214,1.09687 12.49637,-1.65542 2.64505,-2.43948 0.44084,-17.39397 0.44084,-17.39397 -0.58536,-43.41082 1.43119,-72.80806 -0.16628,-115.4241 0.96089,-46.79079 0.14056,-62.34791 1.64229,-101.78098 0.60462,-4.11528 -1.85735,-11.87974 -5.78655,-11.87974 -144.03506,13.95526 -241.21508,97.43334 -255.53595,221.36937 z M 354.05381,290.20524 c 0.7813,47.57612 -0.71022,93.90861 -0.73019,133.08035 -0.0619,28.49058 4.64041,81.34778 1.31586,86.46736 -3.41771,5.26304 -43.93398,2.19395 -64.09403,2.44224 -56.71927,1.33448 -118.42752,1.08741 -174.15039,5.60407 -0.93711,-32.15042 0.25425,-43.47994 15.74888,-76.26813 C 163.12588,359.2051 270.55667,294.88856 354.05381,290.20524 Z M 215.17965,390.7309 c -56.89916,54.81852 -59.53134,81.02238 -70.4068,121.88505 -8.19036,10.40024 -0.5002,6.87021 1.6757,6.80814 20.65953,-0.58938 11.46588,4.24913 9.93925,-6.31707 20.57646,-67.27256 35.87001,-85.63719 79.87193,-125.65039 36.52408,-27.81812 56.96683,-36.67011 117.62863,-53.55078 12.9944,9.95342 4.13232,-21.13929 -0.43415,-13.7659 -8.5268,1.40844 -12.97872,2.10274 -26.61022,6.35854 -62.59498,23.93432 -71.91216,25.93386 -111.66434,64.23241 z"
       id="path4147"
       inkscape:connector-curvature="0"
       sodipodi:nodetypes="ccccscccccccsccccscscccccs" />
    <path
       style="fill:#666666;stroke-width:0.9375"
       id="path3728"
       d="m 356.56083,410.46154 c -4.00181,-0.091 -4.53452,-1.31873 -10.29888,-0.17426 -47.91521,9.5132 -70.90702,48.36645 -92.11567,82.55568 -4.78507,7.49243 -7.77911,15.7936 -8.94986,19.84838 -1.17075,4.05478 -12.48558,2.50303 -11.34692,0.0543 0.22772,-16.92149 51.88721,-113.62148 120.9367,-113.43099 5.13445,-1.6158 5.05528,2.02495 3.44874,5.45489 z"
       inkscape:connector-curvature="0"
       sodipodi:nodetypes="csczcccc" />
    <flowRoot
       xml:space="preserve"
       id="flowRoot22"
       style="font-style:normal;font-weight:normal;font-size:40px;line-height:1.25;font-family:sans-serif;letter-spacing:0px;word-spacing:0px;fill:#000000;fill-opacity:1;stroke:none"
       transform="matrix(0.93749999,0,0,0.93749999,105.50527,271.56043)"><flowRegion
         id="flowRegion24"><rect
           id="rect26"
           width="32.324883"
           height="52.527931"
           x="636.39612"
           y="122.3061" /></flowRegion><flowPara
         id="flowPara28">Rethink</flowPara></flowRoot>    <g
       aria-label="ReThink Hypnosis"
       style="font-style:normal;font-weight:normal;font-size:37.5px;line-height:1.25;font-family:sans-serif;letter-spacing:0px;word-spacing:0px;fill:#000000;fill-opacity:1;stroke:none;stroke-width:0.9375"
       id="text32"
       transform="translate(-10.714286,8.0357142)" />
    <g
       aria-label="ypnosis"
       transform="matrix(0.93749999,0,0,0.93749999,80.226254,106.59357)"
       style="font-style:normal;font-variant:normal;font-weight:normal;font-stretch:normal;font-size:40px;line-height:1.25;font-family:'Eras Medium ITC';-inkscape-font-specification:'Eras Medium ITC';letter-spacing:0px;word-spacing:0px;fill:#000000;fill-opacity:1;stroke:none"
       id="flowRoot177">
      <path
         id="path58"
         style="font-style:normal;font-variant:normal;font-weight:normal;font-stretch:normal;font-size:192px;font-family:'Eras Medium ITC';-inkscape-font-specification:'Eras Medium ITC'"
         d="m 1336.2227,578.39158 -0.5625,-6.84375 q 0,-1.125 -0.75,-7.125 14.4375,6.28125 26.625,6.28125 6.375,0 10.7812,-1.6875 4.4063,-1.6875 6.5625,-4.96875 2.25,-3.375 2.25,-6.9375 0,-1.96875 -0.6562,-3.9375 -0.5625,-1.96875 -1.7813,-3.75 -1.2187,-1.875 -3.6562,-4.03125 -2.3438,-2.25 -9.9375,-8.34375 -7.5,-6.09375 -11.4375,-9.46875 -3.8438,-3.46875 -6.6563,-7.03125 -2.7187,-3.65625 -4.0312,-7.3125 -1.3125,-3.65625 -1.3125,-7.40625 0,-6 3.75,-11.625 3.8437,-5.625 10.9687,-8.34375 7.2188,-2.8125 16.875,-2.8125 10.7813,0 23.7188,2.53125 0.375,7.3125 0.9375,13.40625 -10.5,-4.3125 -20.7188,-4.3125 -5.5312,0 -10.3125,1.5 -4.6875,1.40625 -6.9375,4.3125 -2.1562,2.90625 -2.1562,6.375 0,2.25 0.75,4.3125 0.75,2.0625 2.625,4.5 1.9687,2.34375 4.6875,4.6875 2.7187,2.34375 10.7812,8.8125 8.1563,6.46875 11.1563,9.5625 3,3.09375 5.1562,6.375 2.1563,3.28125 3.0938,6.5625 1.0312,3.1875 1.0312,6.5625 0,6.5625 -3.9375,12.1875 -3.8437,5.625 -11.5312,8.71875 -7.6875,3.09375 -17.25,3.09375 -4.0313,0 -9.4688,-0.5625 -5.4375,-0.46875 -9.2812,-1.21875 -3.75,-0.65625 -9.375,-2.0625 z m -34.0313,-113.625 q 0.2813,-8.8125 0.2813,-13.3125 5.1562,0.1875 9.0937,0.1875 4.9688,0 9,-0.1875 -0.1875,2.90625 -0.5625,13.3125 -5.0625,-0.0937 -8.7187,-0.0937 -3.6563,0 -9.0938,0.0937 z m -4.2187,115.40625 1.5937,-23.625 1.7813,-40.3125 0.75,-31.03125 8.625,0.0937 8.4375,-0.0937 q -1.0313,14.625 -1.875,30.65625 -0.8438,15.9375 -1.4063,34.875 -0.4687,18.9375 -0.4687,29.4375 -5.9063,-0.1875 -8.4375,-0.1875 -2.3438,0 -9,0.1875 z m -81,-1.78125 -0.5625,-6.84375 q 0,-1.125 -0.75,-7.125 14.4375,6.28125 26.625,6.28125 6.375,0 10.7812,-1.6875 4.4063,-1.6875 6.5625,-4.96875 2.25,-3.375 2.25,-6.9375 0,-1.96875 -0.6562,-3.9375 -0.5625,-1.96875 -1.7813,-3.75 -1.2187,-1.875 -3.6562,-4.03125 -2.3438,-2.25 -9.9375,-8.34375 -7.5,-6.09375 -11.4375,-9.46875 -3.8438,-3.46875 -6.6563,-7.03125 -2.7187,-3.65625 -4.0312,-7.3125 -1.3125,-3.65625 -1.3125,-7.40625 0,-6 3.75,-11.625 3.8437,-5.625 10.9687,-8.34375 7.2188,-2.8125 16.875,-2.8125 10.7813,0 23.7188,2.53125 0.375,7.3125 0.9375,13.40625 -10.5,-4.3125 -20.7188,-4.3125 -5.5312,0 -10.3125,1.5 -4.6875,1.40625 -6.9375,4.3125 -2.1562,2.90625 -2.1562,6.375 0,2.25 0.75,4.3125 0.75,2.0625 2.625,4.5 1.9687,2.34375 4.6875,4.6875 2.7187,2.34375 10.7812,8.8125 8.1563,6.46875 11.1563,9.5625 3,3.09375 5.1562,6.375 2.1563,3.28125 3.0938,6.5625 1.0312,3.1875 1.0312,6.5625 0,6.5625 -3.9375,12.1875 -3.8437,5.625 -11.5312,8.71875 -7.6875,3.09375 -17.25,3.09375 -4.0313,0 -9.4688,-0.5625 -5.4375,-0.46875 -9.2812,-1.21875 -3.75,-0.65625 -9.375,-2.0625 z m -61.5938,-95.34375 q 9.8438,0 18.75,2.8125 8.9063,2.8125 15.375,8.90625 6.5625,6.09375 9.9375,15.375 3.375,9.28125 3.375,19.59375 0,11.15625 -3.6562,21.375 -3.5625,10.21875 -10.125,17.34375 -6.4688,7.125 -15.9375,10.5 -9.375,3.28125 -20.1563,3.28125 -10.0312,0 -18.9375,-3 -8.9062,-3 -15.4687,-9.375 -6.4688,-6.375 -9.8438,-15.5625 -3.375,-9.28125 -3.375,-19.40625 0,-15.28125 6.1875,-27.46875 6.1875,-12.28125 18.1875,-18.28125 12,-6.09375 25.6875,-6.09375 z m -0.375,11.90625 q -9.5625,0 -17.625,4.78125 -7.9687,4.78125 -11.8125,14.4375 -3.8437,9.5625 -3.8437,20.90625 0,9.9375 3.1875,17.90625 3.1875,7.875 10.5,12.75 7.3125,4.875 17.625,4.875 7.0312,0 13.3125,-2.34375 6.2812,-2.4375 10.9687,-7.96875 4.6875,-5.53125 6.9375,-13.5 2.25,-8.0625 2.25,-16.875 0,-8.25 -2.25,-15.46875 -2.25,-7.21875 -6.9375,-11.53125 -4.5937,-4.40625 -10.5,-6.1875 -5.8125,-1.78125 -11.8125,-1.78125 z m -163.31249,85.21875 q 4.5,-58.78125 4.6875,-94.96875 l 8.43749,0.0937 q 3.0938,0 8.1563,-0.0937 l -1.2188,18.75 q 2.3438,-3.9375 3.75,-6 1.4063,-2.15625 3.75,-4.5 2.3438,-2.34375 5.5313,-4.3125 3.1875,-2.0625 7.5,-3.375 4.3125,-1.40625 8.7187,-2.0625 4.5,-0.65625 8.9063,-0.65625 8.0625,0 15.5625,1.96875 7.5,1.96875 12.2812,6.46875 4.875,4.40625 6.4688,9.9375 1.6875,5.53125 1.6875,11.90625 0,1.21875 -0.094,4.6875 -0.094,3.46875 -0.375,9.09375 l -1.875,39.28125 q -0.1875,5.625 -0.2812,13.78125 -4.2188,-0.1875 -7.9688,-0.1875 -4.5937,0 -8.625,0.1875 0.9375,-11.34375 1.4063,-21.84375 l 1.2187,-21.84375 q 0.5625,-11.25 0.5625,-16.96875 0,-8.25 -2.8125,-13.125 -2.8125,-4.96875 -9,-7.59375 -6.1875,-2.71875 -13.875,-2.71875 -10.875,0 -18.6562,5.15625 -7.125,4.78125 -11.0625,13.59375 -2.7188,6.28125 -3.8438,18.5625 -1.4062,14.71875 -1.9687,46.78125 -5.25,-0.1875 -8.1563,-0.1875 -2.90624,0 -8.81249,0.1875 z m -114.65625,42.375 q 1.875,-24.1875 3.46875,-65.8125 1.6875,-41.625 1.875,-68.0625 15.375,-3.28125 24.5625,-4.40625 9.28125,-1.21875 18.5625,-1.21875 14.625,0 25.40625,4.6875 10.78125,4.59375 16.78125,16.3125 6,11.625 6,26.34375 0,10.21875 -2.8125,19.78125 -2.8125,9.46875 -8.625,16.96875 -5.71875,7.5 -13.875,11.34375 -8.15625,3.75 -18.1875,3.75 -6,0 -11.53125,-1.5 -5.53125,-1.40625 -9.65625,-3.75 -4.03125,-2.34375 -6.84375,-5.25 -2.71875,-2.90625 -6.65625,-8.71875 l -1.125,37.125 q -0.375,9.09375 -0.375,13.125 v 9.28125 q -4.78125,-0.1875 -8.34375,-0.1875 -3.28125,0 -8.625,0.1875 z m 21.46875,-122.71875 -0.65625,7.125 -0.46875,9.75 q -0.375,7.6875 -0.5625,12.5625 -0.1875,4.78125 -0.1875,6.75 0,6.9375 1.40625,13.125 1.5,6.1875 5.8125,11.34375 4.40625,5.0625 10.3125,7.6875 5.90625,2.625 12.1875,2.625 8.8125,0 15.9375,-4.875 7.21875,-4.875 11.25,-14.53125 4.03125,-9.65625 4.03125,-21.09375 0,-11.53125 -4.21875,-19.875 -4.21875,-8.34375 -11.34375,-12 -7.125,-3.75 -16.125,-3.75 -12.84375,0 -27.375,5.15625 z m -129.1875,123.75 q -0.65625,-7.96875 -1.59375,-13.5 4.6875,2.25 8.71875,3 4.03125,0.84375 6.84375,0.84375 3.65625,0 7.125,-1.3125 3.46875,-1.3125 5.625,-3.46875 2.15625,-2.15625 4.5,-6 2.4375,-3.75 5.0625,-8.90625 2.71875,-5.15625 5.15625,-11.53125 l -19.96875,-56.90625 -14.625,-40.6875 q 6.84375,0.1875 9.09375,0.1875 2.625,0 8.53125,-0.1875 1.5,6.5625 2.53125,10.03125 1.03125,3.46875 4.5,14.15625 l 14.15625,43.03125 q 2.34375,7.3125 4.6875,15.75 l 10.59375,-25.875 19.59375,-45.84375 q 0.84375,-2.0625 1.59375,-4.21875 0.84375,-2.25 2.53125,-7.03125 6,0.1875 8.34375,0.1875 1.96875,0 8.71875,-0.1875 -3.65625,8.34375 -17.71875,38.90625 l -34.78125,77.34375 q -3.65625,7.78125 -6.65625,11.8125 -2.4375,3.1875 -5.25,5.53125 -2.25,1.96875 -5.0625,3.375 -3.46875,1.6875 -7.5,2.625 -4.40625,0.9375 -9,0.9375 -7.21875,0 -15.75,-2.0625 z M 480.05449,724.16344 C 560.73806,621.79626 596.88896,573.82302 594.5886,463.80958 c 12.50251,-0.12601 15.73272,0.16289 27.67134,0.50507 l -13.37249,100.47069 120.62892,-2.52537 c 1.24853,-28.94667 -1.06696,-70.55189 -1.06157,-99.208 7.24152,0.43599 14.92303,0.408 29.69164,0.25254 -3.02263,89.68274 0.23085,169.80163 -0.35013,260.41535 -8.70863,-0.0907 -14.51408,-0.11635 -26.69942,-0.21705 -0.49316,-36.70955 -0.9774,-60.04385 -1.60416,-143.28985 l -124.92207,0.50508 c -34.19321,82.60688 -55.09978,122.32421 -68.50874,142.90081 -57.58977,0.51875 -12.03496,-0.5977 -56.00743,0.54459 z m 738.71921,-302.16389 1.5937,-25.40625 1.9688,-48.65625 1.0312,-40.78124 q 0.094,-8.90626 0.094,-13.12501 l 8.7188,0.0938 q 2.5312,0 8.1562,-0.0938 -1.2187,15.09375 -3,58.6875 -1.6875,43.5 -1.9688,69.28125 -5.8124,-0.1875 -8.1562,-0.1875 -2.625,0 -8.4375,0.1875 z m 19.3126,-52.96875 19.1249,-20.4375 q 10.0312,-10.6875 18.9376,-21.5625 6.4687,0.0938 9.3749,0.0938 3.6563,0 10.0313,-0.0938 l -40.5,42.09375 q 11.3437,14.8125 43.875,52.875 -5.8125,-0.1875 -9.375,-0.1875 -3.5625,0 -9.6563,0.1875 l -13.7812,-18.28125 q -1.9687,-2.53124 -8.7188,-10.6875 l -14.5312,-17.71875 z m -135.9375,52.96875 q 4.4999,-58.78125 4.6874,-94.96875 l 8.4375,0.0938 q 3.0937,0 8.1562,-0.0938 l -1.2187,18.75001 q 2.3438,-3.93751 3.75,-6 1.4062,-2.15626 3.75,-4.5 2.3438,-2.34376 5.5312,-4.3125 3.1875,-2.06251 7.5001,-3.37501 4.3125,-1.40624 8.7187,-2.0625 4.5,-0.65624 8.9062,-0.65624 8.0625,0 15.5626,1.96874 7.4999,1.96875 12.2812,6.46875 4.8751,4.40625 6.4688,9.9375 1.6874,5.53126 1.6874,11.90626 0,1.21875 -0.094,4.68749 -0.094,3.46875 -0.375,9.09375 l -1.8749,39.28125 q -0.1876,5.625 -0.2813,13.78125 -4.2188,-0.1875 -7.9688,-0.1875 -4.5937,0 -8.6249,0.1875 0.9375,-11.34374 1.4061,-21.84374 l 1.2188,-21.84376 q 0.5625,-11.24999 0.5625,-16.96875 0,-8.25 -2.8125,-13.125 -2.8125,-4.96875 -9,-7.59375 -6.1875,-2.71875 -13.875,-2.71875 -10.875,0 -18.6562,5.15626 -7.125,4.78124 -11.0625,13.59375 -2.7188,6.28124 -3.8437,18.56249 -1.4063,14.71875 -1.9688,46.78125 -5.25,-0.1875 -8.1563,-0.1875 -2.9062,0 -8.8124,0.1875 z M 1064.2737,306.5933 q 0.2813,-8.81249 0.2813,-13.31249 5.1562,0.1875 9.0937,0.1875 4.9688,0 9,-0.1875 -0.1875,2.90625 -0.5624,13.31249 -5.0625,-0.0938 -8.7189,-0.0938 -3.6562,0 -9.0937,0.0938 z m -4.2187,115.40625 1.5937,-23.62499 1.7812,-40.3125 0.7501,-31.03126 8.625,0.0938 8.4374,-0.0938 q -1.0312,14.62501 -1.875,30.65626 -0.8437,15.93749 -1.4062,34.875 -0.4688,18.93749 -0.4688,29.43749 -5.9062,-0.1875 -8.4374,-0.1875 -2.3438,0 -9,0.1875 z m -116.62503,0 2.34375,-40.78125 2.15625,-55.59375 0.5625,-31.59375 8.53125,0.0938 q 3.1875,0 8.34375,-0.0938 l -2.0625,32.53126 -0.74999,19.40625 q 2.24999,-4.03126 3.84374,-6.37501 1.6875,-2.43749 4.21874,-4.78125 2.62496,-2.43749 5.43755,-4.12499 2.81248,-1.68751 6.28117,-2.90625 3.4688,-1.3125 8.34379,-2.15626 4.87498,-0.84374 10.21873,-0.84374 7.9688,0 15.1876,1.78125 7.3124,1.78124 12.4687,5.90625 5.25,4.12499 7.125,9.84374 1.9687,5.71875 1.9687,11.625 0,2.34376 -0.094,6.1875 -0.2812,5.8125 -0.7499,13.59375 l -1.5938,34.5 q -0.2812,5.625 -0.375,13.78125 -5.4375,-0.1875 -8.3438,-0.1875 -3.1875,0 -8.9062,0.1875 1.0313,-10.12499 2.3438,-31.875 1.4062,-21.74999 1.4062,-30.1875 0,-7.5 -2.7187,-12.37499 -2.7188,-4.96876 -9,-7.59375 -6.2813,-2.62501 -13.96879,-2.62501 -7.03126,0 -13.12502,2.15625 -5.5312,1.96876 -9.46869,5.53125 -3.84379,3.5625 -6.18754,8.71875 -2.53124,5.53126 -3.5625,11.15625 -1.59375,8.90625 -2.24999,24.75001 -0.37501,9.46874 -1.03125,32.34374 -5.25001,-0.1875 -7.875,-0.1875 -2.43751,0 -8.71875,0.1875 z m -72.46876,0 1.87501,-28.6875 2.53125,-59.43749 0.84375,-27.46876 q -22.96875,0.0938 -40.21875,0.84375 0.5625,-7.5 0.65625,-13.21875 23.81249,0.0938 51.375,0.0938 l 30,-0.0938 h 15.9375 q -0.65625,8.25001 -0.65625,13.12501 -14.53125,-0.84376 -32.15625,-0.84376 h -7.68751 l -1.96874,41.53125 -1.96875,58.5 v 15.65625 l -9,-0.1875 q -1.21875,0 -9.56251,0.1875 z M 818.55497,407.0933 q -1.125,5.15626 -2.25,13.125 -9,2.25001 -15.65625,3 -6.5625,0.84376 -13.125,0.84376 -11.71875,0 -21.09375,-2.8125 -9.28125,-2.81251 -15.9375,-9.75001 -6.65625,-7.03124 -9.5625,-16.03124 -2.90625,-9 -2.90625,-19.03126 0,-13.96874 5.34374,-25.87499 5.34376,-12 16.03126,-18.84376 10.78125,-6.84374 27.28125,-6.84374 8.53125,0 16.3125,2.53124 7.78125,2.4375 12.9375,7.5 5.15625,5.06251 7.96875,12.56251 2.8125,7.40625 2.8125,16.21875 0,3.375 -0.5625,6.5625 h -71.53125 q -0.375,5.15624 -0.375,7.87499 0,9.84376 4.12499,18.1875 4.12501,8.25001 12.18751,12.56251 8.0625,4.21874 18.5625,4.21874 12.09375,0 29.4375,-6 z m -63.18751,-44.62499 h 55.87501 q -0.0938,-5.90625 -0.75,-9.1875 -0.65625,-3.28126 -2.4375,-6.75001 -1.78125,-3.56249 -4.875,-6.09375 -3,-2.625 -7.31251,-3.9375 -4.21874,-1.40625 -9.18749,-1.40625 -5.34375,0 -10.21876,1.5 -4.78124,1.5 -8.53124,4.125 -3.65626,2.625 -6.28125,6.1875 -2.53125,3.46876 -3.84375,6.75001 -1.21875,3.28124 -2.43751,8.8125 z M 595.34248,446.43628 C 612.20969,304.7455 531.81234,254.56302 476.5371,184.97946 c 61.44671,0.83373 246.6358,-20.47296 254.78796,42.83483 3.51117,73.35416 -78.79402,79.43601 -81.12024,89.51588 11.51673,43.85797 84.72627,95.9689 105.50664,129.43045 -9.24263,-0.40466 -24.55592,0.15028 -32.06914,0.33919 -54.90017,-62.79934 -77.82228,-76.43614 -118.99291,-147.26286 45.8064,2.67238 106.26426,-40.03696 94.01085,-72.18043 -7.77909,-20.40633 -126.36047,-17.49361 -167.09908,-16.75291 68.02332,51.90476 96.46066,170.81672 92.2816,236.20362 -10.86762,-0.57774 -15.25281,-0.0969 -28.5003,-0.67095 z" />
    </g>
    <flowRoot
       xml:space="preserve"
       id="flowRoot185"
       style="font-style:normal;font-weight:normal;font-size:40px;line-height:1.25;font-family:sans-serif;letter-spacing:0px;word-spacing:0px;fill:#000000;fill-opacity:1;stroke:none"><flowRegion
         id="flowRegion187"><rect
           id="rect189"
           width="0"
           height="57.142857"
           x="1008.5714"
           y="499.18219" /></flowRegion><flowPara
         id="flowPara191" /></flowRoot>  </g>
</svg>
