<?xml version="1.0" encoding="UTF-8" standalone="no"?>
<!-- Created with Inkscape (http://www.inkscape.org/) -->

<svg
   xmlns:dc="http://purl.org/dc/elements/1.1/"
   xmlns:cc="http://creativecommons.org/ns#"
   xmlns:rdf="http://www.w3.org/1999/02/22-rdf-syntax-ns#"
   xmlns:svg="http://www.w3.org/2000/svg"
   xmlns="http://www.w3.org/2000/svg"
   xmlns:sodipodi="http://sodipodi.sourceforge.net/DTD/sodipodi-0.dtd"
   xmlns:inkscape="http://www.inkscape.org/namespaces/inkscape"
   width="430.0343mm"
   height="151.92081mm"
   viewBox="0 0 1523.7436 538.30207"
   id="svg2"
   version="1.1"
   inkscape:version="0.92.3 (2405546, 2018-03-11)"
   sodipodi:docname="logo-v1.svg">
  <defs
     id="defs4" />
  <sodipodi:namedview
     id="base"
     pagecolor="#ffffff"
     bordercolor="#666666"
     borderopacity="1.0"
     inkscape:pageopacity="0.0"
     inkscape:pageshadow="2"
     inkscape:zoom="0.175"
     inkscape:cx="1331.7453"
     inkscape:cy="-83.319429"
     inkscape:document-units="px"
     inkscape:current-layer="layer1"
     showgrid="false"
     inkscape:window-width="1366"
     inkscape:window-height="705"
     inkscape:window-x="-8"
     inkscape:window-y="-8"
     inkscape:window-maximized="1"
     inkscape:snap-global="false"
     inkscape:snap-nodes="false"
     inkscape:snap-others="false"
     fit-margin-top="0"
     fit-margin-left="0"
     fit-margin-right="0"
     fit-margin-bottom="0" />
  <metadata
     id="metadata7">
    <rdf:RDF>
      <cc:Work
         rdf:about="">
        <dc:format>image/svg+xml</dc:format>
        <dc:type
           rdf:resource="http://purl.org/dc/dcmitype/StillImage" />
        <dc:title />
      </cc:Work>
    </rdf:RDF>
  </metadata>
  <g
     inkscape:label="Layer 1"
     inkscape:groupmode="layer"
     id="layer1"
     transform="translate(2017.6967,22.011723)">
    <flowRoot
       xml:space="preserve"
       id="flowRoot4461"
       style="font-style:normal;font-weight:normal;font-size:40px;line-height:1.25;font-family:sans-serif;letter-spacing:0px;word-spacing:0px;fill:#000000;fill-opacity:1;stroke:none"><flowRegion
         id="flowRegion4463"><rect
           id="rect4465"
           width="165.66502"
           height="48.487324"
           x="141.42136"
           y="2399.3525" /></flowRegion><flowPara
         id="flowPara4467" /></flowRoot>    <text
       xml:space="preserve"
       style="font-style:normal;font-weight:normal;font-size:37.5px;line-height:1.25;font-family:sans-serif;letter-spacing:0px;word-spacing:0px;fill:#000000;fill-opacity:1;stroke:none;stroke-width:0.9375"
       x="579.57507"
       y="2158.4792"
       id="text4473"><tspan
         sodipodi:role="line"
         id="tspan4471"
         x="579.57507"
         y="2192.6917"
         style="stroke-width:0.9375" /></text>
    <text
       xml:space="preserve"
       style="font-style:normal;font-weight:normal;font-size:37.5px;line-height:1.25;font-family:sans-serif;letter-spacing:0px;word-spacing:0px;fill:#000000;fill-opacity:1;stroke:none;stroke-width:0.9375"
       x="-1197.0308"
       y="556.12476"
       id="text4656"><tspan
         sodipodi:role="line"
         id="tspan4654"
         x="-1197.0308"
         y="590.33716"
         style="font-style:normal;font-variant:normal;font-weight:normal;font-stretch:normal;font-family:'Eras Medium ITC';-inkscape-font-specification:'Eras Medium ITC';stroke-width:0.9375" /><tspan
         sodipodi:role="line"
         x="-1197.0308"
         y="637.21216"
         style="font-style:normal;font-variant:normal;font-weight:normal;font-stretch:normal;font-family:'Eras Medium ITC';-inkscape-font-specification:'Eras Medium ITC';stroke-width:0.9375"
         id="tspan4658" /></text>
    <g
       id="g140">
      <g
         transform="translate(-224.99999,-155.35714)"
         id="g171">
        <path
           sodipodi:nodetypes="ccccsc"
           inkscape:connector-curvature="0"
           id="path613"
           d="m -1725.0312,356.38567 c -20.652,-21.86628 -7.7537,-55.0824 1.1573,-69.72531 25.0688,-25.40811 66.0562,-56.58771 97.6367,0.11097 7.8016,26.08512 49.7548,46.93718 53.6283,58.41158 -10.7965,5.37584 -55.2328,5.96253 -81.5808,12.29737 -22.0936,5.31195 -66.8396,0.93071 -70.8415,-1.09461 z"
           style="fill:#5f8dd3;stroke-width:1.33928573" />
        <path
           sodipodi:nodetypes="cccccc"
           inkscape:connector-curvature="0"
           id="path624"
           d="m -1580.0418,290.60411 c -33.9634,-37.61617 -42.1695,-78.67381 -12.7519,-107.13261 43.5043,-18.85803 83.6975,-20.34223 124.0748,-0.77236 34.0702,39.1277 0.8934,79.94308 -30.9108,104.89622 -20.1019,17.56688 -23.8227,27.43611 -27.6021,51.25453 -15.3678,-21.08637 -29.7279,-34.31164 -52.81,-48.24578 z"
           style="fill:#5f8dd3;stroke-width:1.33928573" />
        <g
           id="g84">
          <g
             id="g142">
            <path
               sodipodi:nodetypes="cccccc"
               inkscape:connector-curvature="0"
               id="path626"
               d="m -1390.2894,351.27736 c -62.4192,-15.08377 -57.5348,-6.13846 -102.9387,-1.73771 13.5982,-14.09801 25.3021,-23.12143 48.4183,-75.90061 12.5778,-29.84824 26.8053,-55.51228 47.5372,-50.42991 33.0974,5.85745 51.7139,45.62235 63.7438,84.63157 -4.0753,26.56284 -19.6179,49.14906 -56.7606,43.43666 z"
               style="fill:#5f8dd3;stroke-width:1.33928573" />
          </g>
        </g>
        <g
           id="g629"
           transform="translate(-1861.1569,-42.696519)">
          <path
             style="fill:#ccff00;stroke-width:1.01015258"
             d="m 416.34391,447.51881 c -118.28731,-4.1004 -169.459,-3.25744 -262.07113,-4.31792 -26.18188,-0.73083 -25.0835,-4.14664 -17.06424,-27.75891 4.60758,-13.56673 18.07958,-53.16519 24.02892,-67.76989 24.17588,-49.45923 56.62863,-91.56605 102.21047,-120.55114 73.93043,-37.98046 125.49683,-49.21235 197.13348,-37.80844 77.72574,19.3452 132.4056,53.32361 180.21759,118.29568 14.49653,21.80261 45.37842,87.51 48.69529,138.758 -104.71246,2.99253 -168.84306,0.81088 -273.15038,1.15262 z M 285.50175,416.66788 c 34.12693,-5.93257 41.81344,-3.89891 80.61815,-11.53627 -22.72972,-27.00426 -41.93565,-31.22933 -58.83653,-64.78145 -16.33612,-21.59282 -32.58229,-36.15799 -55.69606,-32.40048 -25.33491,11.33296 -44.98579,22.44354 -55.10938,43.01801 -23.28268,74.38761 6.57192,77.71105 89.02382,65.70019 z m 245.04016,-10.04303 c 29.67309,6.28572 47.42433,11.6377 74.72498,-4.91728 11.30701,-13.70435 12.53627,-18.13422 14.54577,-33.34528 -6.98908,-37.73586 -29.74584,-75.49539 -48.55302,-88.26375 -14.97237,-8.44512 -26.96333,-9.69828 -37.7074,-4.01856 -15.30587,8.5799 -20.59163,19.17723 -29.54292,40.35553 -21.76932,44.46575 -22.58161,50.45808 -36.66617,69.28849 -7.28698,9.74236 -18.69449,20.95756 -18.69449,25.05317 31.48889,-5.82738 59.81842,-8.6623 81.89325,-4.15232 z M 415.57857,385.99284 c 9.81968,-25.26951 19.45466,-36.3532 39.42105,-52.19682 28.95884,-28.75804 52.1261,-61.7767 23.48756,-100.27626 -34.83611,-27.71739 -84.82194,-20.81014 -118.96128,-10.02944 -39.27972,12.0125 -43.7257,35.51393 -37.80995,73.9732 6.16862,22.44909 16.49464,36.83983 46.4242,60.56131 12.52973,9.93077 22.60019,16.88688 35.91607,34.95177 10.10811,9.88578 8.6687,2.73642 11.52235,-6.98376 z"
             id="path383"
             inkscape:connector-curvature="0"
             transform="matrix(0.9375,0,0,0.9375,-51.819492,8.6038705)"
             sodipodi:nodetypes="ccsccccccccccccccccccscccccccscc" />
        </g>
        <path
           sodipodi:nodetypes="cccccscacsc"
           inkscape:connector-curvature="0"
           id="path379"
           d="m -1336.7149,588.47874 c 6.5513,-74.44442 -17.676,-100.54801 -34.5926,-118.30206 -34.4837,-42.02955 -116.3815,-47.34932 -171.4062,-41.12279 -64.5943,10.39033 -132.2355,28.95663 -165.1227,99.32936 -11.614,19.32232 -2.8715,31.74103 -7.7647,50.79402 -23.3366,-15.41072 -50.4659,-57.84115 -63.1113,-96.6222 -10.8169,-33.17341 -8.8797,-64.52987 -8.8797,-64.52987 0,0 155.4669,-3.15876 233.2032,-2.51659 95.5955,0.78971 286.6892,7.8321 286.6892,7.8321 0,0 -3.1852,31.80924 -14.7955,68.2587 -11.7756,36.96855 -32.1315,78.71046 -54.2197,96.87933 z"
           style="fill:#ffff00;stroke-width:0.94701803" />
        <g
           id="g139">
          <path
             style="fill:#ffd42a;stroke-width:0.94701803"
             d="m -1403.5285,524.88093 c -36.6201,-35.7663 -71.17,-50.78856 -114.9788,-50.88726 -66.4461,3.66353 -127.7539,36.17962 -140.073,90.05417 -5.3844,18.66622 2.5962,47.82431 6.7114,63.08794 -1.4923,1.49226 -41.2897,-26.70416 -60.1226,-42.14283 -8.8219,-70.90622 50.2089,-119.75007 106.9707,-139.47157 78.1684,-24.26085 160.7734,-25.59081 226.8594,19.70324 31.3777,28.20672 61.2132,98.766 33.0874,130.87602 -7.9051,8.00661 -37.7827,27.33931 -46.6234,29.40825 7.5858,-35.05298 5.5064,-73.64342 -11.8311,-100.62796 z"
             id="path377"
             inkscape:connector-curvature="0"
             sodipodi:nodetypes="cccccccccc" />
        </g>
        <path
           sodipodi:nodetypes="csccsccccccc"
           inkscape:connector-curvature="0"
           id="path375"
           d="m -1451.5903,586.69678 c -8.2585,-17.32542 -30.2634,-35.17188 -50.5462,-40.48474 -29.345,-7.68663 -76.1399,1.74078 -97.8068,19.08266 -29.8132,35.34821 -20.5531,55.22869 -4.2705,85.07454 -0.9985,1.04525 -26.4251,-6.40706 -34.6239,-11.81335 -10.3343,-6.81442 -13.3357,-17.43711 -15.9464,-39.85363 -7.6107,-58.4744 30.4996,-92.12168 70.4948,-108.201 36.9392,-12.96463 73.4823,-19.42601 122.9576,-4.08003 40.5836,16.8082 65.4328,45.734 72.6269,88.38253 2.3971,24.39219 -1.8042,54.79409 -21.5862,63.20303 -13.3041,4.67679 -37.0317,11.1821 -51.0112,12.82511 15.0283,-17.94031 18.083,-45.95101 9.7119,-64.13512 z"
           style="fill:#ff6600;stroke-width:0.94701803" />
        <path
           sodipodi:nodetypes="cccccc"
           inkscape:connector-curvature="0"
           id="path373"
           d="m -1596.3442,654.71449 c -47.1977,-47.41797 -10.0957,-91.56904 23.9507,-102.16434 20.7185,-9.16459 57.4545,-7.5859 71.5784,-3.09811 37.537,13.64643 53.7763,39.56358 54.291,65.64511 0.3679,14.26094 -13.8432,35.88133 -26.1358,42.06017 -40.4558,8.06917 -86.9645,13.92924 -123.6843,-2.44283 z"
           style="fill:#d40000;stroke-width:0.94701803" />
        <g
           id="g4489">
          <path
             style="fill:#666666;stroke-width:0.46691605"
             d="m -1593.7088,662.52765 c -14.3396,-3.90281 -31.3985,-8.63164 -43.4575,-15.15605 -18.7808,-8.86692 -36.9596,-20.13318 -50.5304,-31.39497 -16.1816,-12.74228 -32.0615,-29.43121 -43.6344,-41.81286 -47.3317,-52.32332 -55.4978,-83.93973 -60.5264,-151.91585 2.1413,-11.83871 14.8258,-7.87313 21.9053,-8.76947 174.2363,-2.83243 256.2857,-3.93723 401.8596,2.51856 39.1958,-0.45432 72.6927,-1.62288 97.0987,1.49908 9.3141,3.12004 10.376,12.96306 2.8261,44.367 -11.7953,43.58421 -29.1008,86.78482 -37.168,97.56989 -20.1513,32.24758 -46.7119,53.0161 -88.6709,76.2632 -29.3632,15.41892 -44.2301,18.02497 -64.271,24.32483 -24.9159,8.578 -48.9803,11.44201 -68.3332,11.62649 -35.5889,-0.50796 -42.2851,-2.6088 -67.0979,-9.11985 z m 81.7249,-0.4353 c 37.1472,-3.06456 46.5878,-10.31432 59.097,-28.60842 9.0059,-15.3748 -0.6013,-52.54061 -22.4803,-68.42114 -17.0068,-13.9931 -37.629,-17.67723 -49.8427,-17.79132 -37.5359,2.30263 -78.1787,8.83379 -87.324,48.52673 -3.5552,18.75714 -1.4022,21.77804 2.2633,35.50967 3.3688,10.09641 11.3657,19.22312 17.4809,21.62358 26.6139,8.09278 46.3763,10.16495 80.8058,9.1609 z m 104.4359,-27.77306 c 8.8548,-4.06334 10.5686,-13.04764 12.5985,-21.24515 6.3126,-26.879 5.304,-47.40494 -5.7377,-71.78383 -16.0579,-32.15983 -55.5314,-55.69262 -95.7387,-60.83731 -46.0679,-1.50971 -67.4958,1.41134 -107.7834,23.33384 -32.1606,17.50021 -51.4732,53.16972 -50.5932,74.81704 1.1232,10.12601 1.5022,34.0696 6.7272,44.67364 2.1129,5.53622 9.2298,11.42997 17.9076,14.81753 4.2976,2.75285 8.7366,4.90136 13.5839,7.35851 2.7008,1.29877 5.3456,1.3534 7.329,-0.62912 -2.7048,-4.53343 -8.1577,-10.84222 -9.8369,-15.66074 -3.2868,-8.88373 -4.6608,-19.31786 -2.4347,-33.56384 3.7976,-14.4541 6.6711,-20.53533 16.6617,-30.182 9.8398,-9.43297 39.2936,-24.38021 83.6236,-24.36639 20.6926,0.52164 38.3374,6.89414 56.9174,24.14447 22.0404,18.07729 24.4869,50.20312 21.6791,59.55111 -2.4278,8.08269 -5.1288,13.6663 -11.4773,19.56966 -1.0914,1.00938 -1.9844,2.0514 -1.9844,2.31558 0,0.74464 1.4805,1.43068 3.1213,1.44636 13.8182,-2.39532 32.7841,-7.80735 45.437,-13.75936 z m 50.5169,-31.86543 c 8.3535,-5.34255 12.5994,-11.49772 14.8419,-24.21862 8.1486,-40.53651 -6.4801,-75.81509 -25.7133,-97.43346 -14.5602,-16.0091 -33.0953,-29.68794 -52.0178,-36.57075 -37.3542,-12.70773 -97.4885,-16.16608 -148.6284,-5.73278 -56.1857,12.76167 -81.822,28.89014 -103.9761,48.87788 -18.6773,19.59605 -29.7279,35.9539 -35.6736,58.72991 -1.1708,8.32556 -1.0134,16.33892 -1.2447,24.7122 -0.4291,6.57058 -0.3177,9.94675 3.0566,15.73955 15.6625,13.19627 25.1931,21.32313 39.1608,30.59272 3.4097,2.21383 4.8952,3.07441 7.8906,4.57106 5.5015,2.44365 3.4704,-0.69276 2.0745,-3.27789 -1.9914,-3.94381 -2.545,-10.99475 -3.5537,-16.20769 -9.187,-59.05145 31.2591,-100.58833 81.2727,-117.92597 37.1186,-12.8124 56.5637,-17.23506 98.7905,-9.28709 61.8969,18.36119 96.382,53.42429 96.7076,109.3355 0.01,11.55118 -0.6259,17.26609 -2.1053,24.71746 -1.472,3.87065 -3.0754,9.69066 -3.7785,13.43846 0.6049,0.49717 1.363,0.6724 2.0584,0.82443 10.5502,-6.47048 19.3879,-12.44079 30.8378,-20.88492 z m 25.1496,-22.80405 c 11.4135,-13.9652 17.4797,-22.97568 24.261,-35.26913 18.3941,-33.1859 42.5149,-107.13176 38.0518,-115.90087 -4.9902,-4.76731 -91.188,-3.95036 -132.6088,-6.68883 -98.26,-7.55267 -192.7446,-2.17045 -287.1706,-1.73914 -37.9709,1.65624 -50.1829,0.61961 -80.7592,-0.33885 -7.1153,0.27224 -12.1084,1.21972 -15.5005,3.16486 -0.5513,2.06608 0.6901,5.48724 1.2151,9.52288 1.8559,17.42326 8.0727,45.42717 13.5441,61.96754 7.7687,19.50946 14.0867,30.4819 23.9764,45.62372 6.8645,11.99897 15.5379,18.81389 23.9635,29.49009 1.1074,1.56818 2.5786,3.88666 4.1957,3.9042 1.9926,0.14705 1.4942,-3.74635 1.6619,-5.08842 -0.4341,-8.79023 0.3886,-15.80609 2.0211,-24.42549 7.7993,-27.6659 25.3695,-53.75451 51.5787,-74.30356 20.2156,-14.4892 65.6167,-38.92003 133.9827,-44.12096 35.0211,-1.52536 52.8144,-0.95099 98.8304,8.2949 21.2945,4.38953 54.2979,22.83089 74.9189,49.44303 16.8101,20.75176 25.4915,61.22747 24.5539,71.61568 -0.4734,6.03408 -1.7081,15.39876 -4.4604,25.08775 -0.012,1.09654 0.2907,1.43468 1.3428,1.43468 1.2512,-0.21364 1.7393,-0.59636 2.4015,-1.67408 z m -169.5157,-188.7046 c -71.3986,-1.51413 -135.6792,-3.01343 -200.7739,-4.34865 -51.0778,-2.7049 -61.0559,-3.24684 -78.4768,-0.39919 -9.5214,0.0761 -10.8508,-0.97617 -12.0488,-6.13481 0.5841,-10.0702 1.8417,-15.41074 5.3305,-27.47874 3.9398,-15.49114 7.8765,-30.51914 15.0817,-51.72895 13.8005,-34.45802 33.5823,-66.11182 50.2543,-84.35425 35.7982,-33.57441 49.0085,-41.03894 86.1612,-58.88966 12.7837,-5.84084 25.4793,-11.0974 35.2449,-14.22304 28.7534,-7.70983 33.875,-8.57803 60.2992,-9.83397 38.6083,-1.42173 66.575,4.64934 85.4956,11.4237 22.1354,8.38623 45.7433,18.44618 64.2459,29.32301 33.6848,19.33974 64.5484,51.51277 74.7139,65.17025 23.2185,33.45377 44.0961,77.19129 49.2605,118.43364 1.3074,5.70412 6.0791,25.10886 3.6792,29.06261 -3.5036,2.8211 -10.4637,1.04341 -15.8866,1.48387 -33.1171,2.5019 -86.6003,2.36778 -91.1457,2.48487 -46.0156,-1.61062 -87.5991,0.14175 -131.4351,0.009 z m 139.6974,-7.29568 c 30.822,-2.13182 59.3809,-0.0316 88.681,-2.70106 5.1101,-0.009 4.148,-3.79637 2.8635,-9.50339 -2.1793,-19.75727 -8.1568,-40.08908 -15.6818,-60.23217 -10.793,-25.96676 -22.8897,-48.50675 -39.5329,-70.51257 -19.6009,-23.58791 -42.9096,-42.15104 -65.7574,-57.38312 -17.8841,-11.25392 -48.6262,-23.61239 -59.2105,-27.81823 -11.1968,-4.6374 -45.016,-13.67871 -65.7671,-14.34794 -27.5962,-0.45565 -50.2035,2.03209 -73.7727,7.85428 -8.7728,2.28027 -38.341,12.47156 -63.9675,25.40672 -21.3081,13.38977 -36.6688,24.21543 -53.5363,39.22751 -24.2925,24.86049 -31.4447,37.99425 -50.0813,72.07039 -8.9328,22.51824 -20.7904,57.64905 -28.0764,85.26822 -1.1459,5.96976 -2.476,7.59113 4.046,6.7694 7.916,-0.91486 16.0469,-1.45089 23.9926,-0.7827 81.9925,3.31941 165.0669,1.64013 241.1621,5.10289 51.1542,2.47283 106.0105,2.39274 154.6387,1.58177 z m -376.4397,-40.28656 c -3.2087,-12.66007 -0.1651,-26.55279 2.0297,-34.71404 6.6462,-18.61389 11.984,-31.42468 37.022,-46.06222 17.7922,-10.93904 28.6627,-11.95149 41.2806,-10.54163 4.2386,1.06032 8.8487,4.07627 13.7672,7.88185 15.5219,10.57443 24.171,34.81629 35.8826,46.91625 11.5366,12.73097 20.9022,20.08568 34.3813,29.96238 2.011,1.9214 4.495,5.58099 7.0931,12.07749 -0.6164,2.49716 -2.6961,4.33435 -5.5962,4.31715 -10.413,-0.92857 -17.6538,-0.20932 -27.7853,0.0427 -23.0013,0.35928 -46.5858,5.90383 -67.3213,9.11526 -47.3422,3.11095 -64.8621,-0.13096 -70.7537,-18.99516 z m 66.5514,12.19471 c 20.5905,-0.8007 26.2395,-5.50079 53.9288,-7.43893 13.2527,-0.48425 25.9261,-1.94142 37.821,-2.715 2.108,-1.63861 2.5049,-3.04062 0.035,-5.90877 -4.534,-2.07568 -7.6191,-3.94169 -12.1158,-7.32249 -8.8473,-6.34369 -16.6535,-15.86395 -23.3876,-23.99453 -8.2795,-8.73773 -13.4022,-22.32434 -21.3541,-31.77191 -14.6848,-15.91338 -21.9849,-21.39685 -35.546,-19.2381 -8.6539,2.45508 -17.5477,5.96124 -24.8411,10.97196 -24.1367,17.84936 -26.8983,25.22568 -33.8004,43.19918 -3.3395,14.4724 -0.9899,25.57239 0.942,33.2748 5.7239,15.26218 34.2059,11.02196 58.3186,10.94379 z m 255.6366,-6.75897 c -23.3086,-5.44613 -45.9335,-2.56605 -66.769,4.5881 -3.3136,0.94083 -11.9821,1.43833 -13.8664,-0.0437 -1.1872,-0.93856 -0.7802,-2.57308 -0.8428,-3.96716 -0.1256,-3.56664 0.9242,-5.20497 5.1374,-7.79876 5.9144,-4.42442 11.9841,-10.22862 16.3931,-15.18954 4.9025,-3.98924 17.8657,-31.87162 26.5939,-51.82768 9.4537,-17.02551 16.6418,-36.33559 29.3647,-47.67381 11.7723,-9.972 30.1263,-8.68253 40.8104,-2.00059 13.2046,6.6504 25.9594,26.93925 35.9836,43.37102 4.1534,8.18925 6.8117,15.05551 9.2029,22.92765 3.0067,10.38009 4.6909,21.91428 1.5788,32.40191 -1.8003,5.391 -4.6957,10.6114 -7.8703,14.66096 -5.7775,6.85659 -10.984,11.1605 -18.8251,13.45034 -19.5124,5.48832 -40.2083,1.70398 -56.8912,-2.89878 z m 71.2377,-12.69722 c 9.0841,-13.00275 8.7624,-30.71333 5.5923,-42.39793 -6.368,-16.00854 -12.8281,-28.93812 -21.3114,-41.32207 -15.1221,-18.45511 -28.844,-33.93168 -51.7988,-24.80244 -8.4494,4.42745 -11.2071,8.54554 -16.0918,15.66189 -10.581,20.30568 -21.0471,42.59633 -29.6505,61.05928 -5.5715,12.87133 -11.7573,22.4628 -17.6604,29.33102 -4.6488,4.03801 -8.5124,8.12323 -12.7363,11.51399 -0.049,0.61752 0.2567,1.59016 0.9178,1.79335 1.2716,1.16318 19.7172,-3.06676 27.1444,-4.64648 12.4007,-2.62245 23.2621,-2.74546 35.719,-1.57954 19.6521,4.93292 38.5162,8.64277 56.9638,7.96111 9.3222,-1.63548 17.3335,-5.5777 22.9119,-12.57218 z m -189.8344,-0.37428 c -3.4274,-6.05421 -5.5813,-8.85487 -9.7761,-13.12686 -7.7021,-7.22403 -15.2553,-14.15888 -22.9006,-19.05813 -17.9592,-11.66808 -31.4419,-29.06844 -33.7368,-32.45747 -4.9814,-7.3681 -12.6244,-19.18021 -14.424,-40.34256 -0.2544,-32.49826 4.2851,-39.96886 21.1145,-50.52493 15.0536,-8.86979 26.8371,-11.49783 41.7533,-13.47415 32.313,-3.2951 53.1518,-1.85657 72.587,6.248 22.5221,10.05924 27.7601,16.71285 29.2475,47.49392 -1.6605,16.40038 -4.0772,21.59956 -7.8011,28.7985 -6.2772,10.46967 -12.2513,18.33872 -20.7123,27.05334 -12.1264,11.56508 -23.4191,17.27469 -28.7954,24.51276 -4.2178,5.06325 -6.3519,8.53702 -8.7538,13.21893 -3.5264,8.2098 -5.6509,19.61997 -6.5962,23.34192 -1.2962,2.38735 -2.1903,2.98468 -4.6692,2.98468 -3.0078,-0.48138 -4.2319,-1.56611 -6.5368,-4.66795 z m 7.714,-5.34546 c 2.0165,-7.57059 3.6176,-15.72776 5.7417,-20.8459 1.5535,-4.33481 9.457,-13.34247 17.9779,-21.42293 12.3726,-9.73698 22.2146,-16.73684 30.7078,-28.37676 9.4676,-14.64849 16.1549,-28.45915 16.0413,-43.51271 -0.8028,-13.31353 -3.557,-27.59684 -29.39,-38.82697 -10.5924,-3.583 -21.2948,-4.96991 -32.6874,-5.1659 -26.6094,0.4534 -33.9272,-0.11031 -60.4827,7.53458 -15.2377,5.97549 -19.9551,10.60777 -24.273,17.2415 -9.4527,19.35321 -6.184,51.15305 8.1068,73.11764 8.3697,13.33299 22.313,23.56297 32.9773,30.73204 14.963,10.2952 22.8085,18.32744 29.7709,29.50013 1.0978,1.84654 2.2696,3.64179 3.4895,5.40823 1.3016,0.1763 1.5464,-2.86497 2.0199,-5.38295 z"
             id="path4149"
             inkscape:connector-curvature="0"
             sodipodi:nodetypes="ccccccccccccccccccccccccccsccccccccccscscccccccccccccccccccccccccccccccccccccccccccccccccccccccccccccccccccccccccccccccccccccccccccccccccccccccccccccccccccccccccccccccccccccccccccccccccccccccccccccccccc" />
        </g>
      </g>
      <g
         id="text633"
         style="font-style:normal;font-weight:normal;font-size:35.46789932px;line-height:1.25;font-family:sans-serif;letter-spacing:0px;word-spacing:0px;fill:#000000;fill-opacity:1;stroke:none;stroke-width:0.88669753"
         transform="scale(0.94581065,1.0572941)"
         aria-label="esourceful">
        <path
           id="path77"
           style="font-size:165.51686096px;stroke-width:0.88669753"
           d="m -1268.0019,207.5129 q -0.9698,4.44503 -1.9396,11.31463 -7.7586,1.93965 -13.4968,2.5862 -5.6573,0.72737 -11.3146,0.72737 -10.1024,0 -18.1842,-2.42457 -8.0011,-2.42456 -13.7392,-8.40515 -5.7382,-6.06141 -8.2435,-13.82001 -2.5054,-7.7586 -2.5054,-16.40621 0,-12.042 4.6067,-22.30599 4.6066,-10.3448 13.82,-16.24457 9.2941,-5.89977 23.5182,-5.89977 7.3545,0 14.0625,2.1821 6.708,2.10129 11.153,6.46551 4.445,4.36421 6.8696,10.82971 2.4245,6.38469 2.4245,13.98165 0,2.90948 -0.4849,5.65732 h -61.6647 q -0.3233,4.44503 -0.3233,6.78877 0,8.48598 3.5561,15.67885 3.556,7.11205 10.5064,10.82971 6.9504,3.63685 16.0021,3.63685 10.4256,0 25.3771,-5.1724 z m -54.4718,-38.46974 h 48.1679 q -0.081,-5.09159 -0.6465,-7.92024 -0.5657,-2.82866 -2.1013,-5.81895 -1.5355,-3.07112 -4.2026,-5.25323 -2.5862,-2.26292 -6.3038,-3.39438 -3.6369,-1.21229 -7.9203,-1.21229 -4.6066,0 -8.8092,1.2931 -4.1218,1.2931 -7.3545,3.55603 -3.152,2.26293 -5.4149,5.33404 -2.1821,2.9903 -3.3136,5.81895 -1.0506,2.82866 -2.1012,7.59697 z" />
        <path
           id="path79"
           style="font-size:165.51686096px;stroke-width:0.88669753"
           d="m -1250.8683,218.82753 -0.4849,-5.89977 q 0,-0.96983 -0.6466,-6.14223 12.4461,5.41486 22.9526,5.41486 5.4956,0 9.2941,-1.45474 3.7985,-1.45474 5.6573,-4.2834 1.9397,-2.90947 1.9397,-5.98059 0,-1.69719 -0.5657,-3.39439 -0.485,-1.69719 -1.5356,-3.23275 -1.0506,-1.61637 -3.1519,-3.4752 -2.0205,-1.93966 -8.5668,-7.19288 -6.4655,-5.25322 -9.8599,-8.16269 -3.3136,-2.9903 -5.7381,-6.06141 -2.3438,-3.15193 -3.4753,-6.30387 -1.1314,-3.15193 -1.1314,-6.38468 0,-5.1724 3.2327,-10.02153 3.3136,-4.84912 9.4558,-7.19287 6.2231,-2.42456 14.5474,-2.42456 9.2942,0 20.4472,2.1821 0.3232,6.30387 0.8081,11.55709 -9.0517,-3.71766 -17.8609,-3.71766 -4.7683,0 -8.8901,1.2931 -4.0409,1.21228 -5.9806,3.71766 -1.8588,2.50538 -1.8588,5.49568 0,1.93965 0.6466,3.71766 0.6465,1.77801 2.2629,3.8793 1.6972,2.02047 4.0409,4.04094 2.3438,2.02047 9.2942,7.59697 7.0312,5.57649 9.6174,8.24351 2.5862,2.66702 4.4451,5.49568 1.8588,2.82866 2.667,5.65731 0.889,2.74784 0.889,5.65732 0,5.65731 -3.3944,10.50644 -3.3136,4.84913 -9.9407,7.51615 -6.6272,2.66702 -14.8707,2.66702 -3.4752,0 -8.1627,-0.48492 -4.6875,-0.40409 -8.001,-1.05064 -3.2328,-0.56573 -8.0819,-1.77801 z" />
        <path
           id="path81"
           style="font-size:165.51686096px;stroke-width:0.88669753"
           d="m -1140.7123,136.63483 q 8.486,0 16.1637,2.42456 7.6778,2.42456 13.2543,7.67778 5.6573,5.25323 8.5668,13.25428 2.9095,8.00106 2.9095,16.89113 0,9.61743 -3.1519,18.42668 -3.0712,8.80925 -8.7285,14.95148 -5.5765,6.14222 -13.7392,9.0517 -8.0818,2.82866 -17.376,2.82866 -8.6476,0 -16.3254,-2.5862 -7.6778,-2.58621 -13.3351,-8.08188 -5.5765,-5.49568 -8.486,-13.41592 -2.9094,-8.00106 -2.9094,-16.72949 0,-13.17346 5.334,-23.6799 5.334,-10.58726 15.6788,-15.75966 10.3448,-5.25322 22.1444,-5.25322 z m -0.3233,10.26398 q -8.2435,0 -15.1939,4.12176 -6.8696,4.12176 -10.1832,12.44609 -3.3136,8.24352 -3.3136,18.02259 0,8.56679 2.7479,15.43639 2.7478,6.78877 9.0517,10.99135 6.3039,4.20258 15.1939,4.20258 6.0614,0 11.4763,-2.02047 5.4148,-2.10129 9.4558,-6.8696 4.0409,-4.76831 5.9806,-11.6379 1.9396,-6.95042 1.9396,-14.54738 0,-7.11206 -1.9396,-13.3351 -1.9397,-6.22305 -5.9806,-9.94071 -3.9601,-3.79848 -9.0517,-5.33404 -5.0108,-1.53556 -10.1832,-1.53556 z" />
        <path
           id="path83"
           style="font-size:165.51686096px;stroke-width:0.88669753"
           d="m -1006.9572,220.36308 q -3.9601,-0.16163 -6.7888,-0.16163 -3.2328,0 -6.708,0.16163 l 0.4041,-15.59802 q -1.9396,3.63684 -3.3944,5.65731 -1.3739,1.93965 -3.4752,3.8793 -2.1013,1.85884 -4.3642,3.15194 -2.1821,1.2931 -5.1724,2.34374 -2.9903,0.96983 -7.0312,1.61638 -3.9601,0.72737 -8.486,0.72737 -9.8599,0 -16.8911,-2.9903 -6.9504,-2.99029 -10.5873,-8.48597 -3.556,-5.49568 -3.556,-15.03229 0,-1.45474 0.1616,-4.92995 0.1617,-3.47521 0.485,-9.0517 l 1.3739,-26.91266 0.2424,-8.64761 q 0.081,-2.99029 0.081,-7.59696 l 7.4354,0.0808 q 2.2629,0 6.9504,-0.0808 -1.1315,14.14329 -2.1821,30.95359 -0.9698,16.81031 -0.9698,21.4978 0,7.11205 2.2629,11.39544 2.3437,4.20258 7.6778,6.54633 5.4148,2.26292 12.2036,2.26292 5.9806,0 11.4763,-2.10129 4.6875,-1.85883 7.9202,-5.01076 3.4752,-3.47521 5.819,-8.97089 1.6972,-4.04093 2.5862,-10.42562 0.5657,-4.60667 1.1314,-16.56785 0.6466,-14.54738 0.889,-29.57967 l 7.5162,0.0808 q 2.4245,0 6.7888,-0.0808 -1.1315,14.54738 -2.6671,44.20787 -0.889,16.3254 -1.1314,37.66155 z" />
        <path
           id="path85"
           style="font-size:165.51686096px;stroke-width:0.88669753"
           d="m -985.45942,220.36308 q 2.90947,-46.63243 2.90947,-74.43409 l -0.0808,-7.43533 q 4.12175,0.0808 6.78877,0.0808 3.07112,0 6.8696,-0.0808 l -0.64655,13.41592 q 2.99029,-5.01077 5.25322,-7.51615 2.34374,-2.5862 5.25322,-4.20258 2.90948,-1.69719 6.54632,-2.5862 3.71767,-0.96982 7.67779,-0.96982 3.39438,0 6.70795,0.80818 0.0808,5.33404 0.56574,11.96118 -5.01077,-1.37392 -8.97089,-1.37392 -4.76831,0 -8.56679,1.61638 -3.79848,1.53556 -6.8696,4.76831 -2.99029,3.15193 -4.92994,7.59696 -1.61638,3.55603 -2.50538,9.21334 -0.80819,5.65732 -1.2931,20.60879 -0.32328,10.91054 -0.32328,23.11417 v 5.41486 q -4.36421,-0.16163 -7.03123,-0.16163 -2.42457,0 -7.35451,0.16163 z" />
        <path
           id="path87"
           style="font-size:165.51686096px;stroke-width:0.88669753"
           d="m -867.14073,208.07863 q -0.16164,1.2931 -0.88901,4.84913 -0.64655,3.4752 -1.13146,6.86959 -5.89977,1.37392 -11.39545,1.85883 -5.41486,0.48492 -9.53662,0.48492 -8.72842,0 -16.16375,-2.34375 -7.35451,-2.34374 -12.85019,-7.67778 -5.49568,-5.41486 -8.08188,-13.3351 -2.5862,-8.00106 -2.5862,-16.81031 0,-11.88036 4.20258,-22.54844 4.20258,-10.66808 13.25428,-16.72948 9.0517,-6.06141 24.64973,-6.06141 11.47626,0 22.3868,3.07111 0.48491,6.8696 0.88901,11.31463 -7.67779,-2.42456 -12.52692,-3.23275 -4.84912,-0.88901 -8.97088,-0.88901 -7.11205,0 -12.76937,2.5862 -5.57649,2.5862 -9.53661,7.35451 -3.96012,4.76831 -5.73814,11.31463 -1.69719,6.54632 -1.69719,13.3351 0,9.13252 2.82866,16.00212 2.82865,6.86959 9.85989,10.66808 7.11205,3.71766 15.9213,3.71766 8.56679,0 19.88142,-3.79848 z" />
        <path
           id="path89"
           style="font-size:165.51686096px;stroke-width:0.88669753"
           d="m -782.11938,207.5129 q -0.96983,4.44503 -1.93965,11.31463 -7.7586,1.93965 -13.49674,2.5862 -5.65731,0.72737 -11.31463,0.72737 -10.10234,0 -18.18422,-2.42457 -8.00106,-2.42456 -13.73919,-8.40515 -5.73814,-6.06141 -8.24352,-13.82001 -2.50538,-7.7586 -2.50538,-16.40621 0,-12.042 4.60667,-22.30599 4.60667,-10.3448 13.82001,-16.24457 9.29416,-5.89977 23.51826,-5.89977 7.35451,0 14.06247,2.1821 6.70796,2.10129 11.15299,6.46551 4.44504,4.36421 6.8696,10.82971 2.42456,6.38469 2.42456,13.98165 0,2.90948 -0.48491,5.65732 h -61.66473 q -0.32327,4.44503 -0.32327,6.78877 0,8.48598 3.55602,15.67885 3.55603,7.11205 10.50644,10.82971 6.95042,3.63685 16.00212,3.63685 10.42562,0 25.3771,-5.1724 z m -54.47186,-38.46974 h 48.16799 q -0.0808,-5.09159 -0.64655,-7.92024 -0.56573,-2.82866 -2.10128,-5.81895 -1.53556,-3.07112 -4.20258,-5.25323 -2.5862,-2.26292 -6.30387,-3.39438 -3.63684,-1.21229 -7.92024,-1.21229 -4.60667,0 -8.80924,1.2931 -4.12176,1.2931 -7.35451,3.55603 -3.15193,2.26293 -5.41486,5.33404 -2.18211,2.9903 -3.31357,5.81895 -1.05064,2.82866 -2.10129,7.59697 z" />
        <path
           id="path91"
           style="font-size:165.51686096px;stroke-width:0.88669753"
           d="m -759.0052,220.36308 0.88901,-14.87065 2.18211,-56.89642 h -10.10235 q 0.4041,-3.96012 0.64655,-9.94071 h 10.42562 q 0.16164,-7.51615 0.32328,-11.47627 0.24246,-4.04094 1.05064,-7.19287 0.88901,-3.23275 2.50539,-5.41486 1.69719,-2.26293 4.60667,-4.12176 2.99029,-1.85883 6.86959,-2.66702 3.96012,-0.889 9.05171,-0.889 6.70795,0 15.59802,2.02047 0.16164,4.84912 0.80819,10.26398 -7.67779,-2.66702 -13.98165,-2.66702 -3.07111,0 -5.65732,0.80819 -2.5862,0.80819 -4.20257,2.18211 -1.53556,1.2931 -2.5862,3.4752 -0.96983,2.18211 -1.37392,5.17241 -0.32328,2.99029 -0.32328,7.03123 l -0.0808,3.47521 h 22.46762 q -0.40409,3.4752 -0.72736,9.94071 h -21.65944 l -1.45474,41.29839 -0.72736,30.46868 q -5.01077,-0.16163 -7.35451,-0.16163 -2.26293,0 -7.19288,0.16163 z" />
        <path
           id="path93"
           style="font-size:165.51686096px;stroke-width:0.88669753"
           d="m -635.51413,220.36308 q -3.96012,-0.16163 -6.78878,-0.16163 -3.23275,0 -6.70795,0.16163 l 0.40409,-15.59802 q -1.93965,3.63684 -3.39439,5.65731 -1.37392,1.93965 -3.47521,3.8793 -2.10129,1.85884 -4.36421,3.15194 -2.18211,1.2931 -5.1724,2.34374 -2.9903,0.96983 -7.03124,1.61638 -3.96012,0.72737 -8.48597,0.72737 -9.85989,0 -16.89112,-2.9903 -6.95042,-2.99029 -10.58726,-8.48597 -3.55603,-5.49568 -3.55603,-15.03229 0,-1.45474 0.16164,-4.92995 0.16163,-3.47521 0.48491,-9.0517 l 1.37392,-26.91266 0.24246,-8.64761 q 0.0808,-2.99029 0.0808,-7.59696 l 7.43533,0.0808 q 2.26293,0 6.95042,-0.0808 -1.13147,14.14329 -2.18211,30.95359 -0.96983,16.81031 -0.96983,21.4978 0,7.11205 2.26293,11.39544 2.34375,4.20258 7.67778,6.54633 5.41486,2.26292 12.20364,2.26292 5.98059,0 11.47627,-2.10129 4.68749,-1.85883 7.92024,-5.01076 3.47521,-3.47521 5.81895,-8.97089 1.69719,-4.04093 2.5862,-10.42562 0.56573,-4.60667 1.13146,-16.56785 0.64655,-14.54738 0.88901,-29.57967 l 7.51615,0.0808 q 2.42456,0 6.78877,-0.0808 -1.13146,14.54738 -2.66702,44.20787 -0.889,16.3254 -1.13146,37.66155 z" />
        <path
           id="path95"
           style="font-size:165.51686096px;stroke-width:0.88669753"
           d="m -592.59933,220.36308 h -15.19393 V 94.609062 h 15.19393 z" />
      </g>
      <g
         id="text637"
         style="font-style:normal;font-weight:normal;font-size:192.74958801px;line-height:1.25;font-family:sans-serif;letter-spacing:0px;word-spacing:0px;fill:#000000;fill-opacity:1;stroke:none;stroke-width:0.96374792"
         transform="scale(1.0279978,0.97276473)"
         aria-label=" i n d">
        <path
           id="path98"
           style="font-style:normal;font-variant:normal;font-weight:normal;font-stretch:normal;font-size:250px;font-family:'Eras Medium ITC';-inkscape-font-specification:'Eras Medium ITC';stroke-width:0.96374792"
           d="m -1125.5645,284.64038 q 0.3663,-11.47461 0.3663,-17.33398 6.7138,0.24414 11.8408,0.24414 6.4697,0 11.7187,-0.24414 -0.2441,3.78418 -0.7324,17.33398 -6.5918,-0.12207 -11.3525,-0.12207 -4.7608,0 -11.8409,0.12207 z m -5.4931,150.26856 2.0752,-30.76172 2.3193,-52.49024 0.9766,-40.40527 11.2304,0.12207 10.9864,-0.12207 q -1.3428,19.04297 -2.4414,39.91699 -1.0987,20.75195 -1.8311,45.41016 -0.6103,24.6582 -0.6103,38.33008 -7.6905,-0.24415 -10.9864,-0.24415 -3.0517,0 -11.7187,0.24415 z" />
        <path
           id="path100"
           style="font-style:normal;font-variant:normal;font-weight:normal;font-stretch:normal;font-size:250px;font-family:'Eras Medium ITC';-inkscape-font-specification:'Eras Medium ITC';stroke-width:0.96374792"
           d="m -1013.748,434.90894 q 5.8593,-76.53809 6.1035,-123.65723 l 10.9863,0.12207 q 4.02832,0 10.62011,-0.12207 l -1.58691,24.41406 q 3.05176,-5.12695 4.88281,-7.8125 1.83106,-2.80762 4.88282,-5.85937 3.05175,-3.05176 7.20214,-5.61524 4.15039,-2.68554 9.76563,-4.39453 5.61523,-1.83105 11.35254,-2.68555 5.85937,-0.85449 11.59668,-0.85449 10.49804,0 20.26367,2.56348 9.76562,2.56347 15.99121,8.42285 6.34766,5.7373 8.42285,12.93945 2.19727,7.20215 2.19727,15.50293 0,1.58692 -0.12207,6.10352 -0.12207,4.5166 -0.48828,11.84082 l -2.44141,51.14746 q -0.24414,7.32422 -0.36621,17.94434 -5.49317,-0.24415 -10.37598,-0.24415 -5.98144,0 -11.23047,0.24415 1.22071,-14.77051 1.83106,-28.44239 l 1.58691,-28.44238 q 0.73242,-14.64844 0.73242,-22.09473 0,-10.74218 -3.66211,-17.08984 -3.6621,-6.46973 -11.71875,-9.8877 -8.05664,-3.54003 -18.0664,-3.54003 -14.16016,0 -24.29199,6.71386 -9.27735,6.22559 -14.4043,17.7002 -3.54004,8.17871 -5.00488,24.16992 -1.83106,19.16504 -2.56348,60.91309 -6.83594,-0.24415 -10.62008,-0.24415 -3.7842,0 -11.4746,0.24415 z" />
        <path
           id="path102"
           style="font-style:normal;font-variant:normal;font-weight:normal;font-stretch:normal;font-size:250px;font-family:'Eras Medium ITC';-inkscape-font-specification:'Eras Medium ITC';stroke-width:0.96374792"
           d="m -684.1582,434.90894 q -7.20215,-0.24415 -10.00977,-0.24415 -3.05176,0 -10.62012,0.24415 l 1.46485,-26.36719 q -3.90625,6.83594 -6.71387,10.62012 -2.80762,3.6621 -6.71387,6.958 -3.78418,3.2959 -8.91113,5.98145 -5.00488,2.56347 -11.23047,4.02832 -6.22558,1.46484 -13.18359,1.46484 -11.84082,0 -22.2168,-4.27246 -10.2539,-4.27246 -17.45605,-12.20703 -7.20215,-7.93457 -10.37598,-18.43262 -3.17383,-10.62011 -3.17383,-22.09472 0,-15.38086 5.98145,-30.27344 5.98144,-14.89258 16.8457,-24.53613 10.98633,-9.76563 24.78027,-13.54981 13.79395,-3.78418 29.29688,-3.78418 10.74219,0 25.51269,2.44141 0.61036,-13.30567 0.61036,-22.09473 0,-12.69531 -0.12207,-20.50781 l 11.10839,0.12207 q 4.15039,0 11.1084,-0.12207 l -3.54004,68.84766 -2.4414,78.85742 z m -17.57813,-108.64258 q -7.32422,-2.19727 -12.57324,-2.80762 -5.12695,-0.61035 -10.00977,-0.61035 -11.71875,0 -22.46093,3.41797 -10.62012,3.2959 -18.79883,10.98633 -8.05664,7.69043 -12.45117,19.53125 -4.39453,11.84082 -4.39453,23.19335 0,11.35254 4.15039,21.24024 4.15039,9.76562 12.81738,15.38086 8.78906,5.49316 20.38574,5.49316 6.95801,0 12.69531,-1.83105 5.73731,-1.95313 10.37598,-5.61524 4.76074,-3.66211 8.91113,-9.88769 4.15039,-6.22559 6.5918,-14.4043 2.0752,-7.20215 3.05176,-19.40918 0.48828,-5.98144 1.09863,-23.07129 z" />
      </g>
      <path
         sodipodi:nodetypes="ccccccccccc"
         inkscape:connector-curvature="0"
         id="path58"
         d="m -1453.8943,233.8443 c 15.813,-132.83507 -58.8899,-185.57311 -110.7105,-250.8077 57.6063,0.78163 231.2211,-19.1934 238.8637,40.15766 3.2917,68.76952 -73.8694,74.47126 -76.0502,83.92113 10.7969,41.11685 109.7355,95.65296 129.2171,127.02306 -8.665,-0.3793 -31.5444,-1.75314 -38.588,-1.57604 -51.469,-58.8743 -94.7398,-75.44687 -133.3373,-141.84691 42.9435,2.50536 99.6227,-37.53465 88.1352,-67.66915 -7.2929,-19.13094 -118.4629,-16.40026 -156.6554,-15.70586 63.7719,48.66072 90.7667,165.16297 86.8488,226.46317 -10.1884,-0.5416 -15.3039,0.57864 -27.7234,0.0406 z"
         style="font-style:normal;font-variant:normal;font-weight:normal;font-stretch:normal;font-size:192px;line-height:1.25;font-family:'Eras Medium ITC';-inkscape-font-specification:'Eras Medium ITC';letter-spacing:0px;word-spacing:0px;fill:#000000;fill-opacity:1;stroke:none;stroke-width:0.9375" />
      <text
         id="text4423"
         y="423.49606"
         x="-493.95312"
         style="font-style:normal;font-weight:normal;font-size:37.5px;line-height:1.25;font-family:sans-serif;letter-spacing:0px;word-spacing:0px;fill:#000000;fill-opacity:1;stroke:none;stroke-width:0.9375"
         xml:space="preserve"><tspan
           style="font-size:180px;stroke-width:0.9375"
           y="423.49606"
           x="-493.95312"
           id="tspan4421"
           sodipodi:role="line"> </tspan></text>
      <g
         transform="matrix(1.2800337,0,0,1.4333583,58.56049,-432.8299)"
         id="text4662"
         style="font-style:normal;font-weight:normal;font-size:37.5px;line-height:1.25;font-family:sans-serif;letter-spacing:0px;word-spacing:0px;fill:#000000;fill-opacity:1;stroke:none;stroke-width:0.9375"
         aria-label="M">
        <path
           sodipodi:nodetypes="cccccccccccccc"
           inkscape:connector-curvature="0"
           id="path4708"
           style="font-style:normal;font-variant:normal;font-weight:normal;font-stretch:normal;font-size:250px;font-family:'Eras Medium ITC';-inkscape-font-specification:'Eras Medium ITC';stroke-width:0.9375"
           d="m -1260.6044,654.67468 c 46.2336,-39.39279 80.3239,-99.07844 79.187,-170.47406 10.7155,0.17177 21.9944,0.12664 31.4942,0 22.9459,47.01678 29.1678,94.98151 24.988,147.48847 32.5318,-43.42046 43.078,-103.07945 58.4594,-146.12797 11.1,0.17016 23.3823,-0.54241 33.4573,-0.68025 -1.7624,55.63394 1.4306,118.48308 2.2321,169.47078 -7.2913,-0.36273 -19.2419,-0.0858 -25.378,0.11671 7.1917,-36.52477 7.6239,-107.22757 7.2017,-152.603 -18.1667,57.14475 -40.7772,123.77511 -70.1753,153.00856 -15.4492,-0.49142 -16.0574,-0.93048 -31.5039,-0.48101 11.707,-57.76087 8.8033,-103.40904 -11.5582,-149.07412 -0.5717,71.90148 -31.8571,108.68541 -67.1895,148.87488 -7.0141,-0.3595 -25.5822,0.31132 -31.2148,0.48101 z" />
      </g>
    </g>
    <text
       xml:space="preserve"
       style="font-style:normal;font-weight:normal;font-size:37.5px;line-height:1.25;font-family:sans-serif;letter-spacing:0px;word-spacing:0px;fill:#000000;fill-opacity:1;stroke:none;stroke-width:0.9375"
       x="-1617.5067"
       y="995.54114"
       id="text124"><tspan
         sodipodi:role="line"
         id="tspan122"
         x="-1617.5067"
         y="1029.7535"
         style="stroke-width:0.9375" /></text>
    <text
       xml:space="preserve"
       style="font-style:normal;font-weight:normal;font-size:37.5px;line-height:1.25;font-family:sans-serif;letter-spacing:0px;word-spacing:0px;fill:#000000;fill-opacity:1;stroke:none;stroke-width:0.9375"
       x="-942.85718"
       y="503.25507"
       id="text78"><tspan
         sodipodi:role="line"
         id="tspan76"
         x="-942.85718"
         y="537.46747"
         style="stroke-width:0.9375" /></text>
    <text
       xml:space="preserve"
       style="font-style:normal;font-weight:normal;font-size:37.5px;line-height:1.25;font-family:sans-serif;letter-spacing:0px;word-spacing:0px;fill:#000000;fill-opacity:1;stroke:none;stroke-width:0.9375"
       x="-787.5"
       y="524.68365"
       id="text82"><tspan
         sodipodi:role="line"
         id="tspan80"
         x="-787.5"
         y="558.89606"
         style="stroke-width:0.9375" /></text>
  </g>
</svg>
