<?xml version="1.0" encoding="UTF-8" standalone="no"?>
<svg
   xmlns:dc="http://purl.org/dc/elements/1.1/"
   xmlns:cc="http://creativecommons.org/ns#"
   xmlns:rdf="http://www.w3.org/1999/02/22-rdf-syntax-ns#"
   xmlns:svg="http://www.w3.org/2000/svg"
   xmlns="http://www.w3.org/2000/svg"
   xmlns:sodipodi="http://sodipodi.sourceforge.net/DTD/sodipodi-0.dtd"
   xmlns:inkscape="http://www.inkscape.org/namespaces/inkscape"
   width="210mm"
   height="297mm"
   viewBox="0 0 210 297"
   version="1.1"
   id="svg3133"
   inkscape:version="1.0.2-2 (e86c870879, 2021-01-15)"
   sodipodi:docname="phone logo orange.svg"
   inkscape:export-filename="C:\Users\jenny\Documents\GitHub\Jenny-Christie-website\Resource material\phone logo orange.png"
   inkscape:export-xdpi="8464.9502"
   inkscape:export-ydpi="8464.9502">
  <defs
     id="defs3127" />
  <sodipodi:namedview
     id="base"
     pagecolor="#ffffff"
     bordercolor="#666666"
     borderopacity="1.0"
     inkscape:pageopacity="0.0"
     inkscape:pageshadow="2"
     inkscape:zoom="2.8"
     inkscape:cx="466.33561"
     inkscape:cy="634.14992"
     inkscape:document-units="mm"
     inkscape:current-layer="layer1"
     inkscape:document-rotation="0"
     showgrid="false"
     inkscape:window-width="1624"
     inkscape:window-height="1020"
     inkscape:window-x="76"
     inkscape:window-y="0"
     inkscape:window-maximized="0" />
  <metadata
     id="metadata3130">
    <rdf:RDF>
      <cc:Work
         rdf:about="">
        <dc:format>image/svg+xml</dc:format>
        <dc:type
           rdf:resource="http://purl.org/dc/dcmitype/StillImage" />
        <dc:title />
      </cc:Work>
    </rdf:RDF>
  </metadata>
  <g
     inkscape:label="Layer 1"
     inkscape:groupmode="layer"
     id="layer1">
    <path
       d="m 134.70742,176.88108 c -0.13074,0 -0.31439,-0.0473 -0.5894,-0.20094 -0.33442,-0.18754 -0.59309,-0.36067 -0.92571,-0.69242 -0.32069,-0.32049 -0.47674,-0.52798 -0.69516,-0.92543 -0.24674,-0.44875 -0.20468,-0.68398 -0.15767,-0.78451 0.056,-0.12016 0.13865,-0.19203 0.24548,-0.26335 a 1.1808206,1.1808204 0 0 1 0.19182,-0.10181 c 0.007,-0.003 0.0129,-0.006 0.0185,-0.008 0.0332,-0.0149 0.0834,-0.0375 0.14702,-0.0134 0.0425,0.0159 0.0804,0.0486 0.13972,0.10716 0.1217,0.12003 0.288,0.38733 0.34935,0.51861 0.0412,0.0885 0.0684,0.14689 0.0685,0.21239 0,0.0767 -0.0386,0.13583 -0.0854,0.19966 -0.009,0.012 -0.0175,0.0234 -0.0259,0.0346 -0.051,0.067 -0.0622,0.0863 -0.0548,0.12091 0.0149,0.0694 0.12632,0.2762 0.30938,0.45885 0.18305,0.18265 0.38385,0.287 0.45357,0.30187 0.036,0.008 0.0558,-0.004 0.12491,-0.0567 0.01,-0.008 0.0201,-0.0154 0.0307,-0.0232 0.0714,-0.0531 0.1278,-0.0907 0.20268,-0.0907 h 4e-4 c 0.0652,0 0.12097,0.0283 0.21339,0.0749 0.12057,0.0608 0.39591,0.22497 0.51667,0.3468 0.0587,0.0592 0.0915,0.097 0.1075,0.13938 0.0241,0.0638 0.001,0.11387 -0.0134,0.14736 -0.002,0.006 -0.005,0.0117 -0.008,0.0184 a 1.1820931,1.1820931 0 0 1 -0.10241,0.19141 c -0.0712,0.1065 -0.14333,0.18895 -0.26376,0.24501 a 0.45156504,0.45156504 0 0 1 -0.19792,0.0433 z"
       id="path1851"
       style="fill:#ffa500;fill-opacity:1;stroke-width:0.00669776"
       inkscape:transform-center-x="-0.93544335"
       inkscape:transform-center-y="6.1471991" />
  </g>
</svg>
