<svg version="1" xmlns="http://www.w3.org/2000/svg" width="341.333" height="341.333" viewBox="0 0 256.000000 256.000000"><path d="M112.5.6c-1.1.3-4.7 1-8 1.6-3.3.7-6.2 1.3-6.5 1.3-10.5 2.1-35.2 14-46.3 22.4-15.8 11.8-23.8 21.3-33 39C11.4 79 2.2 107.7 2.4 116l.1 3.5 14.5.1c8 0 21.5.4 30 .7 57.3 2.3 170.5 2.7 206.3.7 1.2 0 .8-4.4-1.9-17.1-6.9-32.5-21-56.2-44.9-75C191.7 17.3 169.9 6.8 151 2.3 144.9.9 117.5-.3 112.5.6zM45.7 132.7c-.2.1-9.2.3-20.1.3-17.9.1-19.9.3-21.6 2-1.1 1.1-1.7 2.9-1.5 4.2.2 1.3.6 5.2.9 8.8 2.6 28 10.9 44.5 33.9 67.8 19.8 20.1 37.8 30.6 62.7 36.7 10.1 2.5 13.6 2.9 26.5 3 17.2 0 20.8-.6 42.5-7.7 34.9-11.3 59.4-31.1 70.3-56.9 7.7-18.2 14.8-43.2 14-50-.7-6.4-.5-6.3-30.6-6.5-14.9-.1-33.3-.5-40.7-.9-12.7-.7-135.7-1.4-136.3-.8z"/></svg>